<svg width="385" height="366" viewBox="0 0 385 366" fill="none" xmlns="http://www.w3.org/2000/svg">
<path d="M327.319 332.959C252.721 375.927 131.837 375.927 57.2635 332.959C-17.3103 289.991 -17.3342 220.097 57.2635 177.033C131.861 133.97 252.769 134.065 327.343 177.033C401.917 220.001 401.893 289.896 327.319 332.959Z" fill="white" stroke="white" stroke-width="0.748527" stroke-miterlimit="10"/>
<path d="M327.557 332.959C252.96 375.927 132.077 375.927 57.5034 332.959C-17.0699 289.991 -17.0938 220.096 57.5034 177.033" stroke="url(#paint0_linear_1353_17077)" stroke-width="0.748527" stroke-miterlimit="10"/>
<path fill-rule="evenodd" clip-rule="evenodd" d="M327.295 150.739C252.722 107.771 131.79 107.771 57.2171 150.739C18.7036 172.93 0.0804093 202.309 1.34761 231.462L1.34761 252.196C1.26434 254.082 1.26434 255.969 1.34761 257.854L1.34761 257.947H1.35177C2.59447 285.194 21.2248 312.215 57.2347 332.959C131.822 375.927 252.728 375.927 327.339 332.959C363.318 312.187 381.947 285.172 383.222 257.947H383.222V257.93C383.315 255.942 383.315 253.952 383.222 251.963V227.111H383.201C382.489 199.445 363.853 171.885 327.295 150.739Z" fill="white"/>
<path d="M57.2171 150.739L57.404 151.063L57.2171 150.739ZM327.295 150.739L327.482 150.415L327.482 150.415L327.295 150.739ZM1.34761 231.462H1.72187V231.453L1.72152 231.445L1.34761 231.462ZM1.34761 252.196L1.72151 252.213L1.72187 252.205V252.196H1.34761ZM1.34761 257.854H1.72187V257.846L1.72151 257.838L1.34761 257.854ZM1.34761 257.947H0.973345L0.973345 258.321H1.34761V257.947ZM1.35177 257.947L1.72564 257.93L1.70935 257.573H1.35177V257.947ZM57.2347 332.959L57.4215 332.635L57.2347 332.959ZM327.339 332.959L327.526 333.284L327.527 333.283L327.339 332.959ZM383.222 257.947V257.573H382.865L382.848 257.929L383.222 257.947ZM383.222 257.947V258.321H383.597V257.947H383.222ZM383.222 257.93L382.849 257.913L382.848 257.922V257.93H383.222ZM383.222 251.963H382.848V251.972L382.849 251.981L383.222 251.963ZM383.222 227.111H383.597V226.737H383.222V227.111ZM383.201 227.111L382.827 227.12L382.836 227.485H383.201V227.111ZM57.404 151.063C94.6204 129.62 143.428 118.887 192.256 118.887C241.084 118.887 289.892 129.62 327.108 151.063L327.482 150.415C290.125 128.89 241.18 118.139 192.256 118.139C143.332 118.139 94.3872 128.89 57.0303 150.415L57.404 151.063ZM1.72152 231.445C0.462548 202.482 18.9611 173.213 57.404 151.063L57.0303 150.415C18.446 172.646 -0.30173 202.136 0.973698 231.478L1.72152 231.445ZM1.72187 252.196L1.72187 231.462H0.973345L0.973345 252.196H1.72187ZM1.72151 257.838C1.63872 255.963 1.63872 254.087 1.72151 252.213L0.97371 252.18C0.889953 254.076 0.889954 255.974 0.97371 257.871L1.72151 257.838ZM1.72187 257.947L1.72187 257.854H0.973345L0.973345 257.947H1.72187ZM1.35177 257.573H1.34761V258.321H1.35177V257.573ZM57.4215 332.635C21.4778 311.929 2.96052 285.006 1.72564 257.93L0.977894 257.964C2.22843 285.383 20.9717 312.501 57.0478 333.284L57.4215 332.635ZM327.153 332.635C289.917 354.079 241.106 364.811 192.278 364.811C143.45 364.811 94.645 354.079 57.4215 332.635L57.0478 333.284C94.4118 354.808 143.354 365.56 192.278 365.56C241.203 365.56 290.15 354.808 327.526 333.284L327.153 332.635ZM382.848 257.929C381.581 284.983 363.065 311.901 327.152 332.635L327.527 333.283C363.571 312.473 382.313 285.36 383.596 257.964L382.848 257.929ZM383.222 257.573H383.222V258.321H383.222V257.573ZM382.848 257.93V257.947H383.597V257.93H382.848ZM382.849 251.981C382.941 253.958 382.941 255.936 382.849 257.913L383.596 257.948C383.689 255.948 383.689 253.946 383.596 251.946L382.849 251.981ZM382.848 227.111V251.963H383.597V227.111H382.848ZM383.201 227.485H383.222V226.737H383.201V227.485ZM327.108 151.063C363.599 172.17 382.12 199.63 382.827 227.12L383.575 227.101C382.859 199.26 364.107 171.6 327.482 150.415L327.108 151.063Z" fill="#101010"/>
<path opacity="0.7" d="M72.3373 250.85H191.916V319.592C161.304 319.537 130.743 312.751 107.399 299.279C84.1256 285.848 72.5017 268.337 72.3373 250.85Z" stroke="#101010" stroke-width="0.753001"/>
<path opacity="0.7" d="M192.292 319.969V250.473H71.959C71.959 268.267 83.7017 286.037 107.211 299.605C130.721 313.173 161.506 319.969 192.292 319.969Z" fill="#7A1CCA"/>
<path opacity="0.7" d="M192.292 295.955V226.459H71.959C71.959 244.253 83.7017 262.024 107.211 275.591C130.721 289.159 161.506 295.955 192.292 295.955Z" fill="#7A1CCA"/>
<path opacity="0.6" fill-rule="evenodd" clip-rule="evenodd" d="M79.2975 250.485C85.1284 259.644 94.4239 268.213 107.188 275.58C130.698 289.148 161.483 295.944 192.293 295.944V319.957C161.483 319.957 130.698 313.161 107.188 299.593C83.6786 286.026 71.9358 268.375 71.9358 250.485L78.4906 249.177C74.1421 241.896 71.9578 234.265 71.9359 226.589V226.542C71.9491 234.234 74.1335 241.881 78.4907 249.177L78.4906 249.177C78.7517 249.615 79.0206 250.05 79.2974 250.485H71.9358L71.9359 250.485H79.2975Z" fill="#912DF5"/>
<path d="M107.212 275.591C130.697 289.159 161.507 295.955 192.293 295.955V250.473H79.4277C86.5382 260.955 96.0681 269.57 107.212 275.591Z" fill="#7A1CCA"/>
<g opacity="0.2">
<path d="M145.007 289.601L169.104 252.165L185.124 227.208L157.591 227.208L119.467 280.952C119.467 280.952 125.601 283.701 132.784 286.069C139.968 288.436 145.007 289.601 145.007 289.601Z" fill="url(#paint1_linear_1353_17077)"/>
<path d="M147.602 227.244H103.939L82.7422 254.015C82.7422 254.015 86.7019 259.611 94.6749 266.14C102.648 272.669 111.38 277.034 111.38 277.034L147.602 227.244Z" fill="url(#paint2_linear_1353_17077)"/>
</g>
<path opacity="0.2" d="M82.7324 279.337V255.261C90.9238 266.409 105.826 274.727 111.378 277.868V301.85C111.378 301.85 107.456 299.744 105.826 298.753C92.5289 291.025 84.7578 281.959 82.7324 279.337Z" fill="url(#paint3_linear_1353_17077)"/>
<path opacity="0.2" d="M121.416 306.601V282.619C125.768 284.948 139.677 288.953 146.088 290.664V314.646C138.855 313.359 126.626 308.746 121.416 306.601Z" fill="url(#paint4_linear_1353_17077)"/>
<path d="M72.3373 226.754H191.916V295.496C161.304 295.441 130.743 288.655 107.399 275.183C84.1256 261.752 72.5017 244.241 72.3373 226.754Z" stroke="#101010" stroke-width="0.753001"/>
<path d="M327.339 332.959C252.728 375.927 131.822 375.927 57.2344 332.959" stroke="url(#paint5_linear_1353_17077)" stroke-width="0.748527" stroke-miterlimit="10"/>
<path d="M72.2344 169.235C80.637 165.307 89.4824 161.852 98.664 158.871M280.078 157.07C290.598 160.21 300.719 163.95 310.285 168.291" stroke="white" stroke-width="0.748527" stroke-miterlimit="10"/>
<path d="M327.295 150.739C252.722 107.771 131.791 107.771 57.2172 150.739C-17.3562 193.707 -17.3562 263.626 57.2172 306.665C131.791 349.705 252.674 349.633 327.271 306.665C401.868 263.697 401.868 193.874 327.295 150.739ZM191.994 295.47C161.391 295.47 130.764 288.738 107.418 275.251C84.0722 261.764 72.3753 244.099 72.3753 226.41V157.423C103.002 157.423 133.605 164.155 156.975 177.642C180.344 191.129 192.017 208.674 191.994 226.482V295.47ZM191.994 295.47C191.994 277.805 203.69 260.14 227.036 246.653C250.382 233.166 281.009 226.41 311.636 226.41V295.47H191.994ZM276.593 206.048C253.223 219.536 222.62 226.291 191.994 226.291V157.28H311.636C311.636 174.968 299.939 192.633 276.593 206.12V206.048Z" fill="white" stroke="#101010" stroke-width="0.748527"/>
<path fill-rule="evenodd" clip-rule="evenodd" d="M107.418 275.251C130.764 288.738 161.391 295.47 191.993 295.47H311.635V226.41C281.009 226.41 250.382 233.166 227.036 246.653C203.69 260.14 191.993 277.805 191.993 295.47V226.482C192.017 208.674 180.344 191.129 156.975 177.642C133.605 164.155 103.002 157.423 72.3752 157.423V226.41C72.3752 244.099 84.0721 261.764 107.418 275.251ZM191.993 226.291C222.62 226.291 253.223 219.536 276.593 206.048V206.12C299.939 192.633 311.635 174.968 311.635 157.28H191.993V226.291ZM61.4665 303.016C133.65 343.953 250.659 343.953 322.865 303.016C395.049 261.987 395.072 195.396 322.889 154.459C250.705 113.521 133.673 113.431 61.4665 154.459C-10.74 195.487 -10.7169 262.078 61.4665 303.016Z" fill="url(#paint6_linear_1353_17077)"/>
<path d="M311.635 295.47V295.844H312.01V295.47H311.635ZM311.635 226.41H312.01V226.036H311.635V226.41ZM227.036 246.653L227.223 246.977L227.036 246.653ZM191.993 226.482L191.619 226.482V226.482H191.993ZM156.975 177.642L156.787 177.966L156.975 177.642ZM72.3752 157.423V157.049H72.001V157.423H72.3752ZM276.593 206.048H276.967V205.4L276.406 205.724L276.593 206.048ZM191.993 226.291H191.619V226.665H191.993V226.291ZM276.593 206.12H276.218V206.768L276.78 206.444L276.593 206.12ZM311.635 157.28H312.01V156.905H311.635V157.28ZM191.993 157.28V156.905H191.619V157.28H191.993ZM322.865 303.016L323.05 303.341L323.05 303.341L322.865 303.016ZM61.4665 303.016L61.6511 302.69L61.4665 303.016ZM322.889 154.459L323.073 154.133L322.889 154.459ZM61.4665 154.459L61.2816 154.133L61.4665 154.459ZM191.993 295.095C161.439 295.095 130.881 288.373 107.605 274.927L107.231 275.575C130.647 289.103 161.343 295.844 191.993 295.844V295.095ZM311.635 295.095H191.993V295.844H311.635V295.095ZM311.261 226.41V295.47H312.01V226.41H311.261ZM227.223 246.977C250.499 233.531 281.057 226.785 311.635 226.785V226.036C280.961 226.036 250.265 232.801 226.849 246.329L227.223 246.977ZM192.368 295.47C192.368 277.986 203.945 260.425 227.223 246.977L226.849 246.329C203.435 259.855 191.619 277.624 191.619 295.47H192.368ZM191.619 226.482V295.47H192.368V226.482H191.619ZM156.787 177.966C180.09 191.414 191.643 208.855 191.619 226.482L192.368 226.483C192.392 208.493 180.599 190.844 157.162 177.318L156.787 177.966ZM72.3752 157.797C102.954 157.797 133.488 164.519 156.787 177.966L157.162 177.318C133.721 163.79 103.05 157.049 72.3752 157.049V157.797ZM72.7495 226.41V157.423H72.001V226.41H72.7495ZM107.605 274.927C84.3272 261.479 72.7495 243.918 72.7495 226.41H72.001C72.001 244.28 83.817 262.048 107.231 275.575L107.605 274.927ZM276.406 205.724C253.106 219.171 222.572 225.917 191.993 225.917V226.665C222.669 226.665 253.34 219.9 276.78 206.373L276.406 205.724ZM276.967 206.12V206.048H276.218V206.12H276.967ZM311.261 157.28C311.261 174.787 299.684 192.348 276.405 205.796L276.78 206.444C300.194 192.918 312.01 175.149 312.01 157.28H311.261ZM191.993 157.654H311.635V156.905H191.993V157.654ZM192.368 226.291V157.28H191.619V226.291H192.368ZM322.681 302.69C286.647 323.119 239.411 333.344 192.157 333.344C144.904 333.344 97.6731 323.119 61.6511 302.69L61.2819 303.341C97.4433 323.849 144.809 334.093 192.157 334.093C239.506 334.093 286.877 323.849 323.05 303.341L322.681 302.69ZM322.704 154.784C358.728 175.215 376.646 201.993 376.64 228.703C376.635 255.413 358.705 282.214 322.681 302.69L323.05 303.341C359.209 282.789 377.383 255.78 377.389 228.703C377.395 201.626 359.232 174.64 323.073 154.133L322.704 154.784ZM61.6514 154.784C97.6847 134.31 144.927 124.085 192.186 124.096C239.446 124.107 286.682 134.355 322.704 154.784L323.073 154.133C286.912 133.625 239.54 123.359 192.186 123.347C144.832 123.336 97.4547 133.58 61.2816 154.133L61.6514 154.784ZM61.6511 302.69C25.6265 282.259 7.69744 255.481 7.69457 228.771C7.69171 202.061 25.6151 175.26 61.6514 154.784L61.2816 154.133C25.1114 174.686 6.94314 201.694 6.94605 228.771C6.94896 255.849 25.1231 282.834 61.2819 303.341L61.6511 302.69Z" fill="#101010"/>
<path d="M57.2172 150.739C-17.3562 193.707 -17.3562 263.626 57.2172 306.665" stroke="url(#paint7_linear_1353_17077)" stroke-width="0.748527"/>
<path d="M251.42 359.461V333.888C260.143 332.28 272.251 329.309 278.647 327.405V353.003C269.98 355.551 258.234 358.334 251.42 359.461Z" fill="#313131" fill-opacity="0.2"/>
<path d="M284.088 351.344V325.761L290.71 323.555V349.156C288.341 349.975 285.476 350.946 284.088 351.344Z" fill="#313131" fill-opacity="0.2"/>
<path d="M203.753 364.617V339.081C197.156 339.362 179.885 339.422 162.069 337.908C144.253 336.394 126.459 332.751 119.482 331.028V356.531C136.843 360.706 155.772 363.21 172.83 364.235C185.959 365.024 198.195 364.906 203.753 364.617Z" fill="#313131" fill-opacity="0.2"/>
<path opacity="0.6" d="M312.013 295.849V226.125C281.102 226.125 250.215 232.943 226.628 246.556C203.041 260.168 191.284 277.997 191.26 295.849H312.013Z" fill="#03EB70"/>
<path opacity="0.6" d="M312.013 202.032C281.102 202.032 250.215 208.851 226.628 222.463C203.041 236.076 191.284 253.904 191.26 271.757H312.013V202.032Z" fill="#03EB70"/>
<path d="M226.817 246.883C250.237 233.367 280.899 226.558 311.635 226.503V295.472H191.64C191.828 277.926 203.467 260.358 226.817 246.883Z" stroke="#101010" stroke-width="0.755476"/>
<path d="M198.656 271.757H311.892V226.125C280.981 226.125 250.094 232.943 226.507 246.556C215.334 252.596 205.111 261.687 198.656 271.757Z" fill="#03EB70"/>
<rect opacity="0.5" x="191.26" y="271.756" width="119.996" height="24.093" fill="#03EB70"/>
<g opacity="0.2">
<path d="M281.423 205.06C266.443 207.105 249.528 212.886 249.528 212.886L207.197 271L235.08 270.97L281.423 205.06Z" fill="url(#paint8_linear_1353_17077)"/>
<path d="M292.313 203.715L246.574 270.922H275.879L311.256 215.902V202.785C305.313 202.734 294.235 203.476 292.313 203.715Z" fill="url(#paint9_linear_1353_17077)"/>
</g>
<path opacity="0.2" d="M234.973 271.804H207.205V295.178H234.973V271.804Z" fill="url(#paint10_linear_1353_17077)"/>
<path opacity="0.2" d="M273.11 271.804H245.342V295.178H273.11V271.804Z" fill="url(#paint11_linear_1353_17077)"/>
<path d="M226.817 222.79C250.237 209.274 280.899 202.466 311.635 202.411V271.379H191.64C191.828 253.834 203.467 236.266 226.817 222.79Z" stroke="#101010" stroke-width="0.755476"/>
<mask id="path-32-inside-1_1353_17077" fill="white">
<path fill-rule="evenodd" clip-rule="evenodd" d="M226.628 222.463C250.215 208.851 281.102 202.032 312.013 202.032V271.757H311.892V295.849H191.26V271H191.268C191.619 253.401 203.375 235.883 226.628 222.463Z"/>
</mask>
<path d="M312.013 202.032H312.768V201.277H312.013V202.032ZM226.628 222.463L226.25 221.809L226.628 222.463ZM312.013 271.757V272.512H312.768V271.757H312.013ZM311.892 271.757V271.001H311.136V271.757H311.892ZM311.892 295.849V296.605H312.647V295.849H311.892ZM191.26 295.849H190.504V296.605H191.26V295.849ZM191.26 271V270.244H190.504V271H191.26ZM191.268 271V271.755H192.009L192.023 271.015L191.268 271ZM312.013 201.277C281.004 201.277 249.979 208.115 226.25 221.809L227.006 223.117C250.451 209.587 281.199 202.788 312.013 202.788V201.277ZM312.768 271.757V202.032H311.257V271.757H312.768ZM311.892 272.512H312.013V271.001H311.892V272.512ZM311.136 271.757V295.849H312.647V271.757H311.136ZM311.892 295.094H191.26V296.605H311.892V295.094ZM192.015 295.849V271H190.504V295.849H192.015ZM191.26 271.755H191.268V270.244H191.26V271.755ZM226.25 221.809C202.86 235.308 190.871 253.03 190.513 270.985L192.023 271.015C192.367 253.772 203.889 236.459 227.006 223.117L226.25 221.809Z" fill="#101010" mask="url(#path-32-inside-1_1353_17077)"/>
<path d="M156.988 149.218C133.618 135.731 103.015 129 72.3887 129V198.059H192.007C192.031 180.394 180.238 162.777 156.988 149.218Z" stroke="#101010" stroke-width="0.748526" stroke-miterlimit="10" stroke-linejoin="round"/>
<path opacity="0.6" d="M156.988 125.347C133.618 111.86 103.015 105.128 72.3887 105.128V174.187H192.007C192.031 156.523 180.238 138.906 156.988 125.347Z" fill="#03EB70"/>
<path d="M156.549 149.5C133.179 136.013 103.015 129 72.3887 129V174.187H184.169C179.104 165.982 167.61 155.5 156.549 149.5Z" fill="#03EB70"/>
<path d="M156.988 125.347C133.618 111.86 103.015 105.128 72.3887 105.128V174.187H192.007C192.031 156.523 180.238 138.906 156.988 125.347Z" stroke="#101010" stroke-width="0.748526" stroke-miterlimit="10" stroke-linejoin="round"/>
<g opacity="0.2">
<path d="M105.239 108.287L73.0098 148.089V173.6L100.636 173.571L141.06 118.286C128.168 112.695 111.808 109.29 105.239 108.287Z" fill="url(#paint12_linear_1353_17077)"/>
<path d="M149.11 121.825L112.024 173.522H141.06L169.026 134.301C163.257 129.174 153.345 123.847 149.11 121.825Z" fill="url(#paint13_linear_1353_17077)"/>
</g>
<rect opacity="0.5" x="72.7676" y="174.565" width="118.844" height="23.1205" fill="#03EB70"/>
<path opacity="0.3" d="M100.635 173.583L141.16 118.101L139.419 117.579L97.9688 173.583H100.635Z" fill="url(#paint14_linear_1353_17077)"/>
<g opacity="0.2">
<path d="M99.8705 197.685V174.565H72.7676V197.685H99.8705Z" fill="url(#paint15_linear_1353_17077)"/>
<path d="M111.74 197.685V174.565H140.343V197.685H111.74Z" fill="url(#paint16_linear_1353_17077)"/>
</g>
<path d="M156.988 125.347L157.176 125.024L157.175 125.023L156.988 125.347ZM72.3887 105.128V104.754H72.0144V105.128H72.3887ZM192.007 174.187L191.632 174.187V174.187H192.007ZM192.007 198.059V198.433H192.381V198.059H192.007ZM72.3887 198.059H72.0144V198.433H72.3887V198.059ZM157.175 125.023C133.735 111.495 103.063 104.754 72.3887 104.754V105.503C102.967 105.503 133.501 112.225 156.801 125.671L157.175 125.023ZM192.381 174.188C192.405 156.341 180.492 138.621 157.176 125.024L156.799 125.671C179.984 139.191 191.656 156.705 191.632 174.187L192.381 174.188ZM191.632 174.187V198.059H192.381V174.187H191.632ZM192.007 197.684H72.3887V198.433H192.007V197.684ZM72.7629 198.059V174.187H72.0144V198.059H72.7629ZM72.7629 174.187V174.187H72.0144V174.187H72.7629ZM72.0144 105.128V174.187H72.7629V105.128H72.0144Z" fill="#101010"/>
<path opacity="0.6" d="M193 23.6321V92C223.32 92 253.617 85.3121 276.752 71.9599C299.888 58.6077 311.445 41.2381 311.445 23.6321H193Z" fill="#03EB70"/>
<path d="M304.237 23.6321H193.166V68.3678C223.486 68.3678 253.783 61.6799 276.919 48.3277C287.866 42.3948 297.233 33.9268 304.237 23.6321Z" fill="#03EB70"/>
<path d="M276.567 71.639C253.595 84.8968 223.519 91.5749 193.371 91.6292V24.0026H311.072C310.911 41.3031 299.473 58.4198 276.567 71.639Z" stroke="#010101" stroke-width="0.741035"/>
<path opacity="0.6" d="M193 0V68.3679C223.32 68.3679 253.617 61.68 276.752 48.3278C299.888 34.9756 311.445 17.606 311.445 0H193Z" fill="#03EB70"/>
<path opacity="0.6" fill-rule="evenodd" clip-rule="evenodd" d="M193 92V68.3679C223.32 68.3679 253.617 61.68 276.752 48.3278C299.888 34.9756 311.445 17.606 311.445 0H311.445V23.6321H311.445C311.445 41.238 299.888 58.6077 276.752 71.9599C253.617 85.3121 223.32 92 193 92Z" fill="#03EB70"/>
<path d="M276.567 48.0069C253.595 61.2647 223.519 67.9428 193.371 67.9971V0.370517H311.072C310.911 17.671 299.473 34.7878 276.567 48.0069Z" stroke="#010101" stroke-width="0.741035" stroke-linejoin="round"/>
<g opacity="0.2">
<path d="M219.325 65.9133L266.729 0.750068H223.761L193.748 38.6554V67.6339C193.748 67.6339 203.185 67.4843 206.589 67.2411C209.992 66.998 219.325 65.9133 219.325 65.9133Z" fill="url(#paint17_linear_1353_17077)"/>
<path d="M276.56 0.715565L231.784 63.8354C231.784 63.8354 245.106 61.0621 252.801 58.3902C260.496 55.7183 270.164 51.0129 270.164 51.0129L287.889 25.2759L303.655 0.715332L276.56 0.715565Z" fill="url(#paint18_linear_1353_17077)"/>
</g>
<path opacity="0.3" d="M226.269 56.1588L266.734 0.744385H264.65L223.629 56.1588H226.269Z" fill="url(#paint19_linear_1353_17077)"/>
<path opacity="0.2" d="M219.202 89.5805V66.6873C212.707 67.6261 200.694 68.4475 193.729 68.3562V91.2492C204.091 91.4376 215.029 90.2152 219.202 89.5805Z" fill="url(#paint20_linear_1353_17077)"/>
<path opacity="0.2" d="M232.025 87.4154V64.5429C246.457 61.9048 262.472 55.6961 268.602 52.6479V75.458C255.901 81.889 238.925 86.1092 232.025 87.4154Z" fill="url(#paint21_linear_1353_17077)"/>
<mask id="path-53-inside-2_1353_17077" fill="white">
<path fill-rule="evenodd" clip-rule="evenodd" d="M311.445 0H193.166V23.6321H193V92C223.32 92 253.617 85.3121 276.752 71.9599C299.615 58.7654 311.17 41.6476 311.44 24.2556H311.445V0Z"/>
</mask>
<path d="M193.166 0V-0.741035H192.425V0H193.166ZM311.445 0H312.186V-0.741035H311.445V0ZM193.166 23.6321V24.3731H193.907V23.6321H193.166ZM193 23.6321V22.891H192.259V23.6321H193ZM193 92H192.259V92.741H193V92ZM276.752 71.9599L277.123 72.6017L276.752 71.9599ZM311.44 24.2556V23.5145H310.71L310.699 24.2441L311.44 24.2556ZM311.445 24.2556V24.9966H312.186V24.2556H311.445ZM193.166 0.741035H311.445V-0.741035H193.166V0.741035ZM193.907 23.6321V0H192.425V23.6321H193.907ZM193.166 22.891H193V24.3731H193.166V22.891ZM192.259 23.6321V92H193.741V23.6321H192.259ZM193 92.741C223.416 92.741 253.848 86.0341 277.123 72.6017L276.382 71.3181C253.385 84.5901 223.224 91.259 193 91.259V92.741ZM277.123 72.6017C300.118 59.3308 311.906 42.0121 312.181 24.2671L310.699 24.2441C310.435 41.2832 299.112 58.1999 276.382 71.3181L277.123 72.6017ZM311.445 23.5145H311.44V24.9966H311.445V23.5145ZM310.704 0V24.2556H312.186V0H310.704Z" fill="#101010" mask="url(#path-53-inside-2_1353_17077)"/>
<defs>
<linearGradient id="paint0_linear_1353_17077" x1="0.952756" y1="271.205" x2="327.844" y2="271.205" gradientUnits="userSpaceOnUse">
<stop stop-color="white"/>
<stop offset="0.53" stop-color="#7A1CCA"/>
<stop offset="1" stop-color="white"/>
</linearGradient>
<linearGradient id="paint1_linear_1353_17077" x1="120.809" y1="225.996" x2="120.809" y2="304.376" gradientUnits="userSpaceOnUse">
<stop stop-color="white"/>
<stop offset="0.624147" stop-color="white" stop-opacity="0"/>
</linearGradient>
<linearGradient id="paint2_linear_1353_17077" x1="120.809" y1="225.996" x2="120.809" y2="304.376" gradientUnits="userSpaceOnUse">
<stop stop-color="white"/>
<stop offset="0.624147" stop-color="white" stop-opacity="0"/>
</linearGradient>
<linearGradient id="paint3_linear_1353_17077" x1="104.149" y1="264.644" x2="82.7324" y2="293.22" gradientUnits="userSpaceOnUse">
<stop offset="0.108692" stop-color="white"/>
<stop offset="0.555442" stop-color="white" stop-opacity="0"/>
</linearGradient>
<linearGradient id="paint4_linear_1353_17077" x1="133.752" y1="282.619" x2="133.752" y2="314.646" gradientUnits="userSpaceOnUse">
<stop stop-color="white"/>
<stop offset="0.687634" stop-color="white" stop-opacity="0"/>
</linearGradient>
<linearGradient id="paint5_linear_1353_17077" x1="277.815" y1="349.072" x2="47.3452" y2="332.959" gradientUnits="userSpaceOnUse">
<stop stop-color="#7A1CCA" stop-opacity="0"/>
<stop offset="0.489583" stop-color="#7A1CCA"/>
<stop offset="1" stop-color="#7A1CCA" stop-opacity="0"/>
</linearGradient>
<linearGradient id="paint6_linear_1353_17077" x1="219.651" y1="383.145" x2="366.021" y2="-118.69" gradientUnits="userSpaceOnUse">
<stop stop-color="#E9E9E9"/>
<stop offset="0.824529" stop-color="white"/>
</linearGradient>
<linearGradient id="paint7_linear_1353_17077" x1="29.2521" y1="150.739" x2="29.2521" y2="306.665" gradientUnits="userSpaceOnUse">
<stop stop-color="#7A1CCA" stop-opacity="0"/>
<stop offset="0.515625" stop-color="#7A1CCA"/>
<stop offset="1" stop-color="#7A1CCA" stop-opacity="0"/>
</linearGradient>
<linearGradient id="paint8_linear_1353_17077" x1="255.651" y1="205.081" x2="255.651" y2="283.718" gradientUnits="userSpaceOnUse">
<stop stop-color="white"/>
<stop offset="1" stop-color="white" stop-opacity="0"/>
</linearGradient>
<linearGradient id="paint9_linear_1353_17077" x1="255.651" y1="205.081" x2="255.651" y2="283.718" gradientUnits="userSpaceOnUse">
<stop stop-color="white"/>
<stop offset="1" stop-color="white" stop-opacity="0"/>
</linearGradient>
<linearGradient id="paint10_linear_1353_17077" x1="221.089" y1="271.804" x2="221.089" y2="295.178" gradientUnits="userSpaceOnUse">
<stop stop-color="white"/>
<stop offset="0.807999" stop-color="white" stop-opacity="0"/>
</linearGradient>
<linearGradient id="paint11_linear_1353_17077" x1="259.226" y1="271.804" x2="259.226" y2="295.178" gradientUnits="userSpaceOnUse">
<stop stop-color="white"/>
<stop offset="0.807999" stop-color="white" stop-opacity="0"/>
</linearGradient>
<linearGradient id="paint12_linear_1353_17077" x1="121.018" y1="108.287" x2="121.018" y2="186.201" gradientUnits="userSpaceOnUse">
<stop stop-color="white"/>
<stop offset="1" stop-color="white" stop-opacity="0"/>
</linearGradient>
<linearGradient id="paint13_linear_1353_17077" x1="121.018" y1="108.287" x2="121.018" y2="186.201" gradientUnits="userSpaceOnUse">
<stop stop-color="white"/>
<stop offset="1" stop-color="white" stop-opacity="0"/>
</linearGradient>
<linearGradient id="paint14_linear_1353_17077" x1="119.564" y1="117.579" x2="110.781" y2="172.303" gradientUnits="userSpaceOnUse">
<stop stop-color="white"/>
<stop offset="1" stop-color="white" stop-opacity="0"/>
</linearGradient>
<linearGradient id="paint15_linear_1353_17077" x1="106.555" y1="174.565" x2="106.555" y2="197.685" gradientUnits="userSpaceOnUse">
<stop offset="0.43379" stop-color="white"/>
<stop offset="1" stop-color="white" stop-opacity="0"/>
</linearGradient>
<linearGradient id="paint16_linear_1353_17077" x1="106.555" y1="174.565" x2="106.555" y2="197.685" gradientUnits="userSpaceOnUse">
<stop offset="0.43379" stop-color="white"/>
<stop offset="1" stop-color="white" stop-opacity="0"/>
</linearGradient>
<linearGradient id="paint17_linear_1353_17077" x1="240.362" y1="-0.477632" x2="240.362" y2="76.6564" gradientUnits="userSpaceOnUse">
<stop stop-color="white"/>
<stop offset="1" stop-color="white" stop-opacity="0"/>
</linearGradient>
<linearGradient id="paint18_linear_1353_17077" x1="240.362" y1="-0.477632" x2="240.362" y2="76.6564" gradientUnits="userSpaceOnUse">
<stop stop-color="white"/>
<stop offset="1" stop-color="white" stop-opacity="0"/>
</linearGradient>
<linearGradient id="paint19_linear_1353_17077" x1="245.008" y1="0.715438" x2="236.313" y2="54.8921" gradientUnits="userSpaceOnUse">
<stop stop-color="white"/>
<stop offset="1" stop-color="white" stop-opacity="0"/>
</linearGradient>
<linearGradient id="paint20_linear_1353_17077" x1="206.465" y1="66.6873" x2="206.465" y2="91.2687" gradientUnits="userSpaceOnUse">
<stop stop-color="white"/>
<stop offset="1" stop-color="white" stop-opacity="0"/>
</linearGradient>
<linearGradient id="paint21_linear_1353_17077" x1="250.314" y1="52.6479" x2="250.314" y2="87.4154" gradientUnits="userSpaceOnUse">
<stop stop-color="white"/>
<stop offset="1" stop-color="white" stop-opacity="0"/>
</linearGradient>
</defs>
</svg>
