<svg width="40" height="40" viewBox="0 0 40 40" fill="none" xmlns="http://www.w3.org/2000/svg">
<path d="M30.1025 20.0969L29.9759 13.1117C29.8592 11.36 28.4059 10 26.6509 10H9.55421C7.79921 10 6.34588 11.36 6.22921 13.1117L5.00755 31.4467C4.87921 33.37 6.40421 35 8.33255 35H16.502" fill="#101010"/>
<path d="M30.1025 20.0969L29.9759 13.1117C29.8592 11.36 28.4059 10 26.6509 10H9.55421C7.79921 10 6.34588 11.36 6.22921 13.1117L5.00755 31.4467C4.87921 33.37 6.40421 35 8.33255 35H16.502L15.768 33.2349V20.9043L17.4561 20.0969H30.1025Z" stroke="#101010" stroke-width="2.04167" stroke-linecap="round" stroke-linejoin="round"/>
<path d="M13.1035 10.0002V8.3335C13.1035 5.57183 15.3418 3.3335 18.1035 3.3335C20.8652 3.3335 23.1035 5.57183 23.1035 8.3335V10.0002" stroke="#101010" stroke-width="2.55208" stroke-linecap="round" stroke-linejoin="round"/>
<path d="M17.8562 20H32.8562C34.0412 20 34.9996 20.9583 34.9996 22.1433V32.8583C34.9996 34.0417 34.0412 35 32.8562 35H17.8562C16.6729 35 15.7129 34.0417 15.7129 32.8567V22.1417C15.7146 20.9583 16.6729 20 17.8562 20Z" fill="white" stroke="white" stroke-width="2.55208" stroke-linecap="round" stroke-linejoin="round"/>
<path d="M21.6074 25C21.6074 27.0717 23.2858 28.75 25.3574 28.75C27.4291 28.75 29.1074 27.0717 29.1074 25" stroke="#101010" stroke-width="2.55208" stroke-linecap="round" stroke-linejoin="round"/>
</svg>
