<svg width="44" height="45" viewBox="0 0 44 45" fill="none" xmlns="http://www.w3.org/2000/svg">
                        <g clip-path="url(#clip0_1532_19314)">
                        <path fill-rule="evenodd" clip-rule="evenodd" d="M0.285156 44.2179H43.7286V0.774414H0.285156V44.2179Z" fill="#101010"/>
                        <path fill-rule="evenodd" clip-rule="evenodd" d="M5.8533 24.3584C4.87467 24.3584 4.43861 25.1604 4.43861 26.1566C4.43861 27.0305 4.82322 27.9107 5.8533 27.9107C6.55928 27.9107 6.94748 27.4441 7.03597 26.7365H8.1446C8.0182 28.1399 7.05403 28.8719 5.8533 28.8719C4.24721 28.8719 3.29297 27.6797 3.29297 26.1566C3.29297 24.549 4.29236 23.3892 5.8533 23.3892C7.05041 23.3892 7.97036 24.1138 8.10037 25.2764H6.99174C6.91408 24.7504 6.40943 24.3584 5.8533 24.3584Z" fill="white"/>
                        <path fill-rule="evenodd" clip-rule="evenodd" d="M11.0178 27.2858C11.0178 27.9412 10.6531 28.159 10.1773 28.159C9.85411 28.159 9.54354 28.0664 9.54354 27.6752C9.54354 27.409 9.67265 27.2022 10.1575 27.1168C10.2396 27.1024 10.3218 27.0907 10.4048 27.0799C10.6034 27.0611 10.9122 27.0026 11.0178 26.8956V27.2858ZM12.0522 27.9089V25.9354C12.0522 24.95 10.9842 24.8564 10.3974 24.8564C9.59659 24.8564 8.68294 25.1316 8.62516 26.126H9.66067C9.70132 25.6908 9.96402 25.5542 10.3468 25.5542C10.707 25.5542 11.0176 25.6288 11.0176 26.0675C11.0293 26.3166 10.8379 26.4506 10.2448 26.5081C10.094 26.5216 9.94056 26.5423 9.78527 26.5665C9.17679 26.6627 8.50781 26.8426 8.50781 27.7174C8.50781 28.4555 9.01608 28.8494 9.7925 28.8494C10.1915 28.8494 10.7224 28.7541 11.0618 28.3873C11.0654 28.4761 11.1006 28.6632 11.134 28.7541H12.1849C12.0739 28.576 12.0522 28.185 12.0522 27.9089Z" fill="white"/>
                        <path fill-rule="evenodd" clip-rule="evenodd" d="M12.7891 28.7536H13.8246V24.9585H12.7891V28.7536ZM12.7891 24.3713H13.8246V23.5127H12.7891V24.3713Z" fill="white"/>
                        <path fill-rule="evenodd" clip-rule="evenodd" d="M16.7991 27.6737C16.7991 27.5865 16.7666 27.5101 16.7016 27.4472C16.3332 27.092 15.1452 27.1621 14.6549 26.6622C14.5159 26.5211 14.4274 26.3332 14.4274 26.0751C14.4274 25.2884 14.9872 24.856 16.0687 24.856C16.7774 24.856 17.6504 25.0699 17.7326 26.067H16.7476C16.7323 25.6669 16.4145 25.5546 16.0398 25.5546C15.7807 25.5546 15.4629 25.6076 15.4629 25.9061C15.4629 26.1542 15.7256 26.2747 16.2087 26.3763C16.3495 26.4042 16.493 26.4366 16.6384 26.4707C17.2324 26.6056 17.8337 26.8277 17.8337 27.5353C17.8337 28.3111 17.2812 28.8498 16.1129 28.8498C15.1686 28.8498 14.376 28.4821 14.3398 27.52H15.3248C15.3248 27.9426 15.6823 28.1585 16.1202 28.1585C16.3946 28.1585 16.7991 28.0461 16.7991 27.6737Z" fill="white"/>
                        <path fill-rule="evenodd" clip-rule="evenodd" d="M13.3604 35.2757C13.6349 35.2757 14.0393 35.1633 14.0393 34.791C14.0393 34.702 14.0068 34.6265 13.9409 34.5646C13.5735 34.2083 12.3845 34.2786 11.8952 33.7796C11.7552 33.6376 11.6677 33.4486 11.6677 33.1915C11.6677 32.4049 12.2274 31.9731 13.3089 31.9731C14.0167 31.9731 14.8907 32.1863 14.9728 33.1844H13.9878C13.9725 32.7842 13.6547 32.671 13.2801 32.671C13.0209 32.671 12.7023 32.725 12.7023 33.0226C12.7023 33.2716 12.965 33.3921 13.4489 33.4926C13.5897 33.5214 13.7324 33.554 13.8786 33.5879C14.4726 33.722 15.0739 33.9441 15.0739 34.6517C15.0739 35.4285 14.5214 35.9662 13.3532 35.9662C12.4088 35.9662 11.6162 35.5985 11.5801 34.6373H12.565C12.565 35.059 12.9225 35.2757 13.3604 35.2757Z" fill="white"/>
                        <path fill-rule="evenodd" clip-rule="evenodd" d="M38.9757 35.2757C39.2502 35.2757 39.6537 35.1633 39.6537 34.791C39.6537 34.702 39.6211 34.6265 39.5562 34.5646C39.1878 34.2083 37.9996 34.2786 37.5095 33.7796C37.3704 33.6376 37.2827 33.4486 37.2827 33.1915C37.2827 32.4049 37.8418 31.9731 38.9233 31.9731C39.632 31.9731 40.5049 32.1863 40.588 33.1844H39.6021C39.5877 32.7842 39.2689 32.671 38.8953 32.671C38.6352 32.671 38.3175 32.725 38.3175 33.0226C38.3175 33.2716 38.5801 33.3921 39.0631 33.4926C39.204 33.5214 39.3477 33.554 39.4929 33.5879C40.087 33.722 40.6882 33.9441 40.6882 34.6517C40.6882 35.4285 40.1367 35.9662 38.9675 35.9662C38.0224 35.9662 37.2306 35.5985 37.1953 34.6373H38.1801C38.1801 35.059 38.5369 35.2757 38.9757 35.2757Z" fill="white"/>
                        <path fill-rule="evenodd" clip-rule="evenodd" d="M19.9874 28.1585C20.2618 28.1585 20.6653 28.0461 20.6653 27.6737C20.6653 27.5865 20.6328 27.5101 20.5678 27.4472C20.2004 27.092 19.0114 27.1621 18.5212 26.6622C18.3822 26.5211 18.2946 26.3332 18.2946 26.0751C18.2946 25.2884 18.8534 24.856 19.9359 24.856C20.6437 24.856 21.5167 25.0699 21.5997 26.067H20.6139C20.5994 25.6669 20.2808 25.5546 19.907 25.5546C19.647 25.5546 19.3292 25.6076 19.3292 25.9061C19.3292 26.1542 19.5919 26.2747 20.0749 26.3763C20.2158 26.4042 20.3593 26.4366 20.5047 26.4707C21.0987 26.6056 21.7 26.8277 21.7 27.5353C21.7 28.3111 21.1484 28.8498 19.9792 28.8498C19.0349 28.8498 18.2431 28.4821 18.207 27.52H19.192C19.192 27.9426 19.5486 28.1585 19.9874 28.1585Z" fill="white"/>
                        <path fill-rule="evenodd" clip-rule="evenodd" d="M23.9743 25.6413C23.429 25.6413 23.1428 26.001 23.1139 26.4487H24.7985C24.7001 25.9138 24.4753 25.6413 23.9743 25.6413ZM24.0398 28.0708C24.456 28.0708 24.7882 27.8145 24.8568 27.5789H25.7686C25.4463 28.5858 24.7403 28.8484 24.0027 28.8484C22.7515 28.8484 22.0762 27.9736 22.0762 26.8596C22.0762 25.707 22.8743 24.8564 24.0027 24.8564C25.3642 24.8564 25.9049 26.0432 25.8345 27.1105H23.1135C23.1433 27.8046 23.4764 28.0708 24.0398 28.0708Z" fill="white"/>
                        <path fill-rule="evenodd" clip-rule="evenodd" d="M9.38975 32.7584C8.84445 32.7584 8.55827 33.1171 8.52938 33.5649H10.214C10.1156 33.03 9.8908 32.7584 9.38975 32.7584ZM9.45579 35.1878C9.87195 35.1878 10.2042 34.9314 10.2737 34.696H11.1846C10.8623 35.702 10.1563 35.9646 9.41875 35.9646C8.16749 35.9646 7.49219 35.0897 7.49219 33.9757C7.49219 32.8242 8.29117 31.9727 9.41875 31.9727C10.7802 31.9727 11.321 33.1603 11.2505 34.2266H8.52951C8.5593 34.9217 8.89243 35.1878 9.45579 35.1878Z" fill="white"/>
                        <path fill-rule="evenodd" clip-rule="evenodd" d="M5.1953 32.7586C4.55614 32.7586 4.28347 33.2908 4.28347 33.9696C4.28347 34.5433 4.53716 35.1879 5.1953 35.1879C5.87873 35.1879 6.08546 34.5846 6.08546 33.9625C6.08546 33.3483 5.867 32.7586 5.1953 32.7586ZM6.08555 35.3856C5.84177 35.7983 5.43462 35.9647 4.94078 35.9647C3.7852 35.9647 3.24805 34.9883 3.24805 33.9389C3.24805 32.8341 3.87909 31.9728 4.91732 31.9728C5.35968 31.9728 5.79844 32.1623 6.03499 32.5381H6.04943V30.6304H7.08584V35.8702H6.10089V35.3856H6.08555Z" fill="white"/>
                        <path fill-rule="evenodd" clip-rule="evenodd" d="M19.2538 34.9022C20.0339 34.9022 20.5512 34.3654 20.5512 33.3315C20.5512 32.3695 20.2478 31.5997 19.0489 31.5997H18.2328V34.9022H19.2538ZM19.3341 30.6304C20.6521 30.6304 21.6976 31.455 21.6976 33.2218C21.6976 34.7898 20.8769 35.8705 19.3341 35.8705H17.0879V30.6304H19.3341Z" fill="white"/>
                        <path fill-rule="evenodd" clip-rule="evenodd" d="M23.978 32.7584C23.4327 32.7584 23.1465 33.1171 23.1176 33.5649H24.8023C24.7039 33.03 24.4791 32.7584 23.978 32.7584ZM24.0437 35.1878C24.4598 35.1878 24.7912 34.9314 24.8607 34.696H25.7725C25.4493 35.702 24.7442 35.9646 24.0066 35.9646C22.7554 35.9646 22.0801 35.0897 22.0801 33.9757C22.0801 32.8242 22.8781 31.9727 24.0066 31.9727C25.3681 31.9727 25.9089 33.1603 25.8384 34.2266H23.1174C23.1472 34.9217 23.4803 35.1878 24.0437 35.1878Z" fill="white"/>
                        <path fill-rule="evenodd" clip-rule="evenodd" d="M24.1908 30.1089L23.418 31.4079H24.1393L25.3292 30.1089H24.1908Z" fill="white"/>
                        <path fill-rule="evenodd" clip-rule="evenodd" d="M29.0619 33.9843C29.0619 33.2911 28.7614 32.7589 28.1572 32.7589C27.5759 32.7589 27.2599 33.2183 27.2599 33.9843C27.2599 34.6444 27.5216 35.1883 28.1646 35.1883C28.8018 35.1883 29.0619 34.6642 29.0619 33.9843ZM27.2447 32.0755V32.5613H27.2601C27.5183 32.1404 27.9291 31.9731 28.3831 31.9731C29.6101 31.9731 30.0967 33.0079 30.0967 34.0142C30.0967 35.0471 29.5379 35.9659 28.4418 35.9659C27.9525 35.9659 27.5534 35.7584 27.3115 35.4014H27.2962V37.1986H26.2598V32.0755H27.2447Z" fill="white"/>
                        <path fill-rule="evenodd" clip-rule="evenodd" d="M32.4493 35.1881C33.1463 35.1881 33.3692 34.6046 33.3692 33.976C33.3692 33.3988 33.1797 32.7588 32.4493 32.7588C31.8039 32.7588 31.5375 33.2883 31.5375 33.976C31.5375 34.6451 31.7884 35.1881 32.4493 35.1881ZM32.9315 30.563L33.7342 31.607H32.881L32.4287 31.011L31.9611 31.607H31.181L31.9818 30.563H32.9315ZM32.4493 31.973C33.6527 31.973 34.4048 32.7786 34.4048 33.976C34.4048 35.1224 33.7024 35.9658 32.4493 35.9658C31.3407 35.9658 30.502 35.2601 30.502 33.976C30.502 32.7526 31.2839 31.973 32.4493 31.973Z" fill="white"/>
                        <path fill-rule="evenodd" clip-rule="evenodd" d="M36.9535 32.0759V32.7734H36.194V34.6518C36.194 35.0024 36.2844 35.0922 36.6328 35.0922C36.743 35.0922 36.8595 35.0833 36.9535 35.0626V35.871C36.771 35.9006 36.5155 35.9079 36.3474 35.9079C35.6561 35.9079 35.1587 35.7461 35.1587 35.0132V32.7734H34.5293V32.0759H35.1587V30.9385H36.194V32.0759H36.9535Z" fill="white"/>
                        <path fill-rule="evenodd" clip-rule="evenodd" d="M3.39453 39.7658V39.7587C3.39453 38.9819 3.98496 38.3237 4.81552 38.3237C5.29403 38.3237 5.59104 38.4584 5.87451 38.6995L5.56666 39.0691C5.35449 38.8855 5.14504 38.7723 4.79567 38.7723C4.28741 38.7723 3.9019 39.22 3.9019 39.7495V39.7587C3.9019 40.3287 4.27657 40.7484 4.83901 40.7484C5.09902 40.7484 5.33375 40.6648 5.50437 40.5372V40.0194H4.80018V39.5958H5.97112V40.7593C5.70117 40.9939 5.31116 41.1918 4.82367 41.1918C3.9615 41.1918 3.39453 40.5733 3.39453 39.7658Z" fill="white"/>
                        <path fill-rule="evenodd" clip-rule="evenodd" d="M8.49022 39.7449C8.8369 39.7449 9.05716 39.5624 9.05716 39.2819V39.2749C9.05716 38.9773 8.84502 38.8144 8.48661 38.8144H7.78241V39.7449H8.49022ZM7.29883 38.3721H8.52663C8.87241 38.3721 9.14415 38.4736 9.32111 38.6482C9.46735 38.7984 9.54951 39.005 9.54951 39.2461V39.254C9.54951 39.7091 9.27777 39.9841 8.89226 40.0946L9.63708 41.1441H9.0656L8.3885 40.1766H7.78274V41.1441H7.29883V38.3721Z" fill="white"/>
                        <path fill-rule="evenodd" clip-rule="evenodd" d="M12.8955 39.7658V39.7587C12.8955 39.22 12.5046 38.7723 11.9593 38.7723C11.4104 38.7723 11.0303 39.2119 11.0303 39.7495V39.7587C11.0303 40.2972 11.4194 40.7441 11.9674 40.7441C12.5136 40.7441 12.8955 40.3053 12.8955 39.7658ZM10.5215 39.7658V39.7587C10.5215 38.9781 11.1201 38.3237 11.9669 38.3237C12.8128 38.3237 13.4023 38.9702 13.4023 39.7495V39.7587C13.4023 40.5372 12.8038 41.1918 11.9587 41.1918C11.111 41.1918 10.5215 40.5461 10.5215 39.7658Z" fill="white"/>
                        <path fill-rule="evenodd" clip-rule="evenodd" d="M14.4473 39.9675V38.3726H14.9312V39.9485C14.9312 40.4638 15.1948 40.7397 15.6281 40.7397C16.057 40.7397 16.3206 40.4782 16.3206 39.9675V38.3726H16.8045V39.9449C16.8045 40.7723 16.3404 41.1874 15.62 41.1874C14.9041 41.1874 14.4473 40.7723 14.4473 39.9675Z" fill="white"/>
                        <path fill-rule="evenodd" clip-rule="evenodd" d="M19.0274 39.8127C19.3931 39.8127 19.6215 39.6069 19.6215 39.3174V39.3093C19.6215 38.9848 19.3877 38.8156 19.0274 38.8156H18.4641V39.8127H19.0274ZM17.9805 38.3706H19.0665C19.7084 38.3706 20.1138 38.7401 20.1138 39.2984V39.3065C20.1138 39.9278 19.6173 40.2525 19.0106 40.2525H18.4644V41.1434H17.9805V38.3706Z" fill="white"/>
                        <path fill-rule="evenodd" clip-rule="evenodd" d="M21.0605 38.3716H23.1036V38.8066H21.5445V39.5277H22.9248V39.9638H21.5445V40.7091H23.1225V41.1433H21.0605V38.3716Z" fill="white"/>
                        <path fill-rule="evenodd" clip-rule="evenodd" d="M32.2337 15.0559C32.3738 15.2349 32.5202 15.4025 32.6747 15.5533C32.846 15.4792 33.0798 15.4483 33.3923 15.503C32.9951 15.212 32.6318 14.839 32.3168 14.3875C32.1444 14.1424 31.9926 13.8805 31.8596 13.6045C31.6125 13.0631 31.3296 12.6521 31.0314 12.3752C30.5671 11.944 29.9806 11.7544 29.3496 12.2341C29.5861 12.4581 30.1335 12.7103 30.5503 12.2835C30.8359 12.4475 31.1107 12.7765 31.2734 13.2606C31.3241 13.4122 31.383 13.563 31.4447 13.7085C31.0529 13.4731 30.6252 13.5119 30.3646 13.8443C30.5413 13.9466 30.9136 14.0233 31.0982 13.7068C31.1438 13.7147 31.241 13.7579 31.2633 13.7703C31.6016 13.9484 31.6964 14.2658 31.8919 14.5648C31.7491 14.585 31.6125 14.6477 31.4946 14.7623C31.7944 14.6759 32.0187 14.7764 32.2337 15.0559Z" fill="white"/>
                        <path fill-rule="evenodd" clip-rule="evenodd" d="M31.2852 7.72051C31.3815 8.04327 31.3039 8.31485 31.2547 8.43744C31.1513 8.69403 30.895 8.96034 30.6541 9.12437C30.2667 8.75664 29.7793 9.04324 29.5186 9.2866C29.9756 9.62082 30.6202 9.46032 31.0853 9.02559C31.0316 9.25046 30.987 9.48061 30.9539 9.71341C30.82 9.63844 30.6639 9.612 30.4899 9.65696C30.7505 9.71604 30.9191 9.89769 30.9004 10.1781C30.8977 10.2116 30.8871 10.373 30.8852 10.4127C30.7541 10.2804 30.5442 10.1287 30.2792 10.052C30.0247 9.96384 29.6821 9.98148 29.3848 10.1279C29.5857 10.5097 30.1882 10.5511 30.5469 10.3227C30.6995 10.4488 30.8762 10.6658 30.8762 10.9929C30.8762 11.3739 30.7041 11.6428 30.2756 11.7275C30.5398 11.7927 30.7532 11.7416 30.9137 11.6119C30.9316 11.7795 30.955 11.9461 30.9827 12.1101C31.1556 12.2442 31.3281 12.4232 31.4904 12.6472C31.3004 12.0017 31.1985 11.3103 31.1985 10.6005C31.1985 9.81746 31.3343 9.20197 31.4386 8.74076C31.5189 8.38629 31.536 8.08118 31.4923 7.82546C31.3921 7.20997 30.971 6.94982 30.4282 6.88721C30.463 7.24347 30.6995 7.79811 31.2852 7.72051Z" fill="white"/>
                        <path fill-rule="evenodd" clip-rule="evenodd" d="M31.6138 7.57105C31.6556 7.69538 31.679 7.83472 31.6852 7.98903C31.7539 7.8162 31.8289 7.64954 31.9109 7.48815C32.5636 6.26687 32.2913 5.61608 31.5245 5.23779C31.3798 5.57994 31.3415 6.25188 32.0138 6.48026C31.9877 6.71835 31.9003 7.0305 31.6958 7.41058C31.6673 7.46347 31.6404 7.51639 31.6138 7.57105Z" fill="white"/>
                        <path fill-rule="evenodd" clip-rule="evenodd" d="M31.4773 6.85737C31.5121 6.59812 31.3434 6.26217 30.9668 6.24805C30.881 6.57607 31.1612 6.86356 31.4773 6.85737Z" fill="white"/>
                        <path fill-rule="evenodd" clip-rule="evenodd" d="M35.5044 18.1953L34.8164 17.8003C34.8164 17.8003 34.8976 17.9749 34.8976 18.1953C34.8976 18.4167 34.8164 18.5921 34.8164 18.5921L35.5044 18.1953Z" fill="white"/>
                        <path fill-rule="evenodd" clip-rule="evenodd" d="M35.5609 18.251L35.1602 18.9308C35.1602 18.9308 35.3369 18.8515 35.5609 18.8515C35.7849 18.8515 35.9625 18.9308 35.9625 18.9308L35.5609 18.251Z" fill="white"/>
                        <path fill-rule="evenodd" clip-rule="evenodd" d="M35.6152 18.1953L36.3035 18.5921C36.3035 18.5921 36.2224 18.4167 36.2224 18.1953C36.2224 17.9749 36.3035 17.8003 36.3035 17.8003L35.6152 18.1953Z" fill="white"/>
                        <path fill-rule="evenodd" clip-rule="evenodd" d="M35.1582 17.4619L35.559 18.1418L35.9597 17.4619C35.9597 17.4619 35.783 17.5421 35.559 17.5421C35.335 17.5421 35.1582 17.4619 35.1582 17.4619Z" fill="white"/>
                        <path fill-rule="evenodd" clip-rule="evenodd" d="M32.4052 15.5766C32.2784 15.4858 32.1582 15.4232 32.0349 15.3993C32.0107 15.0925 31.6681 14.9549 31.1038 15.0255C31.1647 15.238 31.3591 15.3976 31.6108 15.4822C31.4191 15.5977 31.2162 15.8305 30.9941 16.2194C31.5261 16.357 32.0982 16.0774 32.4052 15.5766Z" fill="white"/>
                        <path fill-rule="evenodd" clip-rule="evenodd" d="M31.3087 14.2886C30.8901 14.1995 30.4654 14.3485 30.2832 14.6748C30.7464 14.8565 31.2658 14.6704 31.3087 14.2886Z" fill="white"/>
                        <path fill-rule="evenodd" clip-rule="evenodd" d="M30.666 13.2051C30.7651 12.9194 30.5295 12.7492 30.0565 12.751C30.0698 12.8392 30.1135 12.9177 30.1795 12.9856C30.0117 13.0191 29.811 13.1469 29.5547 13.4035C29.8993 13.5922 30.3519 13.4996 30.666 13.2051Z" fill="white"/>
                        <path fill-rule="evenodd" clip-rule="evenodd" d="M30.5955 8.03596C30.551 7.95041 30.501 7.88429 30.4386 7.83754C30.517 7.65589 30.3644 7.48836 30.0242 7.37988C29.9957 7.51746 30.0573 7.65942 30.176 7.77318C30.0324 7.78817 29.8485 7.86664 29.6074 8.02977C29.8662 8.24759 30.2724 8.23877 30.5955 8.03596Z" fill="white"/>
                        <path fill-rule="evenodd" clip-rule="evenodd" d="M33.5516 17.3998C33.3186 17.1714 32.9357 17.2402 32.7812 17.4844C32.9805 17.6387 33.3474 17.6775 33.5516 17.3998Z" fill="white"/>
                        <path fill-rule="evenodd" clip-rule="evenodd" d="M30.8032 8.50749C30.5944 8.28794 30.2347 8.33996 30.084 8.56128C30.2643 8.71119 30.6061 8.75968 30.8032 8.50749Z" fill="white"/>
                        <path fill-rule="evenodd" clip-rule="evenodd" d="M29.8613 11.458C30.0658 11.5612 30.3979 11.5321 30.5192 11.2552C30.2711 11.0939 29.9488 11.2191 29.8613 11.458Z" fill="white"/>
                        <path fill-rule="evenodd" clip-rule="evenodd" d="M30.3926 15.5623C30.5845 15.7272 30.9468 15.7819 31.161 15.5147C30.9405 15.2784 30.5577 15.3286 30.3926 15.5623Z" fill="white"/>
                        <path fill-rule="evenodd" clip-rule="evenodd" d="M32.5586 16.5004C32.2738 16.3372 31.9238 16.4969 31.8418 16.7667C32.0764 16.8681 32.4397 16.8161 32.5586 16.5004Z" fill="white"/>
                        <path fill-rule="evenodd" clip-rule="evenodd" d="M30.4341 14.1672C30.2503 13.9715 29.9326 14.0191 29.7969 14.214C29.9565 14.3489 30.2593 14.3903 30.4341 14.1672Z" fill="white"/>
                        <path fill-rule="evenodd" clip-rule="evenodd" d="M30.1928 10.8953C29.9234 10.5647 29.4162 10.5973 29.1816 10.8892C29.4181 11.1211 29.8903 11.226 30.1928 10.8953Z" fill="white"/>
                        <path fill-rule="evenodd" clip-rule="evenodd" d="M36.1227 16.8085C36.162 16.7379 36.1398 16.663 36.0781 16.6118C36.0298 16.5713 35.9291 16.4742 35.7043 16.29C35.6665 16.2582 35.6149 16.2256 35.5595 16.2256C35.505 16.2256 35.4534 16.2582 35.4159 16.29C35.1908 16.4742 35.0901 16.5713 35.0409 16.6118C34.9801 16.663 34.9562 16.7379 34.9964 16.8085C35.0355 16.8781 35.1194 16.9002 35.1829 16.8578C35.1088 16.9716 35.1615 17.0712 35.2204 17.1074C35.2864 17.1479 35.3703 17.1224 35.4113 17.0518C35.3917 17.1815 35.4792 17.2573 35.5595 17.2573C35.6399 17.2573 35.7292 17.1815 35.7086 17.0518C35.7488 17.1224 35.8327 17.1479 35.8995 17.1074C35.9568 17.0712 36.0103 16.9716 35.9361 16.8578C36.0005 16.9002 36.0836 16.8781 36.1227 16.8085Z" fill="white"/>
                        <path fill-rule="evenodd" clip-rule="evenodd" d="M34.1247 15.9279C33.7337 15.7568 33.0543 15.5293 32.6215 15.7807C32.4589 15.875 32.3207 16.0399 32.2832 16.226C32.5759 15.9076 33.3115 15.8009 33.5194 16.3873C33.5773 16.5513 33.5811 16.8053 33.4024 16.9014C33.4722 16.4826 33.1952 16.226 32.8276 16.2163C32.7804 16.4094 32.8295 16.621 32.9517 16.7612C32.8322 16.7489 32.7187 16.7736 32.6286 16.8106C32.6286 16.8106 32.7785 17.0487 33.0687 17.0707C33.281 17.0875 33.473 17.0108 33.6061 16.8644C33.6373 17.1272 33.6881 17.3617 33.9772 17.4473C33.6881 17.5822 33.4453 17.8097 33.3821 18.1086C34.5871 18.0478 34.4717 17.5998 34.3604 17.3229C33.6506 17.5046 33.7872 16.8282 33.7907 16.3697C33.8523 16.4014 34.056 16.494 34.255 16.569C34.2094 16.6836 34.1399 16.7797 34.0443 16.8644C34.4014 16.8353 34.5485 16.7321 35.1643 16.2066C34.8048 16.1669 34.4567 16.0716 34.1247 15.9279Z" fill="white"/>
                        <path fill-rule="evenodd" clip-rule="evenodd" d="M40.0894 12.3752C39.7924 12.6521 39.5092 13.0631 39.2613 13.6062C39.1271 13.8805 38.9756 14.1424 38.8051 14.3875C38.4891 14.839 38.1266 15.212 37.7285 15.503C38.0419 15.4483 38.2756 15.4801 38.4462 15.5533C38.6006 15.4025 38.7478 15.2349 38.8863 15.0559C39.1041 14.7764 39.3272 14.6759 39.6262 14.7632C39.5092 14.6477 39.3718 14.585 39.229 14.5648C39.4244 14.2658 39.52 13.9484 39.8575 13.7703C39.8806 13.7579 39.977 13.7165 40.0242 13.7059C40.2092 14.0234 40.5795 13.9466 40.7571 13.8452C40.4964 13.5119 40.069 13.4731 39.6762 13.7085C39.737 13.563 39.7959 13.4122 39.8475 13.2606C40.0109 12.7765 40.2868 12.4484 40.5706 12.2835C40.9865 12.7103 41.5355 12.4581 41.7729 12.2341C41.1418 11.7544 40.5545 11.944 40.0894 12.3752Z" fill="white"/>
                        <path fill-rule="evenodd" clip-rule="evenodd" d="M39.6281 7.82546C39.5852 8.08118 39.6031 8.38629 39.6835 8.74076C39.7886 9.20197 39.9227 9.81746 39.9227 10.5996C39.9227 11.3103 39.8217 12.0017 39.6308 12.6472C39.794 12.4232 39.9645 12.2442 40.1394 12.1084C40.1671 11.9452 40.1912 11.7786 40.2064 11.6111C40.368 11.7407 40.5814 11.7927 40.8464 11.7275C40.418 11.6428 40.2447 11.373 40.2447 10.9929C40.2447 10.6658 40.4234 10.4488 40.576 10.3227C40.9322 10.5511 41.5364 10.5088 41.7365 10.1279C41.44 9.98148 41.0973 9.96384 40.841 10.0511C40.576 10.1287 40.3672 10.2813 40.2368 10.4127C40.2349 10.373 40.2225 10.2116 40.2208 10.1772C40.2029 9.89769 40.3699 9.71604 40.6306 9.65696C40.4581 9.61113 40.3009 9.63844 40.1671 9.71341C40.1331 9.47974 40.0905 9.25133 40.0359 9.02559C40.5019 9.46032 41.1465 9.62082 41.6034 9.2875C41.3436 9.04324 40.8535 8.75664 40.4663 9.12437C40.2252 8.96034 39.9708 8.69316 39.8681 8.43744C39.8182 8.31485 39.7386 8.04327 39.835 7.72051C40.4226 7.79811 40.6591 7.24347 40.693 6.88721C40.1502 6.94982 39.7299 7.20997 39.6281 7.82546Z" fill="white"/>
                        <path fill-rule="evenodd" clip-rule="evenodd" d="M39.2097 7.48728C39.2919 7.65041 39.3669 7.8162 39.4348 7.98816C39.441 7.83472 39.4649 7.69451 39.507 7.57018C39.4801 7.51726 39.4516 7.46436 39.4239 7.41058C39.2194 7.02963 39.132 6.71746 39.107 6.47939C39.7782 6.25188 39.74 5.57904 39.5963 5.23779C38.8287 5.61521 38.5556 6.26597 39.2097 7.48728Z" fill="white"/>
                        <path fill-rule="evenodd" clip-rule="evenodd" d="M39.6453 6.85737C39.9613 6.86356 40.2407 6.57607 40.1549 6.24805C39.7791 6.26217 39.6097 6.59812 39.6453 6.85737Z" fill="white"/>
                        <path fill-rule="evenodd" clip-rule="evenodd" d="M40.0163 15.0269C39.452 14.9564 39.1094 15.0939 39.086 15.3999C38.9619 15.4246 38.8406 15.4863 38.7148 15.5781C39.0228 16.0771 39.594 16.3567 40.126 16.22C39.9038 15.8311 39.701 15.5974 39.509 15.4819C39.761 15.3981 39.9554 15.2394 40.0163 15.0269Z" fill="white"/>
                        <path fill-rule="evenodd" clip-rule="evenodd" d="M39.8125 14.2886C39.8543 14.6704 40.3737 14.8565 40.8361 14.6748C40.6559 14.3485 40.2301 14.1995 39.8125 14.2886Z" fill="white"/>
                        <path fill-rule="evenodd" clip-rule="evenodd" d="M40.9411 12.9856C41.0063 12.9177 41.05 12.8392 41.0633 12.751C40.5903 12.7492 40.3554 12.9194 40.4537 13.2051C40.767 13.4996 41.2194 13.5922 41.565 13.4035C41.3095 13.1469 41.1078 13.0191 40.9411 12.9856Z" fill="white"/>
                        <path fill-rule="evenodd" clip-rule="evenodd" d="M41.0956 7.37988C40.7556 7.48836 40.6039 7.65678 40.6823 7.8393C40.6199 7.88429 40.5691 7.9513 40.5254 8.03594C40.8485 8.24053 41.2544 8.24759 41.5135 8.0289C41.2715 7.86751 41.0885 7.78817 40.9449 7.77318C41.0627 7.65855 41.1241 7.51744 41.0956 7.37988Z" fill="white"/>
                        <path fill-rule="evenodd" clip-rule="evenodd" d="M38.3398 17.4845C38.1844 17.242 37.8005 17.1723 37.5684 17.3998C37.7709 17.6785 38.138 17.6406 38.3398 17.4845Z" fill="white"/>
                        <path fill-rule="evenodd" clip-rule="evenodd" d="M40.3164 8.50749C40.5127 8.75968 40.8548 8.71119 41.0359 8.56128C40.8842 8.33996 40.5244 8.28794 40.3164 8.50749Z" fill="white"/>
                        <path fill-rule="evenodd" clip-rule="evenodd" d="M41.2583 11.458C41.1701 11.2191 40.8478 11.0939 40.5996 11.2552C40.7221 11.5321 41.0531 11.5612 41.2583 11.458Z" fill="white"/>
                        <path fill-rule="evenodd" clip-rule="evenodd" d="M40.7266 15.5623C40.5607 15.3286 40.1786 15.2784 39.959 15.5147C40.1724 15.7819 40.5357 15.7272 40.7266 15.5623Z" fill="white"/>
                        <path fill-rule="evenodd" clip-rule="evenodd" d="M38.5605 16.5004C38.6792 16.8161 39.0433 16.8681 39.2782 16.7667C39.1951 16.4969 38.8462 16.3372 38.5605 16.5004Z" fill="white"/>
                        <path fill-rule="evenodd" clip-rule="evenodd" d="M41.3236 14.2135C41.1889 14.0178 40.8702 13.9728 40.6855 14.1668C40.8596 14.3899 41.1621 14.3476 41.3236 14.2135Z" fill="white"/>
                        <path fill-rule="evenodd" clip-rule="evenodd" d="M40.9297 10.8953C41.2324 11.226 41.7027 11.1211 41.9411 10.8892C41.7054 10.5973 41.1985 10.5647 40.9297 10.8953Z" fill="white"/>
                        <path fill-rule="evenodd" clip-rule="evenodd" d="M38.8353 16.2261C38.7995 16.0401 38.6613 15.8769 38.4978 15.7808C38.065 15.5295 37.3857 15.7561 36.9939 15.9281C36.6618 16.0718 36.3145 16.168 35.9531 16.2076C36.5708 16.7323 36.7188 16.8355 37.0742 16.8654C36.9795 16.7799 36.91 16.6847 36.8644 16.5692C37.0634 16.4942 37.2662 16.4016 37.3287 16.3708C37.3303 16.8293 37.4696 17.5048 36.759 17.3231C36.6474 17.6 36.5323 18.048 37.7384 18.1088C37.6732 17.8099 37.4321 17.5832 37.1421 17.4475C37.4321 17.3628 37.4802 17.1274 37.5133 16.8646C37.6463 17.011 37.8383 17.0886 38.0506 17.0709C38.3398 17.0498 38.49 16.8108 38.49 16.8108C38.4006 16.7746 38.2871 16.7482 38.1677 16.7614C38.2899 16.6212 38.3382 16.4096 38.2918 16.2164C37.9238 16.2261 37.6482 16.4828 37.7159 16.9034C37.5383 16.8055 37.5418 16.5515 37.5999 16.3884C37.8079 15.8029 38.5443 15.9078 38.8353 16.2261Z" fill="white"/>
                        <path fill-rule="evenodd" clip-rule="evenodd" d="M35.5602 15.4598C33.6125 15.4598 32.0274 13.28 32.0274 10.6028C32.0274 7.92125 33.6125 5.74057 35.5602 5.74057C37.5078 5.74057 39.0932 7.92125 39.0932 10.6028C39.0932 13.28 37.5078 15.4598 35.5602 15.4598ZM39.4663 10.6028C39.4663 7.72372 37.7177 5.38428 35.5604 5.38428C33.4037 5.38428 31.6543 7.72372 31.6543 10.6028C31.6543 13.4801 33.4037 15.8134 35.5604 15.8134C37.7177 15.8134 39.4663 13.4801 39.4663 10.6028Z" fill="white"/>
                        <path fill-rule="evenodd" clip-rule="evenodd" d="M35.5592 6.07422C35.2298 6.07422 34.9075 6.14829 34.5996 6.2885H36.5187C36.21 6.14829 35.8885 6.07422 35.5592 6.07422Z" fill="white"/>
                        <path fill-rule="evenodd" clip-rule="evenodd" d="M37.0304 6.59424H34.0903C34.0018 6.66035 33.9179 6.73092 33.834 6.8085H37.2856C37.2017 6.73092 37.1178 6.66035 37.0304 6.59424Z" fill="white"/>
                        <path fill-rule="evenodd" clip-rule="evenodd" d="M37.5755 7.11328H33.5436C33.4866 7.18206 33.4285 7.2535 33.375 7.32844H37.7452C37.6909 7.2535 37.6328 7.18206 37.5755 7.11328Z" fill="white"/>
                        <path fill-rule="evenodd" clip-rule="evenodd" d="M32.3828 10.7515C32.3847 10.8238 32.3872 10.8952 32.391 10.9666H38.7291C38.7337 10.8952 38.7365 10.8238 38.7381 10.7515H32.3828Z" fill="white"/>
                        <path fill-rule="evenodd" clip-rule="evenodd" d="M34.0873 14.6053H37.0319C37.1185 14.5391 37.2041 14.4677 37.288 14.3901H33.832C33.9148 14.4677 33.9987 14.5391 34.0873 14.6053Z" fill="white"/>
                        <path fill-rule="evenodd" clip-rule="evenodd" d="M35.5592 15.1249C35.8896 15.1249 36.2127 15.0508 36.5206 14.9106H34.5996C34.9075 15.0508 35.2298 15.1249 35.5592 15.1249Z" fill="white"/>
                        <path fill-rule="evenodd" clip-rule="evenodd" d="M33.7525 7.63379H33.1687C33.125 7.70433 33.0832 7.77577 33.043 7.84894H33.5955C33.6419 7.77311 33.6946 7.7008 33.7525 7.63379Z" fill="white"/>
                        <path fill-rule="evenodd" clip-rule="evenodd" d="M37.5244 7.84799H38.0769C38.0376 7.77479 37.9947 7.70338 37.9518 7.63281H37.3672C37.4269 7.69985 37.4788 7.77216 37.5244 7.84799Z" fill="white"/>
                        <path fill-rule="evenodd" clip-rule="evenodd" d="M33.4513 8.15283H32.8909C32.8586 8.22337 32.8282 8.29478 32.7988 8.36799H33.3916C33.4049 8.29831 33.4255 8.22601 33.4513 8.15283Z" fill="white"/>
                        <path fill-rule="evenodd" clip-rule="evenodd" d="M37.7288 8.36799H38.3216C38.2928 8.29478 38.2616 8.22337 38.2295 8.15283H37.6699C37.6957 8.2269 37.7136 8.29831 37.7288 8.36799Z" fill="white"/>
                        <path fill-rule="evenodd" clip-rule="evenodd" d="M33.3867 8.77828C33.3785 8.74214 33.3723 8.70774 33.3679 8.67334H32.6843C32.6609 8.74391 32.6386 8.81532 32.6172 8.88763H33.0242C33.1304 8.82238 33.2545 8.78271 33.3867 8.77828Z" fill="white"/>
                        <path fill-rule="evenodd" clip-rule="evenodd" d="M37.7324 8.77828C37.8628 8.78271 37.9877 8.82238 38.0946 8.88763H38.5008C38.4805 8.81532 38.4571 8.74391 38.434 8.67334H37.7493C37.7457 8.70774 37.7403 8.74214 37.7324 8.77828Z" fill="white"/>
                        <path fill-rule="evenodd" clip-rule="evenodd" d="M32.7439 9.19287H32.5395C32.5227 9.26428 32.5074 9.33572 32.4941 9.40716H32.6725C32.6869 9.33132 32.71 9.25901 32.7439 9.19287Z" fill="white"/>
                        <path fill-rule="evenodd" clip-rule="evenodd" d="M38.4484 9.40765H38.6268C38.6134 9.33531 38.5982 9.2639 38.5803 9.19336H38.377C38.4109 9.25948 38.4348 9.33181 38.4484 9.40765Z" fill="white"/>
                        <path fill-rule="evenodd" clip-rule="evenodd" d="M32.7348 9.86801C32.7114 9.81599 32.6927 9.76397 32.6794 9.71191H32.4429C32.432 9.78335 32.4231 9.85479 32.416 9.9262H32.7723C32.757 9.90945 32.7446 9.88916 32.7348 9.86801Z" fill="white"/>
                        <path fill-rule="evenodd" clip-rule="evenodd" d="M38.3851 9.86801C38.3754 9.88916 38.3629 9.90945 38.3477 9.9262H38.7031C38.6968 9.85479 38.6879 9.78335 38.6778 9.71191H38.4397C38.4272 9.76397 38.4093 9.81599 38.3851 9.86801Z" fill="white"/>
                        <path fill-rule="evenodd" clip-rule="evenodd" d="M36.7406 7.63379H34.3789C34.4386 7.7008 34.4905 7.77311 34.5367 7.84894H36.5834C36.6298 7.77311 36.6825 7.7008 36.7406 7.63379Z" fill="white"/>
                        <path fill-rule="evenodd" clip-rule="evenodd" d="M36.4392 8.15283H34.6816C34.7093 8.22601 34.7281 8.29831 34.7425 8.36799H36.3795C36.3939 8.29831 36.4134 8.22601 36.4392 8.15283Z" fill="white"/>
                        <path fill-rule="evenodd" clip-rule="evenodd" d="M36.376 8.77828C36.3682 8.74214 36.3619 8.70774 36.3573 8.67334H34.7621C34.7586 8.70774 34.7542 8.74214 34.7461 8.77828C34.8775 8.78271 35.0024 8.82238 35.1086 8.88763H36.0136C36.12 8.82238 36.2441 8.78271 36.376 8.77828Z" fill="white"/>
                        <path fill-rule="evenodd" clip-rule="evenodd" d="M35.6591 9.40765C35.6735 9.33181 35.6977 9.25948 35.7316 9.19336H35.3887C35.4218 9.25948 35.4476 9.33181 35.4601 9.40765H35.6591Z" fill="white"/>
                        <path fill-rule="evenodd" clip-rule="evenodd" d="M35.7594 9.92718C35.7246 9.88751 35.6899 9.80814 35.6668 9.71289H35.4526C35.43 9.80814 35.3953 9.88751 35.3613 9.92718H35.7594Z" fill="white"/>
                        <path fill-rule="evenodd" clip-rule="evenodd" d="M35.2471 11.272H32.4141C32.4214 11.3443 32.4312 11.4157 32.439 11.4871H35.0902C35.1366 11.4113 35.1893 11.339 35.2471 11.272Z" fill="white"/>
                        <path fill-rule="evenodd" clip-rule="evenodd" d="M36.0291 11.4867H38.6784C38.6881 11.4152 38.6971 11.3438 38.7052 11.2715H35.8711C35.9308 11.3385 35.9827 11.4108 36.0291 11.4867Z" fill="white"/>
                        <path fill-rule="evenodd" clip-rule="evenodd" d="M34.9451 11.792H32.4922C32.5066 11.8643 32.5207 11.9357 32.5378 12.0063H34.8851C34.8987 11.9366 34.9191 11.8652 34.9451 11.792Z" fill="white"/>
                        <path fill-rule="evenodd" clip-rule="evenodd" d="M36.2336 12.0068H38.5812C38.5964 11.9353 38.6124 11.8639 38.6268 11.7925H36.1738C36.2007 11.8657 36.2184 11.9371 36.2336 12.0068Z" fill="white"/>
                        <path fill-rule="evenodd" clip-rule="evenodd" d="M34.8809 12.4182C34.8727 12.3821 34.8676 12.3459 34.8621 12.3115H32.6172C32.6378 12.3839 32.6609 12.4553 32.6843 12.5258H34.5211C34.6273 12.4614 34.7505 12.4218 34.8809 12.4182Z" fill="white"/>
                        <path fill-rule="evenodd" clip-rule="evenodd" d="M36.2383 12.4182C36.3686 12.4218 36.4919 12.4614 36.598 12.5258H38.4349C38.4583 12.4553 38.4813 12.3839 38.502 12.3115H36.2562C36.2527 12.3459 36.2464 12.3821 36.2383 12.4182Z" fill="white"/>
                        <path fill-rule="evenodd" clip-rule="evenodd" d="M34.2393 12.8315H32.7988C32.8273 12.9047 32.8586 12.9762 32.8906 13.0458H34.167C34.1814 12.97 34.2056 12.8977 34.2393 12.8315Z" fill="white"/>
                        <path fill-rule="evenodd" clip-rule="evenodd" d="M36.9523 13.0458H38.2287C38.261 12.9753 38.2922 12.9038 38.3216 12.8315H36.8809C36.9148 12.8977 36.939 12.97 36.9523 13.0458Z" fill="white"/>
                        <path fill-rule="evenodd" clip-rule="evenodd" d="M34.6602 13.5661H35.0878C35.0655 13.4823 34.993 13.3906 34.8888 13.3906C34.7823 13.3906 34.7085 13.4744 34.6602 13.5661Z" fill="white"/>
                        <path fill-rule="evenodd" clip-rule="evenodd" d="M36.0332 13.5661H36.4606C36.4125 13.4744 36.3384 13.3906 36.233 13.3906C36.1258 13.3906 36.0536 13.4823 36.0332 13.5661Z" fill="white"/>
                        <path fill-rule="evenodd" clip-rule="evenodd" d="M33.166 9.92595H33.5937C33.5722 9.84218 33.4989 9.75049 33.3946 9.75049C33.2893 9.75049 33.2152 9.83425 33.166 9.92595Z" fill="white"/>
                        <path fill-rule="evenodd" clip-rule="evenodd" d="M34.7381 9.75C34.6336 9.75 34.5613 9.84169 34.5391 9.92549H34.9664C34.9176 9.83463 34.8443 9.75 34.7381 9.75Z" fill="white"/>
                        <path fill-rule="evenodd" clip-rule="evenodd" d="M37.7264 9.75C37.6218 9.75 37.5496 9.84169 37.5273 9.92549H37.9547C37.9056 9.83463 37.8325 9.75 37.7264 9.75Z" fill="white"/>
                        <path fill-rule="evenodd" clip-rule="evenodd" d="M36.381 9.75C36.2756 9.75 36.2015 9.83463 36.1523 9.92549H36.5808C36.5585 9.84169 36.4852 9.75 36.381 9.75Z" fill="white"/>
                        <path fill-rule="evenodd" clip-rule="evenodd" d="M34.1722 13.3506H33.041C33.0804 13.4238 33.1233 13.4952 33.1662 13.5657H34.264C34.2221 13.5216 34.1855 13.4053 34.1722 13.3506Z" fill="white"/>
                        <path fill-rule="evenodd" clip-rule="evenodd" d="M36.8555 13.5662H37.9524C37.9945 13.4957 38.0363 13.4243 38.0776 13.3511H36.9464C36.9339 13.4049 36.8965 13.523 36.8555 13.5662Z" fill="white"/>
                        <path fill-rule="evenodd" clip-rule="evenodd" d="M34.0668 7.91078C34.3739 8.38521 34.341 8.73352 34.0668 9.22734V7.91078ZM34.738 9.49452C34.9237 9.49452 35.0798 9.60562 35.1637 9.76259C35.1941 9.69558 35.2148 9.62238 35.2148 9.54478C35.2148 9.26261 34.9943 9.03247 34.7201 9.03247C34.6326 9.03247 34.5498 9.05891 34.4784 9.10301L34.3052 9.35167L34.24 9.30404C34.24 9.30404 34.5086 8.86404 34.5086 8.59157C34.5086 8.31643 34.3337 7.89934 34.0668 7.68506C33.7991 7.89934 33.6242 8.31643 33.6242 8.59157C33.6242 8.86404 33.8919 9.30404 33.8919 9.30404L33.8268 9.35167L33.6543 9.10301C33.5829 9.05891 33.499 9.03247 33.4116 9.03247C33.1384 9.03247 32.918 9.26261 32.918 9.54478C32.918 9.62238 32.9378 9.69558 32.9698 9.76259C33.0518 9.60562 33.209 9.49452 33.3948 9.49452C33.6758 9.49452 33.8607 9.752 33.8607 9.97598C33.8607 10.0703 33.8455 10.155 33.8232 10.2308V10.2326C33.7955 10.3173 33.7608 10.3896 33.7268 10.4469H34.4059C34.3712 10.3896 34.3364 10.3173 34.3087 10.2326V10.2308C34.2873 10.155 34.2712 10.0703 34.2712 9.97598V9.97511C34.2712 9.752 34.457 9.49452 34.738 9.49452Z" fill="white"/>
                        <path fill-rule="evenodd" clip-rule="evenodd" d="M37.054 7.91078C37.3611 8.38521 37.329 8.73352 37.054 9.22734V7.91078ZM37.7255 9.49452C37.9112 9.49452 38.0673 9.60562 38.1512 9.76259C38.1824 9.69558 38.2022 9.62238 38.2022 9.54478C38.2022 9.26261 37.9818 9.03247 37.7086 9.03247C37.6201 9.03247 37.5373 9.05891 37.4659 9.10301L37.2926 9.35167L37.2283 9.30404C37.2283 9.30404 37.4971 8.86404 37.4971 8.59157C37.4971 8.31643 37.322 7.89934 37.0542 7.68506C36.7865 7.89934 36.6117 8.31643 36.6117 8.59157C36.6117 8.86404 36.8794 9.30404 36.8794 9.30404L36.8142 9.35167L36.6429 9.10301C36.5715 9.05891 36.4876 9.03247 36.3991 9.03247C36.1267 9.03247 35.9062 9.26261 35.9062 9.54478C35.9062 9.62238 35.9261 9.69558 35.9573 9.76259C36.0412 9.60562 36.1965 9.49452 36.3822 9.49452C36.6633 9.49452 36.8482 9.752 36.849 9.97511V9.97598C36.849 10.0703 36.833 10.155 36.8115 10.2308L36.8107 10.2326C36.7846 10.3173 36.7491 10.3896 36.7143 10.4469H37.3934C37.3586 10.3896 37.3239 10.3173 37.297 10.2326L37.2962 10.2308C37.2747 10.155 37.2587 10.0703 37.2587 9.97598C37.2587 9.752 37.4444 9.49452 37.7255 9.49452Z" fill="white"/>
                        <path fill-rule="evenodd" clip-rule="evenodd" d="M35.5598 12.8674V11.5509C35.8667 12.0253 35.8346 12.3727 35.5598 12.8674ZM35.5601 11.3242C35.2924 11.5402 35.1173 11.9565 35.1173 12.2316C35.1173 12.5032 35.3861 12.9441 35.3861 12.9441L35.3209 12.9917L35.1485 12.7413C35.0771 12.6989 34.9943 12.6725 34.9049 12.6725C34.6326 12.6725 34.4121 12.9026 34.4121 13.1839C34.4121 13.2633 34.4319 13.3365 34.4632 13.4018C34.5471 13.2457 34.7032 13.1345 34.8889 13.1345C35.1691 13.1345 35.3548 13.3921 35.3548 13.616C35.3548 13.8171 35.287 13.9767 35.2218 14.0851H35.8984C35.8333 13.9767 35.7646 13.8171 35.7646 13.616C35.7646 13.6151 35.7654 13.6151 35.7654 13.6143C35.7654 13.3912 35.9511 13.1345 36.2321 13.1345C36.4178 13.1345 36.5732 13.2457 36.6571 13.4018C36.6883 13.3365 36.7078 13.2633 36.7078 13.1839C36.7078 12.9026 36.4874 12.6725 36.2153 12.6725C36.1268 12.6725 36.0429 12.6989 35.9715 12.7413L35.7993 12.9917L35.735 12.9441C35.735 12.9441 36.0027 12.5032 36.0027 12.2316C36.0027 11.9565 35.8278 11.5402 35.5601 11.3242Z" fill="white"/>
                        <path fill-rule="evenodd" clip-rule="evenodd" d="M35.0402 13.8711H33.373C33.4282 13.9461 33.4855 14.0175 33.5433 14.0863H34.9386C34.9742 14.029 35.0117 13.9575 35.0402 13.8711Z" fill="white"/>
                        <path fill-rule="evenodd" clip-rule="evenodd" d="M36.1819 14.0853H37.5762C37.6343 14.0165 37.6905 13.946 37.7467 13.8701H36.0801C36.1078 13.9565 36.1452 14.0297 36.1819 14.0853Z" fill="white"/>
                        <path fill-rule="evenodd" clip-rule="evenodd" d="M35.8989 1.82327C35.8989 1.63809 35.7463 1.4873 35.559 1.4873C35.3716 1.4873 35.2188 1.63809 35.2188 1.82327C35.2188 2.00845 35.3716 2.15924 35.559 2.15924C35.7463 2.15924 35.8989 2.00845 35.8989 1.82327Z" fill="white"/>
                        <path fill-rule="evenodd" clip-rule="evenodd" d="M35.8702 4.77541L35.9619 4.89887L36.1121 4.65108L35.9657 4.41211H35.1533L35.0078 4.65108L35.1588 4.89887L35.2497 4.77541H35.8702Z" fill="white"/>
                        <path fill-rule="evenodd" clip-rule="evenodd" d="M34.5394 4.90503L34.6705 4.98703L34.7134 4.70309L34.484 4.53467L33.7316 4.82123L33.6914 5.0946L33.926 5.27096L33.9646 5.12371L34.5394 4.90503Z" fill="white"/>
                        <path fill-rule="evenodd" clip-rule="evenodd" d="M37.1535 5.12371L37.1926 5.27096L37.4294 5.0946L37.3881 4.82213L36.6341 4.53467L36.4062 4.70309L36.4483 4.98703L36.5795 4.90503L37.1535 5.12371Z" fill="white"/>
                        <path fill-rule="evenodd" clip-rule="evenodd" d="M33.5438 10.2324H32.3895C32.3852 10.3039 32.3825 10.3753 32.3809 10.4476H33.442C33.4786 10.3903 33.5161 10.3188 33.5438 10.2324Z" fill="white"/>
                        <path fill-rule="evenodd" clip-rule="evenodd" d="M37.6758 10.4471H38.7363C38.7355 10.3748 38.7328 10.3033 38.7293 10.2319H37.5742C37.6027 10.3183 37.6402 10.3915 37.6758 10.4471Z" fill="white"/>
                        <path fill-rule="evenodd" clip-rule="evenodd" d="M36.431 10.4471C36.4676 10.3915 36.5051 10.3183 36.5339 10.2319H34.5879C34.6164 10.3183 34.6531 10.3915 34.6897 10.4471H36.431Z" fill="white"/>
                        <path fill-rule="evenodd" clip-rule="evenodd" d="M37.9513 3.33147L37.0141 2.94524L36.8248 3.32177C36.7499 3.45846 36.6125 3.47874 36.509 3.43905C36.408 3.40025 36.3179 3.29355 36.3553 3.1507L36.4591 2.71597L35.56 2.34473L34.6602 2.71597L34.7656 3.1507C34.803 3.29355 34.7121 3.40025 34.6122 3.43905C34.5095 3.47874 34.371 3.45846 34.2953 3.32177L34.1052 2.94524L33.1706 3.33147L33.2714 3.71152C33.308 3.8535 33.2171 3.96021 33.1172 3.99901C33.0142 4.03955 32.8752 4.0184 32.8 3.88261L32.6146 3.55985L32.0308 3.79881C31.9184 3.58103 31.7343 3.64011 31.6602 3.67538L32.5279 5.32171C32.7617 5.82611 32.661 6.19118 32.6485 6.30581C32.9206 5.88694 33.5437 5.48926 33.6482 5.42488L33.1633 5.07128C33.1598 5.13389 33.1723 5.22735 33.1886 5.30232L32.9947 5.45396L32.7262 4.99544C33.5266 4.4487 34.4666 4.12157 35.4164 4.10482C35.3743 3.99282 35.3146 3.86849 35.0808 3.89053C34.2255 3.96724 33.3892 4.26529 32.6091 4.79085L32.1842 4.06159C32.1842 4.06159 32.5233 3.9311 32.5244 3.9311C32.7126 4.23355 32.9439 4.26795 33.2054 4.16301C33.4614 4.06249 33.5562 3.86143 33.4973 3.55105L34.0194 3.34734C34.2407 3.70006 34.4604 3.71681 34.7104 3.61806C34.9657 3.51665 35.0485 3.2768 34.9915 2.96993C34.9915 2.96993 35.1386 2.91085 35.295 2.84824C35.3798 3.41436 35.56 3.7318 35.56 3.7318C35.56 3.7318 35.7395 3.41436 35.8242 2.84824C35.9823 2.91085 36.1305 2.96993 36.1305 2.96993C36.0732 3.2768 36.1555 3.51665 36.4088 3.61806C36.6605 3.71681 36.8802 3.70006 37.1015 3.34734L37.6239 3.55105C37.5631 3.86143 37.6603 4.06249 37.9166 4.16301C38.1781 4.26795 38.4083 4.23355 38.5976 3.9311L38.9367 4.06159L38.512 4.79085C37.7317 4.26529 36.8946 3.96724 36.0385 3.89053C35.8063 3.86849 35.7458 3.99282 35.7029 4.10482C36.6554 4.12157 37.5943 4.4487 38.3931 4.99544L38.1262 5.45396L37.9326 5.30232C37.9494 5.22735 37.9619 5.13389 37.9576 5.07128L37.4737 5.42488C37.5783 5.48926 38.1995 5.88694 38.4735 6.30581C38.4594 6.19118 38.3603 5.82611 38.594 5.32171L39.4588 3.67538C39.3858 3.64011 39.2009 3.58103 39.0885 3.79881L38.5047 3.55985L38.3201 3.88261C38.2451 4.0184 38.1075 4.03955 38.004 3.99901C37.9033 3.96021 37.8129 3.8535 37.8506 3.71152L37.9513 3.33147Z" fill="white"/>
                        <path fill-rule="evenodd" clip-rule="evenodd" d="M24.3145 10.2101C24.3136 10.3239 24.4064 10.4174 24.5198 10.4183C24.6349 10.4191 24.7304 10.3274 24.7313 10.2137C24.7331 10.0999 24.6394 10.0082 24.5233 10.0073C24.4082 10.0064 24.3153 10.0964 24.3145 10.2101Z" fill="white"/>
                        <path fill-rule="evenodd" clip-rule="evenodd" d="M24.0157 11.4529L24.0059 11.4537L24.0898 12.0366L24.0907 12.0454L24.1817 12.0331L24.1826 12.026C24.1897 11.974 24.1933 11.9008 24.1933 11.8197L24.7173 11.7465L24.7619 12.0534C24.7726 12.1292 24.8128 12.1495 24.8404 12.1601L24.9154 12.1495L24.8538 11.728L25.3037 11.6636L25.3617 12.0684C25.2885 12.0957 25.235 12.1213 25.1725 12.1609L25.168 12.1645L25.1787 12.2368L25.185 12.2385C25.2368 12.25 25.3439 12.2632 25.4162 12.2535C25.4581 12.2474 25.4885 12.2403 25.5108 12.2271L25.5161 12.2244L25.3787 11.2686L25.3706 11.2695C25.285 11.2818 25.2734 11.3206 25.268 11.4652L24.1665 11.6178C24.1201 11.4758 24.096 11.4414 24.0157 11.4529Z" fill="white"/>
                        <path fill-rule="evenodd" clip-rule="evenodd" d="M24.5341 12.9295C24.6118 12.8237 24.7403 12.7452 24.909 12.7002C25.0778 12.6553 25.2322 12.6588 25.3527 12.709C25.3687 12.7152 25.3839 12.724 25.3982 12.7311C25.4919 12.784 25.5571 12.8704 25.5865 12.9807C25.6213 13.1059 25.599 13.2275 25.5241 13.3299C25.4473 13.4357 25.3196 13.515 25.1518 13.5591C24.984 13.605 24.8305 13.6014 24.7073 13.5503C24.5877 13.5 24.5056 13.4066 24.4717 13.2796C24.4369 13.1535 24.4583 13.0318 24.5341 12.9295ZM24.6491 13.7117C24.6517 13.7134 24.6553 13.7152 24.658 13.7169C24.8213 13.8051 25.0231 13.8263 25.2221 13.7716C25.431 13.7178 25.5863 13.6085 25.6711 13.4551C25.7541 13.3113 25.7711 13.1376 25.722 12.9568C25.672 12.7787 25.5613 12.6341 25.4087 12.5468C25.4069 12.545 25.4033 12.5442 25.3989 12.5424C25.2373 12.4533 25.0374 12.4348 24.8383 12.4886C24.6285 12.5442 24.4741 12.6526 24.3849 12.8025C24.301 12.9462 24.2831 13.1164 24.3304 13.2972C24.3804 13.4762 24.4929 13.6226 24.6491 13.7117Z" fill="white"/>
                        <path fill-rule="evenodd" clip-rule="evenodd" d="M26.0494 14.2684L26.053 14.2737L26.1378 14.241L25.9262 13.6987L25.9182 13.7014C25.8414 13.7322 25.8378 13.7754 25.8673 13.9236L24.8301 14.3177C24.7515 14.1881 24.7185 14.1581 24.6417 14.1873L24.6328 14.1908L24.8426 14.7313L24.9283 14.7005V14.6925C24.9256 14.6414 24.914 14.5646 24.9015 14.5073L25.9432 14.1132C25.9726 14.1625 26.0155 14.2278 26.0494 14.2684Z" fill="white"/>
                        <path fill-rule="evenodd" clip-rule="evenodd" d="M26.5771 15.3946C26.6057 15.4334 26.6467 15.503 26.6682 15.5383C26.7164 15.6194 26.7351 15.6935 26.7217 15.7579C26.7083 15.8214 26.6655 15.8769 26.5923 15.9193C26.5361 15.9519 26.4495 15.9836 26.3611 15.9528C26.262 15.9201 26.1808 15.8214 26.1121 15.6626L26.5771 15.3946ZM26.395 16.1335C26.5057 16.1688 26.6199 16.1573 26.7164 16.1018C26.819 16.0409 26.8797 15.9598 26.8931 15.8584C26.9074 15.7614 26.8779 15.6485 26.8038 15.5233C26.7878 15.4977 26.7538 15.4431 26.7181 15.3857C26.6771 15.3205 26.6342 15.2526 26.6146 15.2173L26.486 15.0039L26.4798 15.0083C26.4066 15.0498 26.4102 15.0903 26.4602 15.227L25.5006 15.7817C25.4024 15.6688 25.3676 15.6459 25.2953 15.6864L25.2891 15.6908L25.5899 16.1988L25.5934 16.2058L25.672 16.1608L25.6711 16.1538C25.6631 16.1132 25.6399 16.0506 25.6024 15.9589L25.9996 15.7288C26.1237 15.9995 26.2834 16.0982 26.395 16.1335Z" fill="white"/>
                        <path fill-rule="evenodd" clip-rule="evenodd" d="M26.6207 17.6221C26.8055 17.7252 27.0295 17.6988 27.2339 17.5392L27.7847 17.1124C27.8982 17.2129 27.9356 17.2306 27.9997 17.1812L28.007 17.175L27.6606 16.742L27.59 16.7958L27.5919 16.802C27.6063 16.8523 27.65 16.9254 27.6847 16.9837L27.1464 17.4043C26.9197 17.5815 26.7287 17.5771 26.5805 17.3902C26.4163 17.1856 26.4493 17.0057 26.6823 16.8241L27.2214 16.4043C27.2714 16.451 27.3339 16.5084 27.3785 16.5357L27.3831 16.5383L27.4553 16.4837L27.0831 16.0181L27.0759 16.0243C27.0108 16.0736 27.0206 16.1151 27.092 16.2447L26.5439 16.6733C26.3851 16.7967 26.303 16.9246 26.2904 17.063C26.2797 17.1926 26.3315 17.3267 26.4484 17.4739C26.4993 17.5365 26.5582 17.5868 26.6207 17.6221Z" fill="white"/>
                        <path fill-rule="evenodd" clip-rule="evenodd" d="M27.5479 18.3802L27.8718 18.0434L28.0405 18.2012C28.1735 18.3264 28.1871 18.4587 28.0763 18.5751C27.9576 18.6959 27.8102 18.6968 27.6791 18.576L27.5495 18.4516C27.5229 18.4269 27.5218 18.4075 27.5479 18.3802ZM28.2875 17.6122L28.4241 17.7418C28.5368 17.8476 28.543 17.9605 28.4393 18.0681C28.3608 18.1492 28.2349 18.1977 28.1135 18.0919L27.962 17.9508L28.2875 17.6122ZM27.7458 18.785C27.9245 18.8855 28.1029 18.8635 28.2441 18.7171C28.3663 18.5901 28.3736 18.4349 28.2636 18.278C28.3948 18.322 28.527 18.2894 28.6215 18.1916C28.7233 18.0857 28.7939 17.912 28.5528 17.6836L28.0977 17.2568L28.0904 17.2621C28.0326 17.3247 28.0478 17.3618 28.1341 17.4782L27.3684 18.2718C27.247 18.1924 27.2077 18.1792 27.1497 18.2418L27.1426 18.2489L27.5995 18.6765C27.6478 18.7233 27.697 18.7594 27.7458 18.785Z" fill="white"/>
                        <path fill-rule="evenodd" clip-rule="evenodd" d="M29.4518 18.542L29.4581 18.5437L29.5108 18.4723L29.0557 18.1381L29.0484 18.1328L29.0421 18.1399C28.9922 18.2069 29.0109 18.2395 29.1127 18.3453L28.4486 19.2307C28.3174 19.1654 28.278 19.1584 28.2281 19.2236L28.2227 19.2324L29.0323 19.8259L29.0378 19.8294L29.0429 19.8259C29.0682 19.8091 29.0975 19.7836 29.119 19.7545C29.1654 19.6927 29.2091 19.5878 29.2224 19.5349L29.2243 19.5296L29.1646 19.4846L29.1591 19.4881C29.1029 19.5181 29.0475 19.5614 28.978 19.6248L28.6109 19.3559L29.2786 18.4661C29.3305 18.4908 29.4011 18.5252 29.4518 18.542Z" fill="white"/>
                        <path fill-rule="evenodd" clip-rule="evenodd" d="M30.4172 19.1669L30.4234 19.1686L30.4717 19.0928L29.9781 18.7939L29.97 18.7886L29.9645 18.7965C29.9208 18.8662 29.9469 18.9041 30.0609 19.0029L29.481 19.9393C29.339 19.8829 29.2933 19.8803 29.2496 19.9499L29.2461 19.957L29.7389 20.255L29.7468 20.2594L29.7951 20.1836L29.7905 20.1783C29.7566 20.1395 29.6976 20.0857 29.655 20.0469L30.2377 19.1087C30.2904 19.129 30.3637 19.1554 30.4172 19.1669Z" fill="white"/>
                        <path fill-rule="evenodd" clip-rule="evenodd" d="M30.6973 20.6171C30.5767 20.5624 30.4964 20.4672 30.467 20.3438C30.4358 20.2168 30.4573 20.0677 30.5303 19.9134C30.6829 19.5925 30.9349 19.4655 31.1847 19.5819C31.1972 19.5872 31.2077 19.5933 31.2194 19.6004C31.4399 19.7238 31.4934 19.9875 31.3525 20.2829C31.2007 20.6004 30.9446 20.7318 30.6973 20.6171ZM31.5643 20.3658C31.6544 20.1744 31.6696 19.9866 31.608 19.8235C31.5482 19.6683 31.425 19.5439 31.2536 19.4646C30.8939 19.297 30.5021 19.4522 30.3218 19.8296C30.2316 20.0219 30.2137 20.2106 30.2718 20.3755C30.3288 20.5298 30.4494 20.6541 30.6199 20.7326C30.6367 20.7414 30.6547 20.7476 30.6628 20.7502C30.7584 21.0368 30.9118 21.2467 31.0929 21.3499C31.1081 21.3578 31.1225 21.3657 31.1358 21.371C31.2982 21.446 31.4358 21.4151 31.492 21.3843L31.4964 21.3816L31.4975 21.3084L31.4901 21.3067C31.4847 21.3058 31.4785 21.304 31.4714 21.3031C31.4312 21.2961 31.3707 21.2828 31.2895 21.2449C31.1198 21.1664 30.9672 21.0148 30.836 20.7943C31.1366 20.8322 31.4214 20.6674 31.5643 20.3658Z" fill="white"/>
                        <path fill-rule="evenodd" clip-rule="evenodd" d="M32.0975 21.2845C32.1509 21.3154 32.2145 21.3392 32.2867 21.3621C32.4428 21.408 32.5884 21.3939 32.7097 21.3225C32.8295 21.2528 32.9196 21.1294 32.9677 20.9671L33.1686 20.3057C33.3185 20.3234 33.3606 20.3154 33.382 20.2378L33.3856 20.2299L32.8599 20.0756L32.8509 20.0729L32.8232 20.1585L32.8295 20.1629C32.8713 20.1937 32.9489 20.229 33.0117 20.2581L32.817 20.9071C32.7768 21.042 32.7171 21.1364 32.6402 21.1893C32.5626 21.2431 32.4627 21.2537 32.3464 21.2193C32.2145 21.1805 32.1306 21.117 32.0912 21.0244C32.0556 20.9389 32.0584 20.8322 32.0994 20.6973L32.2938 20.0483C32.3627 20.0562 32.4474 20.0694 32.4993 20.0659L32.5056 20.065L32.5305 19.9804L31.9644 19.8137L31.9557 19.811L31.953 19.8199C31.9305 19.8975 31.9609 19.9257 32.0966 19.9918L31.8976 20.6541C31.8403 20.8454 31.8477 20.9971 31.918 21.117C31.9582 21.184 32.0171 21.2396 32.0975 21.2845Z" fill="white"/>
                        <path fill-rule="evenodd" clip-rule="evenodd" d="M34.3044 20.4903C34.3088 20.567 34.3186 20.6261 34.3384 20.6957L34.34 20.701L34.4141 20.7125L34.4168 20.7072C34.4445 20.6604 34.4883 20.5635 34.4988 20.4911C34.5062 20.4506 34.5062 20.4188 34.5007 20.3959L34.4999 20.3889L33.5216 20.2425L33.5116 20.2407L33.5108 20.2513C33.4983 20.3333 33.5322 20.3562 33.6707 20.4021L33.5037 21.4867C33.3563 21.4911 33.3188 21.5017 33.3055 21.5855L33.3047 21.5943L34.2838 21.7415L34.2884 21.7424L34.2919 21.7371C34.3071 21.7107 34.3196 21.6745 34.324 21.6402C34.3365 21.5626 34.3232 21.455 34.3123 21.4029L34.3107 21.3968L34.2374 21.3871L34.2338 21.3906C34.1972 21.4461 34.1679 21.5079 34.1374 21.5899L33.7055 21.5246L33.7858 21.0044L34.1152 21.0546C34.1928 21.0652 34.2241 21.0343 34.242 21.0096L34.2436 21.0079L34.2534 20.9356L33.8054 20.8694L33.8749 20.4259L34.3044 20.4903Z" fill="white"/>
                        <path fill-rule="evenodd" clip-rule="evenodd" d="M35.3046 21.2095L35.3027 21.2113V21.3374H35.625C35.7331 21.3374 35.7706 21.3338 35.8045 21.2924L35.8061 21.2898V21.1646H35.4822C35.375 21.1646 35.3375 21.1681 35.3046 21.2095Z" fill="white"/>
                        <path fill-rule="evenodd" clip-rule="evenodd" d="M36.7827 21.731L36.7846 21.7398L37.3586 21.6658L37.3665 21.664L37.3559 21.5758L37.3486 21.5741C37.3103 21.567 37.2478 21.5608 37.1604 21.56L37.0442 20.6852L37.0434 20.6817L37.039 20.6799C37.0086 20.6658 36.9703 20.6623 36.9239 20.6684C36.8283 20.6808 36.7167 20.7284 36.6801 20.7478L36.6738 20.7513L36.6836 20.8227L36.6898 20.8245C36.7292 20.8298 36.7819 20.8351 36.8614 20.8351L36.9603 21.5837C36.8112 21.627 36.7721 21.6508 36.7827 21.731Z" fill="white"/>
                        <path fill-rule="evenodd" clip-rule="evenodd" d="M37.8472 20.9236L37.9311 20.9403C38.1133 20.9747 38.2113 21.0179 38.2436 21.1626C38.2729 21.2904 38.1953 21.3936 38.0462 21.4253C37.8882 21.4606 37.773 21.3918 37.7402 21.2411C37.7062 21.092 37.7749 20.9968 37.8472 20.9236ZM37.6232 20.5301C37.6079 20.4657 37.6185 20.4119 37.6525 20.3705C37.6829 20.3317 37.7337 20.3035 37.798 20.2893C37.8588 20.277 37.9131 20.2823 37.9579 20.3079C37.9623 20.3114 37.9666 20.314 37.9712 20.3167C38.0158 20.3484 38.0497 20.3978 38.0641 20.464C38.0864 20.5636 38.0579 20.6544 37.9775 20.7435L37.9533 20.7382C37.7801 20.7065 37.6552 20.6729 37.6232 20.5301ZM37.5387 21.3001C37.5591 21.3936 37.6055 21.4641 37.6796 21.5118C37.6832 21.5144 37.6894 21.5179 37.6948 21.5206C37.7893 21.5735 37.9161 21.5841 38.0644 21.5514C38.3278 21.4941 38.4847 21.2957 38.4355 21.0815C38.3918 20.8839 38.2732 20.8142 38.0831 20.7666C38.1912 20.7014 38.3001 20.5876 38.2599 20.4069C38.224 20.2473 38.0804 20.1 37.7831 20.1661C37.6555 20.1926 37.5555 20.2508 37.4931 20.3319C37.4323 20.4086 37.4108 20.5021 37.4315 20.5965C37.476 20.7949 37.6117 20.8619 37.744 20.8989C37.5841 20.9915 37.5056 21.144 37.5387 21.3001Z" fill="white"/>
                        <path fill-rule="evenodd" clip-rule="evenodd" d="M38.8006 21.3361L38.8033 21.3449L39.355 21.172L39.364 21.1703L39.3363 21.0839H39.33C39.2907 21.0839 39.2274 21.0892 39.1416 21.1024L38.8703 20.2576L38.8649 20.2567C38.8329 20.2497 38.7943 20.2523 38.749 20.2655C38.6588 20.2938 38.557 20.3617 38.5222 20.3864L38.5195 20.3916L38.541 20.4595H38.548C38.5882 20.4587 38.639 20.4551 38.7186 20.4419L38.9488 21.1606C38.8106 21.2285 38.7767 21.2593 38.8006 21.3361Z" fill="white"/>
                        <path fill-rule="evenodd" clip-rule="evenodd" d="M39.7466 20.2188C39.8259 20.1853 39.9 20.188 39.9652 20.225H39.9663C40.026 20.2594 40.0787 20.3238 40.1154 20.4111C40.1536 20.5001 40.1653 20.5865 40.1474 20.658C40.1314 20.7276 40.0877 20.7797 40.0225 20.807C39.9519 20.8343 39.8867 20.8343 39.8243 20.807C39.8153 20.8026 39.8083 20.7991 39.8009 20.7938C39.6502 20.71 39.5691 20.4895 39.5566 20.4551C39.5691 20.3731 39.6394 20.2629 39.7466 20.2188ZM39.6538 20.9146C39.6592 20.9173 39.6646 20.9199 39.6698 20.9226C39.7876 20.9825 39.9215 20.9852 40.0581 20.9296C40.1797 20.8793 40.2699 20.7824 40.3117 20.6571C40.35 20.5407 40.3429 20.4076 40.2937 20.2921C40.2484 20.1836 40.1735 20.0981 40.0795 20.054C39.9796 20.0064 39.8672 20.0055 39.7529 20.0522C39.5921 20.1183 39.5359 20.2383 39.5156 20.3159C39.4539 19.9967 39.5886 19.6995 39.884 19.517L39.8922 19.5117L39.8395 19.4341L39.8341 19.4385C39.3654 19.6351 39.1772 20.0972 39.3744 20.5654C39.4431 20.7294 39.5405 20.8494 39.6538 20.9146Z" fill="white"/>
                        <path fill-rule="evenodd" clip-rule="evenodd" d="M41.2569 19.8874C41.3723 19.8883 41.4649 19.7957 41.4659 19.6829C41.4676 19.5691 41.3758 19.4765 41.2607 19.4756C41.1455 19.473 41.0516 19.5656 41.0508 19.6793C41.05 19.7931 41.1417 19.8866 41.2569 19.8874Z" fill="white"/>
                        <path fill-rule="evenodd" clip-rule="evenodd" d="M24.2768 7.81539H24.2715L24.2697 7.81979C24.2438 7.86651 24.1956 8.02878 24.1759 8.14252C24.1144 8.47674 24.2358 8.75008 24.491 8.89472C24.5696 8.93702 24.6606 8.97055 24.7624 8.98818C25.1819 9.06225 25.497 8.86208 25.5657 8.48203C25.6148 8.21129 25.4774 8.05082 25.4149 7.99351L25.4113 7.99084L25.4068 7.99174C25.389 7.99614 25.3488 8.02085 25.3354 8.0367L25.331 8.042L25.3363 8.05346C25.3729 8.10725 25.4524 8.23334 25.4202 8.41059C25.3961 8.54815 25.3194 8.65309 25.198 8.7157C25.0828 8.77479 24.932 8.79064 24.774 8.76333C24.5928 8.73156 24.4589 8.66631 24.3768 8.56843C24.2973 8.47407 24.2715 8.35417 24.2955 8.21572C24.3125 8.12666 24.3429 8.05788 24.3607 8.02348C24.4777 8.02348 24.5642 8.00409 24.5955 7.99527L24.6026 7.99351L24.616 7.9212L24.6107 7.91854C24.5625 7.88856 24.4696 7.83567 24.3812 7.82065C24.3527 7.81539 24.3063 7.81186 24.2768 7.81539Z" fill="white"/>
                        <path fill-rule="evenodd" clip-rule="evenodd" d="M25.2016 7.32241L24.674 6.945L25.3256 6.9397L25.2016 7.32241ZM24.714 6.74727C24.6194 6.74901 24.5507 6.74991 24.5096 6.87864L24.4766 6.97565L25.5566 7.76133C25.5513 7.85569 25.5557 7.89978 25.6003 7.92623C25.6093 7.92889 25.6191 7.93329 25.6289 7.93682L25.6378 7.93945L25.786 7.4818L25.7887 7.4721L25.703 7.44653L25.6994 7.45095C25.6646 7.50298 25.6298 7.56646 25.6084 7.61319L25.312 7.40243L25.462 6.93772L25.828 6.93509C25.8182 6.98271 25.8101 7.05059 25.8065 7.1185V7.12379L25.8913 7.15201L26.0565 6.64409L26.06 6.63617L26.0511 6.63264C25.977 6.60969 25.9494 6.64143 25.8904 6.73579L24.7203 6.74727H24.714Z" fill="white"/>
                        <path fill-rule="evenodd" clip-rule="evenodd" d="M25.1711 5.49271L25.0881 5.45654L24.8551 5.98034L24.8516 5.98829L24.8578 5.99093C24.9337 6.02533 24.9685 5.99533 25.0533 5.871L26.07 6.31456C26.0325 6.46093 26.0334 6.50327 26.1101 6.53854L26.1191 6.54117L26.352 6.02004L26.3556 6.01034L26.2717 5.97417L26.2681 5.98034C26.2315 6.01914 26.1878 6.08088 26.1556 6.13025L25.1354 5.68318C25.1497 5.62763 25.1657 5.55179 25.1711 5.49887V5.49271Z" fill="white"/>
                        <path fill-rule="evenodd" clip-rule="evenodd" d="M25.6696 4.66253C25.741 4.68458 25.8383 4.69957 25.8847 4.69957H25.8901L25.9258 4.63695L25.9213 4.63079C25.8223 4.52145 25.7321 4.4606 25.6518 4.44474L25.6482 4.44385L25.6455 4.44827C25.6179 4.47825 25.5393 4.56907 25.4492 4.73044C25.3063 4.98793 25.3349 5.19692 25.5277 5.30626C25.5295 5.30713 25.5322 5.30802 25.534 5.30979C25.6732 5.38563 25.8124 5.37857 25.9472 5.28687C26.0097 5.24454 26.0436 5.2163 26.0865 5.17927C26.1106 5.15899 26.1373 5.1352 26.1757 5.10433C26.2766 5.0232 26.3605 4.98616 26.4837 5.05141C26.4846 5.0523 26.4864 5.05317 26.4873 5.05407C26.6078 5.12195 26.6319 5.25247 26.5515 5.39708C26.4988 5.49231 26.4266 5.55582 26.3748 5.58226C26.3114 5.55758 26.2123 5.5276 26.1329 5.52231H26.1275L26.0909 5.58666L26.0936 5.59196C26.1347 5.64927 26.2052 5.71718 26.2802 5.76038C26.3069 5.77627 26.3346 5.78686 26.3614 5.79478L26.3659 5.79565L26.3694 5.79389C26.4105 5.7701 26.5524 5.67925 26.6667 5.47379C26.8148 5.20838 26.772 4.9844 26.5488 4.86007C26.5453 4.8583 26.5435 4.85654 26.5417 4.8539C26.373 4.76308 26.2177 4.79129 26.0374 4.9456C26.0204 4.96058 26.0052 4.97381 25.9919 4.9844C25.9454 5.02586 25.9151 5.04964 25.8669 5.08668C25.7687 5.15899 25.6884 5.17224 25.6089 5.12814C25.608 5.12724 25.6062 5.12638 25.6053 5.12548C25.4965 5.06463 25.4786 4.95442 25.5563 4.81421C25.5991 4.7375 25.6446 4.68724 25.6696 4.66253Z" fill="white"/>
                        <path fill-rule="evenodd" clip-rule="evenodd" d="M26.3815 3.39053L26.3761 3.38965L26.3726 3.39229C26.344 3.41875 26.2539 3.49988 26.1459 3.65066C25.9718 3.89228 25.978 4.10657 26.1619 4.2353C26.2896 4.32702 26.4306 4.33495 26.5752 4.25998C26.6421 4.22471 26.6787 4.20003 26.7261 4.16916C26.7519 4.15153 26.7823 4.13125 26.8251 4.10567C26.9322 4.03513 27.0215 4.00779 27.1358 4.08805C27.1902 4.12683 27.2215 4.18064 27.2277 4.2397C27.2339 4.30231 27.2107 4.37109 27.1625 4.43813C27.0992 4.52629 27.0197 4.58098 26.9653 4.60213C26.9055 4.56862 26.81 4.52982 26.7323 4.51396L26.7269 4.5122L26.6823 4.57392L26.685 4.58008C26.7252 4.65328 26.8028 4.74411 26.8885 4.79173C26.9019 4.80053 26.9153 4.80582 26.9278 4.81112L26.9314 4.81201L26.9349 4.81112C26.9787 4.7926 27.1313 4.71853 27.2679 4.52806C27.4481 4.27763 27.4294 4.04836 27.2161 3.89845C27.0599 3.78824 26.9019 3.79793 26.7037 3.93108C26.6859 3.94341 26.6698 3.95577 26.6555 3.96459C26.6038 3.99986 26.5725 4.02101 26.5181 4.05189C26.4136 4.11273 26.3324 4.11626 26.2574 4.06424C26.153 3.99104 26.1476 3.8773 26.2423 3.74677C26.2922 3.67536 26.344 3.63037 26.3726 3.60832C26.4404 3.6392 26.5377 3.66564 26.5823 3.67007L26.5859 3.67094L26.6305 3.61099L26.6252 3.60569C26.5413 3.48576 26.4592 3.41346 26.3815 3.39053Z" fill="white"/>
                        <path fill-rule="evenodd" clip-rule="evenodd" d="M27.2611 2.5473C27.3272 2.58434 27.3825 2.60814 27.4512 2.63107L27.4574 2.63284L27.5058 2.57728L27.503 2.57199C27.48 2.52437 27.4219 2.43443 27.3674 2.38505C27.3361 2.35771 27.3094 2.34096 27.2861 2.33126L27.2799 2.32861L26.6185 3.0561L26.6113 3.06227L26.6194 3.06845C26.6836 3.12488 26.7211 3.10989 26.8345 3.01995L27.6619 3.75451C27.5842 3.87707 27.5725 3.91674 27.6361 3.97229L27.6431 3.97849L28.31 3.24569L28.3065 3.2404C28.2929 3.21395 28.269 3.18485 28.2421 3.16016C28.184 3.10989 28.086 3.05963 28.0349 3.04199L28.0287 3.04023L27.9796 3.09314L27.9823 3.09843C28.0092 3.15927 28.0447 3.21835 28.0974 3.28625L27.8031 3.6081L27.4085 3.25715L27.6315 3.01113C27.6841 2.95381 27.6752 2.9106 27.6638 2.88239L27.6084 2.83212L27.3058 3.16457L26.9684 2.86475L27.2585 2.54642L27.2611 2.5473Z" fill="white"/>
                        <path fill-rule="evenodd" clip-rule="evenodd" d="M28.4095 1.50303L28.5925 1.36724C28.8621 1.1653 29.1244 1.20498 29.3324 1.47746C29.4475 1.62825 29.5021 1.76052 29.4986 1.88574C29.494 2.02154 29.419 2.14323 29.2691 2.25522L29.1279 2.36015C29.0978 2.3822 29.0799 2.37955 29.0565 2.34869L28.4095 1.50303ZM28.8523 2.71551L28.8578 2.72169L29.3764 2.33546C29.5523 2.20407 29.6558 2.03917 29.6764 1.85928C29.6952 1.68645 29.6379 1.50568 29.5086 1.33813C29.2604 1.01186 28.8999 0.97571 28.5428 1.24113L28.0215 1.63089L28.0285 1.63707C28.0793 1.70497 28.1195 1.69703 28.2498 1.63177L28.9194 2.50741C28.8203 2.61234 28.7997 2.64761 28.8523 2.71551Z" fill="white"/>
                        <path fill-rule="evenodd" clip-rule="evenodd" d="M30.055 1.84077L30.0605 1.8487L30.9209 1.36459L30.9264 1.36195L30.9253 1.35577C30.9209 1.32667 30.9076 1.28964 30.8897 1.25877C30.8514 1.19264 30.7738 1.11504 30.7317 1.08241L30.7263 1.07712L30.6622 1.11416L30.663 1.12033C30.6684 1.18558 30.6836 1.25172 30.7121 1.33373L30.3317 1.54801L30.0675 1.09035L30.3578 0.927215C30.4238 0.890179 30.4308 0.847852 30.4292 0.817871H30.272L29.9997 0.972187L29.9106 0.817871H29.6738L30.1479 1.64236C30.0363 1.73495 30.0132 1.76758 30.055 1.84077Z" fill="white"/>
                        <path fill-rule="evenodd" clip-rule="evenodd" d="M31.6963 0.833255C31.6686 0.887927 31.6124 0.935545 31.5348 0.966408C31.4346 1.00962 31.3393 1.01403 31.2804 1.00344C31.2491 0.94789 31.1937 0.872055 31.1375 0.817383H31.0911L31.0545 0.833255L31.0536 0.839428C31.0474 0.935545 31.0732 1.07663 31.1375 1.16305L31.1403 1.1657L31.1438 1.16658C31.1902 1.17363 31.3588 1.18862 31.5774 1.09868C31.714 1.04136 31.8123 0.961999 31.8631 0.870291C31.8731 0.852655 31.8783 0.835901 31.8845 0.817383H31.7007C31.698 0.821792 31.6988 0.828846 31.6963 0.833255Z" fill="white"/>
                        <path fill-rule="evenodd" clip-rule="evenodd" d="M43.6613 16.5087L43.654 16.5034L43.2988 16.8985L43.3659 16.9575L43.3721 16.9549C43.4167 16.9302 43.4764 16.8826 43.5264 16.8429L43.7281 17.021V16.8165L43.6309 16.7292C43.7113 16.6022 43.7219 16.5634 43.6613 16.5087Z" fill="white"/>
                        <path fill-rule="evenodd" clip-rule="evenodd" d="M43.7157 18.4814L43.7227 18.4876L43.7281 18.4814V18.29C43.6665 18.3906 43.6603 18.432 43.7157 18.4814Z" fill="white"/>
                        <path fill-rule="evenodd" clip-rule="evenodd" d="M43.7279 17.3902L42.9271 17.2949H42.9228L42.8916 17.3276C42.8541 17.3699 42.8479 17.4149 42.8709 17.4642C42.8916 17.5083 42.9361 17.5507 42.9755 17.585L43.7279 18.2455V18.0392L43.1272 17.5136L43.7279 17.5877V17.3902Z" fill="white"/>
                        <path fill-rule="evenodd" clip-rule="evenodd" d="M42.8627 19.044C42.8038 18.9982 42.7172 18.9497 42.6746 18.9338L42.6691 18.9329L42.6137 18.9806L42.6156 18.9867C42.6699 19.1225 42.7324 19.2116 42.8022 19.2522L42.8065 19.2557L42.8092 19.2522C42.844 19.2345 42.9521 19.1763 43.0941 19.0564C43.3216 18.8624 43.3661 18.6543 43.2182 18.485C43.1155 18.3642 42.9833 18.3245 42.8244 18.3633C42.7503 18.3809 42.7093 18.3959 42.6566 18.4153C42.6243 18.4259 42.5915 18.4382 42.5442 18.455C42.4229 18.4965 42.3281 18.5017 42.2388 18.3977C42.147 18.291 42.1693 18.1596 42.2969 18.0511C42.38 17.9797 42.4701 17.9462 42.5279 17.9392C42.579 17.985 42.6594 18.0458 42.7324 18.0793L42.7378 18.082L42.7967 18.0326L42.7948 18.0273C42.7699 17.9339 42.7031 17.806 42.6156 17.7434L42.6118 17.7407L42.6083 17.7416C42.5611 17.7495 42.396 17.7857 42.2149 17.9392C42.1033 18.0335 42.0343 18.1393 42.0148 18.2425C41.9917 18.3545 42.0264 18.4621 42.1139 18.5635C42.2399 18.7063 42.396 18.7328 42.6192 18.6516C42.6406 18.6437 42.6583 18.6366 42.6754 18.6305C42.7324 18.6084 42.7699 18.5952 42.8288 18.5785C42.9458 18.5441 43.0251 18.5599 43.0851 18.6278C43.169 18.7248 43.1457 18.835 43.0235 18.9409C42.9556 18.9964 42.8959 19.0282 42.8627 19.044Z" fill="white"/>
                        <path fill-rule="evenodd" clip-rule="evenodd" d="M43.7048 19.6662C41.5006 21.5674 38.6149 22.7219 35.4552 22.7219C28.5332 22.7219 22.9222 17.1957 22.9222 10.3775C22.9222 6.49772 24.7406 3.03621 27.5821 0.774414H26.0343C23.483 3.20315 21.8945 6.60606 21.8945 10.3775C21.8945 17.7543 27.9652 23.7351 35.4552 23.7351C38.5597 23.7351 41.4194 22.7041 43.7048 20.9751V19.6662Z" fill="white"/>
                        </g>
                        <defs>
                        <clipPath id="clip0_1532_19314">
                        <rect width="43.7152" height="43.7152" fill="white" transform="translate(0.226562 0.736816)"/>
                        </clipPath>
                        </defs>
                        </svg>