<svg width="37" height="37" viewBox="0 0 37 37" fill="none" xmlns="http://www.w3.org/2000/svg">
    <g clip-path="url(#clip0_1532_19583)">
    <path fill-rule="evenodd" clip-rule="evenodd" d="M0.117188 36.2709H35.9901V0.397949H0.117188V36.2709Z" fill="white"/>
    <path fill-rule="evenodd" clip-rule="evenodd" d="M4.71377 19.8716C3.90568 19.8716 3.54561 20.5339 3.54561 21.3564C3.54561 22.0781 3.86319 22.8049 4.71377 22.8049C5.29673 22.8049 5.61728 22.4196 5.69034 21.8353H6.60578C6.50141 22.9941 5.70525 23.5986 4.71377 23.5986C3.38756 23.5986 2.59961 22.6141 2.59961 21.3564C2.59961 20.029 3.42485 19.0713 4.71377 19.0713C5.70227 19.0713 6.46191 19.6697 6.56926 20.6296H5.65382C5.5897 20.1953 5.17299 19.8716 4.71377 19.8716Z" fill="#101010"/>
    <path fill-rule="evenodd" clip-rule="evenodd" d="M8.97884 22.2895C8.97884 22.8306 8.67766 23.0105 8.28481 23.0105C8.01793 23.0105 7.76149 22.934 7.76149 22.611C7.76149 22.3912 7.8681 22.2204 8.26842 22.1499C8.33624 22.138 8.40409 22.1284 8.47267 22.1195C8.63668 22.1039 8.89162 22.0556 8.97884 21.9673V22.2895ZM9.83298 22.804V21.1744C9.83298 20.3607 8.95108 20.2834 8.46653 20.2834C7.8053 20.2834 7.05086 20.5106 7.00315 21.3317H7.85821C7.89177 20.9724 8.10869 20.8596 8.42478 20.8596C8.72221 20.8596 8.97866 20.9212 8.97866 21.2835C8.98837 21.4891 8.83032 21.5998 8.34055 21.6473C8.21604 21.6584 8.08932 21.6755 7.9611 21.6955C7.45865 21.775 6.90625 21.9235 6.90625 22.6458C6.90625 23.2553 7.32594 23.5806 7.96706 23.5806C8.29656 23.5806 8.7349 23.5019 9.01518 23.199C9.01817 23.2723 9.04725 23.4268 9.07482 23.5019H9.94257C9.85087 23.3548 9.83298 23.032 9.83298 22.804Z" fill="#101010"/>
    <path fill-rule="evenodd" clip-rule="evenodd" d="M10.4434 23.5014H11.2984V20.3677H10.4434V23.5014ZM10.4434 19.8828H11.2984V19.1738H10.4434V19.8828Z" fill="#101010"/>
    <path fill-rule="evenodd" clip-rule="evenodd" d="M13.7533 22.6099C13.7533 22.5379 13.7265 22.4748 13.6728 22.4229C13.3687 22.1296 12.3876 22.1875 11.9828 21.7747C11.868 21.6582 11.795 21.503 11.795 21.2899C11.795 20.6403 12.2572 20.2832 13.1502 20.2832C13.7354 20.2832 14.4563 20.4599 14.5242 21.2832H13.7109C13.6982 20.9529 13.4358 20.8601 13.1264 20.8601C12.9124 20.8601 12.65 20.9039 12.65 21.1503C12.65 21.3552 12.867 21.4547 13.2658 21.5386C13.3821 21.5617 13.5006 21.5884 13.6206 21.6166C14.1112 21.7279 14.6077 21.9113 14.6077 22.4956C14.6077 23.1362 14.1514 23.581 13.1868 23.581C12.407 23.581 11.7525 23.2775 11.7227 22.483H12.536C12.536 22.832 12.8312 23.0102 13.1927 23.0102C13.4194 23.0102 13.7533 22.9174 13.7533 22.6099Z" fill="#101010"/>
    <path fill-rule="evenodd" clip-rule="evenodd" d="M10.9134 28.8872C11.1401 28.8872 11.474 28.7944 11.474 28.487C11.474 28.4134 11.4472 28.3511 11.3928 28.3C11.0894 28.0058 10.1076 28.0639 9.70353 27.6518C9.58799 27.5345 9.51569 27.3785 9.51569 27.1662C9.51569 26.5166 9.97787 26.1602 10.871 26.1602C11.4554 26.1602 12.177 26.3362 12.2449 27.1603H11.4315C11.4189 26.8299 11.1565 26.7364 10.8471 26.7364C10.6331 26.7364 10.37 26.781 10.37 27.0267C10.37 27.2323 10.5869 27.3319 10.9865 27.4148C11.1028 27.4386 11.2206 27.4655 11.3413 27.4935C11.8319 27.6043 12.3283 27.7877 12.3283 28.372C12.3283 29.0134 11.8721 29.4573 10.9075 29.4573C10.1277 29.4573 9.47318 29.1538 9.44336 28.3601H10.2567C10.2567 28.7083 10.5519 28.8872 10.9134 28.8872Z" fill="#101010"/>
    <path fill-rule="evenodd" clip-rule="evenodd" d="M32.0639 28.8872C32.2905 28.8872 32.6237 28.7944 32.6237 28.487C32.6237 28.4134 32.5968 28.3511 32.5432 28.3C32.239 28.0058 31.2579 28.0639 30.8532 27.6518C30.7384 27.5345 30.6659 27.3785 30.6659 27.1662C30.6659 26.5166 31.1276 26.1602 32.0206 26.1602C32.6058 26.1602 33.3266 26.3362 33.3952 27.1603H32.5811C32.5692 26.8299 32.306 26.7364 31.9975 26.7364C31.7827 26.7364 31.5204 26.781 31.5204 27.0267C31.5204 27.2323 31.7372 27.3319 32.1361 27.4148C32.2524 27.4386 32.371 27.4655 32.491 27.4935C32.9816 27.6043 33.4779 27.7877 33.4779 28.372C33.4779 29.0134 33.0226 29.4573 32.0571 29.4573C31.2767 29.4573 30.6229 29.1538 30.5938 28.3601H31.407C31.407 28.7083 31.7016 28.8872 32.0639 28.8872Z" fill="#101010"/>
    <path fill-rule="evenodd" clip-rule="evenodd" d="M16.3861 23.0102C16.6127 23.0102 16.9459 22.9174 16.9459 22.6099C16.9459 22.5379 16.9191 22.4748 16.8654 22.4229C16.562 22.1296 15.5802 22.1875 15.1754 21.7747C15.0606 21.6582 14.9883 21.503 14.9883 21.2899C14.9883 20.6403 15.4498 20.2832 16.3436 20.2832C16.928 20.2832 17.6489 20.4599 17.7175 21.2832H16.9035C16.8915 20.9529 16.6284 20.8601 16.3198 20.8601C16.1051 20.8601 15.8426 20.9039 15.8426 21.1503C15.8426 21.3552 16.0596 21.4547 16.4584 21.5386C16.5747 21.5617 16.6932 21.5884 16.8133 21.6166C17.3038 21.7279 17.8003 21.9113 17.8003 22.4956C17.8003 23.1362 17.3448 23.581 16.3794 23.581C15.5996 23.581 14.9458 23.2775 14.916 22.483H15.7293C15.7293 22.832 16.0238 23.0102 16.3861 23.0102Z" fill="#101010"/>
    <path fill-rule="evenodd" clip-rule="evenodd" d="M19.6786 20.9313C19.2284 20.9313 18.9921 21.2283 18.9682 21.598H20.3592C20.278 21.1563 20.0924 20.9313 19.6786 20.9313ZM19.7327 22.9374C20.0764 22.9374 20.3507 22.7258 20.4074 22.5313H21.1603C20.8942 23.3627 20.3112 23.5795 19.7022 23.5795C18.669 23.5795 18.1113 22.8571 18.1113 21.9373C18.1113 20.9855 18.7703 20.2832 19.7022 20.2832C20.8264 20.2832 21.2729 21.2632 21.2147 22.1445H18.9679C18.9925 22.7176 19.2676 22.9374 19.7327 22.9374Z" fill="#101010"/>
    <path fill-rule="evenodd" clip-rule="evenodd" d="M7.63525 26.8085C7.18498 26.8085 6.94866 27.1047 6.92481 27.4744H8.31587C8.2346 27.0327 8.04898 26.8085 7.63525 26.8085ZM7.68978 28.8145C8.03342 28.8145 8.30776 28.6028 8.36516 28.4085H9.11735C8.85121 29.2391 8.26825 29.456 7.6592 29.456C6.62598 29.456 6.06836 28.7336 6.06836 27.8136C6.06836 26.8628 6.72811 26.1597 7.6592 26.1597C8.78337 26.1597 9.22992 27.1403 9.17176 28.0208H6.92492C6.94951 28.5948 7.22459 28.8145 7.68978 28.8145Z" fill="#101010"/>
    <path fill-rule="evenodd" clip-rule="evenodd" d="M4.17237 26.8084C3.64459 26.8084 3.41944 27.2478 3.41944 27.8083C3.41944 28.2821 3.62892 28.8143 4.17237 28.8143C4.7367 28.8143 4.90741 28.3161 4.90741 27.8025C4.90741 27.2953 4.72702 26.8084 4.17237 26.8084ZM4.90748 28.9776C4.70619 29.3184 4.36999 29.4558 3.9622 29.4558C3.008 29.4558 2.56445 28.6495 2.56445 27.783C2.56445 26.8707 3.08553 26.1595 3.94283 26.1595C4.30811 26.1595 4.6704 26.316 4.86573 26.6263H4.87766V25.051H5.73346V29.3778H4.92015V28.9776H4.90748Z" fill="#101010"/>
    <path fill-rule="evenodd" clip-rule="evenodd" d="M15.7807 28.5785C16.4248 28.5785 16.8519 28.1352 16.8519 27.2814C16.8519 26.4871 16.6015 25.8514 15.6115 25.8514H14.9376V28.5785H15.7807ZM15.8469 25.051C16.9353 25.051 17.7986 25.7319 17.7986 27.1909C17.7986 28.4856 17.1209 29.378 15.8469 29.378H13.9922V25.051H15.8469Z" fill="#101010"/>
    <path fill-rule="evenodd" clip-rule="evenodd" d="M19.6805 26.8085C19.2302 26.8085 18.9939 27.1047 18.97 27.4744H20.3611C20.2798 27.0327 20.0942 26.8085 19.6805 26.8085ZM19.7347 28.8145C20.0783 28.8145 20.3519 28.6028 20.4093 28.4085H21.1623C20.8954 29.2391 20.3132 29.456 19.7041 29.456C18.6709 29.456 18.1133 28.7336 18.1133 27.8136C18.1133 26.8628 18.7723 26.1597 19.7041 26.1597C20.8283 26.1597 21.2748 27.1403 21.2167 28.0208H18.9698C18.9944 28.5948 19.2695 28.8145 19.7347 28.8145Z" fill="#101010"/>
    <path fill-rule="evenodd" clip-rule="evenodd" d="M19.8549 24.6204L19.2168 25.693H19.8124L20.795 24.6204H19.8549Z" fill="#101010"/>
    <path fill-rule="evenodd" clip-rule="evenodd" d="M23.8803 27.8206C23.8803 27.2482 23.6321 26.8088 23.1332 26.8088C22.6532 26.8088 22.3923 27.1881 22.3923 27.8206C22.3923 28.3657 22.6083 28.8147 23.1393 28.8147C23.6655 28.8147 23.8803 28.382 23.8803 27.8206ZM22.3797 26.2444V26.6455H22.3924C22.6057 26.298 22.9449 26.1599 23.3197 26.1599C24.3329 26.1599 24.7347 27.0144 24.7347 27.8453C24.7347 28.6982 24.2733 29.4569 23.3682 29.4569C22.9642 29.4569 22.6346 29.2856 22.4349 28.9907H22.4222V30.4748H21.5664V26.2444H22.3797Z" fill="#101010"/>
    <path fill-rule="evenodd" clip-rule="evenodd" d="M26.6744 28.8147C27.25 28.8147 27.434 28.3329 27.434 27.8139C27.434 27.3372 27.2775 26.8088 26.6744 26.8088C26.1415 26.8088 25.9215 27.246 25.9215 27.8139C25.9215 28.3663 26.1287 28.8147 26.6744 28.8147ZM27.0726 24.9956L27.7354 25.8577H27.0309L26.6574 25.3655L26.2713 25.8577H25.6271L26.2883 24.9956H27.0726ZM26.6744 26.1599C27.6681 26.1599 28.2892 26.8251 28.2892 27.8139C28.2892 28.7605 27.7091 29.4569 26.6744 29.4569C25.759 29.4569 25.0664 28.8742 25.0664 27.8139C25.0664 26.8036 25.7121 26.1599 26.6744 26.1599Z" fill="#101010"/>
    <path fill-rule="evenodd" clip-rule="evenodd" d="M30.3962 26.2444V26.8204H29.7691V28.3714C29.7691 28.6609 29.8438 28.7351 30.1315 28.7351C30.2225 28.7351 30.3187 28.7277 30.3962 28.7107V29.3781C30.2456 29.4026 30.0346 29.4086 29.8958 29.4086C29.325 29.4086 28.9142 29.275 28.9142 28.6698V26.8204H28.3945V26.2444H28.9142V25.3052H29.7691V26.2444H30.3962Z" fill="#101010"/>
    <path fill-rule="evenodd" clip-rule="evenodd" d="M2.68359 32.5941V32.5883C2.68359 31.9468 3.17113 31.4033 3.85696 31.4033C4.25208 31.4033 4.49734 31.5145 4.73141 31.7136L4.4772 32.0188C4.30201 31.8672 4.12905 31.7737 3.84057 31.7737C3.42088 31.7737 3.10255 32.1434 3.10255 32.5806V32.5883C3.10255 33.0589 3.41193 33.4055 3.87635 33.4055C4.09105 33.4055 4.28488 33.3364 4.42577 33.2311V32.8035H3.84429V32.4537H4.81118V33.4145C4.58827 33.6082 4.26622 33.7716 3.86368 33.7716C3.15176 33.7716 2.68359 33.2609 2.68359 32.5941Z" fill="#101010"/>
    <path fill-rule="evenodd" clip-rule="evenodd" d="M6.89198 32.5772C7.17824 32.5772 7.36012 32.4265 7.36012 32.1949V32.1891C7.36012 31.9434 7.18495 31.8088 6.889 31.8088H6.30751V32.5772H6.89198ZM5.9082 31.4436H6.92204C7.20757 31.4436 7.43196 31.5275 7.57807 31.6716C7.69883 31.7956 7.76667 31.9662 7.76667 32.1653V32.1718C7.76667 32.5476 7.54229 32.7747 7.22396 32.866L7.83898 33.7325H7.36709L6.80799 32.9337H6.30778V33.7325H5.9082V31.4436Z" fill="#101010"/>
    <path fill-rule="evenodd" clip-rule="evenodd" d="M10.5287 32.5941V32.5883C10.5287 32.1434 10.2059 31.7737 9.7556 31.7737C9.30234 31.7737 8.9885 32.1367 8.9885 32.5806V32.5883C8.9885 33.0329 9.30981 33.4019 9.7623 33.4019C10.2133 33.4019 10.5287 33.0396 10.5287 32.5941ZM8.56836 32.5941V32.5883C8.56836 31.9437 9.06262 31.4033 9.76186 31.4033C10.4604 31.4033 10.9472 31.9372 10.9472 32.5806V32.5883C10.9472 33.2311 10.4529 33.7716 9.75515 33.7716C9.05516 33.7716 8.56836 33.2385 8.56836 32.5941Z" fill="#101010"/>
    <path fill-rule="evenodd" clip-rule="evenodd" d="M11.8105 32.7611V31.4441H12.2101V32.7454C12.2101 33.1709 12.4278 33.3987 12.7856 33.3987C13.1397 33.3987 13.3574 33.1828 13.3574 32.7611V31.4441H13.757V32.7425C13.757 33.4256 13.3738 33.7684 12.7789 33.7684C12.1878 33.7684 11.8105 33.4256 11.8105 32.7611Z" fill="#101010"/>
    <path fill-rule="evenodd" clip-rule="evenodd" d="M15.593 32.6331C15.895 32.6331 16.0836 32.4632 16.0836 32.2242V32.2175C16.0836 31.9495 15.8905 31.8099 15.593 31.8099H15.1279V32.6331H15.593ZM14.7285 31.4424H15.6253C16.1554 31.4424 16.4901 31.7475 16.4901 32.2085V32.2152C16.4901 32.7282 16.0801 32.9964 15.5791 32.9964H15.1281V33.732H14.7285V31.4424Z" fill="#101010"/>
    <path fill-rule="evenodd" clip-rule="evenodd" d="M17.2715 31.4429H18.9585V31.802H17.6711V32.3975H18.8109V32.7576H17.6711V33.3731H18.9742V33.7316H17.2715V31.4429Z" fill="#101010"/>
    <path fill-rule="evenodd" clip-rule="evenodd" d="M26.4968 12.1906C26.6124 12.3384 26.7333 12.4767 26.8609 12.6013C27.0023 12.5401 27.1954 12.5146 27.4534 12.5598C27.1254 12.3195 26.8254 12.0115 26.5654 11.6387C26.423 11.4362 26.2977 11.22 26.1878 10.9921C25.9838 10.545 25.7501 10.2057 25.504 9.97704C25.1206 9.62098 24.6363 9.46444 24.1152 9.86054C24.3105 10.0455 24.7625 10.2537 25.1067 9.90133C25.3425 10.0367 25.5694 10.3084 25.7037 10.7081C25.7457 10.8333 25.7943 10.9579 25.8452 11.078C25.5217 10.8836 25.1686 10.9156 24.9533 11.1901C25.0993 11.2746 25.4067 11.338 25.5591 11.0766C25.5968 11.0831 25.6771 11.1188 25.6954 11.129C25.9748 11.2761 26.0531 11.5382 26.2145 11.785C26.0965 11.8018 25.9838 11.8535 25.8865 11.9481C26.134 11.8768 26.3192 11.9598 26.4968 12.1906Z" fill="#101010"/>
    <path fill-rule="evenodd" clip-rule="evenodd" d="M25.7138 6.1334C25.7933 6.39992 25.7292 6.62417 25.6886 6.7254C25.6032 6.93727 25.3916 7.15718 25.1927 7.29262C24.8728 6.98898 24.4703 7.22563 24.2551 7.42658C24.6324 7.70256 25.1647 7.57003 25.5487 7.21105C25.5043 7.39674 25.4676 7.58678 25.4402 7.77901C25.3297 7.71711 25.2008 7.69527 25.0571 7.7324C25.2723 7.78119 25.4115 7.93118 25.3961 8.16274C25.3938 8.19041 25.3851 8.32366 25.3835 8.35644C25.2752 8.2472 25.1019 8.12196 24.8831 8.05862C24.673 7.9858 24.39 8.00037 24.1445 8.12124C24.3104 8.43652 24.808 8.47074 25.1041 8.28216C25.2301 8.38628 25.3761 8.5654 25.3761 8.83554C25.3761 9.15011 25.234 9.37218 24.8802 9.44209C25.0983 9.49597 25.2745 9.45373 25.407 9.34669C25.4218 9.48505 25.4411 9.62267 25.464 9.75809C25.6068 9.86878 25.7492 10.0166 25.8833 10.2015C25.7263 9.66854 25.6422 9.09766 25.6422 8.51152C25.6422 7.86493 25.7543 7.3567 25.8404 6.97586C25.9068 6.68316 25.9209 6.43122 25.8848 6.22006C25.8021 5.71183 25.4543 5.49701 25.0062 5.44531C25.0349 5.73949 25.2301 6.19748 25.7138 6.1334Z" fill="#101010"/>
    <path fill-rule="evenodd" clip-rule="evenodd" d="M25.9874 6.00991C26.0219 6.11257 26.0412 6.22763 26.0463 6.35505C26.1031 6.21234 26.1649 6.07472 26.2327 5.94146C26.7717 4.933 26.5468 4.39562 25.9136 4.08325C25.7941 4.36577 25.7625 4.92062 26.3176 5.1092C26.2961 5.30581 26.2239 5.56355 26.0551 5.8774C26.0315 5.92107 26.0093 5.96477 25.9874 6.00991Z" fill="#101010"/>
    <path fill-rule="evenodd" clip-rule="evenodd" d="M25.8719 5.42111C25.9006 5.20704 25.7614 4.92963 25.4504 4.91797C25.3796 5.18883 25.611 5.42622 25.8719 5.42111Z" fill="#101010"/>
    <path fill-rule="evenodd" clip-rule="evenodd" d="M29.199 14.783L28.6309 14.4568C28.6309 14.4568 28.6979 14.601 28.6979 14.783C28.6979 14.9658 28.6309 15.1106 28.6309 15.1106L29.199 14.783Z" fill="#101010"/>
    <path fill-rule="evenodd" clip-rule="evenodd" d="M29.245 14.8286L28.9141 15.39C28.9141 15.39 29.06 15.3245 29.245 15.3245C29.43 15.3245 29.5766 15.39 29.5766 15.39L29.245 14.8286Z" fill="#101010"/>
    <path fill-rule="evenodd" clip-rule="evenodd" d="M29.291 14.783L29.8594 15.1106C29.8594 15.1106 29.7923 14.9658 29.7923 14.783C29.7923 14.601 29.8594 14.4568 29.8594 14.4568L29.291 14.783Z" fill="#101010"/>
    <path fill-rule="evenodd" clip-rule="evenodd" d="M28.9141 14.1772L29.245 14.7386L29.5759 14.1772C29.5759 14.1772 29.43 14.2435 29.245 14.2435C29.06 14.2435 28.9141 14.1772 28.9141 14.1772Z" fill="#101010"/>
    <path fill-rule="evenodd" clip-rule="evenodd" d="M26.6398 12.6207C26.5351 12.5457 26.4358 12.494 26.334 12.4743C26.314 12.2209 26.0311 12.1074 25.5652 12.1656C25.6154 12.3411 25.7759 12.4729 25.9838 12.5428C25.8255 12.6382 25.658 12.8304 25.4746 13.1515C25.9138 13.2651 26.3862 13.0343 26.6398 12.6207Z" fill="#101010"/>
    <path fill-rule="evenodd" clip-rule="evenodd" d="M25.7355 11.5569C25.3898 11.4833 25.0391 11.6064 24.8887 11.8758C25.2712 12.0258 25.7001 11.8721 25.7355 11.5569Z" fill="#101010"/>
    <path fill-rule="evenodd" clip-rule="evenodd" d="M25.2028 10.6624C25.2847 10.4264 25.0901 10.2859 24.6995 10.2874C24.7105 10.3602 24.7466 10.425 24.8011 10.4811C24.6625 10.5087 24.4968 10.6143 24.2852 10.8262C24.5697 10.982 24.9434 10.9055 25.2028 10.6624Z" fill="#101010"/>
    <path fill-rule="evenodd" clip-rule="evenodd" d="M25.146 6.3938C25.1092 6.32315 25.0679 6.26856 25.0164 6.22995C25.0812 6.07996 24.9552 5.94162 24.6742 5.85205C24.6507 5.96566 24.7016 6.08287 24.7996 6.17681C24.681 6.18919 24.5292 6.25399 24.3301 6.38869C24.5437 6.56855 24.8792 6.56126 25.146 6.3938Z" fill="#101010"/>
    <path fill-rule="evenodd" clip-rule="evenodd" d="M27.5853 14.1262C27.3929 13.9376 27.0768 13.9944 26.9492 14.1961C27.1138 14.3235 27.4167 14.3556 27.5853 14.1262Z" fill="#101010"/>
    <path fill-rule="evenodd" clip-rule="evenodd" d="M25.3166 6.78349C25.1442 6.6022 24.8471 6.64516 24.7227 6.82791C24.8715 6.95169 25.1538 6.99174 25.3166 6.78349Z" fill="#101010"/>
    <path fill-rule="evenodd" clip-rule="evenodd" d="M24.5391 9.2196C24.7079 9.3048 24.9821 9.28076 25.0823 9.05214C24.8774 8.91889 24.6113 9.02227 24.5391 9.2196Z" fill="#101010"/>
    <path fill-rule="evenodd" clip-rule="evenodd" d="M24.9785 12.6086C25.137 12.7448 25.4361 12.79 25.613 12.5693C25.431 12.3742 25.1148 12.4157 24.9785 12.6086Z" fill="#101010"/>
    <path fill-rule="evenodd" clip-rule="evenodd" d="M26.7657 13.3832C26.5305 13.2485 26.2415 13.3803 26.1738 13.6031C26.3675 13.6868 26.6675 13.6439 26.7657 13.3832Z" fill="#101010"/>
    <path fill-rule="evenodd" clip-rule="evenodd" d="M25.0106 11.4567C24.8588 11.295 24.5965 11.3343 24.4844 11.4953C24.6162 11.6067 24.8662 11.6409 25.0106 11.4567Z" fill="#101010"/>
    <path fill-rule="evenodd" clip-rule="evenodd" d="M24.8115 8.75546C24.5891 8.48242 24.1703 8.50935 23.9766 8.75037C24.1718 8.94187 24.5617 9.02852 24.8115 8.75546Z" fill="#101010"/>
    <path fill-rule="evenodd" clip-rule="evenodd" d="M29.7101 13.6376C29.7426 13.5793 29.7242 13.5174 29.6733 13.4752C29.6334 13.4417 29.5502 13.3616 29.3646 13.2094C29.3334 13.1832 29.2908 13.1562 29.2451 13.1562C29.2 13.1562 29.1574 13.1832 29.1264 13.2094C28.9406 13.3616 28.8574 13.4417 28.8168 13.4752C28.7666 13.5174 28.7469 13.5793 28.7801 13.6376C28.8123 13.6951 28.8816 13.7133 28.9341 13.6783C28.8729 13.7723 28.9164 13.8545 28.965 13.8844C29.0195 13.9179 29.0888 13.8968 29.1226 13.8385C29.1065 13.9455 29.1787 14.0082 29.2451 14.0082C29.3114 14.0082 29.3852 13.9455 29.3681 13.8385C29.4013 13.8968 29.4706 13.9179 29.5258 13.8844C29.5731 13.8545 29.6172 13.7723 29.556 13.6783C29.6092 13.7133 29.6778 13.6951 29.7101 13.6376Z" fill="#101010"/>
    <path fill-rule="evenodd" clip-rule="evenodd" d="M28.0596 12.9109C27.7368 12.7696 27.1758 12.5817 26.8184 12.7893C26.6841 12.8672 26.57 13.0033 26.5391 13.157C26.7808 12.8941 27.3881 12.806 27.5599 13.2902C27.6076 13.4257 27.6108 13.6354 27.4632 13.7147C27.5209 13.3689 27.2922 13.157 26.9886 13.149C26.9496 13.3084 26.9902 13.4832 27.0911 13.5989C26.9924 13.5888 26.8987 13.6091 26.8243 13.6397C26.8243 13.6397 26.948 13.8363 27.1877 13.8545C27.363 13.8684 27.5215 13.805 27.6314 13.6841C27.6572 13.9011 27.6991 14.0948 27.9379 14.1654C27.6991 14.2769 27.4987 14.4647 27.4464 14.7115C28.4415 14.6613 28.3462 14.2914 28.2542 14.0628C27.6682 14.2128 27.7809 13.6543 27.7839 13.2757C27.8348 13.3019 28.0029 13.3783 28.1673 13.4402C28.1296 13.5349 28.0722 13.6142 27.9933 13.6841C28.2881 13.6601 28.4096 13.5749 28.9181 13.141C28.6213 13.1082 28.3338 13.0295 28.0596 12.9109Z" fill="#101010"/>
    <path fill-rule="evenodd" clip-rule="evenodd" d="M32.9846 9.97704C32.7394 10.2057 32.5055 10.545 32.3008 10.9935C32.19 11.22 32.0649 11.4362 31.9241 11.6387C31.6632 12.0115 31.3638 12.3195 31.0352 12.5598C31.2939 12.5146 31.4869 12.5408 31.6277 12.6013C31.7553 12.4767 31.8768 12.3384 31.9912 12.1906C32.171 11.9598 32.3553 11.8768 32.6021 11.9489C32.5055 11.8535 32.3921 11.8018 32.2741 11.785C32.4356 11.5382 32.5145 11.2761 32.7932 11.129C32.8122 11.1188 32.8918 11.0846 32.9308 11.0758C33.0835 11.338 33.3893 11.2746 33.536 11.1909C33.3207 10.9156 32.9678 10.8836 32.6434 11.078C32.6936 10.9579 32.7423 10.8333 32.7849 10.7081C32.9198 10.3084 33.1476 10.0375 33.3819 9.90133C33.7254 10.2537 34.1788 10.0455 34.3747 9.86054C33.8537 9.46444 33.3687 9.62098 32.9846 9.97704Z" fill="#101010"/>
    <path fill-rule="evenodd" clip-rule="evenodd" d="M32.6027 6.2203C32.5672 6.43146 32.582 6.6834 32.6484 6.9761C32.7352 7.35694 32.8459 7.86517 32.8459 8.51102C32.8459 9.09791 32.7625 9.66878 32.6049 10.2018C32.7397 10.0168 32.8805 9.86902 33.0248 9.75687C33.0477 9.62217 33.0677 9.48455 33.0802 9.34622C33.2136 9.45325 33.3899 9.49621 33.6087 9.44233C33.2549 9.37243 33.1118 9.14961 33.1118 8.83579C33.1118 8.56564 33.2594 8.38652 33.3854 8.2824C33.6795 8.47098 34.1784 8.43603 34.3436 8.12149C34.0988 8.00062 33.8159 7.98604 33.6042 8.05813C33.3854 8.1222 33.213 8.24819 33.1053 8.35668C33.1038 8.3239 33.0935 8.19065 33.0921 8.16225C33.0773 7.93143 33.2152 7.78143 33.4304 7.73264C33.2881 7.6948 33.1582 7.71735 33.0477 7.77926C33.0197 7.58631 32.9845 7.3977 32.9394 7.2113C33.3242 7.57027 33.8564 7.7028 34.2338 7.42757C34.0192 7.22587 33.6145 6.98922 33.2948 7.29286C33.0957 7.15742 32.8856 6.9368 32.8009 6.72564C32.7596 6.62441 32.6939 6.40016 32.7735 6.13365C33.2587 6.19773 33.454 5.73974 33.482 5.44556C33.0338 5.49726 32.6867 5.71207 32.6027 6.2203Z" fill="#101010"/>
    <path fill-rule="evenodd" clip-rule="evenodd" d="M32.2569 5.94098C32.3248 6.07569 32.3867 6.21259 32.4428 6.35458C32.4479 6.22788 32.4676 6.1121 32.5024 6.00943C32.4802 5.96573 32.4567 5.92206 32.4338 5.87764C32.265 5.56308 32.1928 5.30531 32.1721 5.10873C32.7264 4.92086 32.6948 4.36528 32.5762 4.0835C31.9423 4.39514 31.7168 4.9325 32.2569 5.94098Z" fill="#101010"/>
    <path fill-rule="evenodd" clip-rule="evenodd" d="M32.6171 5.42111C32.8781 5.42622 33.1088 5.18883 33.0379 4.91797C32.7276 4.92963 32.5877 5.20704 32.6171 5.42111Z" fill="#101010"/>
    <path fill-rule="evenodd" clip-rule="evenodd" d="M32.9242 12.1663C32.4583 12.1081 32.1754 12.2217 32.1561 12.4743C32.0536 12.4947 31.9534 12.5457 31.8496 12.6214C32.1039 13.0335 32.5756 13.2644 33.0148 13.1515C32.8314 12.8304 32.6639 12.6374 32.5054 12.5421C32.7135 12.4729 32.874 12.3418 32.9242 12.1663Z" fill="#101010"/>
    <path fill-rule="evenodd" clip-rule="evenodd" d="M32.7559 11.5569C32.7904 11.8721 33.2193 12.0258 33.6011 11.8758C33.4522 11.6064 33.1007 11.4833 32.7559 11.5569Z" fill="#101010"/>
    <path fill-rule="evenodd" clip-rule="evenodd" d="M33.6882 10.4811C33.7421 10.425 33.7782 10.3602 33.7891 10.2874C33.3986 10.2859 33.2046 10.4264 33.2858 10.6624C33.5445 10.9055 33.9181 10.982 34.2035 10.8262C33.9925 10.6143 33.8259 10.5087 33.6882 10.4811Z" fill="#101010"/>
    <path fill-rule="evenodd" clip-rule="evenodd" d="M33.8146 5.85205C33.5339 5.94162 33.4085 6.0807 33.4733 6.23141C33.4218 6.26856 33.3798 6.32389 33.3438 6.39378C33.6106 6.56272 33.9457 6.56855 34.1596 6.38797C33.9599 6.2547 33.8088 6.18919 33.6901 6.17681C33.7875 6.08215 33.8381 5.96563 33.8146 5.85205Z" fill="#101010"/>
    <path fill-rule="evenodd" clip-rule="evenodd" d="M31.5393 14.1958C31.4111 13.9956 31.094 13.9381 30.9023 14.1259C31.0696 14.356 31.3727 14.3247 31.5393 14.1958Z" fill="#101010"/>
    <path fill-rule="evenodd" clip-rule="evenodd" d="M33.1719 6.78349C33.334 6.99174 33.6165 6.95169 33.766 6.82791C33.6407 6.64516 33.3436 6.6022 33.1719 6.78349Z" fill="#101010"/>
    <path fill-rule="evenodd" clip-rule="evenodd" d="M33.9502 9.2196C33.8773 9.02227 33.6112 8.91889 33.4062 9.05214C33.5074 9.28076 33.7807 9.3048 33.9502 9.2196Z" fill="#101010"/>
    <path fill-rule="evenodd" clip-rule="evenodd" d="M33.5108 12.6086C33.3738 12.4157 33.0583 12.3742 32.877 12.5693C33.0532 12.79 33.3532 12.7448 33.5108 12.6086Z" fill="#101010"/>
    <path fill-rule="evenodd" clip-rule="evenodd" d="M31.7227 13.3832C31.8206 13.6439 32.1213 13.6868 32.3152 13.6031C32.2466 13.3803 31.9585 13.2485 31.7227 13.3832Z" fill="#101010"/>
    <path fill-rule="evenodd" clip-rule="evenodd" d="M34.0034 11.4952C33.8922 11.3335 33.629 11.2964 33.4766 11.4566C33.6203 11.6408 33.87 11.6058 34.0034 11.4952Z" fill="#101010"/>
    <path fill-rule="evenodd" clip-rule="evenodd" d="M33.6777 8.75546C33.9277 9.02852 34.3161 8.94187 34.5129 8.75037C34.3183 8.50935 33.8997 8.48242 33.6777 8.75546Z" fill="#101010"/>
    <path fill-rule="evenodd" clip-rule="evenodd" d="M31.9503 13.1569C31.9207 13.0032 31.8065 12.8685 31.6716 12.7892C31.3142 12.5817 30.7532 12.7688 30.4297 12.9108C30.1555 13.0295 29.8687 13.1088 29.5703 13.1416C30.0804 13.5748 30.2026 13.66 30.4961 13.6848C30.4178 13.6141 30.3604 13.5355 30.3228 13.4401C30.4871 13.3782 30.6546 13.3018 30.7061 13.2763C30.7075 13.6549 30.8225 14.2127 30.2358 14.0627C30.1436 14.2913 30.0485 14.6612 31.0445 14.7115C30.9907 14.4646 30.7916 14.2775 30.5521 14.1654C30.7916 14.0955 30.8313 13.901 30.8586 13.6841C30.9685 13.8049 31.127 13.869 31.3023 13.8544C31.5411 13.837 31.6651 13.6396 31.6651 13.6396C31.5913 13.6098 31.4976 13.5879 31.3989 13.5989C31.4998 13.4831 31.5397 13.3083 31.5014 13.1489C31.1976 13.1569 30.97 13.3688 31.0259 13.7161C30.8792 13.6353 30.8821 13.4256 30.9301 13.2909C31.1019 12.8074 31.7099 12.894 31.9503 13.1569Z" fill="#101010"/>
    <path fill-rule="evenodd" clip-rule="evenodd" d="M29.2447 12.5239C27.6365 12.5239 26.3276 10.7239 26.3276 8.51327C26.3276 6.29898 27.6365 4.49831 29.2447 4.49831C30.853 4.49831 32.1621 6.29898 32.1621 8.51327C32.1621 10.7239 30.853 12.5239 29.2447 12.5239ZM32.4702 8.51324C32.4702 6.13587 31.0263 4.2041 29.245 4.2041C27.4641 4.2041 26.0195 6.13587 26.0195 8.51324C26.0195 10.8892 27.4641 12.8158 29.245 12.8158C31.0263 12.8158 32.4702 10.8892 32.4702 8.51324Z" fill="#101010"/>
    <path fill-rule="evenodd" clip-rule="evenodd" d="M29.2455 4.77393C28.9735 4.77393 28.7074 4.83509 28.4531 4.95087H30.0378C29.7829 4.83509 29.5174 4.77393 29.2455 4.77393Z" fill="#101010"/>
    <path fill-rule="evenodd" clip-rule="evenodd" d="M30.4597 5.20361H28.032C27.9589 5.25821 27.8896 5.31648 27.8203 5.38053H30.6704C30.6011 5.31648 30.5319 5.25821 30.4597 5.20361Z" fill="#101010"/>
    <path fill-rule="evenodd" clip-rule="evenodd" d="M30.9079 5.63232H27.5787C27.5316 5.68912 27.4836 5.7481 27.4395 5.80999H31.0481C31.0032 5.7481 30.9552 5.68912 30.9079 5.63232Z" fill="#101010"/>
    <path fill-rule="evenodd" clip-rule="evenodd" d="M26.6211 8.63672C26.6227 8.69643 26.6247 8.75541 26.6278 8.81438H31.8615C31.8653 8.75541 31.8675 8.69643 31.8689 8.63672H26.6211Z" fill="#101010"/>
    <path fill-rule="evenodd" clip-rule="evenodd" d="M28.0291 11.8185H30.4606C30.5322 11.7639 30.6028 11.7049 30.6721 11.6409H27.8184C27.8867 11.7049 27.956 11.7639 28.0291 11.8185Z" fill="#101010"/>
    <path fill-rule="evenodd" clip-rule="evenodd" d="M29.2455 12.2475C29.5183 12.2475 29.7851 12.1863 30.0394 12.0706H28.4531C28.7074 12.1863 28.9735 12.2475 29.2455 12.2475Z" fill="#101010"/>
    <path fill-rule="evenodd" clip-rule="evenodd" d="M27.7519 6.06177H27.2698C27.2337 6.12002 27.1992 6.17901 27.166 6.23943H27.6223C27.6606 6.17681 27.7041 6.1171 27.7519 6.06177Z" fill="#101010"/>
    <path fill-rule="evenodd" clip-rule="evenodd" d="M30.8661 6.23872H31.3224C31.2899 6.17827 31.2545 6.11931 31.219 6.06104H30.7363C30.7857 6.11639 30.8285 6.1761 30.8661 6.23872Z" fill="#101010"/>
    <path fill-rule="evenodd" clip-rule="evenodd" d="M27.5036 6.49048H27.0409C27.0142 6.54873 26.9891 6.60769 26.9648 6.66814H27.4543C27.4653 6.61061 27.4823 6.5509 27.5036 6.49048Z" fill="#101010"/>
    <path fill-rule="evenodd" clip-rule="evenodd" d="M31.035 6.66838H31.5244C31.5007 6.60794 31.4749 6.54897 31.4484 6.49072H30.9863C31.0076 6.55189 31.0224 6.61085 31.035 6.66838Z" fill="#101010"/>
    <path fill-rule="evenodd" clip-rule="evenodd" d="M27.4499 7.00682C27.4431 6.97698 27.438 6.94857 27.4344 6.92017H26.8698C26.8506 6.97844 26.8322 7.0374 26.8145 7.09711H27.1505C27.2382 7.04323 27.3407 7.01048 27.4499 7.00682Z" fill="#101010"/>
    <path fill-rule="evenodd" clip-rule="evenodd" d="M31.0391 7.00682C31.1467 7.01048 31.2498 7.04323 31.3382 7.09711H31.6736C31.6568 7.0374 31.6375 6.97844 31.6184 6.92017H31.053C31.05 6.94857 31.0456 6.97698 31.0391 7.00682Z" fill="#101010"/>
    <path fill-rule="evenodd" clip-rule="evenodd" d="M26.9192 7.34961H26.7503C26.7364 7.40858 26.7239 7.46756 26.7129 7.52655H26.8602C26.8721 7.46393 26.8911 7.40423 26.9192 7.34961Z" fill="#101010"/>
    <path fill-rule="evenodd" clip-rule="evenodd" d="M31.6293 7.5268H31.7766C31.7656 7.46707 31.753 7.4081 31.7382 7.34985H31.5703C31.5983 7.40445 31.6181 7.46418 31.6293 7.5268Z" fill="#101010"/>
    <path fill-rule="evenodd" clip-rule="evenodd" d="M26.9117 7.90697C26.8924 7.86401 26.8769 7.82106 26.8659 7.77808H26.6706C26.6617 7.83706 26.6543 7.89605 26.6484 7.95502H26.9426C26.93 7.94119 26.9197 7.92444 26.9117 7.90697Z" fill="#101010"/>
    <path fill-rule="evenodd" clip-rule="evenodd" d="M31.5778 7.90697C31.5697 7.92444 31.5594 7.94119 31.5469 7.95502H31.8404C31.8352 7.89605 31.8278 7.83706 31.8195 7.77808H31.6229C31.6126 7.82106 31.5978 7.86401 31.5778 7.90697Z" fill="#101010"/>
    <path fill-rule="evenodd" clip-rule="evenodd" d="M30.2197 6.06177H28.2695C28.3189 6.1171 28.3617 6.17681 28.3998 6.23943H30.0899C30.1282 6.17681 30.1717 6.1171 30.2197 6.06177Z" fill="#101010"/>
    <path fill-rule="evenodd" clip-rule="evenodd" d="M29.9708 6.49048H28.5195C28.5424 6.5509 28.5579 6.61061 28.5698 6.66814H29.9215C29.9334 6.61061 29.9495 6.5509 29.9708 6.49048Z" fill="#101010"/>
    <path fill-rule="evenodd" clip-rule="evenodd" d="M29.9182 7.00682C29.9117 6.97698 29.9065 6.94857 29.9027 6.92017H28.5855C28.5826 6.94857 28.579 6.97698 28.5723 7.00682C28.6808 7.01048 28.7839 7.04323 28.8716 7.09711H29.6189C29.7068 7.04323 29.8092 7.01048 29.9182 7.00682Z" fill="#101010"/>
    <path fill-rule="evenodd" clip-rule="evenodd" d="M29.3268 7.5268C29.3387 7.46418 29.3587 7.40445 29.3867 7.34985H29.1035C29.1309 7.40445 29.1522 7.46418 29.1625 7.5268H29.3268Z" fill="#101010"/>
    <path fill-rule="evenodd" clip-rule="evenodd" d="M29.4088 7.95526C29.3801 7.92251 29.3514 7.85697 29.3323 7.77832H29.1554C29.1368 7.85697 29.1081 7.92251 29.0801 7.95526H29.4088Z" fill="#101010"/>
    <path fill-rule="evenodd" clip-rule="evenodd" d="M28.9859 9.06616H26.6465C26.6525 9.12587 26.6606 9.18486 26.6671 9.24382H28.8563C28.8946 9.1812 28.9381 9.1215 28.9859 9.06616Z" fill="#101010"/>
    <path fill-rule="evenodd" clip-rule="evenodd" d="M29.6324 9.24311H31.82C31.8281 9.18412 31.8355 9.12516 31.8422 9.06543H29.502C29.5513 9.12079 29.5941 9.18049 29.6324 9.24311Z" fill="#101010"/>
    <path fill-rule="evenodd" clip-rule="evenodd" d="M28.7364 9.49561H26.7109C26.7228 9.55531 26.7345 9.6143 26.7486 9.67255H28.6869C28.6981 9.61502 28.7149 9.55603 28.7364 9.49561Z" fill="#101010"/>
    <path fill-rule="evenodd" clip-rule="evenodd" d="M29.8013 9.67279H31.7398C31.7523 9.6138 31.7656 9.55482 31.7774 9.49585H29.752C29.7741 9.55627 29.7887 9.61526 29.8013 9.67279Z" fill="#101010"/>
    <path fill-rule="evenodd" clip-rule="evenodd" d="M28.6837 10.0124C28.6769 9.98259 28.6727 9.95272 28.6682 9.92432H26.8145C26.8315 9.98405 26.8506 10.043 26.8698 10.1013H28.3866C28.4743 10.0481 28.576 10.0153 28.6837 10.0124Z" fill="#101010"/>
    <path fill-rule="evenodd" clip-rule="evenodd" d="M29.8047 10.0124C29.9123 10.0153 30.0141 10.0481 30.1018 10.1013H31.6185C31.6378 10.043 31.6569 9.98405 31.6739 9.92432H29.8195C29.8166 9.95272 29.8114 9.98259 29.8047 10.0124Z" fill="#101010"/>
    <path fill-rule="evenodd" clip-rule="evenodd" d="M28.1523 10.3538H26.9629C26.9864 10.4142 27.0122 10.4732 27.0387 10.5307H28.0927C28.1046 10.4681 28.1245 10.4084 28.1523 10.3538Z" fill="#101010"/>
    <path fill-rule="evenodd" clip-rule="evenodd" d="M30.3949 10.5309H31.4489C31.4756 10.4727 31.5014 10.4137 31.5256 10.354H30.3359C30.364 10.4086 30.3839 10.4683 30.3949 10.5309Z" fill="#101010"/>
    <path fill-rule="evenodd" clip-rule="evenodd" d="M28.502 10.9603H28.8551C28.8367 10.8912 28.7768 10.8154 28.6907 10.8154C28.6028 10.8154 28.5419 10.8846 28.502 10.9603Z" fill="#101010"/>
    <path fill-rule="evenodd" clip-rule="evenodd" d="M29.6348 10.9603H29.9877C29.948 10.8846 29.8868 10.8154 29.7998 10.8154C29.7112 10.8154 29.6516 10.8912 29.6348 10.9603Z" fill="#101010"/>
    <path fill-rule="evenodd" clip-rule="evenodd" d="M27.2676 7.9547H27.6207C27.603 7.88553 27.5425 7.80981 27.4564 7.80981C27.3694 7.80981 27.3082 7.87898 27.2676 7.9547Z" fill="#101010"/>
    <path fill-rule="evenodd" clip-rule="evenodd" d="M28.5667 7.80957C28.4804 7.80957 28.4207 7.88529 28.4023 7.95448H28.7552C28.7149 7.87946 28.6544 7.80957 28.5667 7.80957Z" fill="#101010"/>
    <path fill-rule="evenodd" clip-rule="evenodd" d="M31.0335 7.80957C30.9472 7.80957 30.8875 7.88529 30.8691 7.95448H31.222C31.1815 7.87946 31.1211 7.80957 31.0335 7.80957Z" fill="#101010"/>
    <path fill-rule="evenodd" clip-rule="evenodd" d="M29.9232 7.80957C29.8362 7.80957 29.775 7.87946 29.7344 7.95448H30.0882C30.0698 7.88529 30.0093 7.80957 29.9232 7.80957Z" fill="#101010"/>
    <path fill-rule="evenodd" clip-rule="evenodd" d="M28.1001 10.7825H27.166C27.1985 10.8429 27.2339 10.9019 27.2694 10.9601H28.1758C28.1413 10.9237 28.111 10.8276 28.1001 10.7825Z" fill="#101010"/>
    <path fill-rule="evenodd" clip-rule="evenodd" d="M30.3145 10.9604H31.2203C31.255 10.9021 31.2895 10.8432 31.3236 10.7827H30.3896C30.3793 10.8271 30.3483 10.9247 30.3145 10.9604Z" fill="#101010"/>
    <path fill-rule="evenodd" clip-rule="evenodd" d="M28.0111 6.29063C28.2647 6.68239 28.2376 6.97 28.0111 7.37776V6.29063ZM28.5654 7.59838C28.7187 7.59838 28.8476 7.69013 28.9169 7.81974C28.942 7.76441 28.9591 7.70396 28.9591 7.63989C28.9591 7.40689 28.777 7.21685 28.5506 7.21685C28.4784 7.21685 28.41 7.23869 28.351 7.2751L28.208 7.48043L28.1542 7.4411C28.1542 7.4411 28.3759 7.07778 28.3759 6.85278C28.3759 6.6256 28.2315 6.28119 28.0111 6.10425C27.7901 6.28119 27.6457 6.6256 27.6457 6.85278C27.6457 7.07778 27.8667 7.4411 27.8667 7.4411L27.8129 7.48043L27.6705 7.2751C27.6116 7.23869 27.5423 7.21685 27.4701 7.21685C27.2446 7.21685 27.0625 7.40689 27.0625 7.63989C27.0625 7.70396 27.0789 7.76441 27.1053 7.81974C27.173 7.69013 27.3028 7.59838 27.4562 7.59838C27.6883 7.59838 27.8409 7.811 27.8409 7.99595C27.8409 8.07386 27.8284 8.14377 27.81 8.20639V8.20785C27.7871 8.27775 27.7584 8.33746 27.7304 8.38479H28.2912C28.2625 8.33746 28.2338 8.27775 28.2109 8.20785V8.20639C28.1932 8.14377 28.1799 8.07386 28.1799 7.99595V7.99523C28.1799 7.811 28.3333 7.59838 28.5654 7.59838Z" fill="#101010"/>
    <path fill-rule="evenodd" clip-rule="evenodd" d="M30.477 6.29063C30.7306 6.68239 30.7041 6.97 30.477 7.37776V6.29063ZM31.0315 7.59838C31.1848 7.59838 31.3138 7.69013 31.383 7.81974C31.4088 7.76441 31.4252 7.70396 31.4252 7.63989C31.4252 7.40689 31.2431 7.21685 31.0176 7.21685C30.9445 7.21685 30.8761 7.23869 30.8171 7.2751L30.6741 7.48043L30.621 7.4411C30.621 7.4411 30.8429 7.07778 30.8429 6.85278C30.8429 6.6256 30.6983 6.28119 30.4772 6.10425C30.2562 6.28119 30.1118 6.6256 30.1118 6.85278C30.1118 7.07778 30.3329 7.4411 30.3329 7.4411L30.279 7.48043L30.1376 7.2751C30.0786 7.23869 30.0093 7.21685 29.9362 7.21685C29.7113 7.21685 29.5293 7.40689 29.5293 7.63989C29.5293 7.70396 29.5457 7.76441 29.5714 7.81974C29.6407 7.69013 29.769 7.59838 29.9223 7.59838C30.1544 7.59838 30.3071 7.811 30.3077 7.99523V7.99595C30.3077 8.07386 30.2945 8.14377 30.2768 8.20639L30.2761 8.20785C30.2546 8.27775 30.2252 8.33746 30.1965 8.38479H30.7573C30.7286 8.33746 30.6999 8.27775 30.6777 8.20785L30.677 8.20639C30.6593 8.14377 30.6461 8.07386 30.6461 7.99595C30.6461 7.811 30.7994 7.59838 31.0315 7.59838Z" fill="#101010"/>
    <path fill-rule="evenodd" clip-rule="evenodd" d="M29.2446 10.3837V9.29654C29.4979 9.68828 29.4715 9.97517 29.2446 10.3837ZM29.2448 9.10938C29.0238 9.28775 28.8791 9.63144 28.8791 9.85863C28.8791 10.0829 29.1011 10.447 29.1011 10.447L29.0473 10.4863L28.9049 10.2795C28.846 10.2445 28.7776 10.2227 28.7038 10.2227C28.4789 10.2227 28.2969 10.4127 28.2969 10.645C28.2969 10.7105 28.3132 10.771 28.339 10.8249C28.4083 10.696 28.5372 10.6042 28.6906 10.6042C28.922 10.6042 29.0753 10.8169 29.0753 11.0018C29.0753 11.1678 29.0193 11.2996 28.9655 11.3892H29.5242C29.4704 11.2996 29.4136 11.1678 29.4136 11.0018C29.4136 11.0011 29.4143 11.0011 29.4143 11.0004C29.4143 10.8161 29.5677 10.6042 29.7997 10.6042C29.9531 10.6042 30.0813 10.696 30.1506 10.8249C30.1764 10.771 30.1925 10.7105 30.1925 10.645C30.1925 10.4127 30.0105 10.2227 29.7858 10.2227C29.7127 10.2227 29.6435 10.2445 29.5845 10.2795L29.4423 10.4863L29.3892 10.447C29.3892 10.447 29.6103 10.0829 29.6103 9.85863C29.6103 9.63144 29.4659 9.28775 29.2448 9.10938Z" fill="#101010"/>
    <path fill-rule="evenodd" clip-rule="evenodd" d="M28.8161 11.2122H27.4395C27.485 11.2741 27.5323 11.333 27.58 11.3898H28.7322C28.7616 11.3425 28.7925 11.2835 28.8161 11.2122Z" fill="#101010"/>
    <path fill-rule="evenodd" clip-rule="evenodd" d="M29.7579 11.3893H30.9092C30.9572 11.3325 31.0036 11.2743 31.05 11.2117H29.6738C29.6967 11.283 29.7276 11.3435 29.7579 11.3893Z" fill="#101010"/>
    <path fill-rule="evenodd" clip-rule="evenodd" d="M29.5245 1.26424C29.5245 1.11133 29.3985 0.986816 29.2438 0.986816C29.0891 0.986816 28.9629 1.11133 28.9629 1.26424C28.9629 1.41715 29.0891 1.54166 29.2438 1.54166C29.3985 1.54166 29.5245 1.41715 29.5245 1.26424Z" fill="#101010"/>
    <path fill-rule="evenodd" clip-rule="evenodd" d="M29.5011 3.70184L29.5769 3.80379L29.7009 3.59918L29.5801 3.40186H28.9092L28.7891 3.59918L28.9137 3.80379L28.9888 3.70184H29.5011Z" fill="#101010"/>
    <path fill-rule="evenodd" clip-rule="evenodd" d="M28.4033 3.8085L28.5116 3.87621L28.547 3.64176L28.3576 3.50269L27.7363 3.73931L27.7031 3.96504L27.8968 4.11067L27.9287 3.98908L28.4033 3.8085Z" fill="#101010"/>
    <path fill-rule="evenodd" clip-rule="evenodd" d="M30.5604 3.98908L30.5927 4.11067L30.7882 3.96504L30.7541 3.74005L30.1315 3.50269L29.9434 3.64176L29.9781 3.87621L30.0864 3.8085L30.5604 3.98908Z" fill="#101010"/>
    <path fill-rule="evenodd" clip-rule="evenodd" d="M27.5794 8.20776H26.6263C26.6227 8.26675 26.6205 8.32574 26.6191 8.38545H27.4953C27.5256 8.33812 27.5565 8.27913 27.5794 8.20776Z" fill="#101010"/>
    <path fill-rule="evenodd" clip-rule="evenodd" d="M30.9921 8.38494H31.8678C31.8671 8.32523 31.8649 8.26624 31.862 8.20728H30.9082C30.9317 8.27862 30.9627 8.33906 30.9921 8.38494Z" fill="#101010"/>
    <path fill-rule="evenodd" clip-rule="evenodd" d="M29.9633 8.38494C29.9936 8.33906 30.0245 8.27862 30.0483 8.20728H28.4414C28.4649 8.27862 28.4952 8.33906 28.5255 8.38494H29.9633Z" fill="#101010"/>
    <path fill-rule="evenodd" clip-rule="evenodd" d="M31.2183 2.50937L30.4443 2.19044L30.2881 2.50136C30.2262 2.61423 30.1127 2.63098 30.0273 2.5982C29.9439 2.56617 29.8695 2.47806 29.9004 2.3601L29.9861 2.00113L29.2437 1.69458L28.5007 2.00113L28.5877 2.3601C28.6186 2.47806 28.5435 2.56617 28.461 2.5982C28.3763 2.63098 28.2619 2.61423 28.1994 2.50136L28.0424 2.19044L27.2707 2.50937L27.3539 2.82319C27.3841 2.94043 27.309 3.02854 27.2265 3.06058C27.1416 3.09406 27.0268 3.07659 26.9647 2.96446L26.8115 2.69795L26.3295 2.89527C26.2367 2.71544 26.0846 2.76423 26.0234 2.79335L26.74 4.15278C26.933 4.56929 26.8499 4.87074 26.8395 4.9654C27.0642 4.61951 27.5788 4.29114 27.6651 4.23798L27.2646 3.946C27.2617 3.9977 27.272 4.07487 27.2855 4.13677L27.1254 4.26199L26.9037 3.88338C27.5646 3.43191 28.3408 3.16179 29.1251 3.14796C29.0904 3.05547 29.041 2.95281 28.848 2.97101C28.1417 3.03435 27.4512 3.28046 26.807 3.71444L26.4562 3.11226C26.4562 3.11226 26.7362 3.00451 26.7371 3.00451C26.8925 3.25425 27.0835 3.28266 27.2994 3.196C27.5108 3.113 27.5891 2.94698 27.5404 2.69069L27.9716 2.52248C28.1543 2.81373 28.3357 2.82756 28.5422 2.74602C28.7529 2.66228 28.8213 2.46423 28.7742 2.21083C28.7742 2.21083 28.8958 2.16205 29.0249 2.11035C29.0948 2.57782 29.2437 2.83994 29.2437 2.83994C29.2437 2.83994 29.3919 2.57782 29.4619 2.11035C29.5924 2.16205 29.7148 2.21083 29.7148 2.21083C29.6675 2.46423 29.7354 2.66228 29.9446 2.74602C30.1524 2.82756 30.3338 2.81373 30.5165 2.52248L30.9479 2.69069C30.8977 2.94698 30.978 3.113 31.1896 3.196C31.4055 3.28266 31.5956 3.25425 31.7519 3.00451L32.032 3.11226L31.6813 3.71444C31.0369 3.28046 30.3457 3.03435 29.6388 2.97101C29.4471 2.95281 29.3971 3.05547 29.3617 3.14796C30.1482 3.16179 30.9235 3.43191 31.5831 3.88338L31.3627 4.26199L31.2028 4.13677C31.2167 4.07487 31.2271 3.9977 31.2235 3.946L30.8239 4.23798C30.9102 4.29114 31.4232 4.61951 31.6495 4.9654C31.6378 4.87074 31.556 4.56929 31.749 4.15278L32.4631 2.79335C32.4028 2.76423 32.2501 2.71544 32.1573 2.89527L31.6752 2.69795L31.5228 2.96446C31.4609 3.07659 31.3472 3.09406 31.2618 3.06058C31.1786 3.02854 31.104 2.94043 31.1351 2.82319L31.2183 2.50937Z" fill="#101010"/>
    <path fill-rule="evenodd" clip-rule="evenodd" d="M19.959 8.18919C19.9582 8.28314 20.0349 8.36031 20.1285 8.36105C20.2236 8.36177 20.3025 8.28605 20.3032 8.19211C20.3046 8.09819 20.2273 8.02245 20.1314 8.02173C20.0364 8.02099 19.9597 8.09527 19.959 8.18919Z" fill="#101010"/>
    <path fill-rule="evenodd" clip-rule="evenodd" d="M19.7112 9.21542L19.7031 9.21614L19.7724 9.69745L19.7731 9.70473L19.8483 9.69453L19.8491 9.6887C19.855 9.64574 19.8579 9.58532 19.8579 9.51833L20.2905 9.45788L20.3274 9.71128C20.3362 9.7739 20.3694 9.79065 20.3923 9.79939L20.4542 9.79065L20.4033 9.44259L20.7748 9.38943L20.8227 9.72366C20.7623 9.74623 20.718 9.76735 20.6665 9.80011L20.6628 9.80302L20.6716 9.86273L20.6768 9.86419C20.7195 9.87365 20.808 9.88457 20.8677 9.87656C20.9023 9.87147 20.9274 9.86565 20.9458 9.85473L20.9502 9.85253L20.8367 9.06323L20.8301 9.06397C20.7593 9.07415 20.7497 9.10619 20.7453 9.2256L19.8358 9.35158C19.7974 9.23435 19.7776 9.20594 19.7112 9.21542Z" fill="#101010"/>
    <path fill-rule="evenodd" clip-rule="evenodd" d="M20.1406 10.4348C20.2048 10.3474 20.3109 10.2827 20.4502 10.2455C20.5895 10.2084 20.717 10.2113 20.8165 10.2528C20.8298 10.2579 20.8423 10.2652 20.8541 10.271C20.9315 10.3147 20.9853 10.386 21.0096 10.4771C21.0384 10.5805 21.02 10.6809 20.9581 10.7654C20.8946 10.8528 20.7892 10.9183 20.6507 10.9547C20.5121 10.9926 20.3853 10.9897 20.2836 10.9474C20.1849 10.9059 20.1171 10.8288 20.089 10.7239C20.0603 10.6198 20.078 10.5193 20.1406 10.4348ZM20.2355 11.0807C20.2377 11.0822 20.2407 11.0836 20.2429 11.085C20.3778 11.1579 20.5444 11.1754 20.7087 11.1302C20.8812 11.0858 21.0094 10.9955 21.0795 10.8688C21.148 10.7501 21.162 10.6067 21.1215 10.4574C21.0802 10.3103 20.9888 10.1909 20.8628 10.1188C20.8613 10.1173 20.8583 10.1166 20.8547 10.1152C20.7213 10.0416 20.5562 10.0263 20.3918 10.0708C20.2186 10.1166 20.0911 10.2062 20.0174 10.33C19.9481 10.4487 19.9333 10.5892 19.9724 10.7385C20.0137 10.8863 20.1066 11.0072 20.2355 11.0807Z" fill="#101010"/>
    <path fill-rule="evenodd" clip-rule="evenodd" d="M21.3904 11.5407L21.3934 11.545L21.4634 11.5181L21.2887 11.0703L21.2821 11.0725C21.2187 11.098 21.2157 11.1337 21.2401 11.256L20.3836 11.5815C20.3187 11.4744 20.2915 11.4497 20.2281 11.4737L20.2207 11.4766L20.3939 11.9229L20.4647 11.8975V11.8909C20.4625 11.8487 20.4529 11.7853 20.4426 11.738L21.3027 11.4125C21.327 11.4533 21.3624 11.5072 21.3904 11.5407Z" fill="#101010"/>
    <path fill-rule="evenodd" clip-rule="evenodd" d="M21.8273 12.4701C21.8508 12.5021 21.8848 12.5596 21.9024 12.5887C21.9422 12.6557 21.9577 12.7169 21.9467 12.7701C21.9356 12.8225 21.9002 12.8684 21.8398 12.9033C21.7934 12.9303 21.7219 12.9565 21.6489 12.931C21.5671 12.904 21.5 12.8225 21.4433 12.6914L21.8273 12.4701ZM21.6769 13.0802C21.7683 13.1094 21.8626 13.0999 21.9422 13.054C22.027 13.0038 22.0771 12.9368 22.0882 12.853C22.1 12.773 22.0756 12.6797 22.0145 12.5763C22.0012 12.5552 21.9732 12.5101 21.9437 12.4628C21.9098 12.4089 21.8744 12.3528 21.8582 12.3237L21.7521 12.1475L21.7469 12.1511C21.6865 12.1853 21.6894 12.2188 21.7307 12.3317L20.9384 12.7897C20.8573 12.6965 20.8285 12.6776 20.7689 12.711L20.7637 12.7147L21.0121 13.1341L21.015 13.1399L21.0799 13.1028L21.0792 13.097C21.0725 13.0635 21.0533 13.0118 21.0224 12.936L21.3504 12.746C21.4528 12.9695 21.5848 13.0511 21.6769 13.0802Z" fill="#101010"/>
    <path fill-rule="evenodd" clip-rule="evenodd" d="M21.8617 14.3094C22.0143 14.3945 22.1993 14.3727 22.3681 14.2409L22.8229 13.8885C22.9166 13.9715 22.9475 13.9861 23.0004 13.9453L23.0065 13.9402L22.7204 13.5827L22.6621 13.6271L22.6637 13.6322C22.6756 13.6737 22.7117 13.7341 22.7403 13.7822L22.2959 14.1295C22.1086 14.2759 21.9509 14.2722 21.8286 14.1178C21.6929 13.9489 21.7202 13.8004 21.9126 13.6504L22.3578 13.3038C22.3991 13.3424 22.4507 13.3897 22.4875 13.4123L22.4913 13.4145L22.5509 13.3693L22.2435 12.9849L22.2376 12.99C22.1838 13.0307 22.1919 13.065 22.2509 13.172L21.7983 13.5259C21.6672 13.6278 21.5994 13.7334 21.589 13.8477C21.5802 13.9548 21.6229 14.0654 21.7195 14.187C21.7615 14.2387 21.8101 14.2802 21.8617 14.3094Z" fill="#101010"/>
    <path fill-rule="evenodd" clip-rule="evenodd" d="M22.6296 14.9359L22.8971 14.6578L23.0363 14.7881C23.1462 14.8915 23.1574 15.0007 23.0659 15.0968C22.9679 15.1966 22.8462 15.1973 22.7379 15.0975L22.631 14.9949C22.609 14.9745 22.6081 14.9585 22.6296 14.9359ZM23.2404 14.3017L23.3531 14.4088C23.4462 14.4961 23.4513 14.5893 23.3657 14.6782C23.3009 14.7452 23.1969 14.7852 23.0966 14.6978L22.9715 14.5813L23.2404 14.3017ZM22.7931 15.2702C22.9406 15.3532 23.0879 15.335 23.2045 15.2141C23.3054 15.1092 23.3114 14.9811 23.2206 14.8515C23.3289 14.8879 23.4381 14.861 23.5161 14.7801C23.6002 14.6928 23.6585 14.5493 23.4594 14.3607L23.0836 14.0083L23.0776 14.0127C23.0298 14.0644 23.0424 14.095 23.1137 14.1911L22.4814 14.8464C22.3812 14.7809 22.3487 14.7699 22.3008 14.8216L22.2949 14.8275L22.6722 15.1806C22.7121 15.2192 22.7527 15.2491 22.7931 15.2702Z" fill="#101010"/>
    <path fill-rule="evenodd" clip-rule="evenodd" d="M24.2025 15.0688L24.2076 15.0703L24.2511 15.0113L23.8754 14.7353L23.8693 14.731L23.8642 14.7368C23.8229 14.7921 23.8384 14.8191 23.9224 14.9064L23.374 15.6375C23.2657 15.5836 23.2332 15.5778 23.192 15.6317L23.1875 15.639L23.8561 16.129L23.8606 16.1319L23.8648 16.129C23.8857 16.1152 23.9099 16.094 23.9276 16.07C23.9659 16.019 24.002 15.9324 24.013 15.8887L24.0146 15.8843L23.9653 15.8472L23.9608 15.8501C23.9144 15.8749 23.8686 15.9106 23.8112 15.963L23.5081 15.7409L24.0594 15.0062C24.1023 15.0266 24.1606 15.055 24.2025 15.0688Z" fill="#101010"/>
    <path fill-rule="evenodd" clip-rule="evenodd" d="M24.9983 15.5851L25.0034 15.5865L25.0433 15.5239L24.6357 15.2771L24.629 15.2727L24.6245 15.2793C24.5884 15.3368 24.6099 15.3681 24.7041 15.4496L24.2252 16.2229C24.1079 16.1763 24.0703 16.1742 24.0342 16.2317L24.0312 16.2375L24.4382 16.4836L24.4447 16.4872L24.4846 16.4246L24.4808 16.4203C24.4528 16.3882 24.4041 16.3438 24.3689 16.3118L24.8501 15.537C24.8935 15.5538 24.9541 15.5756 24.9983 15.5851Z" fill="#101010"/>
    <path fill-rule="evenodd" clip-rule="evenodd" d="M25.2286 16.7825C25.1291 16.7374 25.0627 16.6587 25.0385 16.5568C25.0127 16.4519 25.0304 16.3289 25.0907 16.2015C25.2167 15.9364 25.4248 15.8316 25.6311 15.9277C25.6414 15.932 25.6501 15.9371 25.6598 15.943C25.8418 16.0449 25.886 16.2626 25.7696 16.5065C25.6443 16.7687 25.4329 16.8772 25.2286 16.7825ZM25.9445 16.575C26.019 16.417 26.0315 16.2619 25.9806 16.1272C25.9313 15.999 25.8295 15.8963 25.688 15.8308C25.3909 15.6925 25.0674 15.8206 24.9185 16.1322C24.8441 16.291 24.8293 16.4468 24.8773 16.583C24.9244 16.7104 25.0239 16.8131 25.1647 16.8779C25.1786 16.8851 25.1934 16.8902 25.2001 16.8924C25.2791 17.1291 25.4057 17.3024 25.5553 17.3876C25.5678 17.3941 25.5797 17.4007 25.5907 17.405C25.7248 17.4669 25.8385 17.4415 25.8849 17.416L25.8885 17.4138L25.8894 17.3533L25.8833 17.3519C25.8788 17.3512 25.8737 17.3497 25.8678 17.349C25.8347 17.3432 25.7847 17.3322 25.7176 17.3009C25.5775 17.2361 25.4515 17.1109 25.3432 16.9288C25.5914 16.9601 25.8266 16.824 25.9445 16.575Z" fill="#101010"/>
    <path fill-rule="evenodd" clip-rule="evenodd" d="M26.386 17.3337C26.4302 17.3592 26.4827 17.3788 26.5423 17.3977C26.6712 17.4356 26.7914 17.424 26.8916 17.365C26.9905 17.3075 27.0649 17.2055 27.1046 17.0715L27.2705 16.5254C27.3943 16.54 27.4291 16.5335 27.4468 16.4694L27.4497 16.4628L27.0156 16.3354L27.0082 16.3332L26.9853 16.4038L26.9905 16.4075C27.025 16.433 27.0892 16.4621 27.1409 16.4861L26.9802 17.022C26.947 17.1334 26.8977 17.2113 26.8342 17.255C26.7701 17.2995 26.6876 17.3082 26.5916 17.2798C26.4827 17.2478 26.4134 17.1953 26.3809 17.1189C26.3515 17.0483 26.3538 16.9601 26.3876 16.8487L26.5481 16.3128C26.6051 16.3194 26.675 16.3303 26.7179 16.3274L26.723 16.3267L26.7437 16.2568L26.2762 16.1191L26.269 16.1169L26.2668 16.1242C26.2482 16.1883 26.2733 16.2116 26.3854 16.2662L26.221 16.8131C26.1737 16.9711 26.1798 17.0963 26.2378 17.1953C26.271 17.2507 26.3197 17.2965 26.386 17.3337Z" fill="#101010"/>
    <path fill-rule="evenodd" clip-rule="evenodd" d="M28.2083 16.678C28.2119 16.7413 28.22 16.7901 28.2364 16.8476L28.2377 16.852L28.2989 16.8615L28.3012 16.8571C28.324 16.8185 28.3601 16.7384 28.3689 16.6787C28.3749 16.6452 28.3749 16.619 28.3704 16.6001L28.3698 16.5943L27.562 16.4734L27.5537 16.4719L27.553 16.4806C27.5427 16.5484 27.5707 16.5673 27.685 16.6052L27.5472 17.5008C27.4254 17.5044 27.3945 17.5132 27.3835 17.5823L27.3828 17.5896L28.1913 17.7112L28.1951 17.7119L28.198 17.7076C28.2106 17.6857 28.2209 17.6559 28.2245 17.6275C28.2348 17.5634 28.2238 17.4746 28.2148 17.4316L28.2135 17.4265L28.153 17.4185L28.15 17.4214C28.1198 17.4673 28.0956 17.5183 28.0705 17.586L27.7137 17.5321L27.7801 17.1025L28.0521 17.144C28.1162 17.1527 28.142 17.1272 28.1568 17.1069L28.1581 17.1054L28.1662 17.0457L27.7962 16.9911L27.8536 16.6248L28.2083 16.678Z" fill="#101010"/>
    <path fill-rule="evenodd" clip-rule="evenodd" d="M29.0348 17.272L29.0332 17.2735V17.3776H29.2993C29.3886 17.3776 29.4195 17.3747 29.4475 17.3404L29.4489 17.3383V17.2349H29.1814C29.0928 17.2349 29.0619 17.2378 29.0348 17.272Z" fill="#101010"/>
    <path fill-rule="evenodd" clip-rule="evenodd" d="M30.254 17.7021L30.2555 17.7094L30.7295 17.6482L30.736 17.6467L30.7273 17.5739L30.7212 17.5725C30.6896 17.5666 30.638 17.5615 30.5658 17.5608L30.4699 16.8385L30.4692 16.8356L30.4656 16.8341C30.4405 16.8225 30.4089 16.8196 30.3706 16.8247C30.2916 16.8349 30.1995 16.8742 30.1692 16.8902L30.1641 16.8931L30.1721 16.9521L30.1773 16.9535C30.2098 16.9579 30.2533 16.9623 30.319 16.9623L30.4006 17.5805C30.2775 17.6162 30.2452 17.6358 30.254 17.7021Z" fill="#101010"/>
    <path fill-rule="evenodd" clip-rule="evenodd" d="M31.1328 17.0358L31.202 17.0497C31.3525 17.0781 31.4334 17.1137 31.4601 17.2332C31.4843 17.3387 31.4202 17.4239 31.2971 17.4501C31.1666 17.4793 31.0716 17.4225 31.0444 17.298C31.0164 17.1749 31.0731 17.0963 31.1328 17.0358ZM30.9478 16.7109C30.9352 16.6578 30.944 16.6133 30.972 16.5791C30.9971 16.5471 31.039 16.5238 31.0922 16.5121C31.1424 16.5019 31.1872 16.5063 31.2242 16.5274C31.2278 16.5303 31.2314 16.5325 31.2352 16.5347C31.272 16.5609 31.3 16.6017 31.3119 16.6563C31.3303 16.7386 31.3067 16.8136 31.2404 16.8871L31.2204 16.8827C31.0774 16.8565 30.9743 16.8289 30.9478 16.7109ZM30.8781 17.3468C30.8949 17.4239 30.9332 17.4822 30.9944 17.5215C30.9973 17.5237 31.0025 17.5266 31.007 17.5288C31.085 17.5725 31.1897 17.5812 31.3121 17.5543C31.5296 17.5069 31.6592 17.3431 31.6186 17.1662C31.5825 17.0031 31.4845 16.9455 31.3276 16.9062C31.4168 16.8523 31.5067 16.7584 31.4736 16.6091C31.444 16.4774 31.3254 16.3557 31.0798 16.4104C30.9745 16.4322 30.892 16.4803 30.8404 16.5473C30.7902 16.6106 30.7725 16.6878 30.7895 16.7657C30.8263 16.9295 30.9384 16.9849 31.0476 17.0155C30.9155 17.0919 30.8507 17.2179 30.8781 17.3468Z" fill="#101010"/>
    <path fill-rule="evenodd" clip-rule="evenodd" d="M31.9215 17.3766L31.9237 17.3838L32.3793 17.2411L32.3867 17.2397L32.3639 17.1683H32.3587C32.3262 17.1683 32.274 17.1727 32.2031 17.1836L31.9791 16.486L31.9746 16.4853C31.9482 16.4795 31.9164 16.4817 31.8789 16.4926C31.8045 16.5159 31.7204 16.572 31.6917 16.5924L31.6895 16.5967L31.7072 16.6528H31.713C31.7462 16.6521 31.7881 16.6492 31.8538 16.6382L32.0439 17.2317C31.9298 17.2877 31.9018 17.3132 31.9215 17.3766Z" fill="#101010"/>
    <path fill-rule="evenodd" clip-rule="evenodd" d="M32.7015 16.4542C32.7669 16.4265 32.8281 16.4287 32.8819 16.4592H32.8828C32.9322 16.4877 32.9757 16.5408 33.0059 16.6129C33.0375 16.6864 33.0472 16.7578 33.0324 16.8168C33.0192 16.8743 32.9831 16.9173 32.9292 16.9398C32.871 16.9624 32.8171 16.9624 32.7656 16.9398C32.7582 16.9362 32.7524 16.9333 32.7463 16.9289C32.6219 16.8597 32.5548 16.6777 32.5445 16.6493C32.5548 16.5816 32.6129 16.4906 32.7015 16.4542ZM32.6248 17.0287C32.6293 17.0309 32.6337 17.0331 32.638 17.0353C32.7353 17.0848 32.8458 17.0869 32.9586 17.0411C33.0591 16.9996 33.1335 16.9195 33.168 16.8161C33.1996 16.72 33.1938 16.61 33.1532 16.5146C33.1158 16.4251 33.0539 16.3544 32.9763 16.318C32.8938 16.2787 32.801 16.278 32.7066 16.3166C32.5739 16.3712 32.5275 16.4702 32.5107 16.5343C32.4598 16.2707 32.571 16.0253 32.8149 15.8746L32.8216 15.8702L32.7781 15.8062L32.7736 15.8098C32.3867 15.9722 32.2313 16.3537 32.3941 16.7404C32.4508 16.8758 32.5313 16.9748 32.6248 17.0287Z" fill="#101010"/>
    <path fill-rule="evenodd" clip-rule="evenodd" d="M33.9495 16.1804C34.0448 16.1812 34.1212 16.1047 34.1221 16.0115C34.1235 15.9175 34.0477 15.8411 33.9526 15.8404C33.8575 15.8382 33.78 15.9146 33.7793 16.0086C33.7786 16.1025 33.8544 16.1797 33.9495 16.1804Z" fill="#101010"/>
    <path fill-rule="evenodd" clip-rule="evenodd" d="M19.9284 6.21187H19.9239L19.9225 6.2155C19.9011 6.25409 19.8613 6.38807 19.8451 6.48199C19.7942 6.75797 19.8945 6.98368 20.1053 7.10311C20.1701 7.13804 20.2453 7.16573 20.3293 7.18028C20.6757 7.24145 20.9359 7.07616 20.9927 6.76234C21.0332 6.53878 20.9197 6.40628 20.8681 6.35895L20.8652 6.35675L20.8615 6.35749C20.8467 6.36112 20.8136 6.38152 20.8025 6.39462L20.7988 6.39899L20.8032 6.40845C20.8335 6.45287 20.8991 6.55699 20.8725 6.70335C20.8526 6.81693 20.7892 6.90359 20.689 6.95529C20.5939 7.00408 20.4693 7.01717 20.3389 6.99462C20.1893 6.96839 20.0787 6.91451 20.0109 6.83368C19.9453 6.75577 19.9239 6.65676 19.9438 6.54244C19.9578 6.4689 19.9829 6.41211 19.9976 6.3837C20.0942 6.3837 20.1657 6.36769 20.1915 6.3604L20.1974 6.35895L20.2084 6.29924L20.204 6.29704C20.1642 6.27229 20.0876 6.22862 20.0146 6.21622C19.991 6.21187 19.9527 6.20895 19.9284 6.21187Z" fill="#101010"/>
    <path fill-rule="evenodd" clip-rule="evenodd" d="M20.6905 5.80448L20.2549 5.49283L20.7929 5.48846L20.6905 5.80448ZM20.2879 5.32957C20.2097 5.331 20.153 5.33174 20.1191 5.43804L20.0918 5.51815L20.9836 6.16691C20.9792 6.24482 20.9829 6.28123 21.0197 6.30307C21.0271 6.30527 21.0352 6.3089 21.0433 6.31182L21.0507 6.31399L21.1731 5.93609L21.1753 5.92809L21.1045 5.90697L21.1016 5.91062C21.0728 5.95358 21.0441 6.006 21.0264 6.04458L20.7817 5.87056L20.9055 5.48683L21.2077 5.48465C21.1996 5.52398 21.193 5.58003 21.19 5.6361V5.64047L21.26 5.66377L21.3964 5.24437L21.3993 5.23782L21.392 5.23491C21.3308 5.21596 21.3079 5.24217 21.2593 5.32008L20.293 5.32957H20.2879Z" fill="#101010"/>
    <path fill-rule="evenodd" clip-rule="evenodd" d="M20.6662 4.29402L20.5977 4.26416L20.4053 4.69668L20.4023 4.70325L20.4075 4.70542C20.4701 4.73383 20.4989 4.70905 20.5689 4.60639L21.4084 4.97265C21.3775 5.09352 21.3782 5.12848 21.4416 5.1576L21.449 5.15978L21.6413 4.72946L21.6443 4.72145L21.575 4.69159L21.5721 4.69668C21.5418 4.72872 21.5057 4.7797 21.4792 4.82046L20.6367 4.45131C20.6485 4.40543 20.6618 4.34281 20.6662 4.29911V4.29402Z" fill="#101010"/>
    <path fill-rule="evenodd" clip-rule="evenodd" d="M21.0765 3.60855C21.1355 3.62676 21.2158 3.63914 21.2541 3.63914H21.2585L21.288 3.58743L21.2843 3.58234C21.2025 3.49206 21.1281 3.44181 21.0618 3.42872L21.0588 3.42798L21.0566 3.43163C21.0338 3.45639 20.9689 3.53138 20.8945 3.66463C20.7765 3.87724 20.8001 4.04982 20.9593 4.1401C20.9608 4.14082 20.963 4.14156 20.9645 4.14302C21.0794 4.20564 21.1944 4.19981 21.3057 4.1241C21.3573 4.08914 21.3853 4.06582 21.4207 4.03524C21.4406 4.01849 21.4627 3.99885 21.4944 3.97336C21.5777 3.90637 21.647 3.87579 21.7487 3.92966C21.7494 3.9304 21.7509 3.93112 21.7516 3.93186C21.8511 3.98791 21.8711 4.09569 21.8047 4.2151C21.7612 4.29373 21.7015 4.34617 21.6588 4.36801C21.6064 4.34763 21.5246 4.32288 21.459 4.31851H21.4546L21.4244 4.37164L21.4266 4.37601C21.4605 4.42334 21.5187 4.47942 21.5806 4.51509C21.6027 4.52821 21.6256 4.53695 21.6477 4.5435L21.6514 4.54421L21.6544 4.54276C21.6883 4.52312 21.8055 4.4481 21.8998 4.27844C22.0221 4.05928 21.9868 3.87433 21.8025 3.77167C21.7996 3.77021 21.7981 3.76875 21.7966 3.76658C21.6573 3.69158 21.5291 3.71487 21.3802 3.84229C21.3662 3.85467 21.3536 3.86559 21.3426 3.87433C21.3042 3.90857 21.2792 3.92821 21.2394 3.95879C21.1583 4.01849 21.092 4.02944 21.0264 3.99302C21.0256 3.99228 21.0242 3.99157 21.0234 3.99083C20.9335 3.94058 20.9188 3.84958 20.9829 3.7338C21.0183 3.67046 21.0559 3.62896 21.0765 3.60855Z" fill="#101010"/>
    <path fill-rule="evenodd" clip-rule="evenodd" d="M21.6661 2.55835L21.6617 2.55762L21.6587 2.5598C21.6351 2.58165 21.5607 2.64864 21.4715 2.77314C21.3278 2.97266 21.3329 3.14961 21.4848 3.2559C21.5902 3.33164 21.7066 3.33819 21.826 3.27628C21.8813 3.24716 21.9115 3.22678 21.9506 3.20129C21.972 3.18673 21.997 3.16999 22.0324 3.14887C22.1208 3.09062 22.1946 3.06804 22.2889 3.13432C22.3339 3.16633 22.3597 3.21077 22.3648 3.25953C22.37 3.31124 22.3508 3.36803 22.311 3.42338C22.2587 3.49618 22.1931 3.54134 22.1481 3.55881C22.0987 3.53114 22.0199 3.4991 21.9558 3.48601L21.9513 3.48455L21.9145 3.53551L21.9167 3.5406C21.9499 3.60105 22.014 3.67604 22.0847 3.71537C22.0958 3.72263 22.1068 3.72701 22.1172 3.73138L22.1201 3.73212L22.1231 3.73138C22.1592 3.71609 22.2852 3.65492 22.398 3.49764C22.5468 3.29086 22.5313 3.10154 22.3552 2.97775C22.2262 2.88675 22.0958 2.89475 21.9322 3.0047C21.9174 3.01488 21.9042 3.02508 21.8924 3.03237C21.8496 3.06149 21.8238 3.07896 21.7789 3.10445C21.6926 3.1547 21.6255 3.15761 21.5636 3.11465C21.4774 3.05421 21.473 2.96029 21.5511 2.85251C21.5924 2.79354 21.6351 2.75639 21.6587 2.73819C21.7147 2.76368 21.7951 2.78552 21.8319 2.78917L21.8349 2.78989L21.8717 2.74038L21.8673 2.73601C21.798 2.63698 21.7302 2.57728 21.6661 2.55835Z" fill="#101010"/>
    <path fill-rule="evenodd" clip-rule="evenodd" d="M22.392 1.86222C22.4466 1.8928 22.4922 1.91246 22.549 1.93139L22.5541 1.93285L22.594 1.88698L22.5918 1.88261C22.5727 1.84329 22.5247 1.76902 22.4798 1.72824C22.454 1.70567 22.4319 1.69183 22.4127 1.68382L22.4075 1.68164L21.8614 2.28236L21.8555 2.28745L21.8621 2.29255C21.9152 2.33915 21.9461 2.32677 22.0397 2.2525L22.7229 2.85905C22.6588 2.96026 22.6492 2.99302 22.7016 3.03889L22.7075 3.044L23.2581 2.43891L23.2552 2.43454C23.244 2.41269 23.2243 2.38866 23.2021 2.36828C23.1541 2.32677 23.0732 2.28527 23.031 2.27071L23.0259 2.26925L22.9853 2.31294L22.9875 2.31731C23.0097 2.36755 23.0391 2.41633 23.0826 2.4724L22.8395 2.73816L22.5138 2.44837L22.6978 2.24522C22.7413 2.19789 22.7339 2.16221 22.7245 2.13891L22.6788 2.09741L22.4289 2.37192L22.1503 2.12435L22.3898 1.86149L22.392 1.86222Z" fill="#101010"/>
    <path fill-rule="evenodd" clip-rule="evenodd" d="M23.3399 0.999688L23.491 0.887556C23.7137 0.720811 23.9303 0.753577 24.102 0.978573C24.1971 1.10308 24.2421 1.21231 24.2392 1.3157C24.2354 1.42784 24.1735 1.52832 24.0498 1.62079L23.9332 1.70744C23.9083 1.72565 23.8935 1.72346 23.8742 1.69798L23.3399 0.999688ZM23.7056 2.00088L23.7101 2.00598L24.1383 1.68705C24.2836 1.57856 24.369 1.4424 24.3861 1.29385C24.4015 1.15114 24.3542 1.00187 24.2475 0.863523C24.0426 0.594112 23.7448 0.564258 23.45 0.783427L23.0195 1.10527L23.0254 1.11036C23.0673 1.16643 23.1005 1.15988 23.2081 1.10599L23.761 1.82904C23.6791 1.91569 23.6621 1.94481 23.7056 2.00088Z" fill="#101010"/>
    <path fill-rule="evenodd" clip-rule="evenodd" d="M24.6976 1.27848L24.7021 1.28503L25.4126 0.885285L25.4171 0.883102L25.4162 0.878003C25.4126 0.853975 25.4016 0.823393 25.3868 0.797907C25.3552 0.743297 25.2911 0.679221 25.2563 0.652281L25.2518 0.647911L25.1989 0.678493L25.1996 0.683591C25.2041 0.737473 25.2166 0.792083 25.2402 0.8598L24.9261 1.03674L24.7079 0.658834L24.9476 0.524127C25.0021 0.493545 25.0079 0.458595 25.0066 0.433838H24.8767L24.6519 0.561262L24.5783 0.433838H24.3828L24.7743 1.11465C24.6821 1.1911 24.6631 1.21805 24.6976 1.27848Z" fill="#101010"/>
    <path fill-rule="evenodd" clip-rule="evenodd" d="M26.0549 0.446456C26.032 0.491601 25.9856 0.53092 25.9215 0.556405C25.8387 0.592084 25.7601 0.595725 25.7114 0.586987C25.6856 0.541114 25.6399 0.478494 25.5935 0.43335H25.5551L25.5249 0.446456L25.5242 0.451553C25.519 0.53092 25.5403 0.647422 25.5935 0.718781L25.5957 0.720964L25.5986 0.721693C25.637 0.727518 25.7762 0.739896 25.9567 0.665626C26.0695 0.618298 26.1506 0.552765 26.1925 0.477038C26.2008 0.462475 26.2051 0.448641 26.2103 0.43335H26.0585C26.0562 0.43699 26.0569 0.442815 26.0549 0.446456Z" fill="#101010"/>
    <path fill-rule="evenodd" clip-rule="evenodd" d="M35.9341 13.3901L35.928 13.3857L35.6348 13.7119L35.6901 13.7607L35.6953 13.7586C35.7321 13.7382 35.7814 13.6988 35.8227 13.6661L35.9892 13.8131V13.6442L35.909 13.5721C35.9753 13.4673 35.9841 13.4352 35.9341 13.3901Z" fill="#101010"/>
    <path fill-rule="evenodd" clip-rule="evenodd" d="M35.9786 15.0191L35.9844 15.0242L35.9889 15.0191V14.8611C35.938 14.9441 35.9328 14.9783 35.9786 15.0191Z" fill="#101010"/>
    <path fill-rule="evenodd" clip-rule="evenodd" d="M35.9902 14.1182L35.3291 14.0396H35.3255L35.2997 14.0665C35.2687 14.1015 35.2636 14.1386 35.2826 14.1794C35.2997 14.2158 35.3365 14.2507 35.369 14.2791L35.9902 14.8245V14.6541L35.4943 14.2201L35.9902 14.2813V14.1182Z" fill="#101010"/>
    <path fill-rule="evenodd" clip-rule="evenodd" d="M35.2743 15.4834C35.2256 15.4456 35.1541 15.4055 35.1189 15.3924L35.1144 15.3917L35.0687 15.431L35.0703 15.4361C35.1151 15.5482 35.1667 15.6218 35.2243 15.6553L35.2279 15.6582L35.2301 15.6553C35.2588 15.6407 35.3481 15.5927 35.4653 15.4936C35.6532 15.3334 35.69 15.1616 35.5678 15.0218C35.483 14.922 35.3738 14.8893 35.2427 14.9213C35.1815 14.9359 35.1476 14.9482 35.1041 14.9643C35.0774 14.973 35.0503 14.9832 35.0113 14.997C34.9111 15.0313 34.8328 15.0356 34.7591 14.9497C34.6833 14.8616 34.7017 14.7531 34.807 14.6635C34.8757 14.6046 34.9501 14.5769 34.9978 14.5711C35.04 14.6089 35.1064 14.6592 35.1667 14.6868L35.1712 14.689L35.2198 14.6482L35.2182 14.6439C35.1976 14.5667 35.1425 14.4611 35.0703 14.4094L35.0671 14.4072L35.0642 14.408C35.0252 14.4145 34.8889 14.4444 34.7393 14.5711C34.6472 14.649 34.5902 14.7364 34.5741 14.8215C34.555 14.914 34.5837 15.0029 34.6559 15.0866C34.76 15.2046 34.8889 15.2264 35.0732 15.1594C35.0909 15.1528 35.1055 15.147 35.1196 15.1419C35.1667 15.1237 35.1976 15.1128 35.2463 15.099C35.3429 15.0706 35.4084 15.0837 35.4579 15.1398C35.5272 15.2198 35.5079 15.3108 35.407 15.3982C35.351 15.4441 35.3016 15.4703 35.2743 15.4834Z" fill="#101010"/>
    <path fill-rule="evenodd" clip-rule="evenodd" d="M35.9705 15.9976C34.1504 17.5675 31.7675 18.5208 29.1584 18.5208C23.4427 18.5208 18.8096 13.9576 18.8096 8.32757C18.8096 5.1239 20.3111 2.2656 22.6574 0.397949H21.3793C19.2726 2.40345 17.9609 5.21336 17.9609 8.32757C17.9609 14.4189 22.9737 19.3574 29.1584 19.3574C31.722 19.3574 34.0834 18.5061 35.9705 17.0784V15.9976Z" fill="#101010"/>
    </g>
    <defs>
    <clipPath id="clip0_1532_19583">
    <rect width="36.0973" height="36.0973" fill="white" transform="translate(0.0683594 0.366943)"/>
    </clipPath>
    </defs>
    </svg>