<svg width="35" height="34" viewBox="0 0 35 34" fill="none" xmlns="http://www.w3.org/2000/svg">
<path d="M25.3333 12.8333V6.16667C25.3333 3.85 20.1 2 13.6667 2C7.21667 2 2 3.85 2 6.16667V19.5C2 21.8 7.21667 23.6667 13.6667 23.6667C14.8167 23.6667 15.95 23.6 17.0167 23.4833" fill="#101010"/>
<path d="M25.3333 12.8333V6.16667C25.3333 3.85 20.1 2 13.6667 2C7.21667 2 2 3.85 2 6.16667V19.5C2 21.8 7.21667 23.6667 13.6667 23.6667C14.8167 23.6667 15.95 23.6 17.0167 23.4833" stroke="#101010" stroke-width="2.5012" stroke-linecap="round" stroke-linejoin="round"/>
<path d="M25.3333 6.16663C25.3333 8.46663 20.1 10.3333 13.6667 10.3333C7.21667 10.3333 2 8.46663 2 6.16663" fill="#101010"/>
<path d="M25.3333 6.16663C25.3333 8.46663 20.1 10.3333 13.6667 10.3333C7.21667 10.3333 2 8.46663 2 6.16663" stroke="#101010" stroke-width="2.5012" stroke-linecap="round" stroke-linejoin="round"/>
<path d="M25.3333 12.8334C25.3333 15.1334 20.1 17 13.6667 17C7.21667 17 2 15.1334 2 12.8334" fill="#101010"/>
<path d="M25.3333 12.8334C25.3333 15.1334 20.1 17 13.6667 17C7.21667 17 2 15.1334 2 12.8334" stroke="#101010" stroke-width="2.5012" stroke-linecap="round" stroke-linejoin="round"/>
<path d="M25.3353 15.3334C20.7186 15.3334 17.002 19.05 17.002 23.6667C17.002 28.2667 20.7186 32 25.3353 32C29.9353 32 33.6686 28.2667 33.6686 23.6667C33.6686 19.05 29.9353 15.3334 25.3353 15.3334Z" fill="white" stroke="white" stroke-width="2.5012" stroke-linecap="round" stroke-linejoin="round"/>
<path d="M22.2168 23.6667H28.4668" stroke="#101010" stroke-width="2.5012" stroke-linecap="round" stroke-linejoin="round"/>
<path d="M25.334 26.8V20.5333" stroke="#101010" stroke-width="2.5012" stroke-linecap="round" stroke-linejoin="round"/>
</svg>
