<svg width="110" height="111" viewBox="0 0 110 111" fill="none" xmlns="http://www.w3.org/2000/svg">
                    <g clip-path="url(#clip0_1532_19244)">
                    <path fill-rule="evenodd" clip-rule="evenodd" d="M31.4048 60.6672C31.152 60.9339 30.4641 61.0321 30.2708 61.338C29.9761 61.7996 29.2989 62.8509 28.7702 63.3517C27.064 64.972 23.4108 65.7862 21.6092 64.2389C21.4911 64.2469 21.5593 64.3156 21.7014 64.7584C21.8323 65.5961 22.5075 67.5631 22.258 68.065C22.4205 68.6236 22.589 68.4192 22.8961 68.7294C23.1053 68.9387 23.1908 69.4861 23.4311 69.6343C23.7055 69.6155 23.9802 69.5951 24.2545 69.5764C24.3032 69.7293 24.356 69.8822 24.4042 70.0384C24.7552 70.0132 25.1094 69.9868 25.462 69.9617C25.66 70.0072 26.259 70.3159 26.4351 70.3642C26.8268 70.3362 27.2181 70.3095 27.6082 70.2831C28.505 70.5219 29.2881 70.1474 30.0443 69.6359C30.4656 69.3536 30.9272 69.3987 31.3017 69.0788C31.8444 68.6125 32.5839 67.7032 32.9301 67.0732C33.7786 65.5323 33.4899 61.8387 32.7212 60.9259C32.4201 60.5969 32.0644 60.5909 31.4047 60.6672L31.4048 60.6672ZM38.5015 59.655C37.865 60.1417 37.5983 60.0215 37.2258 60.7734C37.1867 60.7734 37.2816 60.8856 37.2445 60.8856C37.6235 61.6435 38.4924 61.9477 39.1317 62.4796C39.3297 62.6481 39.8695 63.5841 40.1255 63.6511C40.4138 63.9941 40.6011 64.9441 40.7899 64.9441C40.9848 65.2108 40.7728 65.8393 40.9644 66.0841C40.9761 67.2105 40.821 67.2884 40.6246 67.5052C40.6246 67.5831 40.7321 67.7875 40.7321 67.8638C40.7852 67.9169 41.2376 68.2415 41.4341 68.2024C42.047 68.2195 44.5582 70.1801 44.7579 70.5578C46.5595 70.6932 46.4285 70.1426 47.6715 69.6155C48.007 69.4705 48.2753 69.6078 48.4949 69.3783C48.7261 69.1431 48.7445 68.6779 48.9661 68.4364C48.9957 64.0049 42.9674 59.8079 38.5016 59.655L38.5015 59.655ZM43.3946 50.2918C41.1625 50.6268 39.7977 51.3399 38.954 51.9233C38.3643 52.335 38.193 52.6093 38.068 52.7826C37.9385 52.9555 37.8527 53.338 37.915 53.7417C37.9806 54.141 38.1447 54.5671 38.4925 54.8055C41.2329 54.6026 45.9933 54.4297 46.9197 56.7321C46.9679 57.0531 47.0414 57.2468 47.0474 57.323C47.9554 57.0982 47.291 57.1781 48.6291 57.3869C48.9349 57.4352 49.69 57.2651 50.1907 57.1422C50.4183 57.0891 50.5477 56.883 50.5477 56.883C50.5477 56.883 50.5041 56.6634 50.5166 56.5432C50.5166 56.5432 50.9862 56.5791 51.1778 56.431C52.446 56.2266 51.78 55.6308 52.3773 54.9584C52.0187 50.6535 47.6013 49.6537 43.3947 50.2918H43.3946ZM26.3981 58.1404C26.8892 58.0138 27.7253 57.9483 28.1634 57.7303C28.8621 57.3809 31.2611 55.7039 30.4969 54.3375C30.2629 51.4597 26.7894 53.8915 25.3092 52.8824C23.8134 52.6892 22.1319 49.8597 21.6811 48.6463C21.5066 48.1671 21.5782 48.3308 21.3381 47.9519C21.3397 47.9131 21.1852 48.0828 21.1867 48.0441C20.7499 48.5524 20.825 48.9984 20.7563 50.2403C20.5598 50.2274 20.3646 50.2167 20.1681 50.2027C20.1305 50.6535 20.0854 50.8983 19.875 51.1307C19.8328 51.2074 19.7875 51.2804 19.7441 51.3583C19.3712 51.2337 19.5584 51.4098 19.4071 51.098C18.0299 51.1682 18.1309 52.5534 17.498 53.3392C17.526 55.9255 22.6418 59.1135 26.3981 58.1404L26.3981 58.1404ZM36.365 44.0838C36.4831 43.1072 36.3382 41.6801 37.1089 41.008C37.3349 39.9659 38.976 40.2094 38.72 39.545C38.5612 39.1297 37.7905 39.3282 37.4786 39.4045C37.2414 39.4608 34.9922 40.1719 34.1281 40.2685C33.7615 40.1671 33.395 40.0657 33.03 39.9627C31.6169 40.1531 30.8027 41.276 30.0181 42.1684C29.3601 42.9155 28.4676 44.7483 29.1776 45.8448C29.1385 46.0835 29.0977 46.3235 29.059 46.5639L30.6621 48.9066C31.216 49.3043 31.2895 49.599 31.8852 49.9907C32.0082 50.1748 32.13 50.3589 32.2534 50.5441C32.7397 50.864 34.178 50.8688 34.4183 50.6595C36.7315 50.8751 36.4804 46.1942 37.2135 45.2099C37.1213 44.7686 36.7327 44.3099 36.3649 44.0838" fill="#101010"/>
                    <path d="M73.5692 61.4301C75.6172 61.4301 77.2831 60.7533 77.2831 57.136C77.2831 54.0586 75.6172 53.0356 73.5692 53.0356H72.4947V61.4301H73.5692ZM74.655 50.5959C78.3625 50.5959 80.872 52.9402 80.872 57.136C80.872 62.408 77.4265 63.9692 73.8144 63.9692H68.9805C68.9976 63.6762 68.9805 62.8963 68.9805 61.9184V52.6455C68.9805 51.6692 68.9976 51.0451 68.9805 50.5959" fill="#101010"/>
                    <path d="M86.1292 61.918C86.1292 62.8959 86.1779 63.9692 86.1779 63.9692H82.5918C82.5918 63.9692 82.6155 62.8959 82.6155 61.918V52.6435C82.6155 51.6672 82.5918 50.5959 82.5918 50.5959H91.0694V53.1833C91.0694 53.1833 89.1739 53.135 88.5314 53.135H86.1292V55.8287L88.5314 55.8535C88.9806 55.8535 90.5279 55.8287 90.5279 55.8287V58.2932C90.5279 58.2932 89.1555 58.2557 88.5314 58.2557L86.1292 58.2696" fill="#101010"/>
                    <path d="M58.8397 55.6492C58.8928 54.8753 59.1688 53.0785 61.1229 53.0785C63.1258 53.0785 63.2352 54.7663 63.2352 55.66V55.8396C63.2352 55.8396 61.8968 55.8768 61.0982 55.8768C60.2996 55.8768 58.827 55.8396 58.827 55.8396L58.8403 55.6492H58.8397ZM61.8233 61.2657C60.1374 61.2657 58.8397 60.1305 58.8397 58.3568V58.2055C58.8397 58.2055 61.973 58.1292 63.0356 58.1292C64.8416 58.1292 65.5871 58.1121 67.0114 58.0933V57.0843C67.0114 52.5282 65.0788 50.3101 61.0982 50.3101C59.2638 50.3101 54.998 50.9993 54.998 57.3805C54.998 61.6387 57.1471 64.1826 60.9049 64.1826C63.8541 64.1826 65.6649 63.4291 66.977 62.4716C66.829 62.25 65.7308 60.2755 65.5871 60.0602C64.7993 60.6608 63.5003 61.2657 61.8233 61.2657" fill="#101010"/>
                    </g>
                    <defs>
                    <clipPath id="clip0_1532_19244">
                    <rect width="74.5343" height="31.9433" fill="white" transform="translate(17.0312 39.064)"/>
                    </clipPath>
                    </defs>
                    </svg>