<svg width="480" height="366" viewBox="0 0 480 366" fill="none" xmlns="http://www.w3.org/2000/svg">
<g clip-path="url(#clip0_1289_16633)">
<path opacity="0.6" d="M240 312.326V341.187C227.201 341.187 214.411 338.364 204.645 332.727C194.878 327.091 190 319.758 190 312.326H240Z" fill="#03EB70"/>
<path d="M204.77 332.51C214.426 338.083 227.067 340.9 239.75 340.936V312.576H190.252C190.36 319.803 195.16 326.964 204.77 332.51Z" stroke="#010101" stroke-width="0.500511"/>
<path opacity="0.6" d="M240 302.35V331.211C227.201 331.211 214.411 328.388 204.645 322.751C194.878 317.115 190 309.782 190 302.35H240Z" fill="#03EB70"/>
<path opacity="0.6" fill-rule="evenodd" clip-rule="evenodd" d="M240 341.187V331.211C227.201 331.211 214.411 328.388 204.645 322.751C194.878 317.115 190 309.782 190 302.35H189.999V312.326H193.058L193.058 312.326H190C190 319.758 194.878 327.091 204.645 332.727C214.411 338.364 227.201 341.187 240 341.187Z" fill="#03EB70"/>
<path d="M193.042 312.326H239.93V331.211C227.13 331.211 214.341 328.388 204.575 322.751C199.953 320.247 195.999 316.672 193.042 312.326Z" fill="#03EB70"/>
<path d="M204.77 322.534C214.426 328.107 227.067 330.924 239.75 330.96V302.6H190.252C190.36 309.827 195.16 316.988 204.77 322.534Z" stroke="#010101" stroke-width="0.500511" stroke-linejoin="round"/>
<g opacity="0.2">
<path d="M228.458 329.927L208.68 302.854H226.823L239.498 318.869L239.498 330.71C239.498 330.71 235.256 330.555 234.088 330.526C232.92 330.496 228.458 329.927 228.458 329.927Z" fill="url(#paint0_linear_1289_16633)"/>
<path d="M204.54 302.854L223.175 329.044C223.175 329.044 217.785 327.803 214.842 326.781C211.899 325.759 206.953 323.469 206.953 323.469L199.757 313.221L193.102 302.854L204.54 302.854Z" fill="url(#paint1_linear_1289_16633)"/>
</g>
<mask id="path-8-inside-1_1289_16633" fill="white">
<path fill-rule="evenodd" clip-rule="evenodd" d="M190 302.35H189.999V312.823H190.007C190.22 320.084 195.096 327.216 204.645 332.727C214.411 338.364 227.201 341.187 240 341.187V331.211V312.326V302.35H239.93H190Z"/>
</mask>
<path d="M189.999 302.35H189.499V301.85H189.999V302.35ZM189.999 312.823V313.323H189.499V312.823H189.999ZM190.007 312.823V312.323H190.493L190.507 312.808L190.007 312.823ZM204.645 332.727L204.395 333.16L204.645 332.727ZM240 341.187H240.5V341.687H240V341.187ZM240 302.35V301.85H240.5V302.35H240ZM189.999 301.85H190V302.85H189.999V301.85ZM189.499 312.823V302.35H190.499V312.823H189.499ZM190.007 313.323H189.999V312.323H190.007V313.323ZM204.395 333.16C194.758 327.598 189.727 320.333 189.507 312.838L190.507 312.808C190.713 319.835 195.434 326.834 204.895 332.294L204.395 333.16ZM240 341.687C227.136 341.687 214.255 338.851 204.395 333.16L204.895 332.294C214.568 337.877 227.265 340.687 240 340.687V341.687ZM240.5 331.211V341.187H239.5V331.211H240.5ZM240.5 312.326V331.211H239.5V312.326H240.5ZM240.5 302.35V312.326H239.5V302.35H240.5ZM239.93 301.85H240V302.85H239.93V301.85ZM190 301.85H239.93V302.85H190V301.85Z" fill="#101010" mask="url(#path-8-inside-1_1289_16633)"/>
<path opacity="0.6" d="M89.6602 187.451V225.35C72.8523 225.35 56.0575 221.643 43.2322 214.241C30.4068 206.839 24.0007 197.211 24.0007 187.451H89.6602Z" fill="#7A1CCA"/>
<path d="M43.3964 213.956C56.0768 221.275 72.6763 224.973 89.3315 225.021V187.779H24.3318C24.474 197.269 30.7761 206.673 43.3964 213.956Z" stroke="#010101" stroke-width="0.657266"/>
<path opacity="0.6" d="M89.6602 174.35V212.25C72.8523 212.25 56.0575 208.542 43.2322 201.141C30.4068 193.739 24.0007 184.11 24.0007 174.35H89.6602Z" fill="#7A1CCA"/>
<path opacity="0.6" fill-rule="evenodd" clip-rule="evenodd" d="M89.6601 225.35V212.25C72.8522 212.25 56.0575 208.542 43.2322 201.141C36.2689 197.122 31.1978 192.447 28.0169 187.451H24.0006C24.0006 197.21 30.4067 206.839 43.2321 214.241C56.0574 221.643 72.8522 225.35 89.6601 225.35ZM24.0007 174.35C24.0007 178.811 25.339 183.245 28.0169 187.451L24.0006 187.45V174.35H24.0007Z" fill="#7A1CCA"/>
<path d="M27.9962 187.451H89.5684V212.25C72.7605 212.25 55.9657 208.542 43.1403 201.141C37.0718 197.852 31.879 193.158 27.9962 187.451Z" fill="#7A1CCA"/>
<path d="M43.3964 200.856C56.0768 208.174 72.6763 211.873 89.3315 211.921V174.679H24.3318C24.474 184.168 30.7761 193.572 43.3964 200.856Z" stroke="#010101" stroke-width="0.657266" stroke-linejoin="round"/>
<g opacity="0.2">
<path d="M74.5041 210.563L48.5323 175.011H72.3571L89.002 196.043L89.0019 211.592C89.0019 211.592 83.4316 211.389 81.8978 211.35C80.364 211.311 74.5041 210.563 74.5041 210.563Z" fill="url(#paint2_linear_1289_16633)"/>
<path d="M43.0953 175.011L67.5668 209.405C67.5668 209.405 60.4893 207.774 56.6242 206.432C52.7592 205.09 46.2639 202.084 46.2639 202.084L36.815 188.626L28.0754 175.011L43.0953 175.011Z" fill="url(#paint3_linear_1289_16633)"/>
</g>
<mask id="path-17-inside-2_1289_16633" fill="white">
<path fill-rule="evenodd" clip-rule="evenodd" d="M24.0007 174.35H24.0005V188.082H24.0096C24.2801 197.625 30.6835 206.999 43.2322 214.241C56.0575 221.643 72.8523 225.35 89.6602 225.35V212.25V187.451V174.35H89.5684H24.0007Z"/>
</mask>
<path d="M24.0005 174.35H23.3405V173.69H24.0005V174.35ZM24.0005 188.082V188.742H23.3405V188.082H24.0005ZM24.0096 188.082V187.422H24.6512L24.6693 188.063L24.0096 188.082ZM43.2322 214.241L43.5621 213.669L43.2322 214.241ZM89.6602 225.35H90.3202V226.01H89.6602V225.35ZM89.6602 174.35V173.69H90.3202V174.35H89.6602ZM24.0005 173.69H24.0007V175.01H24.0005V173.69ZM23.3405 188.082V174.35H24.6605V188.082H23.3405ZM24.0096 188.742H24.0005V187.422H24.0096V188.742ZM42.9022 214.813C30.2368 207.503 23.6291 197.953 23.3499 188.101L24.6693 188.063C24.931 197.296 31.1302 206.495 43.5621 213.669L42.9022 214.813ZM89.6602 226.01C72.7668 226.01 55.8513 222.286 42.9022 214.813L43.5621 213.669C56.2637 221 72.9377 224.69 89.6602 224.69V226.01ZM90.3202 212.25V225.35H89.0002V212.25H90.3202ZM90.3202 187.451V212.25H89.0002V187.451H90.3202ZM90.3202 174.35V187.451H89.0002V174.35H90.3202ZM89.5684 173.69H89.6602V175.01H89.5684V173.69ZM24.0007 173.69H89.5684V175.01H24.0007V173.69Z" fill="#101010" mask="url(#path-17-inside-2_1289_16633)"/>
<path opacity="0.6" d="M390 236.451V274.35C406.808 274.35 423.603 270.643 436.428 263.241C449.253 255.839 455.659 246.21 455.659 236.451H390Z" fill="#1F1F1F"/>
<path d="M436.264 262.956C423.583 270.274 406.984 273.973 390.329 274.021V236.779H455.328C455.186 246.269 448.884 255.673 436.264 262.956Z" stroke="white" stroke-width="0.657263"/>
<path opacity="0.6" d="M390 223.35V261.25C406.808 261.25 423.603 257.542 436.428 250.14C449.253 242.739 455.659 233.11 455.659 223.35H390Z" fill="#1F1F1F"/>
<path opacity="0.6" fill-rule="evenodd" clip-rule="evenodd" d="M390 274.35V261.25C406.808 261.25 423.603 257.542 436.428 250.14C449.253 242.739 455.659 233.11 455.659 223.35H455.659L455.659 223.369V236.45H451.643L451.643 236.45H455.659C455.659 246.21 449.253 255.839 436.428 263.241C423.603 270.643 406.808 274.35 390 274.35Z" fill="#1F1F1F"/>
<path d="M451.664 236.451H390.092V261.25C406.9 261.25 423.694 257.542 436.52 250.141C442.588 246.852 447.781 242.158 451.664 236.451Z" fill="#1F1F1F"/>
<path d="M436.264 249.856C423.583 257.174 406.984 260.872 390.329 260.92V223.679H455.328C455.186 233.168 448.884 242.572 436.264 249.856Z" stroke="white" stroke-width="0.657263" stroke-linejoin="round"/>
<g opacity="0.2">
<path d="M405.156 259.564L431.128 224.012H407.303L390.658 245.044L390.658 260.593C390.658 260.593 396.228 260.39 397.762 260.35C399.296 260.311 405.156 259.564 405.156 259.564Z" fill="url(#paint4_linear_1289_16633)"/>
<path d="M436.565 224.012L412.093 258.405C412.093 258.405 419.171 256.774 423.036 255.432C426.901 254.09 433.396 251.084 433.396 251.084L442.845 237.627L451.584 224.012L436.565 224.012Z" fill="url(#paint5_linear_1289_16633)"/>
</g>
<mask id="path-26-inside-3_1289_16633" fill="white">
<path fill-rule="evenodd" clip-rule="evenodd" d="M455.659 223.35H455.659V237.077H455.65C455.382 246.621 448.978 255.997 436.428 263.241C423.603 270.642 406.808 274.35 390 274.35V261.25V260.592V236.45V224.007V223.35H390.092H390.657H455.002H455.659Z"/>
</mask>
<path d="M455.659 223.35H456.319C456.319 222.986 456.024 222.69 455.659 222.69V223.35ZM455.659 237.077V237.737C456.024 237.737 456.319 237.442 456.319 237.077H455.659ZM455.65 237.077V236.417C455.293 236.417 455.001 236.701 454.991 237.059L455.65 237.077ZM436.428 263.241L436.758 263.812L436.428 263.241ZM390 274.35H389.34C389.34 274.714 389.635 275.01 390 275.01V274.35ZM390 223.35V222.69C389.635 222.69 389.34 222.986 389.34 223.35H390ZM455.659 222.69H455.659V224.01H455.659V222.69ZM456.319 237.077V223.35H454.999V237.077H456.319ZM455.65 237.737H455.659V236.417H455.65V237.737ZM436.758 263.812C449.425 256.502 456.033 246.95 456.31 237.096L454.991 237.059C454.731 246.293 448.532 255.493 436.098 262.669L436.758 263.812ZM390 275.01C406.893 275.01 423.809 271.285 436.758 263.812L436.098 262.669C423.396 269.999 406.722 273.69 390 273.69V275.01ZM389.34 261.25V274.35H390.66V261.25H389.34ZM390.66 261.25V260.592H389.34V261.25H390.66ZM390.66 260.592V236.45H389.34V260.592H390.66ZM390.66 236.45V224.007H389.34V236.45H390.66ZM390.66 224.007V223.35H389.34V224.007H390.66ZM390 224.01H390.092V222.69H390V224.01ZM390.092 224.01H390.657V222.69H390.092V224.01ZM390.657 224.01H455.002V222.69H390.657V224.01ZM455.002 224.01H455.659V222.69H455.002V224.01Z" fill="white" mask="url(#path-26-inside-3_1289_16633)"/>
<path opacity="0.6" d="M91 45.0586V73.1454C103.456 73.1454 115.902 70.3979 125.407 64.9126C134.912 59.4272 139.659 52.2915 139.659 45.0586H91Z" fill="#1F1F1F"/>
<path d="M125.285 64.7016C115.888 70.125 103.586 72.8659 91.2435 72.9015V45.3021H139.414C139.309 52.3346 134.638 59.304 125.285 64.7016Z" stroke="white" stroke-width="0.48709"/>
<path opacity="0.6" d="M91 35.3501V63.4369C103.456 63.4369 115.902 60.6894 125.407 55.2041C134.912 49.7188 139.659 42.583 139.659 35.3501H91Z" fill="#1F1F1F"/>
<path opacity="0.6" fill-rule="evenodd" clip-rule="evenodd" d="M91 73.1453V63.4369C103.456 63.4369 115.902 60.6894 125.407 55.2041C134.912 49.7188 139.659 42.583 139.659 35.3501H139.66V45.0586H139.659C139.659 52.2914 134.912 59.4272 125.407 64.9125C115.902 70.3978 103.456 73.1453 91 73.1453Z" fill="#1F1F1F"/>
<path d="M136.699 45.0586H91.0684V63.4369C103.524 63.4369 115.971 60.6894 125.475 55.204C129.973 52.7667 133.821 49.2879 136.699 45.0586Z" fill="#1F1F1F"/>
<path d="M125.285 54.9931C115.888 60.4165 103.586 63.1574 91.2435 63.193V35.5936H139.414C139.309 42.6261 134.638 49.5955 125.285 54.9931Z" stroke="white" stroke-width="0.48709" stroke-linejoin="round"/>
<g opacity="0.2">
<path d="M102.232 62.1874L121.48 35.8404H103.824L91.4883 51.4268L91.4883 62.9501C91.4883 62.9501 95.6164 62.7995 96.753 62.7703C97.8897 62.7412 102.232 62.1874 102.232 62.1874Z" fill="url(#paint6_linear_1289_16633)"/>
<path d="M125.509 35.8404L107.374 61.329C107.374 61.329 112.619 60.1203 115.483 59.1258C118.347 58.1313 123.161 55.9035 123.161 55.9035L130.163 45.9303L136.64 35.8403L125.509 35.8404Z" fill="url(#paint7_linear_1289_16633)"/>
</g>
<mask id="path-35-inside-4_1289_16633" fill="white">
<path fill-rule="evenodd" clip-rule="evenodd" d="M139.659 35.3501H139.66V45.5231H139.653C139.454 52.5963 134.708 59.5446 125.407 64.9125C115.902 70.3978 103.456 73.1453 91 73.1453V63.4369V62.9498V45.0585V35.8372V35.3501H91.0684H91.4871H139.172H139.659Z"/>
</mask>
<path d="M139.66 35.3501H140.149C140.149 35.08 139.93 34.861 139.66 34.861V35.3501ZM139.66 45.5231V46.0122C139.93 46.0122 140.149 45.7932 140.149 45.5231H139.66ZM139.653 45.5231V45.0339C139.388 45.0339 139.171 45.2446 139.164 45.5093L139.653 45.5231ZM125.407 64.9125L125.163 64.4888L125.407 64.9125ZM91 73.1453H90.5109C90.5109 73.4154 90.7299 73.6344 91 73.6344V73.1453ZM91 35.3501V34.861C90.7299 34.861 90.5109 35.08 90.5109 35.3501H91ZM139.66 34.861H139.659V35.8392H139.66V34.861ZM140.149 45.5231V35.3501H139.171V45.5231H140.149ZM139.653 46.0122H139.66V45.0339H139.653V46.0122ZM125.652 65.3361C135.039 59.9183 139.936 52.8396 140.142 45.5368L139.164 45.5093C138.971 52.3529 134.377 59.1709 125.163 64.4888L125.652 65.3361ZM91 73.6344C103.519 73.6344 116.055 70.8743 125.652 65.3361L125.163 64.4888C115.75 69.9213 103.393 72.6562 91 72.6562V73.6344ZM90.5109 63.4369V73.1453H91.4891V63.4369H90.5109ZM91.4891 63.4369V62.9498H90.5109V63.4369H91.4891ZM91.4891 62.9498V45.0585H90.5109V62.9498H91.4891ZM91.4891 45.0585V35.8372H90.5109V45.0585H91.4891ZM91.4891 35.8372V35.3501H90.5109V35.8372H91.4891ZM91 35.8392H91.0684V34.861H91V35.8392ZM91.0684 35.8392H91.4871V34.861H91.0684V35.8392ZM91.4871 35.8392H139.172V34.861H91.4871V35.8392ZM139.172 35.8392H139.659V34.861H139.172V35.8392Z" fill="white" mask="url(#path-35-inside-4_1289_16633)"/>
<line opacity="0.1" x1="509.5" y1="73.5" x2="0.5" y2="73.5" stroke="white" stroke-linecap="round" stroke-linejoin="round"/>
<line opacity="0.1" x1="509.5" y1="173.5" x2="0.5" y2="173.5" stroke="white" stroke-linecap="round" stroke-linejoin="round"/>
<line opacity="0.1" x1="509.5" y1="273.5" x2="0.5" y2="273.5" stroke="white" stroke-linecap="round" stroke-linejoin="round"/>
<line opacity="0.1" x1="509.5" y1="223.5" x2="0.5" y2="223.5" stroke="white" stroke-linecap="round" stroke-linejoin="round"/>
<line opacity="0.1" x1="509.5" y1="123.5" x2="0.5" y2="123.5" stroke="white" stroke-linecap="round" stroke-linejoin="round"/>
<line x1="340.25" y1="0.25" x2="340.25" y2="436.75" stroke="white" stroke-width="0.5" stroke-linecap="round" stroke-linejoin="round" stroke-dasharray="4 4"/>
<line x1="240.25" y1="0.25" x2="240.25" y2="436.75" stroke="white" stroke-width="0.5" stroke-linecap="round" stroke-linejoin="round" stroke-dasharray="4 4"/>
<line opacity="0.1" x1="90.5" y1="0.5" x2="90.5" y2="436.5" stroke="white" stroke-linecap="round" stroke-linejoin="round"/>
<line x1="140.25" y1="0.25" x2="140.25" y2="436.75" stroke="white" stroke-width="0.5" stroke-linecap="round" stroke-linejoin="round" stroke-dasharray="4 4"/>
<line opacity="0.1" x1="190.5" y1="0.5" x2="190.5" y2="436.5" stroke="white" stroke-linecap="round" stroke-linejoin="round"/>
<line opacity="0.1" x1="290.5" y1="0.5" x2="290.5" y2="436.5" stroke="white" stroke-linecap="round" stroke-linejoin="round"/>
<line opacity="0.1" x1="390.5" y1="0.5" x2="390.5" y2="436.5" stroke="white" stroke-linecap="round" stroke-linejoin="round"/>
<g filter="url(#filter0_d_1289_16633)">
<path d="M140 107.234C140 102.816 143.582 99.2339 148 99.2339H332C336.418 99.2339 340 102.816 340 107.234V167.505C340 171.923 336.418 175.505 332 175.505H148.14L140 189.234V107.234Z" fill="#03EB70"/>
</g>
<path d="M158.24 131.33C157.931 131.33 157.68 131.234 157.488 131.042C157.307 130.85 157.216 130.599 157.216 130.29V120.898C157.216 120.589 157.307 120.343 157.488 120.162C157.68 119.97 157.931 119.874 158.24 119.874C158.56 119.874 158.811 119.97 158.992 120.162C159.184 120.343 159.28 120.589 159.28 120.898V130.29C159.28 130.599 159.184 130.85 158.992 131.042C158.811 131.234 158.56 131.33 158.24 131.33ZM166.084 123.218C167.023 123.218 167.721 123.485 168.18 124.018C168.639 124.551 168.868 125.357 168.868 126.434V130.37C168.868 130.669 168.777 130.903 168.596 131.074C168.425 131.245 168.185 131.33 167.876 131.33C167.567 131.33 167.321 131.245 167.14 131.074C166.959 130.903 166.868 130.669 166.868 130.37V126.546C166.868 125.938 166.751 125.495 166.516 125.218C166.292 124.941 165.935 124.802 165.444 124.802C164.868 124.802 164.404 124.983 164.052 125.346C163.711 125.709 163.54 126.194 163.54 126.802V130.37C163.54 130.669 163.449 130.903 163.268 131.074C163.087 131.245 162.841 131.33 162.532 131.33C162.223 131.33 161.977 131.245 161.796 131.074C161.625 130.903 161.54 130.669 161.54 130.37V124.178C161.54 123.901 161.631 123.677 161.812 123.506C161.993 123.335 162.239 123.25 162.548 123.25C162.825 123.25 163.049 123.335 163.22 123.506C163.401 123.666 163.492 123.879 163.492 124.146V124.578C163.759 124.141 164.116 123.805 164.564 123.57C165.012 123.335 165.519 123.218 166.084 123.218ZM174.963 129.842C175.497 129.874 175.763 130.114 175.763 130.562C175.763 130.818 175.657 131.015 175.443 131.154C175.241 131.282 174.947 131.335 174.563 131.314L174.131 131.282C172.339 131.154 171.443 130.194 171.443 128.402V124.914H170.643C170.355 124.914 170.131 124.85 169.971 124.722C169.822 124.594 169.747 124.407 169.747 124.162C169.747 123.917 169.822 123.73 169.971 123.602C170.131 123.474 170.355 123.41 170.643 123.41H171.443V121.938C171.443 121.65 171.534 121.421 171.715 121.25C171.897 121.079 172.142 120.994 172.451 120.994C172.75 120.994 172.99 121.079 173.171 121.25C173.353 121.421 173.443 121.65 173.443 121.938V123.41H174.803C175.091 123.41 175.31 123.474 175.459 123.602C175.619 123.73 175.699 123.917 175.699 124.162C175.699 124.407 175.619 124.594 175.459 124.722C175.31 124.85 175.091 124.914 174.803 124.914H173.443V128.546C173.443 129.335 173.806 129.757 174.531 129.81L174.963 129.842ZM182.998 129.09C183.179 129.09 183.323 129.159 183.43 129.298C183.547 129.437 183.606 129.623 183.606 129.858C183.606 130.189 183.408 130.466 183.014 130.69C182.651 130.893 182.24 131.058 181.782 131.186C181.323 131.303 180.886 131.362 180.47 131.362C179.211 131.362 178.214 130.999 177.478 130.274C176.742 129.549 176.374 128.557 176.374 127.298C176.374 126.498 176.534 125.789 176.854 125.17C177.174 124.551 177.622 124.071 178.198 123.73C178.784 123.389 179.446 123.218 180.182 123.218C180.886 123.218 181.499 123.373 182.022 123.682C182.544 123.991 182.95 124.429 183.238 124.994C183.526 125.559 183.67 126.226 183.67 126.994C183.67 127.453 183.467 127.682 183.062 127.682H178.342C178.406 128.418 178.614 128.962 178.966 129.314C179.318 129.655 179.83 129.826 180.502 129.826C180.843 129.826 181.142 129.783 181.398 129.698C181.664 129.613 181.963 129.495 182.294 129.346C182.614 129.175 182.848 129.09 182.998 129.09ZM180.23 124.626C179.686 124.626 179.248 124.797 178.918 125.138C178.598 125.479 178.406 125.97 178.342 126.61H181.958C181.936 125.959 181.776 125.469 181.478 125.138C181.179 124.797 180.763 124.626 180.23 124.626ZM189.674 123.25C189.951 123.229 190.17 123.287 190.33 123.426C190.49 123.565 190.57 123.773 190.57 124.05C190.57 124.338 190.5 124.551 190.362 124.69C190.223 124.829 189.972 124.919 189.61 124.962L189.13 125.01C188.5 125.074 188.036 125.287 187.738 125.65C187.45 126.013 187.306 126.466 187.306 127.01V130.37C187.306 130.679 187.21 130.919 187.018 131.09C186.826 131.25 186.586 131.33 186.298 131.33C186.01 131.33 185.77 131.25 185.578 131.09C185.396 130.919 185.306 130.679 185.306 130.37V124.178C185.306 123.879 185.396 123.65 185.578 123.49C185.77 123.33 186.004 123.25 186.282 123.25C186.559 123.25 186.783 123.33 186.954 123.49C187.124 123.639 187.21 123.858 187.21 124.146V124.786C187.412 124.317 187.711 123.954 188.106 123.698C188.511 123.442 188.959 123.298 189.45 123.266L189.674 123.25ZM197.466 129.09C197.648 129.09 197.792 129.159 197.898 129.298C198.016 129.437 198.074 129.623 198.074 129.858C198.074 130.189 197.877 130.466 197.482 130.69C197.12 130.893 196.709 131.058 196.25 131.186C195.792 131.303 195.354 131.362 194.938 131.362C193.68 131.362 192.682 130.999 191.946 130.274C191.21 129.549 190.842 128.557 190.842 127.298C190.842 126.498 191.002 125.789 191.322 125.17C191.642 124.551 192.09 124.071 192.666 123.73C193.253 123.389 193.914 123.218 194.65 123.218C195.354 123.218 195.968 123.373 196.49 123.682C197.013 123.991 197.418 124.429 197.706 124.994C197.994 125.559 198.138 126.226 198.138 126.994C198.138 127.453 197.936 127.682 197.53 127.682H192.81C192.874 128.418 193.082 128.962 193.434 129.314C193.786 129.655 194.298 129.826 194.97 129.826C195.312 129.826 195.61 129.783 195.866 129.698C196.133 129.613 196.432 129.495 196.762 129.346C197.082 129.175 197.317 129.09 197.466 129.09ZM194.698 124.626C194.154 124.626 193.717 124.797 193.386 125.138C193.066 125.479 192.874 125.97 192.81 126.61H196.426C196.405 125.959 196.245 125.469 195.946 125.138C195.648 124.797 195.232 124.626 194.698 124.626ZM202.606 131.362C201.444 131.362 200.505 131.133 199.79 130.674C199.449 130.471 199.278 130.183 199.278 129.81C199.278 129.597 199.337 129.426 199.454 129.298C199.572 129.159 199.716 129.09 199.886 129.09C200.068 129.09 200.318 129.175 200.638 129.346C200.98 129.506 201.289 129.629 201.566 129.714C201.854 129.799 202.217 129.842 202.654 129.842C203.102 129.842 203.449 129.767 203.694 129.618C203.95 129.469 204.078 129.261 204.078 128.994C204.078 128.813 204.025 128.669 203.918 128.562C203.822 128.455 203.641 128.359 203.374 128.274C203.118 128.178 202.724 128.071 202.19 127.954C201.241 127.762 200.558 127.49 200.142 127.138C199.737 126.786 199.534 126.301 199.534 125.682C199.534 125.213 199.673 124.791 199.95 124.418C200.228 124.034 200.606 123.741 201.086 123.538C201.577 123.325 202.132 123.218 202.75 123.218C203.198 123.218 203.63 123.277 204.046 123.394C204.462 123.501 204.836 123.661 205.166 123.874C205.508 124.087 205.678 124.37 205.678 124.722C205.678 124.935 205.62 125.117 205.502 125.266C205.385 125.405 205.241 125.474 205.07 125.474C204.953 125.474 204.836 125.453 204.718 125.41C204.612 125.357 204.473 125.282 204.302 125.186C203.993 125.026 203.726 124.909 203.502 124.834C203.278 124.749 203.001 124.706 202.67 124.706C202.276 124.706 201.961 124.786 201.726 124.946C201.502 125.106 201.39 125.325 201.39 125.602C201.39 125.869 201.508 126.071 201.742 126.21C201.977 126.349 202.43 126.487 203.102 126.626C203.817 126.775 204.377 126.946 204.782 127.138C205.188 127.33 205.476 127.57 205.646 127.858C205.828 128.146 205.918 128.514 205.918 128.962C205.918 129.687 205.614 130.269 205.006 130.706C204.409 131.143 203.609 131.362 202.606 131.362ZM211.526 129.842C212.059 129.874 212.326 130.114 212.326 130.562C212.326 130.818 212.219 131.015 212.006 131.154C211.803 131.282 211.51 131.335 211.126 131.314L210.694 131.282C208.902 131.154 208.006 130.194 208.006 128.402V124.914H207.206C206.918 124.914 206.694 124.85 206.534 124.722C206.385 124.594 206.31 124.407 206.31 124.162C206.31 123.917 206.385 123.73 206.534 123.602C206.694 123.474 206.918 123.41 207.206 123.41H208.006V121.938C208.006 121.65 208.097 121.421 208.278 121.25C208.459 121.079 208.705 120.994 209.014 120.994C209.313 120.994 209.553 121.079 209.734 121.25C209.915 121.421 210.006 121.65 210.006 121.938V123.41H211.366C211.654 123.41 211.873 123.474 212.022 123.602C212.182 123.73 212.262 123.917 212.262 124.162C212.262 124.407 212.182 124.594 212.022 124.722C211.873 124.85 211.654 124.914 211.366 124.914H210.006V128.546C210.006 129.335 210.369 129.757 211.094 129.81L211.526 129.842ZM219.56 129.09C219.741 129.09 219.885 129.159 219.992 129.298C220.109 129.437 220.168 129.623 220.168 129.858C220.168 130.189 219.971 130.466 219.576 130.69C219.213 130.893 218.803 131.058 218.344 131.186C217.885 131.303 217.448 131.362 217.032 131.362C215.773 131.362 214.776 130.999 214.04 130.274C213.304 129.549 212.936 128.557 212.936 127.298C212.936 126.498 213.096 125.789 213.416 125.17C213.736 124.551 214.184 124.071 214.76 123.73C215.347 123.389 216.008 123.218 216.744 123.218C217.448 123.218 218.061 123.373 218.584 123.682C219.107 123.991 219.512 124.429 219.8 124.994C220.088 125.559 220.232 126.226 220.232 126.994C220.232 127.453 220.029 127.682 219.624 127.682H214.904C214.968 128.418 215.176 128.962 215.528 129.314C215.88 129.655 216.392 129.826 217.064 129.826C217.405 129.826 217.704 129.783 217.96 129.698C218.227 129.613 218.525 129.495 218.856 129.346C219.176 129.175 219.411 129.09 219.56 129.09ZM216.792 124.626C216.248 124.626 215.811 124.797 215.48 125.138C215.16 125.479 214.968 125.97 214.904 126.61H218.52C218.499 125.959 218.339 125.469 218.04 125.138C217.741 124.797 217.325 124.626 216.792 124.626ZM228.396 119.874C228.695 119.874 228.94 119.959 229.132 120.13C229.324 120.301 229.42 120.525 229.42 120.802V130.37C229.42 130.658 229.329 130.887 229.148 131.058C228.967 131.229 228.727 131.314 228.428 131.314C228.129 131.314 227.889 131.229 227.708 131.058C227.527 130.887 227.436 130.658 227.436 130.37V129.97C227.201 130.407 226.86 130.749 226.412 130.994C225.975 131.239 225.473 131.362 224.908 131.362C224.236 131.362 223.633 131.191 223.1 130.85C222.577 130.509 222.167 130.029 221.868 129.41C221.58 128.781 221.436 128.061 221.436 127.25C221.436 126.439 221.58 125.73 221.868 125.122C222.167 124.514 222.577 124.045 223.1 123.714C223.623 123.383 224.225 123.218 224.908 123.218C225.473 123.218 225.975 123.335 226.412 123.57C226.849 123.805 227.185 124.135 227.42 124.562V120.77C227.42 120.503 227.505 120.29 227.676 120.13C227.857 119.959 228.097 119.874 228.396 119.874ZM225.436 129.81C226.076 129.81 226.567 129.591 226.908 129.154C227.26 128.717 227.436 128.093 227.436 127.282C227.436 126.471 227.26 125.853 226.908 125.426C226.567 124.989 226.081 124.77 225.452 124.77C224.812 124.77 224.316 124.983 223.964 125.41C223.612 125.837 223.436 126.45 223.436 127.25C223.436 128.061 223.612 128.69 223.964 129.138C224.316 129.586 224.807 129.81 225.436 129.81ZM239.885 129.842C240.419 129.874 240.685 130.114 240.685 130.562C240.685 130.818 240.579 131.015 240.365 131.154C240.163 131.282 239.869 131.335 239.485 131.314L239.053 131.282C237.261 131.154 236.365 130.194 236.365 128.402V124.914H235.565C235.277 124.914 235.053 124.85 234.893 124.722C234.744 124.594 234.669 124.407 234.669 124.162C234.669 123.917 234.744 123.73 234.893 123.602C235.053 123.474 235.277 123.41 235.565 123.41H236.365V121.938C236.365 121.65 236.456 121.421 236.637 121.25C236.819 121.079 237.064 120.994 237.373 120.994C237.672 120.994 237.912 121.079 238.093 121.25C238.275 121.421 238.365 121.65 238.365 121.938V123.41H239.725C240.013 123.41 240.232 123.474 240.381 123.602C240.541 123.73 240.621 123.917 240.621 124.162C240.621 124.407 240.541 124.594 240.381 124.722C240.232 124.85 240.013 124.914 239.725 124.914H238.365V128.546C238.365 129.335 238.728 129.757 239.453 129.81L239.885 129.842ZM245.296 131.362C244.496 131.362 243.792 131.197 243.184 130.866C242.586 130.535 242.122 130.061 241.792 129.442C241.461 128.823 241.296 128.103 241.296 127.282C241.296 126.461 241.461 125.746 241.792 125.138C242.122 124.519 242.586 124.045 243.184 123.714C243.792 123.383 244.496 123.218 245.296 123.218C246.096 123.218 246.794 123.383 247.392 123.714C248 124.045 248.464 124.519 248.784 125.138C249.114 125.746 249.28 126.461 249.28 127.282C249.28 128.103 249.114 128.823 248.784 129.442C248.464 130.061 248 130.535 247.392 130.866C246.794 131.197 246.096 131.362 245.296 131.362ZM245.28 129.81C245.93 129.81 246.426 129.597 246.768 129.17C247.109 128.743 247.28 128.114 247.28 127.282C247.28 126.461 247.109 125.837 246.768 125.41C246.426 124.973 245.936 124.754 245.296 124.754C244.656 124.754 244.16 124.973 243.808 125.41C243.466 125.837 243.296 126.461 243.296 127.282C243.296 128.114 243.466 128.743 243.808 129.17C244.149 129.597 244.64 129.81 245.28 129.81ZM259.85 123.218C261.685 123.218 262.602 124.29 262.602 126.434V130.37C262.602 130.669 262.512 130.903 262.33 131.074C262.16 131.245 261.92 131.33 261.61 131.33C261.301 131.33 261.056 131.245 260.874 131.074C260.693 130.903 260.602 130.669 260.602 130.37V126.434C260.602 125.869 260.485 125.458 260.25 125.202C260.026 124.935 259.669 124.802 259.178 124.802C258.602 124.802 258.138 124.983 257.786 125.346C257.445 125.709 257.274 126.194 257.274 126.802V130.37C257.274 130.669 257.184 130.903 257.002 131.074C256.821 131.245 256.576 131.33 256.266 131.33C255.957 131.33 255.712 131.245 255.53 131.074C255.36 130.903 255.274 130.669 255.274 130.37V120.802C255.274 120.525 255.365 120.301 255.546 120.13C255.738 119.959 255.984 119.874 256.282 119.874C256.581 119.874 256.821 119.954 257.002 120.114C257.184 120.274 257.274 120.493 257.274 120.77V124.498C257.541 124.082 257.893 123.767 258.33 123.554C258.778 123.33 259.285 123.218 259.85 123.218ZM268.026 123.218C269.114 123.218 269.919 123.49 270.442 124.034C270.975 124.567 271.242 125.383 271.242 126.482V130.386C271.242 130.674 271.156 130.903 270.986 131.074C270.815 131.234 270.58 131.314 270.282 131.314C270.004 131.314 269.775 131.229 269.594 131.058C269.423 130.887 269.338 130.663 269.338 130.386V130.034C269.156 130.45 268.868 130.775 268.474 131.01C268.09 131.245 267.642 131.362 267.13 131.362C266.607 131.362 266.132 131.255 265.706 131.042C265.279 130.829 264.943 130.535 264.698 130.162C264.452 129.789 264.33 129.373 264.33 128.914C264.33 128.338 264.474 127.885 264.762 127.554C265.06 127.223 265.54 126.983 266.202 126.834C266.863 126.685 267.775 126.61 268.938 126.61H269.338V126.242C269.338 125.719 269.226 125.341 269.002 125.106C268.778 124.861 268.415 124.738 267.914 124.738C267.604 124.738 267.29 124.786 266.97 124.882C266.65 124.967 266.271 125.095 265.834 125.266C265.556 125.405 265.354 125.474 265.226 125.474C265.034 125.474 264.874 125.405 264.746 125.266C264.628 125.127 264.57 124.946 264.57 124.722C264.57 124.541 264.612 124.386 264.698 124.258C264.794 124.119 264.948 123.991 265.162 123.874C265.535 123.671 265.978 123.511 266.49 123.394C267.012 123.277 267.524 123.218 268.026 123.218ZM267.53 129.922C268.063 129.922 268.495 129.746 268.826 129.394C269.167 129.031 269.338 128.567 269.338 128.002V127.666H269.05C268.335 127.666 267.78 127.698 267.386 127.762C266.991 127.826 266.708 127.938 266.538 128.098C266.367 128.258 266.282 128.477 266.282 128.754C266.282 129.095 266.399 129.378 266.634 129.602C266.879 129.815 267.178 129.922 267.53 129.922ZM278.73 123.826C278.816 123.634 278.928 123.49 279.066 123.394C279.216 123.298 279.376 123.25 279.546 123.25C279.792 123.25 280.01 123.335 280.202 123.506C280.405 123.666 280.506 123.869 280.506 124.114C280.506 124.242 280.474 124.37 280.41 124.498L277.45 130.69C277.354 130.893 277.216 131.047 277.034 131.154C276.864 131.261 276.672 131.314 276.458 131.314C276.256 131.314 276.058 131.261 275.866 131.154C275.685 131.047 275.546 130.893 275.45 130.69L272.474 124.498C272.421 124.391 272.394 124.269 272.394 124.13C272.394 123.885 272.496 123.677 272.698 123.506C272.912 123.335 273.152 123.25 273.418 123.25C273.802 123.25 274.085 123.437 274.266 123.81L276.506 128.754L278.73 123.826ZM287.763 129.09C287.945 129.09 288.089 129.159 288.195 129.298C288.313 129.437 288.371 129.623 288.371 129.858C288.371 130.189 288.174 130.466 287.779 130.69C287.417 130.893 287.006 131.058 286.547 131.186C286.089 131.303 285.651 131.362 285.235 131.362C283.977 131.362 282.979 130.999 282.243 130.274C281.507 129.549 281.139 128.557 281.139 127.298C281.139 126.498 281.299 125.789 281.619 125.17C281.939 124.551 282.387 124.071 282.963 123.73C283.55 123.389 284.211 123.218 284.947 123.218C285.651 123.218 286.265 123.373 286.787 123.682C287.31 123.991 287.715 124.429 288.003 124.994C288.291 125.559 288.435 126.226 288.435 126.994C288.435 127.453 288.233 127.682 287.827 127.682H283.107C283.171 128.418 283.379 128.962 283.731 129.314C284.083 129.655 284.595 129.826 285.267 129.826C285.609 129.826 285.907 129.783 286.163 129.698C286.43 129.613 286.729 129.495 287.059 129.346C287.379 129.175 287.614 129.09 287.763 129.09ZM284.995 124.626C284.451 124.626 284.014 124.797 283.683 125.138C283.363 125.479 283.171 125.97 283.107 126.61H286.723C286.702 125.959 286.542 125.469 286.243 125.138C285.945 124.797 285.529 124.626 284.995 124.626ZM297.807 123.218C298.895 123.218 299.7 123.49 300.223 124.034C300.756 124.567 301.023 125.383 301.023 126.482V130.386C301.023 130.674 300.938 130.903 300.767 131.074C300.596 131.234 300.362 131.314 300.063 131.314C299.786 131.314 299.556 131.229 299.375 131.058C299.204 130.887 299.119 130.663 299.119 130.386V130.034C298.938 130.45 298.65 130.775 298.255 131.01C297.871 131.245 297.423 131.362 296.911 131.362C296.388 131.362 295.914 131.255 295.487 131.042C295.06 130.829 294.724 130.535 294.479 130.162C294.234 129.789 294.111 129.373 294.111 128.914C294.111 128.338 294.255 127.885 294.543 127.554C294.842 127.223 295.322 126.983 295.983 126.834C296.644 126.685 297.556 126.61 298.719 126.61H299.119V126.242C299.119 125.719 299.007 125.341 298.783 125.106C298.559 124.861 298.196 124.738 297.695 124.738C297.386 124.738 297.071 124.786 296.751 124.882C296.431 124.967 296.052 125.095 295.615 125.266C295.338 125.405 295.135 125.474 295.007 125.474C294.815 125.474 294.655 125.405 294.527 125.266C294.41 125.127 294.351 124.946 294.351 124.722C294.351 124.541 294.394 124.386 294.479 124.258C294.575 124.119 294.73 123.991 294.943 123.874C295.316 123.671 295.759 123.511 296.271 123.394C296.794 123.277 297.306 123.218 297.807 123.218ZM297.311 129.922C297.844 129.922 298.276 129.746 298.607 129.394C298.948 129.031 299.119 128.567 299.119 128.002V127.666H298.831C298.116 127.666 297.562 127.698 297.167 127.762C296.772 127.826 296.49 127.938 296.319 128.098C296.148 128.258 296.063 128.477 296.063 128.754C296.063 129.095 296.18 129.378 296.415 129.602C296.66 129.815 296.959 129.922 297.311 129.922ZM163.568 140.874C163.867 140.874 164.112 140.959 164.304 141.13C164.496 141.301 164.592 141.525 164.592 141.802V151.37C164.592 151.658 164.501 151.887 164.32 152.058C164.139 152.229 163.899 152.314 163.6 152.314C163.301 152.314 163.061 152.229 162.88 152.058C162.699 151.887 162.608 151.658 162.608 151.37V150.97C162.373 151.407 162.032 151.749 161.584 151.994C161.147 152.239 160.645 152.362 160.08 152.362C159.408 152.362 158.805 152.191 158.272 151.85C157.749 151.509 157.339 151.029 157.04 150.41C156.752 149.781 156.608 149.061 156.608 148.25C156.608 147.439 156.752 146.73 157.04 146.122C157.339 145.514 157.749 145.045 158.272 144.714C158.795 144.383 159.397 144.218 160.08 144.218C160.645 144.218 161.147 144.335 161.584 144.57C162.021 144.805 162.357 145.135 162.592 145.562V141.77C162.592 141.503 162.677 141.29 162.848 141.13C163.029 140.959 163.269 140.874 163.568 140.874ZM160.608 150.81C161.248 150.81 161.739 150.591 162.08 150.154C162.432 149.717 162.608 149.093 162.608 148.282C162.608 147.471 162.432 146.853 162.08 146.426C161.739 145.989 161.253 145.77 160.624 145.77C159.984 145.77 159.488 145.983 159.136 146.41C158.784 146.837 158.608 147.45 158.608 148.25C158.608 149.061 158.784 149.69 159.136 150.138C159.488 150.586 159.979 150.81 160.608 150.81ZM172.841 150.09C173.023 150.09 173.167 150.159 173.273 150.298C173.391 150.437 173.449 150.623 173.449 150.858C173.449 151.189 173.252 151.466 172.857 151.69C172.495 151.893 172.084 152.058 171.625 152.186C171.167 152.303 170.729 152.362 170.313 152.362C169.055 152.362 168.057 151.999 167.321 151.274C166.585 150.549 166.217 149.557 166.217 148.298C166.217 147.498 166.377 146.789 166.697 146.17C167.017 145.551 167.465 145.071 168.041 144.73C168.628 144.389 169.289 144.218 170.025 144.218C170.729 144.218 171.343 144.373 171.865 144.682C172.388 144.991 172.793 145.429 173.081 145.994C173.369 146.559 173.513 147.226 173.513 147.994C173.513 148.453 173.311 148.682 172.905 148.682H168.185C168.249 149.418 168.457 149.962 168.809 150.314C169.161 150.655 169.673 150.826 170.345 150.826C170.687 150.826 170.985 150.783 171.241 150.698C171.508 150.613 171.807 150.495 172.137 150.346C172.457 150.175 172.692 150.09 172.841 150.09ZM170.073 145.626C169.529 145.626 169.092 145.797 168.761 146.138C168.441 146.479 168.249 146.97 168.185 147.61H171.801C171.78 146.959 171.62 146.469 171.321 146.138C171.023 145.797 170.607 145.626 170.073 145.626ZM184.445 144.218C185.299 144.218 185.949 144.474 186.397 144.986C186.856 145.487 187.085 146.303 187.085 147.434V151.37C187.085 151.679 186.989 151.919 186.797 152.09C186.616 152.25 186.376 152.33 186.077 152.33C185.789 152.33 185.549 152.25 185.357 152.09C185.176 151.919 185.085 151.679 185.085 151.37V147.434C185.085 146.847 184.979 146.431 184.765 146.186C184.563 145.93 184.248 145.802 183.821 145.802C183.299 145.802 182.883 145.983 182.573 146.346C182.264 146.698 182.109 147.183 182.109 147.802V151.37C182.109 151.679 182.013 151.919 181.821 152.09C181.64 152.25 181.405 152.33 181.117 152.33C180.829 152.33 180.589 152.25 180.397 152.09C180.205 151.919 180.109 151.679 180.109 151.37V147.434C180.109 146.847 180.003 146.431 179.789 146.186C179.587 145.93 179.272 145.802 178.845 145.802C178.323 145.802 177.907 145.983 177.597 146.346C177.299 146.698 177.149 147.183 177.149 147.802V151.37C177.149 151.679 177.053 151.919 176.861 152.09C176.669 152.25 176.429 152.33 176.141 152.33C175.853 152.33 175.613 152.25 175.421 152.09C175.24 151.919 175.149 151.679 175.149 151.37V145.178C175.149 144.879 175.245 144.65 175.437 144.49C175.629 144.33 175.869 144.25 176.157 144.25C176.435 144.25 176.659 144.33 176.829 144.49C177.011 144.639 177.101 144.858 177.101 145.146V145.53C177.347 145.103 177.672 144.778 178.077 144.554C178.493 144.33 178.968 144.218 179.501 144.218C180.675 144.218 181.459 144.709 181.853 145.69C182.088 145.242 182.435 144.885 182.893 144.618C183.352 144.351 183.869 144.218 184.445 144.218ZM192.686 152.362C191.886 152.362 191.182 152.197 190.574 151.866C189.977 151.535 189.513 151.061 189.182 150.442C188.851 149.823 188.686 149.103 188.686 148.282C188.686 147.461 188.851 146.746 189.182 146.138C189.513 145.519 189.977 145.045 190.574 144.714C191.182 144.383 191.886 144.218 192.686 144.218C193.486 144.218 194.185 144.383 194.782 144.714C195.39 145.045 195.854 145.519 196.174 146.138C196.505 146.746 196.67 147.461 196.67 148.282C196.67 149.103 196.505 149.823 196.174 150.442C195.854 151.061 195.39 151.535 194.782 151.866C194.185 152.197 193.486 152.362 192.686 152.362ZM192.67 150.81C193.321 150.81 193.817 150.597 194.158 150.17C194.499 149.743 194.67 149.114 194.67 148.282C194.67 147.461 194.499 146.837 194.158 146.41C193.817 145.973 193.326 145.754 192.686 145.754C192.046 145.754 191.55 145.973 191.198 146.41C190.857 146.837 190.686 147.461 190.686 148.282C190.686 149.114 190.857 149.743 191.198 150.17C191.539 150.597 192.03 150.81 192.67 150.81ZM200.629 148.97C200.448 148.97 200.298 148.906 200.181 148.778C200.074 148.65 200.021 148.474 200.021 148.25C200.021 147.663 200.128 147.167 200.341 146.762C200.554 146.357 200.864 145.914 201.269 145.434C201.589 145.05 201.824 144.73 201.973 144.474C202.122 144.218 202.197 143.93 202.197 143.61C202.197 143.258 202.064 142.981 201.797 142.778C201.541 142.565 201.189 142.458 200.741 142.458C200.357 142.458 199.989 142.543 199.637 142.714C199.285 142.874 198.874 143.109 198.405 143.418C198.138 143.567 197.92 143.642 197.749 143.642C197.568 143.642 197.408 143.562 197.269 143.402C197.141 143.231 197.077 143.034 197.077 142.81C197.077 142.501 197.205 142.25 197.461 142.058C197.909 141.674 198.437 141.375 199.045 141.162C199.653 140.938 200.266 140.826 200.885 140.826C201.536 140.826 202.112 140.938 202.613 141.162C203.125 141.386 203.52 141.695 203.797 142.09C204.085 142.485 204.229 142.938 204.229 143.45C204.229 144.005 204.096 144.49 203.829 144.906C203.562 145.311 203.173 145.77 202.661 146.282C202.224 146.73 201.893 147.109 201.669 147.418C201.456 147.717 201.322 148.058 201.269 148.442C201.237 148.613 201.162 148.746 201.045 148.842C200.938 148.927 200.8 148.97 200.629 148.97ZM200.661 152.33C200.32 152.33 200.037 152.218 199.813 151.994C199.589 151.759 199.477 151.471 199.477 151.13C199.477 150.789 199.589 150.506 199.813 150.282C200.037 150.047 200.32 149.93 200.661 149.93C201.002 149.93 201.285 150.047 201.509 150.282C201.733 150.506 201.845 150.789 201.845 151.13C201.845 151.471 201.728 151.759 201.493 151.994C201.269 152.218 200.992 152.33 200.661 152.33ZM219.698 151.482C219.74 151.567 219.762 151.658 219.762 151.754C219.762 151.914 219.698 152.047 219.57 152.154C219.452 152.261 219.308 152.314 219.138 152.314C218.871 152.314 218.684 152.186 218.578 151.93L217.442 149.338H211.41L210.258 151.93C210.151 152.186 209.964 152.314 209.698 152.314C209.527 152.314 209.378 152.261 209.25 152.154C209.122 152.037 209.058 151.898 209.058 151.738C209.058 151.653 209.079 151.567 209.122 151.482L213.698 141.306C213.762 141.157 213.858 141.045 213.986 140.97C214.114 140.895 214.252 140.858 214.402 140.858C214.562 140.858 214.706 140.901 214.834 140.986C214.962 141.061 215.058 141.167 215.122 141.306L219.698 151.482ZM211.89 148.25H216.962L214.418 142.506L211.89 148.25ZM225.339 144.25C227.205 144.25 228.139 145.279 228.139 147.338V151.674C228.139 151.877 228.08 152.037 227.963 152.154C227.856 152.261 227.701 152.314 227.499 152.314C227.296 152.314 227.136 152.261 227.019 152.154C226.901 152.037 226.843 151.877 226.843 151.674V147.418C226.843 146.693 226.699 146.165 226.411 145.834C226.133 145.503 225.685 145.338 225.067 145.338C224.352 145.338 223.781 145.557 223.355 145.994C222.928 146.431 222.715 147.023 222.715 147.77V151.674C222.715 151.877 222.656 152.037 222.539 152.154C222.432 152.261 222.277 152.314 222.075 152.314C221.872 152.314 221.712 152.261 221.595 152.154C221.477 152.037 221.419 151.877 221.419 151.674V144.922C221.419 144.73 221.477 144.575 221.595 144.458C221.712 144.341 221.872 144.282 222.075 144.282C222.267 144.282 222.416 144.341 222.523 144.458C222.64 144.575 222.699 144.725 222.699 144.906V145.722C222.955 145.242 223.312 144.879 223.771 144.634C224.229 144.378 224.752 144.25 225.339 144.25ZM236.129 144.682C236.246 144.426 236.433 144.298 236.689 144.298C236.849 144.298 236.993 144.351 237.121 144.458C237.249 144.565 237.312 144.698 237.312 144.858C237.312 144.954 237.291 145.039 237.249 145.114L232.753 154.81C232.699 154.927 232.619 155.018 232.513 155.082C232.417 155.146 232.315 155.178 232.209 155.178C232.049 155.178 231.905 155.125 231.777 155.018C231.659 154.922 231.601 154.794 231.601 154.634C231.601 154.549 231.622 154.463 231.664 154.378L232.785 151.962L229.617 145.114C229.574 145.039 229.553 144.959 229.553 144.874C229.553 144.714 229.622 144.575 229.761 144.458C229.91 144.341 230.07 144.282 230.241 144.282C230.347 144.282 230.449 144.314 230.545 144.378C230.651 144.442 230.731 144.533 230.785 144.65L233.457 150.65L236.129 144.682ZM249.112 144.282C249.315 144.282 249.475 144.341 249.592 144.458C249.71 144.575 249.768 144.73 249.768 144.922V154.57C249.768 154.751 249.71 154.901 249.592 155.018C249.475 155.135 249.315 155.194 249.112 155.194C248.91 155.194 248.75 155.135 248.632 155.018C248.526 154.911 248.472 154.762 248.472 154.57V150.81C248.238 151.301 247.891 151.679 247.432 151.946C246.984 152.213 246.456 152.346 245.848 152.346C245.155 152.346 244.547 152.181 244.024 151.85C243.512 151.519 243.112 151.055 242.824 150.458C242.536 149.85 242.392 149.141 242.392 148.33C242.392 147.519 242.536 146.81 242.824 146.202C243.112 145.583 243.518 145.103 244.04 144.762C244.563 144.421 245.166 144.25 245.848 144.25C246.456 144.25 246.984 144.383 247.432 144.65C247.891 144.917 248.238 145.295 248.472 145.786V144.922C248.472 144.73 248.526 144.575 248.632 144.458C248.75 144.341 248.91 144.282 249.112 144.282ZM246.104 151.274C246.862 151.274 247.443 151.018 247.848 150.506C248.264 149.983 248.472 149.247 248.472 148.298C248.472 147.349 248.264 146.618 247.848 146.106C247.443 145.594 246.862 145.338 246.104 145.338C245.347 145.338 244.755 145.605 244.328 146.138C243.912 146.661 243.704 147.391 243.704 148.33C243.704 149.269 243.912 149.994 244.328 150.506C244.755 151.018 245.347 151.274 246.104 151.274ZM258.089 144.282C258.291 144.282 258.446 144.341 258.553 144.458C258.67 144.575 258.729 144.73 258.729 144.922V151.69C258.729 151.871 258.67 152.021 258.553 152.138C258.446 152.255 258.291 152.314 258.089 152.314C257.897 152.314 257.742 152.261 257.625 152.154C257.518 152.037 257.465 151.887 257.465 151.706V150.906C257.219 151.375 256.873 151.733 256.425 151.978C255.987 152.223 255.491 152.346 254.937 152.346C254.009 152.346 253.31 152.09 252.841 151.578C252.371 151.055 252.137 150.287 252.137 149.274V144.922C252.137 144.73 252.195 144.575 252.313 144.458C252.43 144.341 252.59 144.282 252.793 144.282C252.995 144.282 253.15 144.341 253.257 144.458C253.374 144.575 253.433 144.73 253.433 144.922V149.242C253.433 149.935 253.571 150.447 253.849 150.778C254.126 151.098 254.563 151.258 255.161 151.258C255.843 151.258 256.393 151.039 256.809 150.602C257.225 150.154 257.433 149.567 257.433 148.842V144.922C257.433 144.73 257.491 144.575 257.609 144.458C257.726 144.341 257.886 144.282 258.089 144.282ZM267.17 150.426C267.287 150.426 267.388 150.474 267.474 150.57C267.559 150.666 267.602 150.789 267.602 150.938C267.602 151.205 267.415 151.45 267.042 151.674C266.658 151.898 266.252 152.069 265.826 152.186C265.399 152.293 264.983 152.346 264.578 152.346C263.372 152.346 262.418 151.989 261.714 151.274C261.02 150.559 260.674 149.573 260.674 148.314C260.674 147.514 260.828 146.81 261.138 146.202C261.447 145.583 261.879 145.103 262.434 144.762C262.999 144.421 263.639 144.25 264.354 144.25C265.367 144.25 266.172 144.581 266.77 145.242C267.367 145.903 267.666 146.799 267.666 147.93C267.666 148.143 267.623 148.298 267.538 148.394C267.452 148.49 267.314 148.538 267.122 148.538H261.97C262.066 150.373 262.935 151.29 264.578 151.29C264.994 151.29 265.351 151.237 265.65 151.13C265.948 151.013 266.268 150.858 266.61 150.666C266.887 150.506 267.074 150.426 267.17 150.426ZM264.37 145.258C263.687 145.258 263.138 145.471 262.722 145.898C262.316 146.325 262.076 146.927 262.002 147.706H266.53C266.508 146.917 266.311 146.314 265.938 145.898C265.564 145.471 265.042 145.258 264.37 145.258ZM272.199 152.346C271.708 152.346 271.239 152.287 270.791 152.17C270.354 152.053 269.964 151.887 269.623 151.674C269.431 151.546 269.292 151.429 269.207 151.322C269.132 151.205 269.095 151.066 269.095 150.906C269.095 150.767 269.132 150.655 269.207 150.57C269.292 150.474 269.399 150.426 269.527 150.426C269.655 150.426 269.842 150.506 270.087 150.666C270.407 150.858 270.722 151.013 271.031 151.13C271.351 151.237 271.746 151.29 272.215 151.29C272.791 151.29 273.239 151.189 273.559 150.986C273.879 150.783 274.039 150.49 274.039 150.106C274.039 149.871 273.98 149.685 273.863 149.546C273.746 149.397 273.543 149.269 273.255 149.162C272.967 149.045 272.546 148.927 271.991 148.81C271.052 148.607 270.38 148.335 269.975 147.994C269.57 147.653 269.367 147.189 269.367 146.602C269.367 146.143 269.495 145.738 269.751 145.386C270.007 145.034 270.359 144.757 270.807 144.554C271.266 144.351 271.783 144.25 272.359 144.25C272.775 144.25 273.175 144.309 273.559 144.426C273.954 144.533 274.3 144.687 274.599 144.89C274.962 145.146 275.143 145.413 275.143 145.69C275.143 145.829 275.1 145.946 275.015 146.042C274.93 146.138 274.828 146.186 274.711 146.186C274.583 146.186 274.391 146.095 274.135 145.914C273.836 145.722 273.554 145.573 273.287 145.466C273.02 145.359 272.69 145.306 272.295 145.306C271.794 145.306 271.388 145.418 271.079 145.642C270.78 145.866 270.631 146.165 270.631 146.538C270.631 146.773 270.684 146.965 270.791 147.114C270.908 147.253 271.095 147.381 271.351 147.498C271.618 147.605 271.996 147.711 272.487 147.818C273.212 147.978 273.772 148.154 274.167 148.346C274.572 148.538 274.86 148.773 275.031 149.05C275.202 149.327 275.287 149.679 275.287 150.106C275.287 150.778 275.004 151.322 274.439 151.738C273.874 152.143 273.127 152.346 272.199 152.346ZM280.784 151.29C281.158 151.322 281.344 151.493 281.344 151.802C281.344 151.983 281.275 152.122 281.136 152.218C281.008 152.303 280.811 152.335 280.544 152.314L280.112 152.282C279.259 152.218 278.63 151.962 278.224 151.514C277.819 151.066 277.616 150.389 277.616 149.482V145.466H276.544C276.363 145.466 276.219 145.423 276.112 145.338C276.016 145.242 275.968 145.119 275.968 144.97C275.968 144.81 276.016 144.682 276.112 144.586C276.219 144.49 276.363 144.442 276.544 144.442H277.616V142.634C277.616 142.431 277.675 142.277 277.792 142.17C277.91 142.053 278.07 141.994 278.272 141.994C278.464 141.994 278.619 142.053 278.736 142.17C278.854 142.277 278.912 142.431 278.912 142.634V144.442H280.688C280.859 144.442 280.992 144.49 281.088 144.586C281.195 144.682 281.248 144.81 281.248 144.97C281.248 145.119 281.195 145.242 281.088 145.338C280.992 145.423 280.859 145.466 280.688 145.466H278.912V149.546C278.912 150.133 279.03 150.559 279.264 150.826C279.51 151.082 279.872 151.226 280.352 151.258L280.784 151.29ZM283.278 152.314C283.086 152.314 282.926 152.261 282.798 152.154C282.681 152.037 282.622 151.877 282.622 151.674V144.922C282.622 144.719 282.681 144.565 282.798 144.458C282.926 144.341 283.086 144.282 283.278 144.282C283.47 144.282 283.625 144.341 283.742 144.458C283.859 144.565 283.918 144.719 283.918 144.922V151.674C283.918 151.887 283.859 152.047 283.742 152.154C283.625 152.261 283.47 152.314 283.278 152.314ZM283.278 142.602C283.022 142.602 282.814 142.527 282.654 142.378C282.494 142.229 282.414 142.031 282.414 141.786C282.414 141.551 282.494 141.359 282.654 141.21C282.814 141.061 283.022 140.986 283.278 140.986C283.534 140.986 283.742 141.061 283.902 141.21C284.062 141.359 284.142 141.551 284.142 141.786C284.142 142.031 284.062 142.229 283.902 142.378C283.742 142.527 283.534 142.602 283.278 142.602ZM289.573 152.346C288.837 152.346 288.186 152.181 287.621 151.85C287.066 151.519 286.634 151.05 286.325 150.442C286.026 149.823 285.877 149.109 285.877 148.298C285.877 147.487 286.026 146.778 286.325 146.17C286.634 145.551 287.066 145.077 287.621 144.746C288.186 144.415 288.837 144.25 289.573 144.25C290.309 144.25 290.959 144.415 291.525 144.746C292.09 145.077 292.522 145.551 292.821 146.17C293.13 146.778 293.285 147.487 293.285 148.298C293.285 149.109 293.13 149.823 292.821 150.442C292.522 151.05 292.09 151.519 291.525 151.85C290.959 152.181 290.309 152.346 289.573 152.346ZM289.573 151.274C290.341 151.274 290.927 151.023 291.333 150.522C291.749 150.01 291.957 149.269 291.957 148.298C291.957 147.349 291.749 146.618 291.333 146.106C290.917 145.583 290.33 145.322 289.573 145.322C288.815 145.322 288.229 145.583 287.813 146.106C287.397 146.618 287.189 147.349 287.189 148.298C287.189 149.258 287.391 149.994 287.797 150.506C288.213 151.018 288.805 151.274 289.573 151.274ZM299.136 144.25C301.002 144.25 301.936 145.279 301.936 147.338V151.674C301.936 151.877 301.877 152.037 301.76 152.154C301.653 152.261 301.498 152.314 301.296 152.314C301.093 152.314 300.933 152.261 300.816 152.154C300.698 152.037 300.64 151.877 300.64 151.674V147.418C300.64 146.693 300.496 146.165 300.208 145.834C299.93 145.503 299.482 145.338 298.864 145.338C298.149 145.338 297.578 145.557 297.152 145.994C296.725 146.431 296.512 147.023 296.512 147.77V151.674C296.512 151.877 296.453 152.037 296.336 152.154C296.229 152.261 296.074 152.314 295.872 152.314C295.669 152.314 295.509 152.261 295.392 152.154C295.274 152.037 295.216 151.877 295.216 151.674V144.922C295.216 144.73 295.274 144.575 295.392 144.458C295.509 144.341 295.669 144.282 295.872 144.282C296.064 144.282 296.213 144.341 296.32 144.458C296.437 144.575 296.496 144.725 296.496 144.906V145.722C296.752 145.242 297.109 144.879 297.568 144.634C298.026 144.378 298.549 144.25 299.136 144.25ZM306.265 149.37C306.148 149.37 306.052 149.327 305.977 149.242C305.902 149.157 305.865 149.039 305.865 148.89C305.865 148.229 305.982 147.663 306.217 147.194C306.462 146.725 306.809 146.213 307.257 145.658C307.62 145.199 307.886 144.81 308.057 144.49C308.238 144.17 308.329 143.813 308.329 143.418C308.329 142.959 308.164 142.602 307.833 142.346C307.502 142.079 307.054 141.946 306.489 141.946C306.009 141.946 305.566 142.042 305.161 142.234C304.756 142.415 304.297 142.698 303.785 143.082C303.604 143.21 303.454 143.274 303.337 143.274C303.209 143.274 303.102 143.221 303.017 143.114C302.942 142.997 302.905 142.863 302.905 142.714C302.905 142.501 302.99 142.314 303.161 142.154C303.588 141.749 304.105 141.429 304.713 141.194C305.332 140.949 305.945 140.826 306.553 140.826C307.481 140.826 308.228 141.055 308.793 141.514C309.369 141.973 309.657 142.575 309.657 143.322C309.657 143.887 309.534 144.378 309.289 144.794C309.054 145.199 308.692 145.679 308.201 146.234C307.742 146.757 307.385 147.221 307.129 147.626C306.884 148.021 306.734 148.479 306.681 149.002C306.67 149.119 306.628 149.21 306.553 149.274C306.478 149.338 306.382 149.37 306.265 149.37ZM306.281 152.314C306.025 152.314 305.812 152.229 305.641 152.058C305.481 151.887 305.401 151.674 305.401 151.418C305.401 151.162 305.481 150.949 305.641 150.778C305.812 150.597 306.025 150.506 306.281 150.506C306.537 150.506 306.745 150.597 306.905 150.778C307.076 150.949 307.161 151.162 307.161 151.418C307.161 151.674 307.076 151.887 306.905 152.058C306.745 152.229 306.537 152.314 306.281 152.314Z" fill="#101010"/>
<g filter="url(#filter1_d_1289_16633)">
<path d="M340 212.234C340 207.816 336.418 204.234 332 204.234H190C185.582 204.234 182 207.816 182 212.234V255.556C182 259.974 185.582 263.556 190 263.556H333.57L340 274.234V212.234Z" fill="#101010"/>
<path d="M333.57 263.306H333.711L333.784 263.427L339.75 273.334V212.234C339.75 207.954 336.28 204.484 332 204.484H190C185.72 204.484 182.25 207.954 182.25 212.234V255.556C182.25 259.836 185.72 263.306 190 263.306H333.57Z" stroke="white" stroke-width="0.5"/>
</g>
<path d="M202.582 224.9C202.797 224.9 202.969 224.965 203.1 225.096C203.231 225.217 203.296 225.381 203.296 225.586V228.596C203.296 229.025 203.24 229.329 203.128 229.506C203.016 229.683 202.787 229.828 202.442 229.94C202.069 230.071 201.635 230.173 201.14 230.248C200.645 230.323 200.169 230.36 199.712 230.36C198.695 230.36 197.813 230.159 197.066 229.758C196.319 229.357 195.745 228.778 195.344 228.022C194.952 227.257 194.756 226.347 194.756 225.292C194.756 224.256 194.952 223.36 195.344 222.604C195.745 221.839 196.31 221.255 197.038 220.854C197.766 220.443 198.625 220.238 199.614 220.238C200.93 220.238 202.008 220.593 202.848 221.302C202.96 221.405 203.039 221.507 203.086 221.61C203.142 221.713 203.17 221.834 203.17 221.974C203.17 222.179 203.114 222.352 203.002 222.492C202.89 222.632 202.755 222.702 202.596 222.702C202.493 222.702 202.4 222.688 202.316 222.66C202.232 222.623 202.134 222.567 202.022 222.492C201.611 222.203 201.229 222.002 200.874 221.89C200.519 221.769 200.118 221.708 199.67 221.708C198.653 221.708 197.883 222.011 197.36 222.618C196.847 223.215 196.59 224.107 196.59 225.292C196.59 227.719 197.654 228.932 199.782 228.932C200.417 228.932 201.051 228.843 201.686 228.666V226.188H200.104C199.88 226.188 199.703 226.132 199.572 226.02C199.451 225.908 199.39 225.749 199.39 225.544C199.39 225.339 199.451 225.18 199.572 225.068C199.703 224.956 199.88 224.9 200.104 224.9H202.582ZM210.596 228.358C210.754 228.358 210.88 228.419 210.974 228.54C211.076 228.661 211.128 228.825 211.128 229.03C211.128 229.319 210.955 229.562 210.61 229.758C210.292 229.935 209.933 230.08 209.532 230.192C209.13 230.295 208.748 230.346 208.384 230.346C207.282 230.346 206.41 230.029 205.766 229.394C205.122 228.759 204.8 227.891 204.8 226.79C204.8 226.09 204.94 225.469 205.22 224.928C205.5 224.387 205.892 223.967 206.396 223.668C206.909 223.369 207.488 223.22 208.132 223.22C208.748 223.22 209.284 223.355 209.742 223.626C210.199 223.897 210.554 224.279 210.806 224.774C211.058 225.269 211.184 225.852 211.184 226.524C211.184 226.925 211.006 227.126 210.652 227.126H206.522C206.578 227.77 206.76 228.246 207.068 228.554C207.376 228.853 207.824 229.002 208.412 229.002C208.71 229.002 208.972 228.965 209.196 228.89C209.429 228.815 209.69 228.713 209.98 228.582C210.26 228.433 210.465 228.358 210.596 228.358ZM208.174 224.452C207.698 224.452 207.315 224.601 207.026 224.9C206.746 225.199 206.578 225.628 206.522 226.188H209.686C209.667 225.619 209.527 225.189 209.266 224.9C209.004 224.601 208.64 224.452 208.174 224.452ZM216.075 229.016C216.542 229.044 216.775 229.254 216.775 229.646C216.775 229.87 216.682 230.043 216.495 230.164C216.318 230.276 216.061 230.323 215.725 230.304L215.347 230.276C213.779 230.164 212.995 229.324 212.995 227.756V224.704H212.295C212.043 224.704 211.847 224.648 211.707 224.536C211.577 224.424 211.511 224.261 211.511 224.046C211.511 223.831 211.577 223.668 211.707 223.556C211.847 223.444 212.043 223.388 212.295 223.388H212.995V222.1C212.995 221.848 213.075 221.647 213.233 221.498C213.392 221.349 213.607 221.274 213.877 221.274C214.139 221.274 214.349 221.349 214.507 221.498C214.666 221.647 214.745 221.848 214.745 222.1V223.388H215.935C216.187 223.388 216.379 223.444 216.509 223.556C216.649 223.668 216.719 223.831 216.719 224.046C216.719 224.261 216.649 224.424 216.509 224.536C216.379 224.648 216.187 224.704 215.935 224.704H214.745V227.882C214.745 228.573 215.063 228.941 215.697 228.988L216.075 229.016ZM222.356 230.318C222.104 230.318 221.894 230.248 221.726 230.108C221.567 229.959 221.488 229.749 221.488 229.478V224.074C221.488 223.803 221.567 223.598 221.726 223.458C221.894 223.318 222.104 223.248 222.356 223.248C222.608 223.248 222.818 223.318 222.986 223.458C223.154 223.598 223.238 223.803 223.238 224.074V229.478C223.238 229.749 223.154 229.959 222.986 230.108C222.818 230.248 222.608 230.318 222.356 230.318ZM222.356 222.002C222.039 222.002 221.787 221.918 221.6 221.75C221.413 221.573 221.32 221.344 221.32 221.064C221.32 220.784 221.413 220.56 221.6 220.392C221.787 220.224 222.039 220.14 222.356 220.14C222.664 220.14 222.911 220.224 223.098 220.392C223.294 220.56 223.392 220.784 223.392 221.064C223.392 221.344 223.299 221.573 223.112 221.75C222.925 221.918 222.673 222.002 222.356 222.002ZM229.019 223.22C229.84 223.22 230.451 223.453 230.853 223.92C231.254 224.387 231.455 225.091 231.455 226.034V229.478C231.455 229.739 231.375 229.945 231.217 230.094C231.067 230.243 230.857 230.318 230.587 230.318C230.316 230.318 230.101 230.243 229.943 230.094C229.784 229.945 229.705 229.739 229.705 229.478V226.132C229.705 225.6 229.602 225.213 229.397 224.97C229.201 224.727 228.888 224.606 228.459 224.606C227.955 224.606 227.549 224.765 227.241 225.082C226.942 225.399 226.793 225.824 226.793 226.356V229.478C226.793 229.739 226.713 229.945 226.555 230.094C226.396 230.243 226.181 230.318 225.911 230.318C225.64 230.318 225.425 230.243 225.267 230.094C225.117 229.945 225.043 229.739 225.043 229.478V224.06C225.043 223.817 225.122 223.621 225.281 223.472C225.439 223.323 225.654 223.248 225.925 223.248C226.167 223.248 226.363 223.323 226.513 223.472C226.671 223.612 226.751 223.799 226.751 224.032V224.41C226.984 224.027 227.297 223.733 227.689 223.528C228.081 223.323 228.524 223.22 229.019 223.22ZM240.589 229.016C241.056 229.044 241.289 229.254 241.289 229.646C241.289 229.87 241.196 230.043 241.009 230.164C240.832 230.276 240.575 230.323 240.239 230.304L239.861 230.276C238.293 230.164 237.509 229.324 237.509 227.756V224.704H236.809C236.557 224.704 236.361 224.648 236.221 224.536C236.09 224.424 236.025 224.261 236.025 224.046C236.025 223.831 236.09 223.668 236.221 223.556C236.361 223.444 236.557 223.388 236.809 223.388H237.509V222.1C237.509 221.848 237.588 221.647 237.747 221.498C237.906 221.349 238.12 221.274 238.391 221.274C238.652 221.274 238.862 221.349 239.021 221.498C239.18 221.647 239.259 221.848 239.259 222.1V223.388H240.449C240.701 223.388 240.892 223.444 241.023 223.556C241.163 223.668 241.233 223.831 241.233 224.046C241.233 224.261 241.163 224.424 241.023 224.536C240.892 224.648 240.701 224.704 240.449 224.704H239.259V227.882C239.259 228.573 239.576 228.941 240.211 228.988L240.589 229.016ZM245.323 230.346C244.623 230.346 244.007 230.201 243.475 229.912C242.952 229.623 242.546 229.207 242.257 228.666C241.968 228.125 241.823 227.495 241.823 226.776C241.823 226.057 241.968 225.432 242.257 224.9C242.546 224.359 242.952 223.943 243.475 223.654C244.007 223.365 244.623 223.22 245.323 223.22C246.023 223.22 246.634 223.365 247.157 223.654C247.689 223.943 248.095 224.359 248.375 224.9C248.664 225.432 248.809 226.057 248.809 226.776C248.809 227.495 248.664 228.125 248.375 228.666C248.095 229.207 247.689 229.623 247.157 229.912C246.634 230.201 246.023 230.346 245.323 230.346ZM245.309 228.988C245.878 228.988 246.312 228.801 246.611 228.428C246.91 228.055 247.059 227.504 247.059 226.776C247.059 226.057 246.91 225.511 246.611 225.138C246.312 224.755 245.883 224.564 245.323 224.564C244.763 224.564 244.329 224.755 244.021 225.138C243.722 225.511 243.573 226.057 243.573 226.776C243.573 227.504 243.722 228.055 244.021 228.428C244.32 228.801 244.749 228.988 245.309 228.988ZM255.658 223.248C255.928 223.248 256.143 223.323 256.302 223.472C256.46 223.621 256.54 223.822 256.54 224.074V229.506C256.54 229.749 256.456 229.945 256.288 230.094C256.129 230.243 255.919 230.318 255.658 230.318C255.406 230.318 255.205 230.248 255.056 230.108C254.906 229.968 254.832 229.777 254.832 229.534V229.184C254.617 229.557 254.328 229.847 253.964 230.052C253.6 230.248 253.189 230.346 252.732 230.346C251.052 230.346 250.212 229.403 250.212 227.518V224.074C250.212 223.822 250.291 223.621 250.45 223.472C250.608 223.323 250.818 223.248 251.08 223.248C251.35 223.248 251.565 223.323 251.724 223.472C251.882 223.621 251.962 223.822 251.962 224.074V227.532C251.962 228.017 252.06 228.377 252.256 228.61C252.452 228.843 252.76 228.96 253.18 228.96C253.665 228.96 254.052 228.801 254.342 228.484C254.64 228.157 254.79 227.728 254.79 227.196V224.074C254.79 223.822 254.869 223.621 255.028 223.472C255.186 223.323 255.396 223.248 255.658 223.248ZM261.399 230.346C260.718 230.346 260.116 230.201 259.593 229.912C259.08 229.623 258.683 229.212 258.403 228.68C258.123 228.148 257.983 227.527 257.983 226.818C257.983 226.109 258.128 225.483 258.417 224.942C258.716 224.391 259.131 223.967 259.663 223.668C260.195 223.369 260.807 223.22 261.497 223.22C261.861 223.22 262.225 223.271 262.589 223.374C262.963 223.477 263.289 223.617 263.569 223.794C263.868 223.99 264.017 224.237 264.017 224.536C264.017 224.741 263.966 224.909 263.863 225.04C263.77 225.161 263.644 225.222 263.485 225.222C263.383 225.222 263.275 225.199 263.163 225.152C263.051 225.105 262.939 225.049 262.827 224.984C262.622 224.863 262.426 224.769 262.239 224.704C262.053 224.629 261.838 224.592 261.595 224.592C261.017 224.592 260.569 224.783 260.251 225.166C259.943 225.539 259.789 226.081 259.789 226.79C259.789 227.49 259.943 228.031 260.251 228.414C260.569 228.787 261.017 228.974 261.595 228.974C261.829 228.974 262.034 228.941 262.211 228.876C262.398 228.801 262.603 228.703 262.827 228.582C262.967 228.498 263.089 228.437 263.191 228.4C263.294 228.353 263.397 228.33 263.499 228.33C263.649 228.33 263.775 228.395 263.877 228.526C263.98 228.657 264.031 228.82 264.031 229.016C264.031 229.175 263.994 229.315 263.919 229.436C263.854 229.548 263.742 229.651 263.583 229.744C263.294 229.931 262.958 230.08 262.575 230.192C262.193 230.295 261.801 230.346 261.399 230.346ZM269.201 223.22C270.806 223.22 271.609 224.158 271.609 226.034V229.478C271.609 229.739 271.53 229.945 271.371 230.094C271.222 230.243 271.012 230.318 270.741 230.318C270.47 230.318 270.256 230.243 270.097 230.094C269.938 229.945 269.859 229.739 269.859 229.478V226.034C269.859 225.539 269.756 225.18 269.551 224.956C269.355 224.723 269.042 224.606 268.613 224.606C268.109 224.606 267.703 224.765 267.395 225.082C267.096 225.399 266.947 225.824 266.947 226.356V229.478C266.947 229.739 266.868 229.945 266.709 230.094C266.55 230.243 266.336 230.318 266.065 230.318C265.794 230.318 265.58 230.243 265.421 230.094C265.272 229.945 265.197 229.739 265.197 229.478V221.106C265.197 220.863 265.276 220.667 265.435 220.518C265.603 220.369 265.818 220.294 266.079 220.294C266.34 220.294 266.55 220.364 266.709 220.504C266.868 220.644 266.947 220.835 266.947 221.078V224.34C267.18 223.976 267.488 223.701 267.871 223.514C268.263 223.318 268.706 223.22 269.201 223.22ZM286.441 223.766C286.507 223.598 286.6 223.472 286.721 223.388C286.852 223.304 286.992 223.262 287.141 223.262C287.356 223.262 287.547 223.337 287.715 223.486C287.893 223.626 287.981 223.803 287.981 224.018C287.981 224.139 287.958 224.247 287.911 224.34L285.601 229.758C285.527 229.935 285.41 230.071 285.251 230.164C285.102 230.257 284.934 230.304 284.747 230.304C284.57 230.304 284.402 230.257 284.243 230.164C284.094 230.071 283.982 229.935 283.907 229.758L282.241 225.754L280.631 229.758C280.557 229.935 280.44 230.071 280.281 230.164C280.132 230.257 279.964 230.304 279.777 230.304C279.6 230.304 279.432 230.257 279.273 230.164C279.115 230.071 278.998 229.935 278.923 229.758L276.627 224.34C276.581 224.219 276.557 224.116 276.557 224.032C276.557 223.817 276.651 223.635 276.837 223.486C277.024 223.327 277.229 223.248 277.453 223.248C277.612 223.248 277.757 223.29 277.887 223.374C278.018 223.458 278.116 223.584 278.181 223.752L279.833 228.022L281.527 223.794C281.602 223.617 281.709 223.486 281.849 223.402C281.989 223.309 282.143 223.262 282.311 223.262C282.479 223.262 282.633 223.309 282.773 223.402C282.913 223.486 283.021 223.617 283.095 223.794L284.803 228.036L286.441 223.766ZM290.046 230.318C289.794 230.318 289.584 230.248 289.416 230.108C289.257 229.959 289.178 229.749 289.178 229.478V224.074C289.178 223.803 289.257 223.598 289.416 223.458C289.584 223.318 289.794 223.248 290.046 223.248C290.298 223.248 290.508 223.318 290.676 223.458C290.844 223.598 290.928 223.803 290.928 224.074V229.478C290.928 229.749 290.844 229.959 290.676 230.108C290.508 230.248 290.298 230.318 290.046 230.318ZM290.046 222.002C289.728 222.002 289.476 221.918 289.29 221.75C289.103 221.573 289.01 221.344 289.01 221.064C289.01 220.784 289.103 220.56 289.29 220.392C289.476 220.224 289.728 220.14 290.046 220.14C290.354 220.14 290.601 220.224 290.788 220.392C290.984 220.56 291.082 220.784 291.082 221.064C291.082 221.344 290.988 221.573 290.802 221.75C290.615 221.918 290.363 222.002 290.046 222.002ZM296.288 229.016C296.755 229.044 296.988 229.254 296.988 229.646C296.988 229.87 296.895 230.043 296.708 230.164C296.531 230.276 296.274 230.323 295.938 230.304L295.56 230.276C293.992 230.164 293.208 229.324 293.208 227.756V224.704H292.508C292.256 224.704 292.06 224.648 291.92 224.536C291.79 224.424 291.724 224.261 291.724 224.046C291.724 223.831 291.79 223.668 291.92 223.556C292.06 223.444 292.256 223.388 292.508 223.388H293.208V222.1C293.208 221.848 293.288 221.647 293.446 221.498C293.605 221.349 293.82 221.274 294.09 221.274C294.352 221.274 294.562 221.349 294.72 221.498C294.879 221.647 294.958 221.848 294.958 222.1V223.388H296.148C296.4 223.388 296.592 223.444 296.722 223.556C296.862 223.668 296.932 223.831 296.932 224.046C296.932 224.261 296.862 224.424 296.722 224.536C296.592 224.648 296.4 224.704 296.148 224.704H294.958V227.882C294.958 228.573 295.276 228.941 295.91 228.988L296.288 229.016ZM301.904 223.22C303.51 223.22 304.312 224.158 304.312 226.034V229.478C304.312 229.739 304.233 229.945 304.074 230.094C303.925 230.243 303.715 230.318 303.444 230.318C303.174 230.318 302.959 230.243 302.8 230.094C302.642 229.945 302.562 229.739 302.562 229.478V226.034C302.562 225.539 302.46 225.18 302.254 224.956C302.058 224.723 301.746 224.606 301.316 224.606C300.812 224.606 300.406 224.765 300.098 225.082C299.8 225.399 299.65 225.824 299.65 226.356V229.478C299.65 229.739 299.571 229.945 299.412 230.094C299.254 230.243 299.039 230.318 298.768 230.318C298.498 230.318 298.283 230.243 298.124 230.094C297.975 229.945 297.9 229.739 297.9 229.478V221.106C297.9 220.863 297.98 220.667 298.138 220.518C298.306 220.369 298.521 220.294 298.782 220.294C299.044 220.294 299.254 220.364 299.412 220.504C299.571 220.644 299.65 220.835 299.65 221.078V224.34C299.884 223.976 300.192 223.701 300.574 223.514C300.966 223.318 301.41 223.22 301.904 223.22ZM315.294 223.248C315.565 223.248 315.78 223.323 315.938 223.472C316.097 223.621 316.176 223.822 316.176 224.074V229.506C316.176 229.749 316.092 229.945 315.924 230.094C315.766 230.243 315.556 230.318 315.294 230.318C315.042 230.318 314.842 230.248 314.692 230.108C314.543 229.968 314.468 229.777 314.468 229.534V229.184C314.254 229.557 313.964 229.847 313.6 230.052C313.236 230.248 312.826 230.346 312.368 230.346C310.688 230.346 309.848 229.403 309.848 227.518V224.074C309.848 223.822 309.928 223.621 310.086 223.472C310.245 223.323 310.455 223.248 310.716 223.248C310.987 223.248 311.202 223.323 311.36 223.472C311.519 223.621 311.598 223.822 311.598 224.074V227.532C311.598 228.017 311.696 228.377 311.892 228.61C312.088 228.843 312.396 228.96 312.816 228.96C313.302 228.96 313.689 228.801 313.978 228.484C314.277 228.157 314.426 227.728 314.426 227.196V224.074C314.426 223.822 314.506 223.621 314.664 223.472C314.823 223.323 315.033 223.248 315.294 223.248ZM320.476 230.346C319.459 230.346 318.637 230.145 318.012 229.744C317.713 229.567 317.564 229.315 317.564 228.988C317.564 228.801 317.615 228.652 317.718 228.54C317.821 228.419 317.947 228.358 318.096 228.358C318.255 228.358 318.474 228.433 318.754 228.582C319.053 228.722 319.323 228.829 319.566 228.904C319.818 228.979 320.135 229.016 320.518 229.016C320.91 229.016 321.213 228.951 321.428 228.82C321.652 228.689 321.764 228.507 321.764 228.274C321.764 228.115 321.717 227.989 321.624 227.896C321.54 227.803 321.381 227.719 321.148 227.644C320.924 227.56 320.579 227.467 320.112 227.364C319.281 227.196 318.684 226.958 318.32 226.65C317.965 226.342 317.788 225.917 317.788 225.376C317.788 224.965 317.909 224.597 318.152 224.27C318.395 223.934 318.726 223.677 319.146 223.5C319.575 223.313 320.061 223.22 320.602 223.22C320.994 223.22 321.372 223.271 321.736 223.374C322.1 223.467 322.427 223.607 322.716 223.794C323.015 223.981 323.164 224.228 323.164 224.536C323.164 224.723 323.113 224.881 323.01 225.012C322.907 225.133 322.781 225.194 322.632 225.194C322.529 225.194 322.427 225.175 322.324 225.138C322.231 225.091 322.109 225.026 321.96 224.942C321.689 224.802 321.456 224.699 321.26 224.634C321.064 224.559 320.821 224.522 320.532 224.522C320.187 224.522 319.911 224.592 319.706 224.732C319.51 224.872 319.412 225.063 319.412 225.306C319.412 225.539 319.515 225.717 319.72 225.838C319.925 225.959 320.322 226.081 320.91 226.202C321.535 226.333 322.025 226.482 322.38 226.65C322.735 226.818 322.987 227.028 323.136 227.28C323.295 227.532 323.374 227.854 323.374 228.246C323.374 228.881 323.108 229.389 322.576 229.772C322.053 230.155 321.353 230.346 320.476 230.346ZM198.2 247.408C198.527 247.436 198.69 247.585 198.69 247.856C198.69 248.015 198.629 248.136 198.508 248.22C198.396 248.295 198.223 248.323 197.99 248.304L197.612 248.276C196.865 248.22 196.315 247.996 195.96 247.604C195.605 247.212 195.428 246.619 195.428 245.826V242.312H194.49C194.331 242.312 194.205 242.275 194.112 242.2C194.028 242.116 193.986 242.009 193.986 241.878C193.986 241.738 194.028 241.626 194.112 241.542C194.205 241.458 194.331 241.416 194.49 241.416H195.428V239.834C195.428 239.657 195.479 239.521 195.582 239.428C195.685 239.325 195.825 239.274 196.002 239.274C196.17 239.274 196.305 239.325 196.408 239.428C196.511 239.521 196.562 239.657 196.562 239.834V241.416H198.116C198.265 241.416 198.382 241.458 198.466 241.542C198.559 241.626 198.606 241.738 198.606 241.878C198.606 242.009 198.559 242.116 198.466 242.2C198.382 242.275 198.265 242.312 198.116 242.312H196.562V245.882C196.562 246.395 196.665 246.769 196.87 247.002C197.085 247.226 197.402 247.352 197.822 247.38L198.2 247.408ZM202.636 248.332C201.992 248.332 201.422 248.187 200.928 247.898C200.442 247.609 200.064 247.198 199.794 246.666C199.532 246.125 199.402 245.499 199.402 244.79C199.402 244.081 199.532 243.46 199.794 242.928C200.064 242.387 200.442 241.971 200.928 241.682C201.422 241.393 201.992 241.248 202.636 241.248C203.28 241.248 203.849 241.393 204.344 241.682C204.838 241.971 205.216 242.387 205.478 242.928C205.748 243.46 205.884 244.081 205.884 244.79C205.884 245.499 205.748 246.125 205.478 246.666C205.216 247.198 204.838 247.609 204.344 247.898C203.849 248.187 203.28 248.332 202.636 248.332ZM202.636 247.394C203.308 247.394 203.821 247.175 204.176 246.736C204.54 246.288 204.722 245.639 204.722 244.79C204.722 243.959 204.54 243.32 204.176 242.872C203.812 242.415 203.298 242.186 202.636 242.186C201.973 242.186 201.46 242.415 201.096 242.872C200.732 243.32 200.55 243.959 200.55 244.79C200.55 245.63 200.727 246.274 201.082 246.722C201.446 247.17 201.964 247.394 202.636 247.394ZM216.629 247.338C216.778 247.478 216.853 247.627 216.853 247.786C216.853 247.926 216.801 248.047 216.699 248.15C216.605 248.253 216.489 248.304 216.349 248.304C216.227 248.304 216.101 248.248 215.971 248.136L212.317 244.986V247.744C212.317 247.921 212.261 248.061 212.149 248.164C212.046 248.257 211.915 248.304 211.757 248.304C211.589 248.304 211.449 248.257 211.337 248.164C211.234 248.061 211.183 247.921 211.183 247.744V238.854C211.183 238.677 211.234 238.541 211.337 238.448C211.449 238.345 211.589 238.294 211.757 238.294C211.915 238.294 212.046 238.345 212.149 238.448C212.261 238.541 212.317 238.677 212.317 238.854V244.538L215.663 241.472C215.775 241.36 215.901 241.304 216.041 241.304C216.181 241.304 216.302 241.355 216.405 241.458C216.507 241.561 216.559 241.682 216.559 241.822C216.559 241.981 216.493 242.121 216.363 242.242L213.605 244.706L216.629 247.338ZM221.613 241.248C223.246 241.248 224.063 242.149 224.063 243.95V247.744C224.063 247.921 224.011 248.061 223.909 248.164C223.815 248.257 223.68 248.304 223.503 248.304C223.325 248.304 223.185 248.257 223.083 248.164C222.98 248.061 222.929 247.921 222.929 247.744V244.02C222.929 243.385 222.803 242.923 222.551 242.634C222.308 242.345 221.916 242.2 221.375 242.2C220.749 242.2 220.25 242.391 219.877 242.774C219.503 243.157 219.317 243.675 219.317 244.328V247.744C219.317 247.921 219.265 248.061 219.163 248.164C219.069 248.257 218.934 248.304 218.757 248.304C218.579 248.304 218.439 248.257 218.337 248.164C218.234 248.061 218.183 247.921 218.183 247.744V241.836C218.183 241.668 218.234 241.533 218.337 241.43C218.439 241.327 218.579 241.276 218.757 241.276C218.925 241.276 219.055 241.327 219.149 241.43C219.251 241.533 219.303 241.663 219.303 241.822V242.536C219.527 242.116 219.839 241.799 220.241 241.584C220.642 241.36 221.099 241.248 221.613 241.248ZM228.968 248.332C228.324 248.332 227.755 248.187 227.26 247.898C226.775 247.609 226.397 247.198 226.126 246.666C225.865 246.125 225.734 245.499 225.734 244.79C225.734 244.081 225.865 243.46 226.126 242.928C226.397 242.387 226.775 241.971 227.26 241.682C227.755 241.393 228.324 241.248 228.968 241.248C229.612 241.248 230.181 241.393 230.676 241.682C231.171 241.971 231.549 242.387 231.81 242.928C232.081 243.46 232.216 244.081 232.216 244.79C232.216 245.499 232.081 246.125 231.81 246.666C231.549 247.198 231.171 247.609 230.676 247.898C230.181 248.187 229.612 248.332 228.968 248.332ZM228.968 247.394C229.64 247.394 230.153 247.175 230.508 246.736C230.872 246.288 231.054 245.639 231.054 244.79C231.054 243.959 230.872 243.32 230.508 242.872C230.144 242.415 229.631 242.186 228.968 242.186C228.305 242.186 227.792 242.415 227.428 242.872C227.064 243.32 226.882 243.959 226.882 244.79C226.882 245.63 227.059 246.274 227.414 246.722C227.778 247.17 228.296 247.394 228.968 247.394ZM243.147 241.64C243.241 241.416 243.395 241.304 243.609 241.304C243.749 241.304 243.875 241.351 243.987 241.444C244.099 241.537 244.155 241.654 244.155 241.794C244.155 241.859 244.141 241.929 244.113 242.004L241.789 247.884C241.733 248.005 241.649 248.103 241.537 248.178C241.435 248.243 241.318 248.276 241.187 248.276C241.066 248.276 240.949 248.243 240.837 248.178C240.735 248.103 240.655 248.005 240.599 247.884L238.667 242.97L236.749 247.884C236.703 248.005 236.623 248.103 236.511 248.178C236.399 248.243 236.278 248.276 236.147 248.276C236.026 248.276 235.909 248.243 235.797 248.178C235.685 248.103 235.601 248.005 235.545 247.884L233.221 242.018C233.193 241.943 233.179 241.878 233.179 241.822C233.179 241.673 233.24 241.547 233.361 241.444C233.492 241.341 233.632 241.29 233.781 241.29C234.005 241.29 234.164 241.402 234.257 241.626L236.175 246.792L238.149 241.668C238.205 241.547 238.28 241.453 238.373 241.388C238.476 241.323 238.583 241.29 238.695 241.29C238.817 241.29 238.924 241.323 239.017 241.388C239.12 241.453 239.195 241.547 239.241 241.668L241.215 246.778L243.147 241.64ZM254.496 246.652C254.599 246.652 254.687 246.694 254.762 246.778C254.837 246.862 254.874 246.969 254.874 247.1C254.874 247.333 254.711 247.548 254.384 247.744C254.048 247.94 253.693 248.089 253.32 248.192C252.947 248.285 252.583 248.332 252.228 248.332C251.173 248.332 250.338 248.019 249.722 247.394C249.115 246.769 248.812 245.905 248.812 244.804C248.812 244.104 248.947 243.488 249.218 242.956C249.489 242.415 249.867 241.995 250.352 241.696C250.847 241.397 251.407 241.248 252.032 241.248C252.919 241.248 253.623 241.537 254.146 242.116C254.669 242.695 254.93 243.479 254.93 244.468C254.93 244.655 254.893 244.79 254.818 244.874C254.743 244.958 254.622 245 254.454 245H249.946C250.03 246.605 250.791 247.408 252.228 247.408C252.592 247.408 252.905 247.361 253.166 247.268C253.427 247.165 253.707 247.03 254.006 246.862C254.249 246.722 254.412 246.652 254.496 246.652ZM252.046 242.13C251.449 242.13 250.968 242.317 250.604 242.69C250.249 243.063 250.039 243.591 249.974 244.272H253.936C253.917 243.581 253.745 243.054 253.418 242.69C253.091 242.317 252.634 242.13 252.046 242.13ZM261.433 241.626C261.535 241.402 261.699 241.29 261.923 241.29C262.063 241.29 262.189 241.337 262.301 241.43C262.413 241.523 262.469 241.64 262.469 241.78C262.469 241.864 262.45 241.939 262.413 242.004L259.683 247.884C259.627 248.005 259.543 248.103 259.431 248.178C259.319 248.243 259.197 248.276 259.067 248.276C258.945 248.276 258.829 248.243 258.717 248.178C258.605 248.103 258.516 248.005 258.451 247.884L255.735 242.004C255.697 241.939 255.679 241.869 255.679 241.794C255.679 241.654 255.739 241.533 255.861 241.43C255.991 241.327 256.131 241.276 256.281 241.276C256.374 241.276 256.463 241.304 256.547 241.36C256.64 241.416 256.71 241.495 256.757 241.598L259.095 246.848L261.433 241.626ZM268.906 246.652C269.009 246.652 269.097 246.694 269.172 246.778C269.247 246.862 269.284 246.969 269.284 247.1C269.284 247.333 269.121 247.548 268.794 247.744C268.458 247.94 268.103 248.089 267.73 248.192C267.357 248.285 266.993 248.332 266.638 248.332C265.583 248.332 264.748 248.019 264.132 247.394C263.525 246.769 263.222 245.905 263.222 244.804C263.222 244.104 263.357 243.488 263.628 242.956C263.899 242.415 264.277 241.995 264.762 241.696C265.257 241.397 265.817 241.248 266.442 241.248C267.329 241.248 268.033 241.537 268.556 242.116C269.079 242.695 269.34 243.479 269.34 244.468C269.34 244.655 269.303 244.79 269.228 244.874C269.153 244.958 269.032 245 268.864 245H264.356C264.44 246.605 265.201 247.408 266.638 247.408C267.002 247.408 267.315 247.361 267.576 247.268C267.837 247.165 268.117 247.03 268.416 246.862C268.659 246.722 268.822 246.652 268.906 246.652ZM266.456 242.13C265.859 242.13 265.378 242.317 265.014 242.69C264.659 243.063 264.449 243.591 264.384 244.272H268.346C268.327 243.581 268.155 243.054 267.828 242.69C267.501 242.317 267.044 242.13 266.456 242.13ZM274.385 241.276C274.777 241.248 274.973 241.407 274.973 241.752C274.973 241.901 274.931 242.023 274.847 242.116C274.763 242.2 274.618 242.251 274.413 242.27L273.993 242.312C273.368 242.368 272.901 242.592 272.593 242.984C272.294 243.367 272.145 243.819 272.145 244.342V247.744C272.145 247.931 272.094 248.071 271.991 248.164C271.888 248.257 271.753 248.304 271.585 248.304C271.417 248.304 271.277 248.257 271.165 248.164C271.062 248.061 271.011 247.921 271.011 247.744V241.836C271.011 241.659 271.067 241.523 271.179 241.43C271.291 241.327 271.426 241.276 271.585 241.276C271.734 241.276 271.86 241.327 271.963 241.43C272.066 241.523 272.117 241.654 272.117 241.822V242.606C272.313 242.195 272.588 241.883 272.943 241.668C273.307 241.453 273.722 241.327 274.189 241.29L274.385 241.276ZM281.284 241.626C281.387 241.402 281.55 241.29 281.774 241.29C281.914 241.29 282.04 241.337 282.152 241.43C282.264 241.523 282.32 241.64 282.32 241.78C282.32 241.864 282.302 241.939 282.264 242.004L278.33 250.488C278.284 250.591 278.214 250.67 278.12 250.726C278.036 250.782 277.948 250.81 277.854 250.81C277.714 250.81 277.588 250.763 277.476 250.67C277.374 250.586 277.322 250.474 277.322 250.334C277.322 250.259 277.341 250.185 277.378 250.11L278.358 247.996L275.586 242.004C275.549 241.939 275.53 241.869 275.53 241.794C275.53 241.654 275.591 241.533 275.712 241.43C275.843 241.327 275.983 241.276 276.132 241.276C276.226 241.276 276.314 241.304 276.398 241.36C276.492 241.416 276.562 241.495 276.608 241.598L278.946 246.848L281.284 241.626ZM286.862 247.408C287.189 247.436 287.352 247.585 287.352 247.856C287.352 248.015 287.291 248.136 287.17 248.22C287.058 248.295 286.885 248.323 286.652 248.304L286.274 248.276C285.527 248.22 284.977 247.996 284.622 247.604C284.267 247.212 284.09 246.619 284.09 245.826V242.312H283.152C282.993 242.312 282.867 242.275 282.774 242.2C282.69 242.116 282.648 242.009 282.648 241.878C282.648 241.738 282.69 241.626 282.774 241.542C282.867 241.458 282.993 241.416 283.152 241.416H284.09V239.834C284.09 239.657 284.141 239.521 284.244 239.428C284.347 239.325 284.487 239.274 284.664 239.274C284.832 239.274 284.967 239.325 285.07 239.428C285.173 239.521 285.224 239.657 285.224 239.834V241.416H286.778C286.927 241.416 287.044 241.458 287.128 241.542C287.221 241.626 287.268 241.738 287.268 241.878C287.268 242.009 287.221 242.116 287.128 242.2C287.044 242.275 286.927 242.312 286.778 242.312H285.224V245.882C285.224 246.395 285.327 246.769 285.532 247.002C285.747 247.226 286.064 247.352 286.484 247.38L286.862 247.408ZM291.914 241.248C292.717 241.248 293.323 241.477 293.734 241.934C294.145 242.382 294.35 243.054 294.35 243.95V247.744C294.35 247.921 294.299 248.061 294.196 248.164C294.093 248.257 293.958 248.304 293.79 248.304C293.613 248.304 293.473 248.257 293.37 248.164C293.267 248.061 293.216 247.921 293.216 247.744V243.978C293.216 243.371 293.09 242.923 292.838 242.634C292.595 242.345 292.203 242.2 291.662 242.2C291.037 242.2 290.537 242.391 290.164 242.774C289.791 243.157 289.604 243.675 289.604 244.328V247.744C289.604 247.921 289.553 248.061 289.45 248.164C289.357 248.257 289.221 248.304 289.044 248.304C288.867 248.304 288.727 248.257 288.624 248.164C288.521 248.061 288.47 247.921 288.47 247.744V238.84C288.47 238.681 288.521 238.551 288.624 238.448C288.736 238.345 288.876 238.294 289.044 238.294C289.221 238.294 289.357 238.345 289.45 238.448C289.553 238.541 289.604 238.672 289.604 238.84V242.508C289.828 242.097 290.141 241.785 290.542 241.57C290.943 241.355 291.401 241.248 291.914 241.248ZM297.001 248.304C296.833 248.304 296.693 248.257 296.581 248.164C296.478 248.061 296.427 247.921 296.427 247.744V241.836C296.427 241.659 296.478 241.523 296.581 241.43C296.693 241.327 296.833 241.276 297.001 241.276C297.169 241.276 297.304 241.327 297.407 241.43C297.51 241.523 297.561 241.659 297.561 241.836V247.744C297.561 247.931 297.51 248.071 297.407 248.164C297.304 248.257 297.169 248.304 297.001 248.304ZM297.001 239.806C296.777 239.806 296.595 239.741 296.455 239.61C296.315 239.479 296.245 239.307 296.245 239.092C296.245 238.887 296.315 238.719 296.455 238.588C296.595 238.457 296.777 238.392 297.001 238.392C297.225 238.392 297.407 238.457 297.547 238.588C297.687 238.719 297.757 238.887 297.757 239.092C297.757 239.307 297.687 239.479 297.547 239.61C297.407 239.741 297.225 239.806 297.001 239.806ZM303.111 241.248C304.744 241.248 305.561 242.149 305.561 243.95V247.744C305.561 247.921 305.51 248.061 305.407 248.164C305.314 248.257 305.178 248.304 305.001 248.304C304.824 248.304 304.684 248.257 304.581 248.164C304.478 248.061 304.427 247.921 304.427 247.744V244.02C304.427 243.385 304.301 242.923 304.049 242.634C303.806 242.345 303.414 242.2 302.873 242.2C302.248 242.2 301.748 242.391 301.375 242.774C301.002 243.157 300.815 243.675 300.815 244.328V247.744C300.815 247.921 300.764 248.061 300.661 248.164C300.568 248.257 300.432 248.304 300.255 248.304C300.078 248.304 299.938 248.257 299.835 248.164C299.732 248.061 299.681 247.921 299.681 247.744V241.836C299.681 241.668 299.732 241.533 299.835 241.43C299.938 241.327 300.078 241.276 300.255 241.276C300.423 241.276 300.554 241.327 300.647 241.43C300.75 241.533 300.801 241.663 300.801 241.822V242.536C301.025 242.116 301.338 241.799 301.739 241.584C302.14 241.36 302.598 241.248 303.111 241.248ZM313.168 241.276C313.345 241.276 313.485 241.327 313.588 241.43C313.691 241.533 313.742 241.668 313.742 241.836V247.772C313.742 248.789 313.481 249.555 312.958 250.068C312.435 250.591 311.661 250.852 310.634 250.852C309.635 250.852 308.805 250.656 308.142 250.264C307.806 250.077 307.638 249.863 307.638 249.62C307.638 249.489 307.671 249.382 307.736 249.298C307.811 249.214 307.904 249.172 308.016 249.172C308.109 249.172 308.277 249.237 308.52 249.368C308.847 249.536 309.169 249.671 309.486 249.774C309.803 249.877 310.181 249.928 310.62 249.928C311.283 249.928 311.782 249.751 312.118 249.396C312.454 249.051 312.622 248.542 312.622 247.87V246.666C312.426 247.105 312.123 247.441 311.712 247.674C311.311 247.907 310.835 248.024 310.284 248.024C309.687 248.024 309.155 247.884 308.688 247.604C308.231 247.324 307.871 246.927 307.61 246.414C307.358 245.901 307.232 245.308 307.232 244.636C307.232 243.964 307.358 243.371 307.61 242.858C307.871 242.345 308.231 241.948 308.688 241.668C309.155 241.388 309.687 241.248 310.284 241.248C310.825 241.248 311.297 241.365 311.698 241.598C312.099 241.831 312.403 242.163 312.608 242.592V241.836C312.608 241.668 312.655 241.533 312.748 241.43C312.851 241.327 312.991 241.276 313.168 241.276ZM310.508 247.086C311.161 247.086 311.675 246.871 312.048 246.442C312.421 246.003 312.608 245.401 312.608 244.636C312.608 243.88 312.421 243.287 312.048 242.858C311.684 242.419 311.171 242.2 310.508 242.2C309.845 242.2 309.323 242.419 308.94 242.858C308.567 243.287 308.38 243.88 308.38 244.636C308.38 245.401 308.567 246.003 308.94 246.442C309.323 246.871 309.845 247.086 310.508 247.086ZM316.401 248.304C316.177 248.304 315.99 248.234 315.841 248.094C315.692 247.945 315.617 247.753 315.617 247.52C315.617 247.287 315.692 247.095 315.841 246.946C315.99 246.797 316.177 246.722 316.401 246.722C316.616 246.722 316.793 246.797 316.933 246.946C317.082 247.095 317.157 247.287 317.157 247.52C317.157 247.753 317.082 247.945 316.933 248.094C316.793 248.234 316.616 248.304 316.401 248.304Z" fill="white"/>
</g>
<defs>
<filter id="filter0_d_1289_16633" x="140" y="99.2339" width="200" height="100" filterUnits="userSpaceOnUse" color-interpolation-filters="sRGB">
<feFlood flood-opacity="0" result="BackgroundImageFix"/>
<feColorMatrix in="SourceAlpha" type="matrix" values="0 0 0 0 0 0 0 0 0 0 0 0 0 0 0 0 0 0 127 0" result="hardAlpha"/>
<feOffset dy="10"/>
<feComposite in2="hardAlpha" operator="out"/>
<feColorMatrix type="matrix" values="0 0 0 0 1 0 0 0 0 1 0 0 0 0 1 0 0 0 0.1 0"/>
<feBlend mode="normal" in2="BackgroundImageFix" result="effect1_dropShadow_1289_16633"/>
<feBlend mode="normal" in="SourceGraphic" in2="effect1_dropShadow_1289_16633" result="shape"/>
</filter>
<filter id="filter1_d_1289_16633" x="182" y="204.234" width="158" height="80" filterUnits="userSpaceOnUse" color-interpolation-filters="sRGB">
<feFlood flood-opacity="0" result="BackgroundImageFix"/>
<feColorMatrix in="SourceAlpha" type="matrix" values="0 0 0 0 0 0 0 0 0 0 0 0 0 0 0 0 0 0 127 0" result="hardAlpha"/>
<feOffset dy="10"/>
<feComposite in2="hardAlpha" operator="out"/>
<feColorMatrix type="matrix" values="0 0 0 0 1 0 0 0 0 1 0 0 0 0 1 0 0 0 0.1 0"/>
<feBlend mode="normal" in2="BackgroundImageFix" result="effect1_dropShadow_1289_16633"/>
<feBlend mode="normal" in="SourceGraphic" in2="effect1_dropShadow_1289_16633" result="shape"/>
</filter>
<linearGradient id="paint0_linear_1289_16633" x1="219.821" y1="302.35" x2="219.821" y2="334.911" gradientUnits="userSpaceOnUse">
<stop stop-color="white"/>
<stop offset="1" stop-color="white" stop-opacity="0"/>
</linearGradient>
<linearGradient id="paint1_linear_1289_16633" x1="219.821" y1="302.35" x2="219.821" y2="334.911" gradientUnits="userSpaceOnUse">
<stop stop-color="white"/>
<stop offset="1" stop-color="white" stop-opacity="0"/>
</linearGradient>
<linearGradient id="paint2_linear_1289_16633" x1="63.1618" y1="174.35" x2="63.1617" y2="217.109" gradientUnits="userSpaceOnUse">
<stop stop-color="white"/>
<stop offset="1" stop-color="white" stop-opacity="0"/>
</linearGradient>
<linearGradient id="paint3_linear_1289_16633" x1="63.1618" y1="174.35" x2="63.1617" y2="217.109" gradientUnits="userSpaceOnUse">
<stop stop-color="white"/>
<stop offset="1" stop-color="white" stop-opacity="0"/>
</linearGradient>
<linearGradient id="paint4_linear_1289_16633" x1="416.498" y1="223.35" x2="416.498" y2="266.109" gradientUnits="userSpaceOnUse">
<stop stop-color="white"/>
<stop offset="1" stop-color="white" stop-opacity="0"/>
</linearGradient>
<linearGradient id="paint5_linear_1289_16633" x1="416.498" y1="223.35" x2="416.498" y2="266.109" gradientUnits="userSpaceOnUse">
<stop stop-color="white"/>
<stop offset="1" stop-color="white" stop-opacity="0"/>
</linearGradient>
<linearGradient id="paint6_linear_1289_16633" x1="110.638" y1="35.3502" x2="110.638" y2="67.0383" gradientUnits="userSpaceOnUse">
<stop stop-color="white"/>
<stop offset="1" stop-color="white" stop-opacity="0"/>
</linearGradient>
<linearGradient id="paint7_linear_1289_16633" x1="110.638" y1="35.3502" x2="110.638" y2="67.0383" gradientUnits="userSpaceOnUse">
<stop stop-color="white"/>
<stop offset="1" stop-color="white" stop-opacity="0"/>
</linearGradient>
<clipPath id="clip0_1289_16633">
<rect width="480" height="366" fill="white"/>
</clipPath>
</defs>
</svg>
