<svg width="19" height="19" viewBox="0 0 19 19" fill="none" xmlns="http://www.w3.org/2000/svg">
            <path d="M17.4776 -0.000488281H1.39349C0.623014 -0.000488281 0 0.60778 0 1.35982V17.5103C0 18.2623 0.623014 18.8743 1.39349 18.8743H17.4776C18.248 18.8743 18.8747 18.2623 18.8747 17.514V1.35982C18.8747 0.60778 18.248 -0.000488281 17.4776 -0.000488281ZM5.59975 16.0836H2.79803V7.07386H5.59975V16.0836ZM4.19889 5.84626C3.29939 5.84626 2.57316 5.12002 2.57316 4.22421C2.57316 3.3284 3.29939 2.60216 4.19889 2.60216C5.09471 2.60216 5.82094 3.3284 5.82094 4.22421C5.82094 5.11634 5.09471 5.84626 4.19889 5.84626ZM16.0841 16.0836H13.2861V11.7041C13.2861 10.6608 13.2676 9.31523 11.8299 9.31523C10.3737 9.31523 10.1525 10.4544 10.1525 11.6303V16.0836H7.3582V7.07386H10.042V8.30514H10.0788C10.4512 7.59734 11.3654 6.84898 12.7257 6.84898C15.5606 6.84898 16.0841 8.71434 16.0841 11.14V16.0836V16.0836Z" fill="#101010"/>
            </svg>