<svg width="282" height="90" viewBox="0 0 282 90" fill="none" xmlns="http://www.w3.org/2000/svg">
                <g clip-path="url(#clip0_2104_26891)">
                <path d="M54.7694 0.444336C54.7694 7.65539 51.9048 14.5711 46.8058 19.6701C41.7068 24.7691 34.7911 27.6336 27.5801 27.6336V0.444336H54.7694Z" fill="#03EB70"/>
                <path d="M27.5801 54.8231C27.5801 47.612 30.4447 40.6963 35.5436 35.5973C40.6426 30.4984 47.5583 27.6338 54.7694 27.6338V54.8231H27.5801Z" fill="#03EB70"/>
                <path d="M27.5802 54.8231C24.0093 54.8236 20.4732 54.1208 17.174 52.7546C13.8748 51.3885 10.8769 49.3858 8.35175 46.861C5.82655 44.3362 3.82342 41.3387 2.45677 38.0396C1.09012 34.7406 0.386719 31.2047 0.386719 27.6338H27.5802V54.8231Z" fill="#7A1CCA"/>
                <path d="M0.386719 0.444336C3.95762 0.44379 7.49366 1.14665 10.7929 2.5128C14.0921 3.87895 17.0899 5.88161 19.6151 8.40642C22.1403 10.9312 24.1435 13.9287 25.5101 17.2278C26.8768 20.5268 27.5802 24.0627 27.5802 27.6336H0.386719V0.444336Z" fill="#03EB70"/>
                <path d="M68.3684 51.5635V15.0416H94.0828L93.1777 21.59H76.4607V29.5758H92.0597V36.1242H76.4607V45.0151H93.3374L94.2425 51.5635H68.3684ZM106.522 28.3513C108.758 25.3344 111.651 23.826 115.2 23.826C117.969 23.826 120.24 24.5713 122.015 26.062C123.825 27.5527 124.73 29.7178 124.73 32.5572V51.5635H116.957V34.2608C116.957 32.8766 116.549 31.7408 115.733 30.8535C114.952 29.9307 113.94 29.4693 112.698 29.4693C111.314 29.4693 110.125 30.0017 109.131 31.0665C108.137 32.0958 107.64 33.3558 107.64 34.8464V51.5635H99.8675V24.3584H105.671L106.522 28.3513ZM131.581 13.2314H139.46V19.3539H131.581V13.2314ZM131.634 51.5635V24.3584H139.407V51.5635H131.634ZM154.224 27.4995C155.005 26.4702 156.035 25.6006 157.312 24.8908C158.626 24.1809 160.134 23.826 161.838 23.826C163.825 23.826 165.6 24.3406 167.162 25.3699C168.759 26.3992 170.019 27.9431 170.941 30.0017C171.864 32.0603 172.326 34.5625 172.326 37.5084V38.094C172.326 41.1819 171.829 43.7728 170.835 45.8669C169.841 47.961 168.493 49.5227 166.789 50.5519C165.085 51.5812 163.169 52.0959 161.039 52.0959C159.087 52.0959 157.348 51.7054 155.822 50.9246C154.295 50.1083 153.018 48.937 151.988 47.4108L151.083 48.7951C150.728 49.3984 150.391 49.9308 150.072 50.3922C149.752 50.8181 149.486 51.2086 149.273 51.5635H146.452V13.2314H154.224V27.4995ZM164.446 35.9112C164.446 33.8172 163.967 32.22 163.009 31.1197C162.051 30.0195 160.826 29.4693 159.335 29.4693C157.845 29.4693 156.62 30.0195 155.662 31.1197C154.704 32.22 154.224 33.8172 154.224 35.9112V40.3301C154.224 42.3886 154.704 43.9858 155.662 45.1216C156.62 46.2218 157.845 46.772 159.335 46.772C160.826 46.772 162.051 46.2218 163.009 45.1216C163.967 43.9858 164.446 42.3886 164.446 40.3301V35.9112ZM178.114 51.5635V13.2314H185.887V51.5635H178.114ZM219.23 38.7329C219.23 41.4658 218.645 43.8438 217.474 45.8669C216.338 47.89 214.758 49.4339 212.735 50.4987C210.712 51.5635 208.441 52.0959 205.921 52.0959H205.069C202.549 52.0959 200.277 51.5635 198.254 50.4987C196.231 49.4339 194.634 47.89 193.463 45.8669C192.327 43.8438 191.759 41.4658 191.759 38.7329V37.189C191.759 34.456 192.327 32.078 193.463 30.0549C194.634 28.0319 196.231 26.4879 198.254 25.4232C200.277 24.3584 202.549 23.826 205.069 23.826H205.921C208.441 23.826 210.712 24.3584 212.735 25.4232C214.758 26.4879 216.338 28.0319 217.474 30.0549C218.645 32.078 219.23 34.456 219.23 37.189V38.7329ZM211.351 35.8048C211.351 33.6397 210.801 31.9893 209.701 30.8535C208.636 29.7178 207.234 29.1499 205.495 29.1499C203.756 29.1499 202.336 29.7178 201.236 30.8535C200.171 31.9893 199.639 33.6397 199.639 35.8048V40.1171C199.639 42.2822 200.171 43.9326 201.236 45.0683C202.336 46.2041 203.756 46.772 205.495 46.772C207.234 46.772 208.636 46.2041 209.701 45.0683C210.801 43.9326 211.351 42.2822 211.351 40.1171V35.8048ZM231.665 40.543C231.665 42.3176 232.126 43.8083 233.049 45.0151C233.972 46.1863 235.214 46.772 236.776 46.772C238.409 46.772 239.686 46.2751 240.609 45.2813C241.568 44.252 242.047 42.7436 242.047 40.756H249.394C249.394 43.2759 248.843 45.3878 247.743 47.0914C246.678 48.7951 245.259 50.055 243.484 50.8714C241.709 51.6877 239.757 52.0959 237.628 52.0959H236.776C232.801 52.0959 229.642 50.9246 227.299 48.5821C224.957 46.2041 223.786 42.921 223.786 38.7329V37.189C223.786 34.4205 224.336 32.0425 225.436 30.0549C226.572 28.0319 228.116 26.4879 230.068 25.4232C232.02 24.3584 234.256 23.826 236.776 23.826H237.628C239.722 23.826 241.656 24.2874 243.431 25.2102C245.241 26.0975 246.678 27.4107 247.743 29.1499C248.843 30.8535 249.394 32.8766 249.394 35.2191H241.674C241.674 33.3735 241.266 31.9006 240.449 30.8003C239.633 29.7 238.426 29.1499 236.829 29.1499C235.232 29.1499 233.972 29.7887 233.049 31.0665C232.126 32.3087 231.665 33.8881 231.665 35.8048V40.543ZM272.466 51.5635L266.025 42.6726L262.99 45.6007V51.5635H255.217V13.2314H262.99V37.0292L272.52 24.3584H281.304L271.295 37.1357L281.73 51.5635H272.466Z" fill="#101010"/>
                </g>
                <path d="M1.792 85.6097C1.60533 85.6097 1.46067 85.5584 1.358 85.4557C1.26467 85.3437 1.218 85.1944 1.218 85.0077V76.2297C1.218 76.0337 1.26933 75.8891 1.372 75.7957C1.47467 75.6931 1.61933 75.6417 1.806 75.6417H5.124C6.17867 75.6417 6.99067 75.9031 7.56 76.4257C8.12933 76.9391 8.414 77.6671 8.414 78.6097C8.414 79.5431 8.12933 80.2711 7.56 80.7937C6.99067 81.3164 6.17867 81.5777 5.124 81.5777H2.366V85.0077C2.366 85.1944 2.31933 85.3437 2.226 85.4557C2.13267 85.5584 1.988 85.6097 1.792 85.6097ZM2.366 80.6117H4.984C5.74 80.6117 6.30933 80.4437 6.692 80.1077C7.084 79.7624 7.28 79.2631 7.28 78.6097C7.28 77.9471 7.084 77.4477 6.692 77.1117C6.30933 76.7664 5.74 76.5937 4.984 76.5937H2.366V80.6117ZM12.4506 85.6377C11.7879 85.6377 11.2139 85.4931 10.7286 85.2037C10.2433 84.9144 9.86526 84.5084 9.59459 83.9857C9.33326 83.4537 9.20259 82.8284 9.20259 82.1097C9.20259 81.5684 9.27726 81.0831 9.42659 80.6537C9.57593 80.2151 9.79526 79.8417 10.0846 79.5337C10.3739 79.2257 10.7146 78.9924 11.1066 78.8337C11.5079 78.6657 11.9559 78.5817 12.4506 78.5817C13.1133 78.5817 13.6873 78.7264 14.1726 79.0157C14.6579 79.3051 15.0313 79.7157 15.2926 80.2477C15.5633 80.7704 15.6986 81.3911 15.6986 82.1097C15.6986 82.6511 15.6239 83.1364 15.4746 83.5657C15.3253 83.9951 15.1059 84.3684 14.8166 84.6857C14.5273 84.9937 14.1819 85.2317 13.7806 85.3997C13.3886 85.5584 12.9453 85.6377 12.4506 85.6377ZM12.4506 84.7277C12.8706 84.7277 13.2393 84.6251 13.5566 84.4197C13.8739 84.2144 14.1166 83.9157 14.2846 83.5237C14.4619 83.1317 14.5506 82.6604 14.5506 82.1097C14.5506 81.2604 14.3593 80.6117 13.9766 80.1637C13.6033 79.7157 13.0946 79.4917 12.4506 79.4917C12.0213 79.4917 11.6479 79.5944 11.3306 79.7997C11.0226 79.9957 10.7799 80.2897 10.6026 80.6817C10.4346 81.0644 10.3506 81.5404 10.3506 82.1097C10.3506 82.9497 10.5419 83.5984 10.9246 84.0557C11.3073 84.5037 11.8159 84.7277 12.4506 84.7277ZM19.6582 85.6097C19.4995 85.6097 19.3595 85.5677 19.2382 85.4837C19.1169 85.3997 19.0189 85.2644 18.9442 85.0777L16.8582 79.4077C16.8022 79.2491 16.7835 79.1091 16.8022 78.9877C16.8302 78.8664 16.8909 78.7731 16.9842 78.7077C17.0775 78.6424 17.1942 78.6097 17.3342 78.6097C17.4742 78.6097 17.5862 78.6424 17.6702 78.7077C17.7635 78.7731 17.8382 78.8944 17.8942 79.0717L19.8542 84.6717H19.5182L21.5342 79.0717C21.5995 78.9037 21.6789 78.7871 21.7722 78.7217C21.8749 78.6471 22.0055 78.6097 22.1642 78.6097C22.3135 78.6097 22.4395 78.6471 22.5422 78.7217C22.6449 78.7964 22.7242 78.9131 22.7802 79.0717L24.7542 84.6717H24.4322L26.4202 79.0437C26.4855 78.8757 26.5649 78.7637 26.6582 78.7077C26.7515 78.6424 26.8635 78.6097 26.9942 78.6097C27.1435 78.6097 27.2555 78.6471 27.3302 78.7217C27.4142 78.7964 27.4609 78.8944 27.4702 79.0157C27.4795 79.1371 27.4562 79.2677 27.4002 79.4077L25.3142 85.0777C25.2489 85.2551 25.1509 85.3904 25.0202 85.4837C24.8989 85.5677 24.7589 85.6097 24.6002 85.6097C24.4415 85.6097 24.3015 85.5677 24.1802 85.4837C24.0589 85.3904 23.9655 85.2551 23.9002 85.0777L21.8282 79.3937H22.4302L20.3722 85.0777C20.3069 85.2551 20.2135 85.3904 20.0922 85.4837C19.9709 85.5677 19.8262 85.6097 19.6582 85.6097ZM32.048 85.6377C31.3293 85.6377 30.7086 85.4977 30.186 85.2177C29.6726 84.9284 29.2713 84.5224 28.982 83.9997C28.702 83.4771 28.562 82.8517 28.562 82.1237C28.562 81.4144 28.702 80.7984 28.982 80.2757C29.262 79.7437 29.6446 79.3284 30.13 79.0297C30.6246 78.7311 31.194 78.5817 31.838 78.5817C32.2953 78.5817 32.706 78.6611 33.07 78.8197C33.434 78.9691 33.742 79.1884 33.994 79.4777C34.2553 79.7671 34.4513 80.1171 34.582 80.5277C34.722 80.9384 34.792 81.4004 34.792 81.9137C34.792 82.0631 34.75 82.1751 34.666 82.2497C34.582 82.3151 34.4606 82.3477 34.302 82.3477H29.43V81.6057H34.036L33.812 81.7877C33.812 81.2837 33.7373 80.8591 33.588 80.5137C33.4386 80.1591 33.2193 79.8884 32.93 79.7017C32.65 79.5151 32.2953 79.4217 31.866 79.4217C31.39 79.4217 30.984 79.5337 30.648 79.7577C30.3213 79.9724 30.074 80.2757 29.906 80.6677C29.738 81.0504 29.654 81.4984 29.654 82.0117V82.0957C29.654 82.9544 29.8593 83.6077 30.27 84.0557C30.69 84.5037 31.2826 84.7277 32.048 84.7277C32.3653 84.7277 32.678 84.6857 32.986 84.6017C33.3033 84.5177 33.6113 84.3777 33.91 84.1817C34.0406 84.0977 34.1573 84.0604 34.26 84.0697C34.372 84.0697 34.4606 84.1024 34.526 84.1677C34.5913 84.2237 34.6333 84.2984 34.652 84.3917C34.68 84.4757 34.6706 84.5691 34.624 84.6717C34.5866 84.7744 34.5073 84.8631 34.386 84.9377C34.078 85.1617 33.714 85.3344 33.294 85.4557C32.874 85.5771 32.4586 85.6377 32.048 85.6377ZM37.0071 85.6097C36.8205 85.6097 36.6758 85.5584 36.5731 85.4557C36.4798 85.3531 36.4331 85.2084 36.4331 85.0217V79.1837C36.4331 78.9971 36.4798 78.8571 36.5731 78.7637C36.6665 78.6611 36.8018 78.6097 36.9791 78.6097C37.1565 78.6097 37.2918 78.6611 37.3851 78.7637C37.4878 78.8571 37.5391 78.9971 37.5391 79.1837V80.3177H37.3991C37.5485 79.7671 37.8331 79.3424 38.2531 79.0437C38.6731 78.7451 39.1911 78.5864 39.8071 78.5677C39.9471 78.5584 40.0591 78.5911 40.1431 78.6657C40.2271 78.7311 40.2738 78.8477 40.2831 79.0157C40.2925 79.1744 40.2551 79.3004 40.1711 79.3937C40.0871 79.4871 39.9565 79.5431 39.7791 79.5617L39.5551 79.5897C38.9205 79.6457 38.4305 79.8511 38.0851 80.2057C37.7491 80.5511 37.5811 81.0271 37.5811 81.6337V85.0217C37.5811 85.2084 37.5298 85.3531 37.4271 85.4557C37.3338 85.5584 37.1938 85.6097 37.0071 85.6097ZM44.4347 85.6377C43.716 85.6377 43.0954 85.4977 42.5727 85.2177C42.0594 84.9284 41.658 84.5224 41.3687 83.9997C41.0887 83.4771 40.9487 82.8517 40.9487 82.1237C40.9487 81.4144 41.0887 80.7984 41.3687 80.2757C41.6487 79.7437 42.0314 79.3284 42.5167 79.0297C43.0114 78.7311 43.5807 78.5817 44.2247 78.5817C44.682 78.5817 45.0927 78.6611 45.4567 78.8197C45.8207 78.9691 46.1287 79.1884 46.3807 79.4777C46.642 79.7671 46.838 80.1171 46.9687 80.5277C47.1087 80.9384 47.1787 81.4004 47.1787 81.9137C47.1787 82.0631 47.1367 82.1751 47.0527 82.2497C46.9687 82.3151 46.8474 82.3477 46.6887 82.3477H41.8167V81.6057H46.4227L46.1987 81.7877C46.1987 81.2837 46.124 80.8591 45.9747 80.5137C45.8254 80.1591 45.606 79.8884 45.3167 79.7017C45.0367 79.5151 44.682 79.4217 44.2527 79.4217C43.7767 79.4217 43.3707 79.5337 43.0347 79.7577C42.708 79.9724 42.4607 80.2757 42.2927 80.6677C42.1247 81.0504 42.0407 81.4984 42.0407 82.0117V82.0957C42.0407 82.9544 42.246 83.6077 42.6567 84.0557C43.0767 84.5037 43.6694 84.7277 44.4347 84.7277C44.752 84.7277 45.0647 84.6857 45.3727 84.6017C45.69 84.5177 45.998 84.3777 46.2967 84.1817C46.4274 84.0977 46.544 84.0604 46.6467 84.0697C46.7587 84.0697 46.8474 84.1024 46.9127 84.1677C46.978 84.2237 47.02 84.2984 47.0387 84.3917C47.0667 84.4757 47.0574 84.5691 47.0107 84.6717C46.9734 84.7744 46.894 84.8631 46.7727 84.9377C46.4647 85.1617 46.1007 85.3344 45.6807 85.4557C45.2607 85.5771 44.8454 85.6377 44.4347 85.6377ZM51.4099 85.6377C50.8032 85.6377 50.2712 85.4931 49.8139 85.2037C49.3659 84.9144 49.0159 84.5084 48.7639 83.9857C48.5212 83.4537 48.3999 82.8284 48.3999 82.1097C48.3999 81.3817 48.5212 80.7564 48.7639 80.2337C49.0159 79.7017 49.3659 79.2957 49.8139 79.0157C50.2712 78.7264 50.8032 78.5817 51.4099 78.5817C52.0259 78.5817 52.5532 78.7357 52.9919 79.0437C53.4305 79.3517 53.7245 79.7671 53.8739 80.2897H53.7199V76.1177C53.7199 75.9311 53.7665 75.7911 53.8599 75.6977C53.9625 75.5951 54.1072 75.5437 54.2939 75.5437C54.4712 75.5437 54.6065 75.5951 54.6999 75.6977C54.8025 75.7911 54.8539 75.9311 54.8539 76.1177V85.0217C54.8539 85.2084 54.8072 85.3531 54.7139 85.4557C54.6205 85.5584 54.4805 85.6097 54.2939 85.6097C54.1165 85.6097 53.9765 85.5584 53.8739 85.4557C53.7805 85.3531 53.7339 85.2084 53.7339 85.0217V83.6917L53.8879 83.8877C53.7385 84.4197 53.4399 84.8444 52.9919 85.1617C52.5532 85.4791 52.0259 85.6377 51.4099 85.6377ZM51.6479 84.7277C52.0679 84.7277 52.4365 84.6251 52.7539 84.4197C53.0712 84.2144 53.3139 83.9157 53.4819 83.5237C53.6592 83.1317 53.7479 82.6604 53.7479 82.1097C53.7479 81.2604 53.5565 80.6117 53.1739 80.1637C52.8005 79.7157 52.2919 79.4917 51.6479 79.4917C51.2185 79.4917 50.8452 79.5944 50.5279 79.7997C50.2199 79.9957 49.9772 80.2897 49.7999 80.6817C49.6319 81.0644 49.5479 81.5404 49.5479 82.1097C49.5479 82.9497 49.7392 83.5984 50.1219 84.0557C50.5045 84.5037 51.0132 84.7277 51.6479 84.7277ZM64.0353 85.6377C63.4193 85.6377 62.8873 85.4791 62.4393 85.1617C62.0007 84.8444 61.7067 84.4197 61.5573 83.8877L61.7113 83.7337V85.0217C61.7113 85.2084 61.66 85.3531 61.5573 85.4557C61.464 85.5584 61.3287 85.6097 61.1513 85.6097C60.9647 85.6097 60.8247 85.5584 60.7313 85.4557C60.638 85.3531 60.5913 85.2084 60.5913 85.0217V76.1177C60.5913 75.9311 60.638 75.7911 60.7313 75.6977C60.8247 75.5951 60.9647 75.5437 61.1513 75.5437C61.3287 75.5437 61.4687 75.5951 61.5713 75.6977C61.674 75.7911 61.7253 75.9311 61.7253 76.1177V80.2897H61.5573C61.716 79.7671 62.0147 79.3517 62.4533 79.0437C62.892 78.7357 63.4193 78.5817 64.0353 78.5817C64.6513 78.5817 65.1833 78.7264 65.6313 79.0157C66.0793 79.2957 66.4247 79.7017 66.6673 80.2337C66.9193 80.7564 67.0453 81.3817 67.0453 82.1097C67.0453 82.8284 66.9193 83.4537 66.6673 83.9857C66.4247 84.5084 66.0747 84.9144 65.6173 85.2037C65.1693 85.4931 64.642 85.6377 64.0353 85.6377ZM63.7973 84.7277C64.2267 84.7277 64.5953 84.6251 64.9033 84.4197C65.2207 84.2144 65.4633 83.9157 65.6313 83.5237C65.8087 83.1317 65.8973 82.6604 65.8973 82.1097C65.8973 81.2604 65.706 80.6117 65.3233 80.1637C64.95 79.7157 64.4413 79.4917 63.7973 79.4917C63.3773 79.4917 63.0087 79.5944 62.6913 79.7997C62.374 79.9957 62.1267 80.2897 61.9493 80.6817C61.7813 81.0644 61.6973 81.5404 61.6973 82.1097C61.6973 82.9497 61.8887 83.5984 62.2713 84.0557C62.654 84.5037 63.1627 84.7277 63.7973 84.7277ZM70.1698 88.1297C70.0298 88.1297 69.9178 88.0924 69.8338 88.0177C69.7498 87.9431 69.6984 87.8404 69.6798 87.7097C69.6704 87.5884 69.6938 87.4624 69.7498 87.3317L70.7158 85.1617V85.6517L68.0278 79.4077C67.9718 79.2677 67.9531 79.1371 67.9718 79.0157C67.9904 78.8944 68.0464 78.7964 68.1398 78.7217C68.2331 78.6471 68.3638 78.6097 68.5318 78.6097C68.6811 78.6097 68.7978 78.6424 68.8818 78.7077C68.9658 78.7731 69.0404 78.8897 69.1058 79.0577L71.4018 84.6857H71.0238L73.3478 79.0577C73.4224 78.8897 73.5018 78.7731 73.5858 78.7077C73.6698 78.6424 73.7911 78.6097 73.9498 78.6097C74.0991 78.6097 74.2111 78.6471 74.2858 78.7217C74.3698 78.7964 74.4164 78.8944 74.4258 79.0157C74.4444 79.1277 74.4258 79.2537 74.3698 79.3937L70.7858 87.6817C70.7111 87.8497 70.6271 87.9664 70.5338 88.0317C70.4498 88.0971 70.3284 88.1297 70.1698 88.1297ZM82.6085 85.6097C82.4312 85.6097 82.2912 85.5584 82.1885 85.4557C82.0859 85.3437 82.0345 85.1944 82.0345 85.0077V76.6357H78.8845C78.7165 76.6357 78.5859 76.5891 78.4925 76.4957C78.3992 76.4024 78.3525 76.2811 78.3525 76.1317C78.3525 75.9731 78.3992 75.8517 78.4925 75.7677C78.5859 75.6837 78.7165 75.6417 78.8845 75.6417H86.3465C86.5145 75.6417 86.6452 75.6837 86.7385 75.7677C86.8319 75.8517 86.8785 75.9731 86.8785 76.1317C86.8785 76.2904 86.8319 76.4164 86.7385 76.5097C86.6452 76.5937 86.5145 76.6357 86.3465 76.6357H83.1965V85.0077C83.1965 85.1944 83.1452 85.3437 83.0425 85.4557C82.9492 85.5584 82.8045 85.6097 82.6085 85.6097ZM88.7959 85.6097C88.6092 85.6097 88.4692 85.5584 88.3759 85.4557C88.2825 85.3531 88.2359 85.2084 88.2359 85.0217V76.1177C88.2359 75.9311 88.2825 75.7911 88.3759 75.6977C88.4692 75.5951 88.6092 75.5437 88.7959 75.5437C88.9732 75.5437 89.1132 75.5951 89.2159 75.6977C89.3185 75.7911 89.3699 75.9311 89.3699 76.1177V80.2197H89.1879C89.3839 79.6784 89.7012 79.2724 90.1399 79.0017C90.5879 78.7217 91.1012 78.5817 91.6799 78.5817C92.2212 78.5817 92.6692 78.6797 93.0239 78.8757C93.3879 79.0717 93.6585 79.3704 93.8359 79.7717C94.0132 80.1637 94.1019 80.6631 94.1019 81.2697V85.0217C94.1019 85.2084 94.0505 85.3531 93.9479 85.4557C93.8545 85.5584 93.7192 85.6097 93.5419 85.6097C93.3552 85.6097 93.2105 85.5584 93.1079 85.4557C93.0145 85.3531 92.9679 85.2084 92.9679 85.0217V81.3397C92.9679 80.7051 92.8419 80.2431 92.5899 79.9537C92.3472 79.6551 91.9552 79.5057 91.4139 79.5057C90.7885 79.5057 90.2892 79.7017 89.9159 80.0937C89.5519 80.4764 89.3699 80.9897 89.3699 81.6337V85.0217C89.3699 85.4137 89.1785 85.6097 88.7959 85.6097ZM99.2589 85.6377C98.5402 85.6377 97.9196 85.4977 97.3969 85.2177C96.8836 84.9284 96.4822 84.5224 96.1929 83.9997C95.9129 83.4771 95.7729 82.8517 95.7729 82.1237C95.7729 81.4144 95.9129 80.7984 96.1929 80.2757C96.4729 79.7437 96.8556 79.3284 97.3409 79.0297C97.8356 78.7311 98.4049 78.5817 99.0489 78.5817C99.5062 78.5817 99.9169 78.6611 100.281 78.8197C100.645 78.9691 100.953 79.1884 101.205 79.4777C101.466 79.7671 101.662 80.1171 101.793 80.5277C101.933 80.9384 102.003 81.4004 102.003 81.9137C102.003 82.0631 101.961 82.1751 101.877 82.2497C101.793 82.3151 101.672 82.3477 101.513 82.3477H96.6409V81.6057H101.247L101.023 81.7877C101.023 81.2837 100.948 80.8591 100.799 80.5137C100.65 80.1591 100.43 79.8884 100.141 79.7017C99.8609 79.5151 99.5062 79.4217 99.0769 79.4217C98.6009 79.4217 98.1949 79.5337 97.8589 79.7577C97.5322 79.9724 97.2849 80.2757 97.1169 80.6677C96.9489 81.0504 96.8649 81.4984 96.8649 82.0117V82.0957C96.8649 82.9544 97.0702 83.6077 97.4809 84.0557C97.9009 84.5037 98.4936 84.7277 99.2589 84.7277C99.5762 84.7277 99.8889 84.6857 100.197 84.6017C100.514 84.5177 100.822 84.3777 101.121 84.1817C101.252 84.0977 101.368 84.0604 101.471 84.0697C101.583 84.0697 101.672 84.1024 101.737 84.1677C101.802 84.2237 101.844 84.2984 101.863 84.3917C101.891 84.4757 101.882 84.5691 101.835 84.6717C101.798 84.7744 101.718 84.8631 101.597 84.9377C101.289 85.1617 100.925 85.3344 100.505 85.4557C100.085 85.5771 99.6696 85.6377 99.2589 85.6377ZM108.037 85.5117C107.832 85.5117 107.673 85.4604 107.561 85.3577C107.459 85.2457 107.407 85.0871 107.407 84.8817V76.2717C107.407 76.0664 107.459 75.9124 107.561 75.8097C107.673 75.6977 107.832 75.6417 108.037 75.6417H111.355C112.037 75.6417 112.611 75.7444 113.077 75.9497C113.553 76.1457 113.917 76.4351 114.169 76.8177C114.421 77.2004 114.547 77.6671 114.547 78.2177C114.547 78.8337 114.365 79.3471 114.001 79.7577C113.647 80.1684 113.161 80.4391 112.545 80.5697V80.3737C113.245 80.4577 113.791 80.7097 114.183 81.1297C114.585 81.5497 114.785 82.1051 114.785 82.7957C114.785 83.6731 114.501 84.3451 113.931 84.8117C113.362 85.2784 112.559 85.5117 111.523 85.5117H108.037ZM108.527 84.5877H111.411C112.158 84.5877 112.718 84.4384 113.091 84.1397C113.465 83.8411 113.651 83.3884 113.651 82.7817C113.651 82.1657 113.465 81.7131 113.091 81.4237C112.718 81.1251 112.158 80.9757 111.411 80.9757H108.527V84.5877ZM108.527 80.0517H111.187C111.915 80.0517 112.466 79.9024 112.839 79.6037C113.222 79.3051 113.413 78.8757 113.413 78.3157C113.413 77.7371 113.222 77.3031 112.839 77.0137C112.466 76.7151 111.915 76.5657 111.187 76.5657H108.527V80.0517ZM118.786 85.6377C118.114 85.6377 117.601 85.4324 117.246 85.0217C116.892 84.6111 116.714 84.0231 116.714 83.2577V76.1177C116.714 75.9311 116.761 75.7911 116.854 75.6977C116.948 75.5951 117.088 75.5437 117.274 75.5437C117.452 75.5437 117.592 75.5951 117.694 75.6977C117.797 75.7911 117.848 75.9311 117.848 76.1177V83.1737C117.848 83.6777 117.946 84.0557 118.142 84.3077C118.348 84.5504 118.646 84.6717 119.038 84.6717C119.122 84.6717 119.197 84.6671 119.262 84.6577C119.328 84.6484 119.393 84.6437 119.458 84.6437C119.561 84.6344 119.631 84.6577 119.668 84.7137C119.715 84.7697 119.738 84.8817 119.738 85.0497C119.738 85.2177 119.701 85.3437 119.626 85.4277C119.552 85.5117 119.43 85.5677 119.262 85.5957C119.188 85.6051 119.108 85.6144 119.024 85.6237C118.94 85.6331 118.861 85.6377 118.786 85.6377ZM123.617 85.6377C122.954 85.6377 122.38 85.4931 121.895 85.2037C121.409 84.9144 121.031 84.5084 120.761 83.9857C120.499 83.4537 120.369 82.8284 120.369 82.1097C120.369 81.5684 120.443 81.0831 120.593 80.6537C120.742 80.2151 120.961 79.8417 121.251 79.5337C121.54 79.2257 121.881 78.9924 122.273 78.8337C122.674 78.6657 123.122 78.5817 123.617 78.5817C124.279 78.5817 124.853 78.7264 125.339 79.0157C125.824 79.3051 126.197 79.7157 126.459 80.2477C126.729 80.7704 126.865 81.3911 126.865 82.1097C126.865 82.6511 126.79 83.1364 126.641 83.5657C126.491 83.9951 126.272 84.3684 125.983 84.6857C125.693 84.9937 125.348 85.2317 124.947 85.3997C124.555 85.5584 124.111 85.6377 123.617 85.6377ZM123.617 84.7277C124.037 84.7277 124.405 84.6251 124.723 84.4197C125.04 84.2144 125.283 83.9157 125.451 83.5237C125.628 83.1317 125.717 82.6604 125.717 82.1097C125.717 81.2604 125.525 80.6117 125.143 80.1637C124.769 79.7157 124.261 79.4917 123.617 79.4917C123.187 79.4917 122.814 79.5944 122.497 79.7997C122.189 79.9957 121.946 80.2897 121.769 80.6817C121.601 81.0644 121.517 81.5404 121.517 82.1097C121.517 82.9497 121.708 83.5984 122.091 84.0557C122.473 84.5037 122.982 84.7277 123.617 84.7277ZM131.452 85.6377C130.771 85.6377 130.183 85.4884 129.688 85.1897C129.193 84.8911 128.811 84.4757 128.54 83.9437C128.279 83.4024 128.148 82.7771 128.148 82.0677C128.148 81.5264 128.223 81.0411 128.372 80.6117C128.521 80.1824 128.741 79.8184 129.03 79.5197C129.319 79.2117 129.665 78.9784 130.066 78.8197C130.477 78.6611 130.939 78.5817 131.452 78.5817C131.788 78.5817 132.138 78.6331 132.502 78.7357C132.866 78.8384 133.197 79.0157 133.496 79.2677C133.589 79.3331 133.65 79.4124 133.678 79.5057C133.706 79.5991 133.706 79.6924 133.678 79.7857C133.65 79.8697 133.603 79.9444 133.538 80.0097C133.473 80.0657 133.389 80.0984 133.286 80.1077C133.193 80.1171 133.095 80.0844 132.992 80.0097C132.749 79.8231 132.502 79.6924 132.25 79.6177C131.998 79.5431 131.755 79.5057 131.522 79.5057C131.158 79.5057 130.841 79.5664 130.57 79.6877C130.299 79.7997 130.071 79.9631 129.884 80.1777C129.697 80.3924 129.553 80.6584 129.45 80.9757C129.357 81.2931 129.31 81.6617 129.31 82.0817C129.31 82.8937 129.501 83.5377 129.884 84.0137C130.267 84.4804 130.813 84.7137 131.522 84.7137C131.755 84.7137 131.993 84.6764 132.236 84.6017C132.488 84.5271 132.74 84.3964 132.992 84.2097C133.095 84.1351 133.193 84.1024 133.286 84.1117C133.379 84.1211 133.459 84.1584 133.524 84.2237C133.589 84.2797 133.631 84.3544 133.65 84.4477C133.678 84.5411 133.678 84.6344 133.65 84.7277C133.622 84.8117 133.561 84.8864 133.468 84.9517C133.169 85.1944 132.843 85.3717 132.488 85.4837C132.133 85.5864 131.788 85.6377 131.452 85.6377ZM135.608 85.6097C135.422 85.6097 135.282 85.5584 135.188 85.4557C135.095 85.3531 135.048 85.2084 135.048 85.0217V76.1177C135.048 75.9311 135.095 75.7911 135.188 75.6977C135.282 75.5951 135.422 75.5437 135.608 75.5437C135.786 75.5437 135.926 75.5951 136.028 75.6977C136.131 75.7911 136.182 75.9311 136.182 76.1177V81.7317H136.21L139.08 78.9877C139.211 78.8664 139.323 78.7731 139.416 78.7077C139.519 78.6424 139.654 78.6097 139.822 78.6097C139.972 78.6097 140.088 78.6517 140.172 78.7357C140.256 78.8104 140.294 78.9084 140.284 79.0297C140.284 79.1417 140.228 79.2631 140.116 79.3937L137.064 82.2917V81.6757L140.382 84.7977C140.513 84.9284 140.578 85.0544 140.578 85.1757C140.578 85.2971 140.532 85.3997 140.438 85.4837C140.354 85.5677 140.242 85.6097 140.102 85.6097C139.934 85.6097 139.799 85.5771 139.696 85.5117C139.594 85.4371 139.468 85.3297 139.318 85.1897L136.21 82.3197H136.182V85.0217C136.182 85.4137 135.991 85.6097 135.608 85.6097ZM144.755 85.6377C144.073 85.6377 143.485 85.4884 142.991 85.1897C142.496 84.8911 142.113 84.4757 141.843 83.9437C141.581 83.4024 141.451 82.7771 141.451 82.0677C141.451 81.5264 141.525 81.0411 141.675 80.6117C141.824 80.1824 142.043 79.8184 142.333 79.5197C142.622 79.2117 142.967 78.9784 143.369 78.8197C143.779 78.6611 144.241 78.5817 144.755 78.5817C145.091 78.5817 145.441 78.6331 145.805 78.7357C146.169 78.8384 146.5 79.0157 146.799 79.2677C146.892 79.3331 146.953 79.4124 146.981 79.5057C147.009 79.5991 147.009 79.6924 146.981 79.7857C146.953 79.8697 146.906 79.9444 146.841 80.0097C146.775 80.0657 146.691 80.0984 146.589 80.1077C146.495 80.1171 146.397 80.0844 146.295 80.0097C146.052 79.8231 145.805 79.6924 145.553 79.6177C145.301 79.5431 145.058 79.5057 144.825 79.5057C144.461 79.5057 144.143 79.5664 143.873 79.6877C143.602 79.7997 143.373 79.9631 143.187 80.1777C143 80.3924 142.855 80.6584 142.753 80.9757C142.659 81.2931 142.613 81.6617 142.613 82.0817C142.613 82.8937 142.804 83.5377 143.187 84.0137C143.569 84.4804 144.115 84.7137 144.825 84.7137C145.058 84.7137 145.296 84.6764 145.539 84.6017C145.791 84.5271 146.043 84.3964 146.295 84.2097C146.397 84.1351 146.495 84.1024 146.589 84.1117C146.682 84.1211 146.761 84.1584 146.827 84.2237C146.892 84.2797 146.934 84.3544 146.953 84.4477C146.981 84.5411 146.981 84.6344 146.953 84.7277C146.925 84.8117 146.864 84.8864 146.771 84.9517C146.472 85.1944 146.145 85.3717 145.791 85.4837C145.436 85.5864 145.091 85.6377 144.755 85.6377ZM148.911 85.6097C148.724 85.6097 148.584 85.5584 148.491 85.4557C148.398 85.3531 148.351 85.2084 148.351 85.0217V76.1177C148.351 75.9311 148.398 75.7911 148.491 75.6977C148.584 75.5951 148.724 75.5437 148.911 75.5437C149.088 75.5437 149.228 75.5951 149.331 75.6977C149.434 75.7911 149.485 75.9311 149.485 76.1177V80.2197H149.303C149.499 79.6784 149.816 79.2724 150.255 79.0017C150.703 78.7217 151.216 78.5817 151.795 78.5817C152.336 78.5817 152.784 78.6797 153.139 78.8757C153.503 79.0717 153.774 79.3704 153.951 79.7717C154.128 80.1637 154.217 80.6631 154.217 81.2697V85.0217C154.217 85.2084 154.166 85.3531 154.063 85.4557C153.97 85.5584 153.834 85.6097 153.657 85.6097C153.47 85.6097 153.326 85.5584 153.223 85.4557C153.13 85.3531 153.083 85.2084 153.083 85.0217V81.3397C153.083 80.7051 152.957 80.2431 152.705 79.9537C152.462 79.6551 152.07 79.5057 151.529 79.5057C150.904 79.5057 150.404 79.7017 150.031 80.0937C149.667 80.4764 149.485 80.9897 149.485 81.6337V85.0217C149.485 85.4137 149.294 85.6097 148.911 85.6097ZM158.45 85.6377C157.983 85.6377 157.563 85.5491 157.19 85.3717C156.826 85.1851 156.537 84.9331 156.322 84.6157C156.107 84.2984 156 83.9437 156 83.5517C156 83.0477 156.126 82.6511 156.378 82.3617C156.639 82.0724 157.064 81.8671 157.652 81.7457C158.249 81.6244 159.061 81.5637 160.088 81.5637H160.718V82.3057H160.102C159.346 82.3057 158.749 82.3431 158.31 82.4177C157.881 82.4831 157.577 82.5997 157.4 82.7677C157.232 82.9357 157.148 83.1737 157.148 83.4817C157.148 83.8644 157.279 84.1771 157.54 84.4197C157.811 84.6624 158.175 84.7837 158.632 84.7837C159.005 84.7837 159.332 84.6951 159.612 84.5177C159.901 84.3404 160.125 84.0977 160.284 83.7897C160.452 83.4817 160.536 83.1271 160.536 82.7257V81.1297C160.536 80.5511 160.419 80.1357 160.186 79.8837C159.953 79.6224 159.57 79.4917 159.038 79.4917C158.711 79.4917 158.385 79.5337 158.058 79.6177C157.731 79.7017 157.386 79.8371 157.022 80.0237C156.891 80.0891 156.779 80.1124 156.686 80.0937C156.593 80.0657 156.518 80.0144 156.462 79.9397C156.406 79.8651 156.373 79.7811 156.364 79.6877C156.355 79.5851 156.373 79.4871 156.42 79.3937C156.476 79.3004 156.56 79.2257 156.672 79.1697C157.083 78.9644 157.489 78.8151 157.89 78.7217C158.291 78.6284 158.674 78.5817 159.038 78.5817C159.626 78.5817 160.111 78.6797 160.494 78.8757C160.877 79.0624 161.161 79.3517 161.348 79.7437C161.535 80.1264 161.628 80.6211 161.628 81.2277V85.0217C161.628 85.2084 161.581 85.3531 161.488 85.4557C161.404 85.5584 161.278 85.6097 161.11 85.6097C160.933 85.6097 160.797 85.5584 160.704 85.4557C160.611 85.3531 160.564 85.2084 160.564 85.0217V83.9297H160.69C160.615 84.2844 160.471 84.5877 160.256 84.8397C160.051 85.0917 159.794 85.2877 159.486 85.4277C159.178 85.5677 158.833 85.6377 158.45 85.6377ZM164.292 85.5817C164.105 85.5817 163.965 85.5304 163.872 85.4277C163.779 85.3157 163.732 85.1617 163.732 84.9657V79.2397C163.732 79.0437 163.779 78.8944 163.872 78.7917C163.965 78.6891 164.105 78.6377 164.292 78.6377C164.469 78.6377 164.609 78.6891 164.712 78.7917C164.815 78.8944 164.866 79.0437 164.866 79.2397V84.9657C164.866 85.1617 164.815 85.3157 164.712 85.4277C164.619 85.5304 164.479 85.5817 164.292 85.5817ZM164.292 77.0697C164.059 77.0697 163.877 77.0091 163.746 76.8877C163.615 76.7571 163.55 76.5844 163.55 76.3697C163.55 76.1457 163.615 75.9777 163.746 75.8657C163.877 75.7444 164.059 75.6837 164.292 75.6837C164.535 75.6837 164.717 75.7444 164.838 75.8657C164.969 75.9777 165.034 76.1457 165.034 76.3697C165.034 76.5844 164.969 76.7571 164.838 76.8877C164.717 77.0091 164.535 77.0697 164.292 77.0697ZM167.546 85.6097C167.359 85.6097 167.219 85.5584 167.126 85.4557C167.033 85.3531 166.986 85.2084 166.986 85.0217V79.1837C166.986 78.9971 167.033 78.8571 167.126 78.7637C167.219 78.6611 167.355 78.6097 167.532 78.6097C167.709 78.6097 167.845 78.6611 167.938 78.7637C168.041 78.8571 168.092 78.9971 168.092 79.1837V80.3877L167.938 80.2197C168.134 79.6784 168.451 79.2724 168.89 79.0017C169.338 78.7217 169.851 78.5817 170.43 78.5817C170.971 78.5817 171.419 78.6797 171.774 78.8757C172.138 79.0717 172.409 79.3704 172.586 79.7717C172.763 80.1637 172.852 80.6631 172.852 81.2697V85.0217C172.852 85.2084 172.801 85.3531 172.698 85.4557C172.605 85.5584 172.469 85.6097 172.292 85.6097C172.105 85.6097 171.961 85.5584 171.858 85.4557C171.765 85.3531 171.718 85.2084 171.718 85.0217V81.3397C171.718 80.7051 171.592 80.2431 171.34 79.9537C171.097 79.6551 170.705 79.5057 170.164 79.5057C169.539 79.5057 169.039 79.7017 168.666 80.0937C168.302 80.4764 168.12 80.9897 168.12 81.6337V85.0217C168.12 85.4137 167.929 85.6097 167.546 85.6097ZM183.214 85.6377C182.16 85.6377 181.268 85.4371 180.54 85.0357C179.822 84.6344 179.276 84.0557 178.902 83.2997C178.529 82.5437 178.342 81.6384 178.342 80.5837C178.342 79.7997 178.445 79.0951 178.65 78.4697C178.865 77.8444 179.173 77.3171 179.574 76.8877C179.985 76.4491 180.48 76.1131 181.058 75.8797C181.646 75.6371 182.309 75.5157 183.046 75.5157C183.634 75.5157 184.204 75.5997 184.754 75.7677C185.305 75.9264 185.795 76.1831 186.224 76.5377C186.336 76.6217 186.406 76.7151 186.434 76.8177C186.462 76.9204 186.458 77.0231 186.42 77.1257C186.392 77.2284 186.341 77.3171 186.266 77.3917C186.201 77.4571 186.112 77.4944 186 77.5037C185.898 77.5131 185.79 77.4804 185.678 77.4057C185.296 77.1071 184.89 76.8924 184.46 76.7617C184.031 76.6217 183.555 76.5517 183.032 76.5517C182.286 76.5517 181.651 76.7104 181.128 77.0277C180.615 77.3451 180.223 77.8024 179.952 78.3997C179.691 78.9971 179.56 79.7251 179.56 80.5837C179.56 81.8904 179.864 82.8891 180.47 83.5797C181.086 84.2704 182.01 84.6157 183.242 84.6157C183.69 84.6157 184.129 84.5737 184.558 84.4897C184.988 84.3964 185.394 84.2704 185.776 84.1117L185.524 84.7697V81.2837H183.522C183.354 81.2837 183.228 81.2417 183.144 81.1577C183.06 81.0737 183.018 80.9617 183.018 80.8217C183.018 80.6724 183.06 80.5604 183.144 80.4857C183.228 80.4111 183.354 80.3737 183.522 80.3737H186.028C186.187 80.3737 186.308 80.4157 186.392 80.4997C186.476 80.5837 186.518 80.7051 186.518 80.8637V84.5177C186.518 84.6577 186.495 84.7744 186.448 84.8677C186.402 84.9611 186.322 85.0311 186.21 85.0777C185.818 85.2364 185.347 85.3717 184.796 85.4837C184.255 85.5864 183.728 85.6377 183.214 85.6377ZM189.284 85.6097C189.098 85.6097 188.953 85.5584 188.85 85.4557C188.757 85.3531 188.71 85.2084 188.71 85.0217V79.1837C188.71 78.9971 188.757 78.8571 188.85 78.7637C188.944 78.6611 189.079 78.6097 189.256 78.6097C189.434 78.6097 189.569 78.6611 189.662 78.7637C189.765 78.8571 189.816 78.9971 189.816 79.1837V80.3177H189.676C189.826 79.7671 190.11 79.3424 190.53 79.0437C190.95 78.7451 191.468 78.5864 192.084 78.5677C192.224 78.5584 192.336 78.5911 192.42 78.6657C192.504 78.7311 192.551 78.8477 192.56 79.0157C192.57 79.1744 192.532 79.3004 192.448 79.3937C192.364 79.4871 192.234 79.5431 192.056 79.5617L191.832 79.5897C191.198 79.6457 190.708 79.8511 190.362 80.2057C190.026 80.5511 189.858 81.0271 189.858 81.6337V85.0217C189.858 85.2084 189.807 85.3531 189.704 85.4557C189.611 85.5584 189.471 85.6097 189.284 85.6097ZM196.474 85.6377C195.811 85.6377 195.237 85.4931 194.752 85.2037C194.267 84.9144 193.889 84.5084 193.618 83.9857C193.357 83.4537 193.226 82.8284 193.226 82.1097C193.226 81.5684 193.301 81.0831 193.45 80.6537C193.599 80.2151 193.819 79.8417 194.108 79.5337C194.397 79.2257 194.738 78.9924 195.13 78.8337C195.531 78.6657 195.979 78.5817 196.474 78.5817C197.137 78.5817 197.711 78.7264 198.196 79.0157C198.681 79.3051 199.055 79.7157 199.316 80.2477C199.587 80.7704 199.722 81.3911 199.722 82.1097C199.722 82.6511 199.647 83.1364 199.498 83.5657C199.349 83.9951 199.129 84.3684 198.84 84.6857C198.551 84.9937 198.205 85.2317 197.804 85.3997C197.412 85.5584 196.969 85.6377 196.474 85.6377ZM196.474 84.7277C196.894 84.7277 197.263 84.6251 197.58 84.4197C197.897 84.2144 198.14 83.9157 198.308 83.5237C198.485 83.1317 198.574 82.6604 198.574 82.1097C198.574 81.2604 198.383 80.6117 198 80.1637C197.627 79.7157 197.118 79.4917 196.474 79.4917C196.045 79.4917 195.671 79.5944 195.354 79.7997C195.046 79.9957 194.803 80.2897 194.626 80.6817C194.458 81.0644 194.374 81.5404 194.374 82.1097C194.374 82.9497 194.565 83.5984 194.948 84.0557C195.331 84.5037 195.839 84.7277 196.474 84.7277ZM203.833 85.6377C203.283 85.6377 202.825 85.5397 202.461 85.3437C202.107 85.1384 201.836 84.8351 201.649 84.4337C201.472 84.0324 201.383 83.5331 201.383 82.9357V79.1837C201.383 78.9877 201.43 78.8431 201.523 78.7497C201.626 78.6564 201.766 78.6097 201.943 78.6097C202.13 78.6097 202.27 78.6564 202.363 78.7497C202.466 78.8431 202.517 78.9877 202.517 79.1837V82.9217C202.517 83.5191 202.639 83.9671 202.881 84.2657C203.133 84.5551 203.525 84.6997 204.057 84.6997C204.636 84.6997 205.107 84.5037 205.471 84.1117C205.835 83.7197 206.017 83.2064 206.017 82.5717V79.1837C206.017 78.9877 206.064 78.8431 206.157 78.7497C206.26 78.6564 206.405 78.6097 206.591 78.6097C206.769 78.6097 206.904 78.6564 206.997 78.7497C207.1 78.8431 207.151 78.9877 207.151 79.1837V85.0217C207.151 85.4137 206.969 85.6097 206.605 85.6097C206.428 85.6097 206.288 85.5584 206.185 85.4557C206.092 85.3531 206.045 85.2084 206.045 85.0217V83.7477L206.227 83.9437C206.041 84.4944 205.733 84.9144 205.303 85.2037C204.883 85.4931 204.393 85.6377 203.833 85.6377ZM209.833 88.1297C209.646 88.1297 209.506 88.0784 209.413 87.9757C209.32 87.8824 209.273 87.7424 209.273 87.5557V79.1837C209.273 78.9971 209.32 78.8571 209.413 78.7637C209.506 78.6611 209.642 78.6097 209.819 78.6097C210.006 78.6097 210.146 78.6611 210.239 78.7637C210.342 78.8571 210.393 78.9971 210.393 79.1837V80.5137L210.239 80.3177C210.388 79.7857 210.682 79.3657 211.121 79.0577C211.569 78.7404 212.101 78.5817 212.717 78.5817C213.324 78.5817 213.851 78.7264 214.299 79.0157C214.756 79.2957 215.106 79.7017 215.349 80.2337C215.601 80.7564 215.727 81.3817 215.727 82.1097C215.727 82.8284 215.601 83.4537 215.349 83.9857C215.106 84.5084 214.761 84.9144 214.313 85.2037C213.865 85.4931 213.333 85.6377 212.717 85.6377C212.101 85.6377 211.574 85.4837 211.135 85.1757C210.696 84.8584 210.398 84.4384 210.239 83.9157H210.407V87.5557C210.407 87.7424 210.356 87.8824 210.253 87.9757C210.15 88.0784 210.01 88.1297 209.833 88.1297ZM212.479 84.7277C212.908 84.7277 213.277 84.6251 213.585 84.4197C213.902 84.2144 214.145 83.9157 214.313 83.5237C214.49 83.1317 214.579 82.6604 214.579 82.1097C214.579 81.2604 214.388 80.6117 214.005 80.1637C213.632 79.7157 213.123 79.4917 212.479 79.4917C212.059 79.4917 211.69 79.5944 211.373 79.7997C211.056 79.9957 210.808 80.2897 210.631 80.6817C210.463 81.0644 210.379 81.5404 210.379 82.1097C210.379 82.9497 210.57 83.5984 210.953 84.0557C211.336 84.5037 211.844 84.7277 212.479 84.7277Z" fill="#101010"/>
                <defs>
                <clipPath id="clip0_2104_26891">
                <rect width="282" height="55.3291" fill="white" transform="translate(0 0.182617)"/>
                </clipPath>
                </defs>
                </svg>