<svg width="158" height="31" viewBox="0 0 158 31" fill="none" xmlns="http://www.w3.org/2000/svg">
<g clip-path="url(#clip0_2350_4537)">
<path d="M30.6868 0.146729C30.6868 4.18696 29.0819 8.06172 26.225 10.9186C23.3681 13.7755 19.4934 15.3804 15.4531 15.3804V0.146729H30.6868Z" fill="#03EB70"/>
<path d="M15.4531 30.6141C15.4531 26.5739 17.0581 22.6991 19.915 19.8422C22.7719 16.9853 26.6466 15.3804 30.6868 15.3804V30.6141H15.4531Z" fill="#03EB70"/>
<path d="M15.4528 30.6141C13.4521 30.6144 11.4709 30.2206 9.62243 29.4552C7.77393 28.6897 6.0943 27.5677 4.67947 26.1531C3.26464 24.7384 2.14232 23.059 1.37661 21.2106C0.6109 19.3622 0.216797 17.3811 0.216797 15.3804H15.4528V30.6141Z" fill="#7A1CCA"/>
<path d="M0.216797 0.146729C2.21751 0.146423 4.1987 0.540226 6.04721 1.30566C7.89572 2.07108 9.57534 3.19314 10.9902 4.60775C12.405 6.02237 13.5273 7.70182 14.293 9.55021C15.0587 11.3986 15.4528 13.3797 15.4528 15.3804H0.216797V0.146729Z" fill="#03EB70"/>
<path d="M38.3059 28.7737V8.31105H52.7132L52.2062 11.98H42.8399V16.4543H51.5797V20.1233H42.8399V25.1047H52.2956L52.8027 28.7737H38.3059ZM59.683 15.7683C60.9358 14.078 62.5565 13.2328 64.5451 13.2328C66.0962 13.2328 67.3689 13.6504 68.3632 14.4856C69.3774 15.3208 69.8844 16.5339 69.8844 18.1248V28.7737H65.5294V19.0793C65.5294 18.3037 65.3007 17.6674 64.8434 17.1702C64.4059 16.6532 63.8391 16.3947 63.1431 16.3947C62.3676 16.3947 61.7014 16.693 61.1446 17.2896C60.5878 17.8662 60.3094 18.5722 60.3094 19.4074V28.7737H55.9543V13.5311H59.2057L59.683 15.7683ZM73.7228 7.29687H78.1375V10.7272H73.7228V7.29687ZM73.7527 28.7737V13.5311H78.1077V28.7737H73.7527ZM86.4097 15.291C86.8472 14.7143 87.4238 14.2271 88.1397 13.8294C88.8755 13.4317 89.7207 13.2328 90.6752 13.2328C91.7888 13.2328 92.7831 13.5212 93.6581 14.0979C94.553 14.6745 95.2589 15.5396 95.7759 16.693C96.293 17.8464 96.5515 19.2483 96.5515 20.8988V21.227C96.5515 22.957 96.2731 24.4087 95.7163 25.582C95.1595 26.7553 94.4038 27.6302 93.4493 28.2069C92.4948 28.7836 91.4209 29.072 90.2278 29.072C89.134 29.072 88.1596 28.8532 87.3045 28.4157C86.4494 27.9584 85.7335 27.3021 85.1568 26.447L84.6498 27.2226C84.4509 27.5606 84.262 27.8589 84.083 28.1174C83.904 28.3561 83.7549 28.5748 83.6356 28.7737H82.0546V7.29687H86.4097V15.291ZM92.1368 20.004C92.1368 18.8307 91.8684 17.9358 91.3314 17.3194C90.7945 16.7029 90.1084 16.3947 89.2732 16.3947C88.438 16.3947 87.752 16.7029 87.215 17.3194C86.6781 17.9358 86.4097 18.8307 86.4097 20.004V22.4798C86.4097 23.6332 86.6781 24.528 87.215 25.1644C87.752 25.7808 88.438 26.0891 89.2732 26.0891C90.1084 26.0891 90.7945 25.7808 91.3314 25.1644C91.8684 24.528 92.1368 23.6332 92.1368 22.4798V20.004ZM99.7947 28.7737V7.29687H104.15V28.7737H99.7947ZM122.831 21.5849C122.831 23.1161 122.503 24.4485 121.847 25.582C121.211 26.7155 120.326 27.5805 119.192 28.1771C118.059 28.7737 116.786 29.072 115.374 29.072H114.897C113.485 29.072 112.212 28.7737 111.079 28.1771C109.945 27.5805 109.051 26.7155 108.394 25.582C107.758 24.4485 107.44 23.1161 107.44 21.5849V20.7199C107.44 19.1887 107.758 17.8563 108.394 16.7228C109.051 15.5893 109.945 14.7243 111.079 14.1277C112.212 13.5311 113.485 13.2328 114.897 13.2328H115.374C116.786 13.2328 118.059 13.5311 119.192 14.1277C120.326 14.7243 121.211 15.5893 121.847 16.7228C122.503 17.8563 122.831 19.1887 122.831 20.7199V21.5849ZM118.417 19.9443C118.417 18.7313 118.109 17.8066 117.492 17.1702C116.896 16.5339 116.11 16.2157 115.136 16.2157C114.161 16.2157 113.366 16.5339 112.749 17.1702C112.153 17.8066 111.854 18.7313 111.854 19.9443V22.3605C111.854 23.5735 112.153 24.4982 112.749 25.1346C113.366 25.7709 114.161 26.0891 115.136 26.0891C116.11 26.0891 116.896 25.7709 117.492 25.1346C118.109 24.4982 118.417 23.5735 118.417 22.3605V19.9443ZM129.798 22.5991C129.798 23.5934 130.057 24.4286 130.574 25.1047C131.091 25.761 131.787 26.0891 132.662 26.0891C133.577 26.0891 134.293 25.8107 134.81 25.2539C135.347 24.6772 135.615 23.832 135.615 22.7184H139.731C139.731 24.1303 139.423 25.3135 138.807 26.2681C138.21 27.2226 137.415 27.9285 136.42 28.3859C135.426 28.8433 134.332 29.072 133.139 29.072H132.662C130.435 29.072 128.665 28.4157 127.352 27.1033C126.04 25.7709 125.384 23.9315 125.384 21.5849V20.7199C125.384 19.1688 125.692 17.8364 126.308 16.7228C126.945 15.5893 127.81 14.7243 128.904 14.1277C129.997 13.5311 131.25 13.2328 132.662 13.2328H133.139C134.312 13.2328 135.396 13.4913 136.391 14.0084C137.405 14.5055 138.21 15.2413 138.807 16.2157C139.423 17.1702 139.731 18.3037 139.731 19.6162H135.406C135.406 18.5821 135.178 17.7569 134.72 17.1404C134.263 16.5239 133.587 16.2157 132.692 16.2157C131.797 16.2157 131.091 16.5737 130.574 17.2896C130.057 17.9856 129.798 18.8705 129.798 19.9443V22.5991ZM152.659 28.7737L149.049 23.7923L147.349 25.4328V28.7737H142.994V7.29687H147.349V20.6304L152.689 13.5311H157.61L152.002 20.69L157.849 28.7737H152.659Z" fill="white"/>
</g>
<defs>
<clipPath id="clip0_2350_4537">
<rect width="158" height="31" fill="white"/>
</clipPath>
</defs>
</svg>
