<svg width="31" height="31" viewBox="0 0 31 31" fill="none" xmlns="http://www.w3.org/2000/svg">
            <path d="M30.6868 0.146729C30.6868 4.18696 29.0819 8.06172 26.225 10.9186C23.3681 13.7755 19.4934 15.3804 15.4531 15.3804V0.146729H30.6868Z" fill="#03EB70"/>
            <path d="M15.4531 30.6141C15.4531 26.5739 17.0581 22.6991 19.915 19.8422C22.7719 16.9853 26.6466 15.3804 30.6868 15.3804V30.6141H15.4531Z" fill="#03EB70"/>
            <path d="M15.4528 30.6141C13.4521 30.6144 11.4709 30.2206 9.62243 29.4552C7.77393 28.6897 6.0943 27.5677 4.67947 26.1531C3.26464 24.7384 2.14232 23.059 1.37661 21.2106C0.6109 19.3622 0.216797 17.3811 0.216797 15.3804H15.4528V30.6141Z" fill="#7A1CCA"/>
            <path d="M0.216797 0.146729C2.21751 0.146423 4.1987 0.540226 6.04721 1.30566C7.89572 2.07108 9.57534 3.19314 10.9902 4.60775C12.405 6.02237 13.5273 7.70182 14.293 9.55021C15.0587 11.3986 15.4528 13.3797 15.4528 15.3804H0.216797V0.146729Z" fill="#03EB70"/>
            </svg>