<svg width="120" height="23" viewBox="0 0 120 23" fill="none" xmlns="http://www.w3.org/2000/svg">
<path d="M0.305885 21.7737V1.31105H14.7132L14.2062 4.98001H4.83988V9.45434H13.5797V13.1233H4.83988V18.1047H14.2956L14.8027 21.7737H0.305885ZM21.683 8.76828C22.9358 7.07797 24.5565 6.23282 26.5451 6.23282C28.0962 6.23282 29.3689 6.65042 30.3632 7.48563C31.3774 8.32084 31.8844 9.53389 31.8844 11.1248V21.7737H27.5294V12.0793C27.5294 11.3037 27.3007 10.6674 26.8434 10.1702C26.4059 9.6532 25.8391 9.39468 25.1431 9.39468C24.3676 9.39468 23.7014 9.69297 23.1446 10.2896C22.5878 10.8662 22.3094 11.5722 22.3094 12.4074V21.7737H17.9543V6.53111H21.2057L21.683 8.76828ZM35.7228 0.296866H40.1375V3.72719H35.7228V0.296866ZM35.7527 21.7737V6.53111H40.1077V21.7737H35.7527ZM48.4097 8.29101C48.8472 7.71432 49.4238 7.22712 50.1397 6.8294C50.8755 6.43168 51.7207 6.23282 52.6752 6.23282C53.7888 6.23282 54.7831 6.52117 55.6581 7.09786C56.553 7.67455 57.2589 8.53959 57.7759 9.69297C58.293 10.8464 58.5515 12.2483 58.5515 13.8988V14.227C58.5515 15.957 58.2731 17.4087 57.7163 18.582C57.1595 19.7553 56.4038 20.6302 55.4493 21.2069C54.4948 21.7836 53.4209 22.072 52.2278 22.072C51.134 22.072 50.1596 21.8532 49.3045 21.4157C48.4494 20.9584 47.7335 20.3021 47.1568 19.447L46.6498 20.2226C46.4509 20.5606 46.262 20.8589 46.083 21.1174C45.904 21.3561 45.7549 21.5748 45.6356 21.7737H44.0546V0.296866H48.4097V8.29101ZM54.1368 13.004C54.1368 11.8307 53.8684 10.9358 53.3314 10.3194C52.7945 9.70292 52.1084 9.39468 51.2732 9.39468C50.438 9.39468 49.752 9.70292 49.215 10.3194C48.6781 10.9358 48.4097 11.8307 48.4097 13.004V15.4798C48.4097 16.6332 48.6781 17.528 49.215 18.1644C49.752 18.7808 50.438 19.0891 51.2732 19.0891C52.1084 19.0891 52.7945 18.7808 53.3314 18.1644C53.8684 17.528 54.1368 16.6332 54.1368 15.4798V13.004ZM61.7947 21.7737V0.296866H66.1497V21.7737H61.7947ZM84.8315 14.5849C84.8315 16.1161 84.5033 17.4485 83.8471 18.582C83.2108 19.7155 82.3258 20.5805 81.1923 21.1771C80.0588 21.7737 78.7861 22.072 77.3742 22.072H76.897C75.4851 22.072 74.2124 21.7737 73.0789 21.1771C71.9454 20.5805 71.0505 19.7155 70.3943 18.582C69.7579 17.4485 69.4397 16.1161 69.4397 14.5849V13.7199C69.4397 12.1887 69.7579 10.8563 70.3943 9.7228C71.0505 8.5893 71.9454 7.72426 73.0789 7.12769C74.2124 6.53111 75.4851 6.23282 76.897 6.23282H77.3742C78.7861 6.23282 80.0588 6.53111 81.1923 7.12769C82.3258 7.72426 83.2108 8.5893 83.8471 9.7228C84.5033 10.8563 84.8315 12.1887 84.8315 13.7199V14.5849ZM80.4168 12.9443C80.4168 11.7313 80.1085 10.8066 79.4921 10.1702C78.8955 9.53389 78.11 9.21571 77.1356 9.21571C76.1612 9.21571 75.3658 9.53389 74.7493 10.1702C74.1527 10.8066 73.8544 11.7313 73.8544 12.9443V15.3605C73.8544 16.5735 74.1527 17.4982 74.7493 18.1346C75.3658 18.7709 76.1612 19.0891 77.1356 19.0891C78.11 19.0891 78.8955 18.7709 79.4921 18.1346C80.1085 17.4982 80.4168 16.5735 80.4168 15.3605V12.9443ZM91.7984 15.5991C91.7984 16.5934 92.0569 17.4286 92.5739 18.1047C93.091 18.761 93.787 19.0891 94.6619 19.0891C95.5767 19.0891 96.2926 18.8107 96.8096 18.2539C97.3466 17.6772 97.615 16.832 97.615 15.7184H101.731C101.731 17.1303 101.423 18.3135 100.807 19.2681C100.21 20.2226 99.4147 20.9285 98.4204 21.3859C97.4261 21.8433 96.3324 22.072 95.1392 22.072H94.6619C92.4347 22.072 90.6649 21.4157 89.3524 20.1033C88.0399 18.7709 87.3837 16.9315 87.3837 14.5849V13.7199C87.3837 12.1688 87.6919 10.8364 88.3084 9.7228C88.9447 8.5893 89.8098 7.72426 90.9035 7.12769C91.9972 6.53111 93.25 6.23282 94.6619 6.23282H95.1392C96.3125 6.23282 97.3963 6.49134 98.3906 7.00837C99.4047 7.50552 100.21 8.2413 100.807 9.21571C101.423 10.1702 101.731 11.3037 101.731 12.6162H97.4062C97.4062 11.5821 97.1775 10.7569 96.7201 10.1404C96.2628 9.52394 95.5866 9.21571 94.6918 9.21571C93.7969 9.21571 93.091 9.57366 92.5739 10.2896C92.0569 10.9856 91.7984 11.8705 91.7984 12.9443V15.5991ZM114.659 21.7737L111.049 16.7923L109.349 18.4328V21.7737H104.994V0.296866H109.349V13.6304L114.689 6.53111H119.61L114.002 13.69L119.849 21.7737H114.659Z" fill="white"/>
</svg>
