          <svg width="62" height="43" viewBox="0 0 62 43" fill="none" xmlns="http://www.w3.org/2000/svg">
                    <path fill-rule="evenodd" clip-rule="evenodd" d="M2.37263 31.8058C2.01984 34.1572 1.85483 36.5222 1.69079 38.8756L1.65188 39.4312C1.38531 39.3779 1.11423 39.3485 0.842168 39.3437C0.569949 39.3474 0.298699 39.3766 0.0322924 39.4312C0.753042 35.543 1.328 31.6865 1.8382 27.8301C2.07958 27.8869 2.32694 27.9161 2.5751 27.9176C2.81793 27.916 3.0598 27.8866 3.29585 27.8301C4.6077 30.5017 6.13832 33.4915 7.45017 35.8531C8.85115 33.3484 10.3493 30.4938 11.645 27.8301C11.9106 27.8895 12.1824 27.9189 12.4549 27.9176C12.7111 27.916 12.9664 27.8866 13.216 27.8301C13.2714 28.2852 13.3289 28.7609 13.3878 29.2501L13.3897 29.2656C13.8317 32.9259 14.3633 37.328 14.7628 39.4154C14.2791 39.3584 13.7923 39.3293 13.3051 39.3279C12.8045 39.33 12.3043 39.3592 11.807 39.4154C11.6855 37.0776 11.3778 34.223 11.0862 31.6229C9.66102 34.1912 8.33286 36.7993 7.03716 39.4073C6.92495 39.3863 6.81128 39.3729 6.69713 39.3676C6.58023 39.3731 6.46383 39.3863 6.34887 39.4073C5.07738 36.8708 3.78168 34.3185 2.4293 31.8058H2.37263ZM19.9212 31.0583C18.7001 31.0794 17.5197 31.4928 16.5606 32.2352L16.7873 33.2449H16.9493C17.2292 32.9578 17.5646 32.7284 17.9358 32.57C18.3071 32.4116 18.7067 32.3275 19.1115 32.3227C19.3243 32.2983 19.54 32.3177 19.7449 32.3795C19.9498 32.4413 20.1393 32.5444 20.3015 32.6819C20.4636 32.8195 20.595 32.9885 20.687 33.1786C20.779 33.3686 20.8299 33.5754 20.8364 33.7856C20.8364 34.39 20.6583 34.5172 18.6418 34.9783C17.0222 35.3442 15.9774 35.9644 15.9774 37.4194C15.9774 38.493 16.7306 39.622 18.5527 39.622C19.0154 39.6235 19.4714 39.5126 19.8797 39.2988C20.2882 39.0852 20.6363 38.7755 20.893 38.3975C20.9978 38.7597 21.2229 39.077 21.5326 39.299C21.8422 39.5208 22.2186 39.6346 22.6017 39.622C23.1722 39.6088 23.7295 39.4527 24.2213 39.1688V38.7632C23.4844 38.7632 23.1606 38.6678 23.1606 37.6103C23.1606 37.0308 23.1736 36.4586 23.1872 35.8631C23.2019 35.2168 23.2172 34.5424 23.2172 33.8016C23.2172 31.8535 21.8324 31.0583 19.9212 31.0583ZM20.0517 35.3584C20.3166 35.2664 20.5864 35.1726 20.8364 35.042C20.8364 35.1892 20.8339 35.3398 20.831 35.525C20.8263 35.8202 20.8202 36.2032 20.8202 36.7993C20.8202 37.8965 20.3019 38.4612 19.4921 38.4612C18.8604 38.4612 18.4636 37.984 18.4636 37.1889C18.4636 35.9101 19.2347 35.6423 20.0517 35.3584ZM30.3598 31.3685C30.3262 31.5175 30.3072 31.6692 30.3031 31.8217C30.3056 31.9612 30.3245 32.1 30.3598 32.2352H28.7402C28.6672 33.2451 28.6106 35.0739 28.6106 35.9803C28.6106 38.31 28.7887 38.6996 29.6147 38.6996C29.8963 38.7209 30.178 38.6601 30.4246 38.5248V39.2165C29.8128 39.5124 29.1385 39.6622 28.4567 39.6538C26.9666 39.6538 26.173 38.7474 26.173 37.0537C26.173 36.4155 26.2045 35.5823 26.2363 34.7368C26.2693 33.8656 26.3025 32.9809 26.3025 32.2829H25.0393C25.0785 32.1485 25.0976 32.0093 25.096 31.8695C25.0961 31.7166 25.0771 31.5645 25.0393 31.4162L26.3025 31.4639C26.3025 30.7562 26.3025 30.2552 26.2297 29.3966C27.0396 29.0785 27.8493 28.7286 28.6592 28.3548L28.8455 28.4741C28.7349 29.4616 28.681 30.4544 28.6834 31.448L30.3598 31.3685ZM35.4149 31.4647C34.9418 31.7227 34.5406 32.091 34.2469 32.5372L34.2792 31.2651C34.0965 31.2767 33.9352 31.2914 33.7811 31.3055C33.5123 31.33 33.2659 31.3526 32.9674 31.3526C32.7273 31.3526 32.5104 31.3297 32.2985 31.3074C32.096 31.2861 31.8976 31.2651 31.6878 31.2651C31.8336 32.4418 31.8336 33.6347 31.8336 34.9864V35.6781C31.8336 37.0219 31.7931 38.2306 31.6878 39.4073C32.1363 39.3505 32.5881 39.3212 33.0402 39.3199C33.4899 39.3203 33.9389 39.3495 34.3845 39.4073C34.2469 38.2306 34.2469 37.0379 34.2469 35.6783V35.0022C34.2469 33.4597 34.7247 32.5372 35.8098 32.5372C36.7654 32.5372 37.0731 33.3085 37.0731 34.6523V35.6781C37.0731 37.0219 37.0326 38.2306 36.9273 39.4073C37.8223 39.2907 38.729 39.2907 39.624 39.4073C39.5187 38.2306 39.4783 37.0379 39.4783 35.6781V34.4696C39.4783 33.6665 39.7292 32.5372 40.9035 32.5372C41.8348 32.5372 42.3775 33.1973 42.3775 34.5887C42.4067 36.1973 42.3418 37.8061 42.1831 39.4073C42.6281 39.343 43.0776 39.3136 43.5274 39.3199C43.9798 39.3138 44.432 39.343 44.8798 39.4073L44.8623 39.0474C44.8265 38.312 44.7906 37.5746 44.7906 36.9662C44.7906 36.563 44.8065 36.1736 44.8233 35.757C44.8426 35.2783 44.8635 34.7638 44.8635 34.1515C44.8635 32.0046 43.8513 31.0583 42.0534 31.0583C41.4909 31.0788 40.942 31.2344 40.4548 31.5118C39.9677 31.789 39.5573 32.1795 39.2596 32.6487C39.0916 32.182 38.78 31.7784 38.368 31.4934C37.9559 31.2084 37.4638 31.0565 36.9598 31.0583C36.4187 31.0672 35.8882 31.2068 35.4149 31.4647ZM52.5163 38.167C52.2224 38.6132 51.8213 38.9815 51.3481 39.2395C50.875 39.4974 50.3445 39.6371 49.8034 39.6459C48.0056 39.6459 46.9934 38.7077 46.9934 36.5608C46.9934 35.9498 47.0141 35.4361 47.0335 34.957C47.0504 34.5384 47.0662 34.1459 47.0662 33.738C47.0662 33.2541 47.0398 32.6885 47.0126 32.1097C47.0002 31.8423 46.9874 31.5709 46.9771 31.3048C47.8721 31.4214 48.7788 31.4214 49.6738 31.3048C49.5109 32.9059 49.446 34.5148 49.4794 36.1234C49.4794 37.515 50.014 38.167 50.9533 38.167C52.0304 38.167 52.5163 37.2446 52.5163 35.702V34.9864C52.5163 33.6347 52.5163 32.442 52.3705 31.2651C52.8193 31.3186 53.2708 31.3478 53.7228 31.3526C54.153 31.3502 54.5828 31.3265 55.0105 31.2809C54.8971 32.4578 54.8647 33.6665 54.8647 35.0022V35.6781C54.8647 37.0379 54.8647 38.2306 55.0105 39.4073C54.9231 39.3994 54.8384 39.3912 54.7551 39.3831C54.4205 39.3505 54.107 39.3199 53.7309 39.3199C53.3914 39.3199 53.1195 39.3448 52.805 39.3737C52.6848 39.3847 52.5579 39.3963 52.4191 39.4073L52.5163 38.167ZM61.7804 31.8217C61.7804 31.6689 61.7995 31.5167 61.8371 31.3685L60.2094 31.3844C60.2109 30.391 60.265 29.3983 60.3714 28.4105L60.1933 28.2912C59.3834 28.665 58.5737 29.0149 57.7638 29.3329C57.8286 30.1917 57.8286 30.6926 57.8286 31.4003L56.5734 31.3526C56.607 31.5015 56.626 31.6533 56.6301 31.8058C56.6199 31.9684 56.5873 32.1289 56.5329 32.2829H57.788C57.788 32.9809 57.7569 33.8652 57.726 34.7365C57.6962 35.5822 57.6666 36.4153 57.6666 37.0537C57.6666 38.7474 58.4602 39.6538 59.9503 39.6538C60.6297 39.6634 61.3015 39.5134 61.9101 39.2166V38.5248C61.6646 38.663 61.3821 38.724 61.1002 38.6996C60.2742 38.6996 60.0961 38.31 60.0961 35.9803C60.0961 35.0739 60.1447 33.2451 60.2175 32.2352H61.8371C61.7979 32.1008 61.7788 31.9615 61.7804 31.8217ZM61.9425 41.928H0V42.4527H61.9425V41.928ZM37.478 11.2275C44.2317 11.5335 50.6224 13.0478 55.8405 16.1831C50.3073 12.8487 44.0123 10.9233 37.5266 10.5834C37.4942 10.8008 37.478 11.0155 37.478 11.2275ZM6.00867 20.7135C10.9947 17.1118 16.6304 14.4704 22.6181 12.9291V12.2611C16.524 13.8654 10.8571 16.7494 6.00867 20.7135ZM29.8335 11.5456C29.7891 11.8833 29.7891 12.2255 29.8335 12.5632C30.2302 15.235 33.429 17.1036 37.5024 17.2785L36.0771 18.2884C35.1619 17.2308 32.4977 18.2487 30.4084 19.7673C30.0232 20.0509 29.653 20.3534 29.2989 20.6738L24.8126 17.4932C25.3049 16.2235 25.5574 14.8761 25.5576 13.5175C25.559 13.0952 25.5374 12.6732 25.4928 12.2532C26.9451 11.951 28.392 11.7151 29.8335 11.5456ZM24.6749 4.47675C25.2014 4.31772 25.7277 4.13479 26.2946 3.92005C28.3111 3.19849 30.0871 1.94703 31.4288 0.302251L31.0076 0L24.6749 4.47675ZM30.8456 20.316C32.9674 18.7973 35.0324 18.2406 35.5749 18.7256L31.0481 21.9062L29.8901 21.1112C30.194 20.8296 30.513 20.5641 30.8456 20.316ZM31.9552 0.667953C30.5324 2.41396 28.6506 3.74487 26.5132 4.51647C25.4917 4.93643 24.4314 5.25854 23.3469 5.4786H23.2578L22.6909 5.57403L22.3426 5.62166C22.4642 5.74097 22.5775 5.8682 22.6909 6.00335C22.7227 6.04129 22.7674 6.09247 22.8189 6.15172C22.9513 6.30317 23.1296 6.50774 23.2578 6.67921L23.3469 6.80644C24.2365 8.01431 24.8775 9.38089 25.2337 10.8298C25.2984 11.0843 25.347 11.3387 25.3875 11.625C26.9208 11.3069 28.4433 11.0605 29.9549 10.8855C30.143 10.2647 30.4449 9.68266 30.8456 9.16809C32.3277 7.22785 35.1215 5.77278 38.3769 5.19234L31.9552 0.667953ZM24.7813 11.9455C24.809 12.0958 24.8368 12.246 24.8368 12.3963C25.0164 14.0068 24.817 15.6364 24.2538 17.1593L23.3469 16.5152L23.2578 16.4516V7.8401L23.3469 7.99122C23.9142 8.92574 24.3347 9.93905 24.594 10.9969C24.6507 11.2433 24.7154 11.5377 24.7478 11.7522C24.7575 11.8167 24.7695 11.8811 24.7813 11.9455ZM38.053 16.5072C37.8194 16.1158 37.619 15.7063 37.4538 15.2827L37.397 15.1078L37.3403 14.9409C36.9317 13.7298 36.7612 12.4533 36.8383 11.1797C34.7266 11.1266 32.6138 11.2115 30.5137 11.4342C30.4651 11.7664 30.4651 12.1039 30.5137 12.4362C30.8537 14.9727 34.1092 16.698 38.1663 16.698C38.1247 16.6368 38.0867 16.5731 38.053 16.5072ZM31.372 9.5417C32.7407 7.75275 35.4616 6.36113 38.5388 5.84431C37.934 6.79691 37.4806 7.83461 37.1945 8.92154C37.0574 9.46227 36.9627 10.0125 36.9112 10.5674C34.8432 10.5103 32.7736 10.5873 30.7162 10.7982C30.8678 10.3487 31.089 9.92501 31.372 9.5417Z" fill="#101010"/>
                    </svg>