<svg width="339" height="718" viewBox="0 0 339 718" fill="none" xmlns="http://www.w3.org/2000/svg">
<g clip-path="url(#clip0_1689_21715)">
<path opacity="0.6" d="M141 233.976V262.837C128.201 262.837 115.411 260.014 105.645 254.377C95.8783 248.741 91 241.408 91 233.976H141Z" fill="#03EB70"/>
<path d="M105.77 254.16C115.426 259.733 128.067 262.55 140.75 262.586V234.226H91.2521C91.3604 241.453 96.1596 248.614 105.77 254.16Z" stroke="#010101" stroke-width="0.500511"/>
<path opacity="0.6" d="M141 224V252.861C128.201 252.861 115.411 250.038 105.645 244.401C95.8783 238.765 91 231.432 91 224H141Z" fill="#03EB70"/>
<path opacity="0.6" fill-rule="evenodd" clip-rule="evenodd" d="M141 262.837V252.861C128.201 252.861 115.411 250.038 105.645 244.401C95.8783 238.765 91 231.432 91 224V224H90.9995V233.976L91 233.976C91 241.408 95.8783 248.741 105.645 254.377C115.411 260.014 128.201 262.837 141 262.837Z" fill="#03EB70"/>
<path d="M94.0422 233.976H140.93V252.861C128.13 252.861 115.341 250.038 105.575 244.401C100.953 241.897 96.999 238.322 94.0422 233.976Z" fill="#03EB70"/>
<path d="M105.77 244.184C115.426 249.757 128.067 252.574 140.75 252.61V224.25H91.2521C91.3604 231.476 96.1596 238.638 105.77 244.184Z" stroke="#010101" stroke-width="0.500511" stroke-linejoin="round"/>
<g opacity="0.2">
<path d="M129.46 251.577L109.682 224.504H127.825L140.5 240.52L140.5 252.36C140.5 252.36 136.258 252.206 135.09 252.176C133.922 252.146 129.46 251.577 129.46 251.577Z" fill="url(#paint0_linear_1689_21715)"/>
<path d="M105.542 224.504L124.177 250.695C124.177 250.695 118.787 249.453 115.844 248.431C112.901 247.409 107.955 245.12 107.955 245.12L100.759 234.872L94.1042 224.504L105.542 224.504Z" fill="url(#paint1_linear_1689_21715)"/>
</g>
<mask id="path-8-inside-1_1689_21715" fill="white">
<path fill-rule="evenodd" clip-rule="evenodd" d="M91 224H90.9995V234.473H91.0073C91.2199 241.734 96.096 248.866 105.645 254.377C115.411 260.014 128.201 262.837 141 262.837V252.861V233.976V224H140.93H91Z"/>
</mask>
<path d="M90.9995 224H90.4995V223.5H90.9995V224ZM90.9995 234.473V234.973H90.4995V234.473H90.9995ZM91.0073 234.473V233.973H91.4928L91.5071 234.458L91.0073 234.473ZM105.645 254.377L105.395 254.81L105.645 254.377ZM141 262.837H141.5V263.337H141V262.837ZM141 224V223.5H141.5V224H141ZM90.9995 223.5H91V224.5H90.9995V223.5ZM90.4995 234.473V224H91.4995V234.473H90.4995ZM91.0073 234.973H90.9995V233.973H91.0073V234.973ZM105.395 254.81C95.7577 249.248 90.727 241.983 90.5075 234.488L91.5071 234.458C91.7128 241.485 96.4343 248.484 105.895 253.944L105.395 254.81ZM141 263.337C128.136 263.337 115.255 260.501 105.395 254.81L105.895 253.944C115.568 259.526 128.265 262.337 141 262.337V263.337ZM141.5 252.861V262.837H140.5V252.861H141.5ZM141.5 233.976V252.861H140.5V233.976H141.5ZM141.5 224V233.976H140.5V224H141.5ZM140.93 223.5H141V224.5H140.93V223.5ZM91 223.5H140.93V224.5H91V223.5Z" fill="#101010" mask="url(#path-8-inside-1_1689_21715)"/>
<path opacity="0.6" d="M90.6719 386.903V424.231C74.1175 424.231 57.576 420.579 44.9441 413.289C32.3122 405.999 26.0027 396.515 26.0027 386.903H90.6719Z" fill="#7A1CCA"/>
<path d="M45.1059 413.009C57.595 420.217 73.9442 423.859 90.3482 423.907V387.227H26.3288C26.4688 396.573 32.676 405.835 45.1059 413.009Z" stroke="#010101" stroke-width="0.647353"/>
<path opacity="0.6" d="M90.6719 374V411.328C74.1175 411.328 57.576 407.676 44.9441 400.386C32.3122 393.096 26.0027 383.613 26.0027 374H90.6719Z" fill="#7A1CCA"/>
<path opacity="0.6" fill-rule="evenodd" clip-rule="evenodd" d="M90.6719 424.231V411.328C74.1175 411.328 57.576 407.676 44.9441 400.386C38.0859 396.428 33.0913 391.824 29.9583 386.903H26.0027C26.0027 396.516 32.3122 405.999 44.9441 413.289C57.576 420.579 74.1175 424.231 90.6719 424.231ZM26.0027 374C26.0027 378.394 27.3208 382.76 29.9583 386.903L25.9992 386.903V374H26.0027Z" fill="#7A1CCA"/>
<path d="M29.9346 386.903H90.5781V411.328C74.0237 411.328 57.4823 407.676 44.8503 400.386C38.8733 397.147 33.7588 392.524 29.9346 386.903Z" fill="#7A1CCA"/>
<path d="M45.1059 400.106C57.595 407.314 73.9442 410.957 90.3482 411.004V374.324H26.3288C26.4688 383.67 32.676 392.932 45.1059 400.106Z" stroke="#010101" stroke-width="0.647353" stroke-linejoin="round"/>
<g opacity="0.2">
<path d="M75.7442 409.667L50.1642 374.651H73.6296L90.0234 395.366L90.0234 410.681C90.0234 410.681 84.5371 410.481 83.0265 410.442C81.5158 410.403 75.7442 409.667 75.7442 409.667Z" fill="url(#paint2_linear_1689_21715)"/>
<path d="M44.8091 374.651L68.9115 408.526C68.9115 408.526 61.9408 406.92 58.1341 405.598C54.3273 404.276 47.93 401.316 47.93 401.316L38.6236 388.061L30.0158 374.651L44.8091 374.651Z" fill="url(#paint3_linear_1689_21715)"/>
</g>
<mask id="path-17-inside-2_1689_21715" fill="white">
<path fill-rule="evenodd" clip-rule="evenodd" d="M26.0027 374H25.9992V387.525H26.0115C26.2779 396.924 32.5847 406.156 44.9441 413.289C57.576 420.579 74.1175 424.231 90.6719 424.231V411.328V386.903V374H90.5781H26.0027Z"/>
</mask>
<path d="M25.9992 374H25.3492V373.35H25.9992V374ZM25.9992 387.525V388.175H25.3492V387.525H25.9992ZM26.0115 387.525V386.875H26.6434L26.6613 387.507L26.0115 387.525ZM44.9441 413.289L45.269 412.726L44.9441 413.289ZM90.6719 424.231H91.3219V424.881H90.6719V424.231ZM90.6719 374V373.35H91.3219V374H90.6719ZM25.9992 373.35H26.0027V374.65H25.9992V373.35ZM25.3492 387.525V374H26.6493V387.525H25.3492ZM26.0115 388.175H25.9992V386.875H26.0115V388.175ZM44.6192 413.852C32.1448 406.653 25.6368 397.247 25.3617 387.543L26.6613 387.507C26.919 396.6 33.0247 405.66 45.269 412.726L44.6192 413.852ZM90.6719 424.881C74.0334 424.881 57.3729 421.213 44.6192 413.852L45.269 412.726C57.7791 419.946 74.2016 423.581 90.6719 423.581V424.881ZM91.3219 411.328V424.231H90.0218V411.328H91.3219ZM91.3219 386.903V411.328H90.0218V386.903H91.3219ZM91.3219 374V386.903H90.0218V374H91.3219ZM90.5781 373.35H90.6719V374.65H90.5781V373.35ZM26.0027 373.35H90.5781V374.65H26.0027V373.35Z" fill="#101010" mask="url(#path-17-inside-2_1689_21715)"/>
<path opacity="0.6" d="M191 333.708V361.795C203.456 361.795 215.902 359.048 225.407 353.562C234.912 348.077 239.659 340.941 239.659 333.708H191Z" fill="#1F1F1F"/>
<path d="M225.285 353.352C215.888 358.775 203.586 361.516 191.244 361.551V333.952H239.414C239.309 340.984 234.638 347.954 225.285 353.352Z" stroke="white" stroke-width="0.48709"/>
<path opacity="0.6" d="M191 324V352.087C203.456 352.087 215.902 349.339 225.407 343.854C234.912 338.369 239.659 331.233 239.659 324H191Z" fill="#1F1F1F"/>
<path opacity="0.6" fill-rule="evenodd" clip-rule="evenodd" d="M191 361.795V352.087C203.456 352.087 215.902 349.339 225.407 343.854C234.912 338.369 239.659 331.233 239.659 324H239.662V333.708H239.659C239.659 340.941 234.912 348.077 225.407 353.562C215.902 359.048 203.456 361.795 191 361.795Z" fill="#1F1F1F"/>
<path d="M236.7 333.708H191.07V352.087C203.526 352.087 215.973 349.339 225.477 343.854C229.975 341.417 233.823 337.938 236.7 333.708Z" fill="#1F1F1F"/>
<path d="M225.285 343.643C215.888 349.066 203.586 351.807 191.244 351.843V324.244H239.414C239.309 331.276 234.638 338.245 225.285 343.643Z" stroke="white" stroke-width="0.48709" stroke-linejoin="round"/>
<g opacity="0.2">
<path d="M202.232 350.837L221.48 324.49H203.824L191.488 340.076L191.488 351.6C191.488 351.6 195.616 351.449 196.753 351.42C197.89 351.391 202.232 350.837 202.232 350.837Z" fill="url(#paint4_linear_1689_21715)"/>
<path d="M225.509 324.49L207.374 349.979C207.374 349.979 212.619 348.77 215.483 347.775C218.347 346.781 223.161 344.553 223.161 344.553L230.163 334.58L236.64 324.49L225.509 324.49Z" fill="url(#paint5_linear_1689_21715)"/>
</g>
<mask id="path-26-inside-3_1689_21715" fill="white">
<path fill-rule="evenodd" clip-rule="evenodd" d="M239.659 324H239.662V334.173H239.653C239.454 341.246 234.708 348.195 225.407 353.562C215.902 359.048 203.456 361.795 191 361.795V352.087V351.6V333.708V324.487V324H191.07H191.487H239.172H239.659Z"/>
</mask>
<path d="M239.662 324H240.151C240.151 323.73 239.932 323.511 239.662 323.511V324ZM239.662 334.173V334.662C239.932 334.662 240.151 334.443 240.151 334.173H239.662ZM239.653 334.173V333.684C239.388 333.684 239.171 333.895 239.164 334.159L239.653 334.173ZM225.407 353.562L225.163 353.139L225.407 353.562ZM191 361.795H190.511C190.511 362.065 190.73 362.284 191 362.284V361.795ZM191 324V323.511C190.73 323.511 190.511 323.73 190.511 324H191ZM239.662 323.511H239.659V324.489H239.662V323.511ZM240.151 334.173V324H239.173V334.173H240.151ZM239.653 334.662H239.662V333.684H239.653V334.662ZM225.652 353.986C235.039 348.568 239.936 341.49 240.142 334.187L239.164 334.159C238.971 341.003 234.377 347.821 225.163 353.139L225.652 353.986ZM191 362.284C203.519 362.284 216.055 359.524 225.652 353.986L225.163 353.139C215.75 358.571 203.393 361.306 191 361.306V362.284ZM190.511 352.087V361.795H191.489V352.087H190.511ZM191.489 352.087V351.6H190.511V352.087H191.489ZM191.489 351.6V333.708H190.511V351.6H191.489ZM191.489 333.708V324.487H190.511V333.708H191.489ZM191.489 324.487V324H190.511V324.487H191.489ZM191 324.489H191.07V323.511H191V324.489ZM191.07 324.489H191.487V323.511H191.07V324.489ZM191.487 324.489H239.172V323.511H191.487V324.489ZM239.172 324.489H239.659V323.511H239.172V324.489Z" fill="white" mask="url(#path-26-inside-3_1689_21715)"/>
<line x1="240.25" y1="151.152" x2="240.25" y2="717.652" stroke="white" stroke-width="0.5" stroke-linecap="round" stroke-linejoin="round" stroke-dasharray="4 4"/>
<line opacity="0.1" x1="389.5" y1="224.402" x2="-429.5" y2="224.402" stroke="white" stroke-linecap="round" stroke-linejoin="round"/>
<line opacity="0.1" x1="389.5" y1="324.402" x2="-429.5" y2="324.402" stroke="white" stroke-linecap="round" stroke-linejoin="round"/>
<line opacity="0.1" x1="389.5" y1="424.402" x2="-429.5" y2="424.402" stroke="white" stroke-linecap="round" stroke-linejoin="round"/>
<line opacity="0.1" x1="389.5" y1="374.402" x2="-429.5" y2="374.402" stroke="white" stroke-linecap="round" stroke-linejoin="round"/>
<line opacity="0.1" x1="389.5" y1="274.402" x2="-429.5" y2="274.402" stroke="white" stroke-linecap="round" stroke-linejoin="round"/>
<line opacity="0.1" x1="90.5" y1="-49.5984" x2="90.5" y2="717.402" stroke="white" stroke-linecap="round" stroke-linejoin="round"/>
<line x1="140.25" y1="88.1516" x2="140.25" y2="717.652" stroke="white" stroke-width="0.5" stroke-linecap="round" stroke-linejoin="round" stroke-dasharray="4 4"/>
<line opacity="0.1" x1="190.5" y1="58.4016" x2="190.5" y2="717.402" stroke="white" stroke-linecap="round" stroke-linejoin="round"/>
<line opacity="0.1" x1="290.5" y1="-49.5984" x2="290.5" y2="717.402" stroke="white" stroke-linecap="round" stroke-linejoin="round"/>
</g>
<defs>
<linearGradient id="paint0_linear_1689_21715" x1="120.823" y1="224" x2="120.823" y2="256.561" gradientUnits="userSpaceOnUse">
<stop stop-color="white"/>
<stop offset="1" stop-color="white" stop-opacity="0"/>
</linearGradient>
<linearGradient id="paint1_linear_1689_21715" x1="120.823" y1="224" x2="120.823" y2="256.561" gradientUnits="userSpaceOnUse">
<stop stop-color="white"/>
<stop offset="1" stop-color="white" stop-opacity="0"/>
</linearGradient>
<linearGradient id="paint2_linear_1689_21715" x1="64.573" y1="374" x2="64.573" y2="416.114" gradientUnits="userSpaceOnUse">
<stop stop-color="white"/>
<stop offset="1" stop-color="white" stop-opacity="0"/>
</linearGradient>
<linearGradient id="paint3_linear_1689_21715" x1="64.573" y1="374" x2="64.573" y2="416.114" gradientUnits="userSpaceOnUse">
<stop stop-color="white"/>
<stop offset="1" stop-color="white" stop-opacity="0"/>
</linearGradient>
<linearGradient id="paint4_linear_1689_21715" x1="210.638" y1="324" x2="210.638" y2="355.688" gradientUnits="userSpaceOnUse">
<stop stop-color="white"/>
<stop offset="1" stop-color="white" stop-opacity="0"/>
</linearGradient>
<linearGradient id="paint5_linear_1689_21715" x1="210.638" y1="324" x2="210.638" y2="355.688" gradientUnits="userSpaceOnUse">
<stop stop-color="white"/>
<stop offset="1" stop-color="white" stop-opacity="0"/>
</linearGradient>
<clipPath id="clip0_1689_21715">
<rect width="390" height="768" fill="white" transform="translate(0 -50.0984)"/>
</clipPath>
</defs>
</svg>
