<svg width="340" height="718" viewBox="0 0 340 718" fill="none" xmlns="http://www.w3.org/2000/svg">
<g clip-path="url(#clip0_1689_21797)">
<path opacity="0.6" d="M148.66 233.61V261.697C136.204 261.697 123.758 258.949 114.253 253.464C104.748 247.979 100.001 240.843 100.001 233.61H148.66Z" fill="#1F1F1F"/>
<path d="M114.375 253.253C123.772 258.676 136.074 261.417 148.417 261.453V233.854H100.246C100.352 240.886 105.022 247.856 114.375 253.253Z" stroke="white" stroke-width="0.48709"/>
<path opacity="0.6" d="M148.66 223.902V251.988C136.204 251.988 123.758 249.241 114.253 243.756C104.748 238.27 100.001 231.134 100.001 223.902H148.66Z" fill="#1F1F1F"/>
<path opacity="0.6" fill-rule="evenodd" clip-rule="evenodd" d="M148.66 261.697V251.988C136.204 251.988 123.758 249.241 114.253 243.756C104.847 238.327 100.1 231.282 100.002 224.126V233.61H100.001C100.001 240.843 104.748 247.979 114.253 253.464C123.758 258.949 136.204 261.697 148.66 261.697Z" fill="#1F1F1F"/>
<path d="M102.964 233.61H148.594V251.988C136.138 251.988 123.691 249.241 114.187 243.756C109.689 241.318 105.841 237.839 102.964 233.61Z" fill="#1F1F1F"/>
<path d="M114.375 243.545C123.772 248.968 136.074 251.709 148.417 251.745V224.145H100.246C100.352 231.178 105.022 238.147 114.375 243.545Z" stroke="white" stroke-width="0.48709" stroke-linejoin="round"/>
<g opacity="0.2">
<path d="M137.428 250.739L118.18 224.392H135.837L148.172 239.978L148.172 251.501C148.172 251.501 144.044 251.351 142.907 251.322C141.77 251.292 137.428 250.739 137.428 250.739Z" fill="url(#paint0_linear_1689_21797)"/>
<path d="M114.151 224.392L132.287 249.88C132.287 249.88 127.042 248.672 124.177 247.677C121.313 246.683 116.499 244.455 116.499 244.455L109.497 234.482L103.02 224.392L114.151 224.392Z" fill="url(#paint1_linear_1689_21797)"/>
</g>
<mask id="path-8-inside-1_1689_21797" fill="white">
<path fill-rule="evenodd" clip-rule="evenodd" d="M148.594 223.902H148.66V224.389V233.61V251.501V251.988V261.697C136.204 261.697 123.758 258.949 114.253 253.464C104.952 248.096 100.206 241.148 100.007 234.075H100.002V233.835C100.001 233.76 100.001 233.685 100.001 233.61H100.002V224.126C100.001 224.051 100.001 223.977 100.001 223.902H100.002H100.488H148.173H148.594Z"/>
</mask>
<path d="M148.66 223.902V223.412C148.93 223.412 149.149 223.631 149.149 223.902H148.66ZM148.66 261.697H149.149C149.149 261.967 148.93 262.186 148.66 262.186V261.697ZM114.253 253.464L114.498 253.04L114.253 253.464ZM100.007 234.075V233.585C100.272 233.585 100.489 233.796 100.496 234.061L100.007 234.075ZM100.002 234.075V234.564C99.7323 234.564 99.5133 234.345 99.5133 234.075H100.002ZM100.002 233.835L100.492 233.828V233.835H100.002ZM100.001 233.61H99.5118C99.5118 233.34 99.7308 233.121 100.001 233.121V233.61ZM100.002 233.61H100.492C100.492 233.88 100.273 234.099 100.002 234.099V233.61ZM100.002 224.126L100.492 224.12V224.126H100.002ZM100.001 223.902H99.5118C99.5118 223.631 99.7308 223.412 100.001 223.412V223.902ZM148.66 224.391H148.594V223.412H148.66V224.391ZM148.171 224.389V223.902H149.149V224.389H148.171ZM148.171 233.61V224.389H149.149V233.61H148.171ZM148.171 251.501V233.61H149.149V251.501H148.171ZM148.171 251.988V251.501H149.149V251.988H148.171ZM149.149 251.988V261.697H148.171V251.988H149.149ZM148.66 262.186C136.141 262.186 123.605 259.426 114.009 253.888L114.498 253.04C123.911 258.473 136.267 261.208 148.66 261.208V262.186ZM114.009 253.888C104.621 248.47 99.724 241.391 99.5185 234.088L100.496 234.061C100.689 240.904 105.283 247.722 114.498 253.04L114.009 253.888ZM100.007 234.564H100.002V233.585H100.007V234.564ZM99.5133 234.075V233.835H100.492V234.075H99.5133ZM99.5134 233.841C99.5123 233.764 99.5118 233.687 99.5118 233.61H100.49C100.49 233.683 100.491 233.755 100.492 233.828L99.5134 233.841ZM100.001 233.121H100.002V234.099H100.001V233.121ZM99.5133 233.61V224.126H100.492V233.61H99.5133ZM100.49 223.902C100.49 223.974 100.491 224.047 100.492 224.12L99.5134 224.133C99.5123 224.056 99.5118 223.979 99.5118 223.902H100.49ZM100.002 224.391H100.001V223.412H100.002V224.391ZM100.488 224.391H100.002V223.412H100.488V224.391ZM148.173 224.391H100.488V223.412H148.173V224.391ZM148.594 224.391H148.173V223.412H148.594V224.391Z" fill="white" mask="url(#path-8-inside-1_1689_21797)"/>
<line x1="0.25" y1="-0.25" x2="566.75" y2="-0.25" transform="matrix(-4.37114e-08 1 1 4.37114e-08 100 150.902)" stroke="white" stroke-width="0.5" stroke-linecap="round" stroke-linejoin="round" stroke-dasharray="4 4"/>
<line opacity="0.1" x1="0.5" y1="-0.5" x2="819.5" y2="-0.5" transform="matrix(1 -3.06529e-08 -2.49187e-07 -1 -50 223.902)" stroke="white" stroke-linecap="round" stroke-linejoin="round"/>
<line opacity="0.1" x1="0.5" y1="-0.5" x2="819.5" y2="-0.5" transform="matrix(1 -3.06529e-08 -2.49187e-07 -1 -50 323.902)" stroke="white" stroke-linecap="round" stroke-linejoin="round"/>
<line opacity="0.1" x1="0.5" y1="-0.5" x2="819.5" y2="-0.5" transform="matrix(1 -3.06529e-08 -2.49187e-07 -1 -50 423.902)" stroke="white" stroke-linecap="round" stroke-linejoin="round"/>
<line opacity="0.1" x1="0.5" y1="-0.5" x2="819.5" y2="-0.5" transform="matrix(1 -3.06529e-08 -2.49187e-07 -1 -50 373.902)" stroke="white" stroke-linecap="round" stroke-linejoin="round"/>
<line opacity="0.1" x1="0.5" y1="-0.5" x2="819.5" y2="-0.5" transform="matrix(1 -3.06529e-08 -2.49187e-07 -1 -50 273.902)" stroke="white" stroke-linecap="round" stroke-linejoin="round"/>
<path d="M235.504 303.503C225.696 297.843 212.853 295.018 200 295.018V313.982H247.085C244.117 309.614 240.146 306.021 235.504 303.503Z" fill="#03EB70"/>
<path d="M235.504 303.503C225.696 297.843 212.853 295.018 200 295.018V324H250.2C250.21 316.587 245.261 309.193 235.504 303.503Z" stroke="#101010" stroke-width="0.314134" stroke-miterlimit="10" stroke-linejoin="round"/>
<path opacity="0.6" d="M235.504 293.485C225.696 287.825 212.853 285 200 285V313.982H250.2C250.21 306.569 245.261 299.175 235.504 293.485Z" fill="#03EB70"/>
<path d="M235.504 293.485C225.696 287.825 212.853 285 200 285V313.982H250.2C250.21 306.569 245.261 299.175 235.504 293.485Z" stroke="#101010" stroke-width="0.314134" stroke-miterlimit="10" stroke-linejoin="round"/>
<g opacity="0.2">
<path d="M213.783 286.326L200.258 303.029V313.735L211.852 313.723L228.816 290.522C223.406 288.175 216.54 286.747 213.783 286.326Z" fill="url(#paint2_linear_1689_21797)"/>
<path d="M232.195 292.007L216.631 313.703H228.816L240.553 297.243C238.132 295.091 233.972 292.856 232.195 292.007Z" fill="url(#paint3_linear_1689_21797)"/>
</g>
<rect opacity="0.5" x="200.16" y="314.14" width="49.8753" height="9.703" fill="#03EB70"/>
<path opacity="0.3" d="M211.853 313.728L228.86 290.444L228.13 290.225L210.734 313.728H211.853Z" fill="url(#paint4_linear_1689_21797)"/>
<g opacity="0.2">
<path d="M211.534 323.843V314.14H200.16V323.843H211.534Z" fill="url(#paint5_linear_1689_21797)"/>
<path d="M216.516 323.843V314.14H228.52V323.843H216.516Z" fill="url(#paint6_linear_1689_21797)"/>
</g>
<path d="M235.504 293.485L235.583 293.35L235.582 293.349L235.504 293.485ZM200 285V284.843H199.843V285H200ZM250.2 313.982L250.043 313.982V313.982H250.2ZM250.2 324V324.157H250.357V324H250.2ZM200 324H199.843V324.157H200V324ZM235.582 293.349C225.745 287.672 212.873 284.843 200 284.843V285.157C212.833 285.157 225.647 287.978 235.425 293.621L235.582 293.349ZM250.357 313.982C250.367 306.492 245.368 299.056 235.583 293.35L235.425 293.621C245.155 299.295 250.053 306.645 250.043 313.982L250.357 313.982ZM250.043 313.982V324H250.357V313.982H250.043ZM250.2 323.843H200V324.157H250.2V323.843ZM200.157 324V313.982H199.843V324H200.157ZM200.157 313.982V313.982H199.843V313.982H200.157ZM199.843 285V313.982H200.157V285H199.843Z" fill="#101010"/>
<line opacity="0.1" x1="250.5" y1="88.4016" x2="250.5" y2="717.402" stroke="white" stroke-linecap="round" stroke-linejoin="round"/>
<line x1="0.25" y1="-0.25" x2="629.75" y2="-0.25" transform="matrix(-4.37114e-08 1 1 4.37114e-08 200 87.9016)" stroke="white" stroke-width="0.5" stroke-linecap="round" stroke-linejoin="round" stroke-dasharray="4 4"/>
<line opacity="0.1" x1="0.5" y1="-0.5" x2="659.5" y2="-0.5" transform="matrix(-4.37114e-08 1 1 4.37114e-08 150 57.9016)" stroke="white" stroke-linecap="round" stroke-linejoin="round"/>
<line opacity="0.1" x1="0.5" y1="-0.5" x2="767.5" y2="-0.5" transform="matrix(2.42269e-08 1 1 -7.87747e-08 50 -50.0984)" stroke="white" stroke-linecap="round" stroke-linejoin="round"/>
<path opacity="0.6" d="M149.211 384.018V413C136.358 413 123.515 410.165 113.707 404.505C103.9 398.844 99.0009 391.481 99.0009 384.018H149.211Z" fill="#7A1CCA"/>
<path d="M113.833 404.287C123.53 409.883 136.223 412.711 148.96 412.748V384.269H99.2541C99.3629 391.526 104.182 398.717 113.833 404.287Z" stroke="#010101" stroke-width="0.502613"/>
<path opacity="0.6" d="M149.211 374V402.982C136.358 402.982 123.515 400.147 113.707 394.487C103.9 388.827 99.0009 381.463 99.0009 374H149.211Z" fill="#7A1CCA"/>
<path opacity="0.6" fill-rule="evenodd" clip-rule="evenodd" d="M149.215 384.018V374H149.211V402.982C136.358 402.982 123.515 400.147 113.707 394.487C108.382 391.414 104.505 387.839 102.072 384.018H99.0049C99.0049 391.481 103.904 398.844 113.711 404.505C123.519 410.165 136.362 413 149.215 413V402.982V384.018ZM102.072 384.018H99.0007V374H99.0009C99.0009 377.411 100.024 380.802 102.072 384.018Z" fill="#7A1CCA"/>
<path d="M102.052 384.018H149.137V402.982C136.284 402.982 123.441 400.147 113.633 394.487C108.992 391.972 105.021 388.382 102.052 384.018Z" fill="#7A1CCA"/>
<path d="M113.833 394.269C123.53 399.865 136.223 402.694 148.96 402.73V374.251H99.2541C99.3629 381.508 104.182 388.699 113.833 394.269Z" stroke="#010101" stroke-width="0.502613" stroke-linejoin="round"/>
<g opacity="0.2">
<path d="M137.62 401.692L117.76 374.506H135.979L148.707 390.589L148.707 402.479C148.707 402.479 144.447 402.324 143.274 402.294C142.102 402.264 137.62 401.692 137.62 401.692Z" fill="url(#paint7_linear_1689_21797)"/>
<path d="M113.602 374.506L132.315 400.807C132.315 400.807 126.903 399.559 123.948 398.533C120.992 397.507 116.025 395.208 116.025 395.208L108.8 384.917L102.116 374.506L113.602 374.506Z" fill="url(#paint8_linear_1689_21797)"/>
</g>
<mask id="path-36-inside-2_1689_21797" fill="white">
<path fill-rule="evenodd" clip-rule="evenodd" d="M99.0009 374H98.9968V384.501H99.0078C99.2147 391.798 104.111 398.967 113.707 404.505C123.515 410.165 136.358 413 149.211 413V402.982V384.018V374H149.137H99.0009Z"/>
</mask>
<path d="M98.9968 374H98.4921V373.495H98.9968V374ZM98.9968 384.501V385.006H98.4921V384.501H98.9968ZM99.0078 384.501V383.996H99.4984L99.5123 384.487L99.0078 384.501ZM113.707 404.505L113.96 404.068L113.707 404.505ZM149.211 413H149.716V413.505H149.211V413ZM149.211 374V373.495H149.716V374H149.211ZM98.9968 373.495H99.0009V374.505H98.9968V373.495ZM98.4921 384.501V374H99.5015V384.501H98.4921ZM99.0078 385.006H98.9968V383.996H99.0078V385.006ZM113.455 404.942C103.77 399.352 98.7169 392.049 98.5033 384.515L99.5123 384.487C99.7125 391.547 104.453 398.581 113.96 404.068L113.455 404.942ZM149.211 413.505C136.293 413.505 123.357 410.657 113.455 404.942L113.96 404.068C123.673 409.673 136.423 412.495 149.211 412.495V413.505ZM149.716 402.982V413H148.706V402.982H149.716ZM149.716 384.018V402.982H148.706V384.018H149.716ZM149.716 374V384.018H148.706V374H149.716ZM149.137 373.495H149.211V374.505H149.137V373.495ZM99.0009 373.495H149.137V374.505H99.0009V373.495Z" fill="#101010" mask="url(#path-36-inside-2_1689_21797)"/>
</g>
<defs>
<linearGradient id="paint0_linear_1689_21797" x1="129.022" y1="223.902" x2="129.022" y2="255.59" gradientUnits="userSpaceOnUse">
<stop stop-color="white"/>
<stop offset="1" stop-color="white" stop-opacity="0"/>
</linearGradient>
<linearGradient id="paint1_linear_1689_21797" x1="129.022" y1="223.902" x2="129.022" y2="255.59" gradientUnits="userSpaceOnUse">
<stop stop-color="white"/>
<stop offset="1" stop-color="white" stop-opacity="0"/>
</linearGradient>
<linearGradient id="paint2_linear_1689_21797" x1="220.405" y1="286.326" x2="220.405" y2="319.024" gradientUnits="userSpaceOnUse">
<stop stop-color="white"/>
<stop offset="1" stop-color="white" stop-opacity="0"/>
</linearGradient>
<linearGradient id="paint3_linear_1689_21797" x1="220.405" y1="286.326" x2="220.405" y2="319.024" gradientUnits="userSpaceOnUse">
<stop stop-color="white"/>
<stop offset="1" stop-color="white" stop-opacity="0"/>
</linearGradient>
<linearGradient id="paint4_linear_1689_21797" x1="219.797" y1="290.225" x2="216.111" y2="313.191" gradientUnits="userSpaceOnUse">
<stop stop-color="white"/>
<stop offset="1" stop-color="white" stop-opacity="0"/>
</linearGradient>
<linearGradient id="paint5_linear_1689_21797" x1="214.34" y1="314.14" x2="214.34" y2="323.843" gradientUnits="userSpaceOnUse">
<stop offset="0.43379" stop-color="white"/>
<stop offset="1" stop-color="white" stop-opacity="0"/>
</linearGradient>
<linearGradient id="paint6_linear_1689_21797" x1="214.34" y1="314.14" x2="214.34" y2="323.843" gradientUnits="userSpaceOnUse">
<stop offset="0.43379" stop-color="white"/>
<stop offset="1" stop-color="white" stop-opacity="0"/>
</linearGradient>
<linearGradient id="paint7_linear_1689_21797" x1="128.947" y1="374" x2="128.947" y2="406.698" gradientUnits="userSpaceOnUse">
<stop stop-color="white"/>
<stop offset="1" stop-color="white" stop-opacity="0"/>
</linearGradient>
<linearGradient id="paint8_linear_1689_21797" x1="128.947" y1="374" x2="128.947" y2="406.698" gradientUnits="userSpaceOnUse">
<stop stop-color="white"/>
<stop offset="1" stop-color="white" stop-opacity="0"/>
</linearGradient>
<clipPath id="clip0_1689_21797">
<rect width="390" height="768" fill="white" transform="matrix(-1 0 0 1 340 -50.0984)"/>
</clipPath>
</defs>
</svg>
