<svg width="32" height="32" viewBox="0 0 32 32" fill="none" xmlns="http://www.w3.org/2000/svg">
<g clip-path="url(#clip0_1336_16657)">
<rect width="32" height="32" rx="16" fill="#0092FF"/>
<path d="M8.99736 13.3313C9.01992 13.5657 9.07819 13.7689 9.10268 13.9465L8.12909 14.7058C7.90866 14.8711 7.85355 15.1712 7.98826 15.41L8.85286 16.904C8.98757 17.1367 9.27536 17.2408 9.53376 17.1367L10.4033 16.7816C10.5747 16.7081 10.7645 16.7387 10.9176 16.8367C11.0523 16.9224 11.187 17.0081 11.334 17.0816C11.4993 17.1612 11.6156 17.3143 11.6401 17.498L11.7687 18.4226C11.8055 18.692 12.0381 18.8941 12.3076 18.8941H14.0325C14.3019 18.8941 14.5346 18.692 14.5713 18.4226L14.6999 17.4919C14.7244 17.3082 14.8469 17.1551 15.0122 17.0694C15.153 16.9959 15.2939 16.9101 15.4286 16.8244C15.5817 16.7203 15.7715 16.6897 15.949 16.7571L16.8124 17.1061C17.0635 17.2041 17.3513 17.1061 17.4921 16.8673L18.3555 15.3671C18.4902 15.1283 18.4289 14.8221 18.2146 14.6568L17.241 13.8914C17.2594 13.7138 17.2778 13.5301 17.2778 13.3464C17.2778 13.1627 17.2594 12.979 17.2349 12.8015L18.2024 12.0361C18.4167 11.8646 18.4718 11.5646 18.3371 11.3258L17.4676 9.82559C17.3268 9.58679 17.039 9.48882 16.7818 9.58679L15.9123 9.93581C15.7347 10.0032 15.5449 9.97255 15.3918 9.86846C15.2571 9.77661 15.1163 9.69701 14.9693 9.62353C14.7979 9.5378 14.6815 9.38901 14.6509 9.20103L14.5162 8.2752C14.4734 7.99965 14.2407 7.80371 13.9712 7.80371H12.2463C11.9708 7.80371 11.7381 7.99965 11.7014 8.2752L11.5667 9.1998C11.536 9.37738 11.4197 9.53046 11.2544 9.61618C11.1074 9.68966 10.9666 9.76926 10.8319 9.86111C10.6727 9.95908 10.4829 9.9897 10.3114 9.91622L9.43579 9.56107C9.17861 9.45698 8.89082 9.55495 8.75489 9.79375L7.89029 11.2878C7.74945 11.5205 7.81069 11.8267 8.025 11.992L8.99736 12.7513C8.97287 12.9227 8.97771 13.1272 8.99736 13.3313Z" fill="#101010" stroke="#101010" stroke-width="0.883868" stroke-linecap="round" stroke-linejoin="round"/>
<path d="M14.363 12.2382C15.006 12.8812 15.006 13.9282 14.363 14.5712C13.714 15.2141 12.6669 15.2141 12.024 14.5712C11.3749 13.9221 11.3749 12.875 12.0234 12.2321C12.6663 11.5831 13.7134 11.5831 14.3563 12.2315" fill="#0092FF"/>
<path d="M14.363 12.2382C15.006 12.8812 15.006 13.9282 14.363 14.5712C13.714 15.2141 12.6669 15.2141 12.024 14.5712C11.3749 13.9221 11.3749 12.875 12.0234 12.2321C12.6663 11.5831 13.7134 11.5831 14.3563 12.2315" stroke="#0092FF" stroke-width="0.883868" stroke-linecap="round" stroke-linejoin="round"/>
<path d="M17.6464 20.3391C17.6621 20.5016 17.7025 20.6425 17.7195 20.7657L17.0444 21.2922C16.8915 21.4068 16.8533 21.6149 16.9467 21.7805L17.5462 22.8165C17.6396 22.9778 17.8392 23.05 18.0184 22.9778L18.6213 22.7316C18.7402 22.6806 18.8718 22.7018 18.978 22.7698C19.0714 22.8292 19.1648 22.8887 19.2667 22.9396C19.3813 22.9948 19.462 23.1009 19.479 23.2283L19.5682 23.8695C19.5936 24.0563 19.755 24.1964 19.9418 24.1964H21.1379C21.3247 24.1964 21.4861 24.0563 21.5115 23.8695L21.6007 23.2241C21.6177 23.0967 21.7026 22.9906 21.8172 22.9311C21.9149 22.8802 22.0126 22.8207 22.106 22.7613C22.2121 22.6891 22.3437 22.6679 22.4669 22.7146L23.0656 22.9566C23.2396 23.0245 23.4392 22.9566 23.5369 22.791L24.1356 21.7507C24.229 21.5851 24.1865 21.3728 24.0379 21.2582L23.3628 20.7274C23.3755 20.6043 23.3883 20.4769 23.3883 20.3496C23.3883 20.2222 23.3755 20.0948 23.3585 19.9717L24.0294 19.4409C24.178 19.322 24.2162 19.114 24.1228 18.9484L23.5199 17.9081C23.4222 17.7425 23.2227 17.6746 23.0443 17.7425L22.4414 17.9846C22.3183 18.0313 22.1866 18.01 22.0805 17.9378C21.9871 17.8742 21.8894 17.819 21.7875 17.768C21.6686 17.7086 21.588 17.6054 21.5667 17.475L21.4733 16.833C21.4436 16.642 21.2823 16.5061 21.0954 16.5061H19.8993C19.7083 16.5061 19.5469 16.642 19.5215 16.833L19.428 17.4742C19.4068 17.5973 19.3261 17.7035 19.2115 17.7629C19.1096 17.8139 19.0119 17.8691 18.9185 17.9328C18.8081 18.0007 18.6765 18.0219 18.5576 17.971L17.9504 17.7247C17.7721 17.6525 17.5725 17.7205 17.4783 17.886L16.8788 18.9221C16.7811 19.0834 16.8236 19.2957 16.9722 19.4103L17.6464 19.9368C17.6294 20.0557 17.6328 20.1975 17.6464 20.3391Z" fill="white" stroke="white" stroke-width="0.612894" stroke-linecap="round" stroke-linejoin="round"/>
<path d="M21.3658 19.5811C21.8116 20.0269 21.8116 20.753 21.3658 21.1988C20.9157 21.6447 20.1897 21.6447 19.7439 21.1988C19.2938 20.7488 19.2938 20.0227 19.7434 19.5769C20.1893 19.1268 20.9153 19.1268 21.3611 19.5764" fill="#0092FF"/>
<path d="M21.3658 19.5811C21.8116 20.0269 21.8116 20.753 21.3658 21.1988C20.9157 21.6447 20.1897 21.6447 19.7439 21.1988C19.2938 20.7488 19.2938 20.0227 19.7434 19.5769C20.1893 19.1268 20.9153 19.1268 21.3611 19.5764" stroke="#0092FF" stroke-width="0.612894" stroke-linecap="round" stroke-linejoin="round"/>
</g>
<defs>
<clipPath id="clip0_1336_16657">
<rect width="32" height="32" fill="white"/>
</clipPath>
</defs>
</svg>
