<svg width="32" height="32" viewBox="0 0 32 32" fill="none" xmlns="http://www.w3.org/2000/svg">
<g clip-path="url(#clip0_1316_17234)">
<rect width="32" height="32" rx="16" fill="#0092FF"/>
<g clip-path="url(#clip1_1316_17234)">
<path d="M21.3026 10.6917C24.2276 13.6167 24.2276 18.3668 21.3026 21.2918C18.3693 24.2168 13.6193 24.2168 10.6943 21.2918C7.76091 18.3584 7.76091 13.6084 10.6934 10.6834C13.6184 7.75004 18.3685 7.75004 21.2935 10.6826" fill="#101010"/>
<path d="M21.3026 10.6917C24.2276 13.6167 24.2276 18.3668 21.3026 21.2918C18.3693 24.2168 13.6193 24.2168 10.6943 21.2918C7.76091 18.3584 7.76091 13.6084 10.6934 10.6834C13.6184 7.75004 18.3685 7.75004 21.2935 10.6826" stroke="#101010" stroke-width="1.25001" stroke-linecap="round" stroke-linejoin="round"/>
<path d="M17.2487 18.0835C15.632 18.0835 14.332 16.7751 14.332 15.1668C14.332 13.5501 15.632 12.2501 17.2487 12.2501C18.8571 12.2501 20.1654 13.5501 20.1654 15.1668C20.1654 16.7751 18.8571 18.0835 17.2487 18.0835Z" fill="white" stroke="white" stroke-width="1.25001" stroke-linecap="round" stroke-linejoin="round"/>
<path d="M14.607 13.925C13.057 14 11.832 15.2584 11.832 16.8251C11.832 18.4334 13.132 19.7417 14.7487 19.7417C15.907 19.7417 16.9096 19.0501 17.3737 18.0667" stroke="white" stroke-width="1.25001" stroke-linecap="round" stroke-linejoin="round"/>
</g>
</g>
<defs>
<clipPath id="clip0_1316_17234">
<rect width="32" height="32" fill="white"/>
</clipPath>
<clipPath id="clip1_1316_17234">
<rect width="20.0001" height="20.0001" fill="white" transform="translate(6 6)"/>
</clipPath>
</defs>
</svg>
