<svg width="32" height="32" viewBox="0 0 32 32" fill="none" xmlns="http://www.w3.org/2000/svg">
<g clip-path="url(#clip0_1353_16908)">
<rect width="32" height="32" rx="16" fill="#E126C3"/>
<g clip-path="url(#clip1_1353_16908)">
<path d="M21.0513 16.0485L20.9879 12.5558C20.9296 11.68 20.2029 11 19.3254 11H10.7771C9.89961 11 9.17294 11.68 9.11461 12.5558L8.50377 21.7233C8.43961 22.685 9.20211 23.5 10.1663 23.5H14.251" fill="#101010"/>
<path d="M21.0513 16.0485L20.9879 12.5558C20.9296 11.68 20.2029 11 19.3254 11H10.7771C9.89961 11 9.17294 11.68 9.11461 12.5558L8.50377 21.7233C8.43961 22.685 9.20211 23.5 10.1663 23.5H14.251L13.884 22.6174V16.4521L14.7281 16.0485H21.0513Z" stroke="black" stroke-linecap="round" stroke-linejoin="round"/>
<path d="M12.5508 11V10.1667C12.5508 8.78585 13.6699 7.66669 15.0508 7.66669C16.4316 7.66669 17.5508 8.78585 17.5508 10.1667V11" stroke="#101010" stroke-width="1.25" stroke-linecap="round" stroke-linejoin="round"/>
<path d="M14.9291 16H22.4291C23.0216 16 23.5008 16.4792 23.5008 17.0717V22.4292C23.5008 23.0208 23.0216 23.5 22.4291 23.5H14.9291C14.3374 23.5 13.8574 23.0208 13.8574 22.4283V17.0708C13.8583 16.4792 14.3374 16 14.9291 16Z" fill="white" stroke="white" stroke-width="1.25" stroke-linecap="round" stroke-linejoin="round"/>
<path d="M16.8027 18.5C16.8027 19.5358 17.6419 20.375 18.6777 20.375C19.7136 20.375 20.5527 19.5358 20.5527 18.5" stroke="#101010" stroke-width="1.25" stroke-linecap="round" stroke-linejoin="round"/>
</g>
</g>
<defs>
<clipPath id="clip0_1353_16908">
<rect width="32" height="32" fill="white"/>
</clipPath>
<clipPath id="clip1_1353_16908">
<rect width="20" height="20" fill="white" transform="translate(6 6)"/>
</clipPath>
</defs>
</svg>
