<svg width="112" height="27" viewBox="0 0 112 27" fill="none" xmlns="http://www.w3.org/2000/svg">
<g clip-path="url(#clip0_1761_23376)">
<path d="M30.7289 14.0137V20.5286C30.7266 20.9349 30.6188 21.3336 30.4162 21.6857C30.2136 22.0379 29.9231 22.3314 29.5731 22.5377L23.9296 25.7884C23.58 25.9967 23.1807 26.1067 22.7738 26.1067C22.3669 26.1067 21.9675 25.9967 21.618 25.7884L15.9744 22.5377C15.6244 22.3314 15.3339 22.0379 15.1313 21.6857C14.9287 21.3336 14.821 20.9349 14.8187 20.5286V18.7001L17.7081 17.0228V20.2013L22.7648 23.1359L27.8213 20.2013V14.3455L22.7648 11.4109L10.9178 18.2735C10.565 18.4722 10.167 18.5767 9.76201 18.5767C9.35711 18.5767 8.95904 18.4722 8.60624 18.2735L2.96268 15.0092C2.61805 14.7998 2.33314 14.5052 2.1354 14.1537C1.93772 13.8022 1.83392 13.4057 1.83398 13.0024V6.48748C1.83633 6.08119 1.94408 5.68253 2.14668 5.33033C2.34923 4.97819 2.63978 4.68464 2.98976 4.47837L8.63332 1.2277C8.9836 1.02143 9.38262 0.912659 9.78909 0.912659C10.1956 0.912659 10.5946 1.02143 10.9449 1.2277L16.5885 4.47837C16.9385 4.68464 17.229 4.97819 17.4316 5.33033C17.6342 5.68253 17.7419 6.08119 17.7443 6.48748V8.31596L14.8367 9.98194V6.82155L9.78008 3.88695L4.72345 6.82155V12.6705L9.78008 15.6052L21.627 8.74266C21.9798 8.54384 22.3779 8.43944 22.7828 8.43944C23.1877 8.43944 23.5858 8.54384 23.9386 8.74266L29.5822 12.0068C29.9302 12.2141 30.2187 12.5077 30.4196 12.8594C30.6206 13.2111 30.7271 13.6087 30.7289 14.0137Z" fill="#7B3FE4"/>
<path d="M40.7882 22.8968V17.8199C41.339 18.5129 42.339 18.9012 43.4971 18.9012C46.4542 18.9012 48.4521 16.8018 48.4521 13.6008C48.4521 10.3998 46.6168 8.30038 43.7431 8.30038C42.418 8.30038 41.3977 8.79024 40.7859 9.58486V8.45611H37.9551V22.89L40.7882 22.8968ZM43.1471 16.4541C41.6166 16.4541 40.6188 15.3119 40.6188 13.6008C40.6188 11.8897 41.6166 10.7271 43.1471 10.7271C44.6348 10.7271 45.6551 11.8558 45.6551 13.6008C45.6551 15.3458 44.6415 16.4541 43.1471 16.4541Z" fill="white"/>
<path d="M54.8866 18.9012C58.0472 18.9012 60.3044 16.6573 60.3044 13.6008C60.3044 10.5442 58.0472 8.30038 54.8866 8.30038C51.7261 8.30038 49.4688 10.542 49.4688 13.6008C49.4688 16.6596 51.7261 18.9012 54.8866 18.9012ZM54.8866 16.4541C53.3583 16.4541 52.3176 15.2916 52.3176 13.6008C52.3176 11.91 53.3605 10.7271 54.8866 10.7271C56.4126 10.7271 57.4553 11.8874 57.4553 13.6008C57.4553 15.3141 56.4168 16.4541 54.8866 16.4541Z" fill="white"/>
<path d="M64.8582 18.7387V3.99779H62.0254V18.7387H64.8582Z" fill="white"/>
<path d="M73.3751 8.46286L71.235 15.0884L69.0745 8.46286H66.1738L69.9029 18.6551L68.395 22.8968H71.1042L72.5599 18.7003L76.2914 8.46736L73.3751 8.46286Z" fill="white"/>
<path d="M84.2472 9.48323C83.6757 8.76989 82.6672 8.30038 81.4138 8.30038C78.4164 8.30038 76.6035 10.3998 76.6035 13.6008C76.6035 16.8018 78.4092 18.9012 81.4546 18.9012C82.6576 18.9012 83.737 18.4497 84.2677 17.698V19.0524C84.2677 20.0096 83.6355 20.6823 82.7801 20.6823H78.0503V22.9058H83.2291C85.5517 22.9058 87.1005 21.4995 87.1005 19.3572V8.46289H84.2472V9.48323ZM81.9036 16.4541C80.3939 16.4541 79.3962 15.3254 79.3962 13.6008C79.3962 11.8761 80.3939 10.7271 81.9036 10.7271C83.414 10.7271 84.4297 11.8558 84.4297 13.6008C84.4297 15.3458 83.432 16.4541 81.9036 16.4541Z" fill="white"/>
<path d="M94.2459 18.9012C97.4065 18.9012 99.6637 16.6573 99.6637 13.6008C99.6637 10.5442 97.4065 8.30038 94.2459 8.30038C91.0859 8.30038 88.8281 10.542 88.8281 13.6008C88.8281 16.6596 91.0859 18.9012 94.2459 18.9012ZM94.2459 16.4541C92.7157 16.4541 91.6772 15.2916 91.6772 13.6008C91.6772 11.91 92.7157 10.7271 94.2459 10.7271C95.7767 10.7271 96.8152 11.8874 96.8152 13.6008C96.8152 15.3141 95.7743 16.4541 94.2459 16.4541Z" fill="white"/>
<path d="M104.072 18.7387V13.1109C104.072 11.7858 104.948 10.8287 106.192 10.8287C107.375 10.8287 108.169 11.7316 108.169 12.9687V18.7387H111.022V12.3366C111.022 9.97086 109.515 8.30038 107.185 8.30038C105.779 8.30038 104.639 8.89181 104.068 9.88058V8.46289H101.219V18.7387H104.072Z" fill="white"/>
</g>
<defs>
<clipPath id="clip0_1761_23376">
<rect width="110.689" height="26.1058" fill="white" transform="translate(0.878906 0.145142)"/>
</clipPath>
</defs>
</svg>
