<svg width="388" height="348" viewBox="0 0 388 348" fill="none" xmlns="http://www.w3.org/2000/svg">
<g clip-path="url(#clip0_1289_16776)">
<line opacity="0.1" x1="387.5" y1="50.5" x2="0.5" y2="50.5" stroke="#101010" stroke-linecap="round" stroke-linejoin="round"/>
<line opacity="0.1" x1="387.5" y1="250.5" x2="0.5" y2="250.5" stroke="#101010" stroke-linecap="round" stroke-linejoin="round"/>
<line opacity="0.1" x1="387.5" y1="300.5" x2="0.5" y2="300.5" stroke="#101010" stroke-linecap="round" stroke-linejoin="round"/>
<line opacity="0.1" x1="387.5" y1="200.5" x2="0.5" y2="200.5" stroke="#101010" stroke-linecap="round" stroke-linejoin="round"/>
<line opacity="0.1" x1="387.5" y1="100.5" x2="0.5" y2="100.5" stroke="#101010" stroke-linecap="round" stroke-linejoin="round"/>
<line opacity="0.1" x1="387.5" y1="150.5" x2="0.5" y2="150.5" stroke="#101010" stroke-linecap="round" stroke-linejoin="round"/>
<line x1="248.25" y1="0.25" x2="248.25" y2="565.75" stroke="#101010" stroke-width="0.5" stroke-linecap="round" stroke-linejoin="round" stroke-dasharray="4 4"/>
<line x1="148.25" y1="0.25" x2="148.25" y2="691.75" stroke="#101010" stroke-width="0.5" stroke-linecap="round" stroke-linejoin="round" stroke-dasharray="4 4"/>
<line x1="48.25" y1="0.25" x2="48.25" y2="709.75" stroke="#101010" stroke-width="0.5" stroke-linecap="round" stroke-linejoin="round" stroke-dasharray="4 4"/>
<line opacity="0.1" x1="198.5" y1="0.5" x2="198.5" y2="436.5" stroke="#101010" stroke-linecap="round" stroke-linejoin="round"/>
<line opacity="0.1" x1="98.5" y1="0.5" x2="98.5" y2="436.5" stroke="#101010" stroke-linecap="round" stroke-linejoin="round"/>
<line opacity="0.1" x1="298.5" y1="0.5" x2="298.5" y2="436.5" stroke="#101010" stroke-linecap="round" stroke-linejoin="round"/>
<path opacity="0.6" d="M148.66 160.108V189.349C135.692 189.349 122.734 186.489 112.839 180.778C102.943 175.067 98.0007 167.638 98.0007 160.108H148.66Z" fill="#03EB70"/>
<path d="M113.003 180.493C122.753 186.12 135.516 188.972 148.332 189.02V160.436H98.3326C98.4743 167.696 103.313 174.901 113.003 180.493Z" stroke="#010101" stroke-width="0.657266"/>
<path opacity="0.6" d="M148.66 150V179.241C135.692 179.241 122.734 176.381 112.839 170.67C102.943 164.959 98.0007 157.53 98.0007 150H148.66Z" fill="#03EB70"/>
<path opacity="0.6" fill-rule="evenodd" clip-rule="evenodd" d="M148.66 189.349V179.241C135.692 179.241 122.734 176.381 112.839 170.67C107.466 167.57 103.554 163.962 101.099 160.108L101.1 160.108H98.0007C98.0007 167.638 102.943 175.067 112.839 180.778C122.734 186.489 135.692 189.349 148.66 189.349ZM98.0011 150.119V160.108H101.099C99.0571 156.9 98.0247 153.521 98.0011 150.119Z" fill="#03EB70"/>
<path d="M101.084 160.108H148.59V179.241C135.622 179.241 122.664 176.381 112.768 170.67C108.086 168.133 104.08 164.511 101.084 160.108V160.108Z" fill="#03EB70"/>
<path d="M113.003 170.385C122.753 176.013 135.516 178.864 148.332 178.912V150.329H98.3326C98.4743 157.589 103.313 164.793 113.003 170.385Z" stroke="#010101" stroke-width="0.657266" stroke-linejoin="round"/>
<g opacity="0.5">
<path d="M136.967 177.94L116.928 150.51H135.31L148.152 166.737L148.152 178.734C148.152 178.734 143.855 178.578 142.671 178.547C141.488 178.517 136.967 177.94 136.967 177.94Z" fill="url(#paint0_linear_1289_16776)"/>
<path d="M112.733 150.51L131.614 177.047C131.614 177.047 126.153 175.788 123.171 174.753C120.189 173.717 115.178 171.398 115.178 171.398L107.888 161.015L101.145 150.51L112.733 150.51Z" fill="url(#paint1_linear_1289_16776)"/>
</g>
<mask id="path-20-inside-1_1289_16776" fill="white">
<path fill-rule="evenodd" clip-rule="evenodd" d="M148.59 150H148.66V160.108V179.241V189.349C135.692 189.349 122.734 186.489 112.839 180.778C103.153 175.188 98.2122 167.952 98.0074 160.586H98.0011V160.227C98.0009 160.187 98.0007 160.148 98.0007 160.108H98.0011V150.119C98.0009 150.079 98.0007 150.04 98.0007 150H98.0011H148.59Z"/>
</mask>
<path d="M148.66 150V149.34H149.32V150H148.66ZM148.66 189.349H149.32V190.009H148.66V189.349ZM112.839 180.778L112.509 181.35L112.839 180.778ZM98.0074 160.586V159.926H98.6493L98.6671 160.567L98.0074 160.586ZM98.0011 160.586V161.246H97.3411V160.586H98.0011ZM98.0011 160.227L98.6611 160.222V160.227H98.0011ZM98.0007 160.108H97.3407V159.448H98.0007V160.108ZM98.0011 160.108H98.6611V160.768H98.0011V160.108ZM98.0011 150.119L98.6611 150.115V150.119H98.0011ZM98.0007 150H97.3407V149.34H98.0007V150ZM148.59 149.34H148.66V150.66H148.59V149.34ZM149.32 150V160.108H148V150H149.32ZM149.32 160.108V179.241H148V160.108H149.32ZM149.32 179.241V189.349H148V179.241H149.32ZM148.66 190.009C135.607 190.009 122.528 187.132 112.509 181.35L113.169 180.206C122.94 185.846 135.777 188.689 148.66 188.689V190.009ZM112.509 181.35C102.706 175.692 97.561 168.28 97.3476 160.604L98.6671 160.567C98.8633 167.623 103.599 174.684 113.169 180.206L112.509 181.35ZM98.0074 161.246H98.0011V159.926H98.0074V161.246ZM97.3411 160.586V160.227H98.6611V160.586H97.3411ZM97.3412 160.231C97.3409 160.19 97.3407 160.149 97.3407 160.108H98.6607C98.6607 160.146 98.6609 160.184 98.6611 160.222L97.3412 160.231ZM98.0007 159.448H98.0011V160.768H98.0007V159.448ZM97.3411 160.108V150.119H98.6611V160.108H97.3411ZM97.3412 150.124C97.3409 150.082 97.3407 150.041 97.3407 150H98.6607C98.6607 150.038 98.6609 150.076 98.6611 150.115L97.3412 150.124ZM98.0007 149.34H98.0011V150.66H98.0007V149.34ZM98.0011 149.34H148.59V150.66H98.0011V149.34Z" fill="#101010" mask="url(#path-20-inside-1_1289_16776)"/>
<path opacity="0.6" d="M298 213.1V251C314.808 251 331.603 247.292 344.428 239.891C357.253 232.489 363.659 222.86 363.659 213.1H298Z" fill="#7A1CCA"/>
<path d="M344.264 239.606C331.583 246.924 314.984 250.623 298.329 250.671V213.429H363.328C363.186 222.918 356.884 232.323 344.264 239.606Z" stroke="#010101" stroke-width="0.657263"/>
<path opacity="0.6" d="M298 200V237.899C314.808 237.899 331.603 234.192 344.428 226.79C357.253 219.389 363.659 209.76 363.659 200H298Z" fill="#7A1CCA"/>
<path opacity="0.6" fill-rule="evenodd" clip-rule="evenodd" d="M298 251V237.899C314.808 237.899 331.603 234.192 344.428 226.79C357.253 219.389 363.659 209.76 363.659 200H363.659L363.659 200.018V213.1H359.643L359.643 213.1H363.659C363.659 222.86 357.253 232.489 344.428 239.891C331.603 247.292 314.808 251 298 251Z" fill="#7A1CCA"/>
<path d="M359.664 213.1H298.092V237.899C314.9 237.899 331.694 234.192 344.52 226.79C350.588 223.501 355.781 218.807 359.664 213.1V213.1Z" fill="#7A1CCA"/>
<path d="M344.264 226.506C331.583 233.824 314.984 237.522 298.329 237.57V200.329H363.328C363.186 209.818 356.884 219.222 344.264 226.506Z" stroke="#010101" stroke-width="0.657263" stroke-linejoin="round"/>
<g opacity="0.2">
<path d="M313.156 236.213L339.128 200.662H315.303L298.658 221.693L298.658 237.242C298.658 237.242 304.228 237.039 305.762 237C307.296 236.961 313.156 236.213 313.156 236.213Z" fill="url(#paint2_linear_1289_16776)"/>
<path d="M344.565 200.662L320.093 235.055C320.093 235.055 327.171 233.424 331.036 232.082C334.901 230.74 341.396 227.734 341.396 227.734L350.845 214.276L359.584 200.661L344.565 200.662Z" fill="url(#paint3_linear_1289_16776)"/>
</g>
<mask id="path-29-inside-2_1289_16776" fill="white">
<path fill-rule="evenodd" clip-rule="evenodd" d="M363.659 200H363.659V213.572H363.654C363.451 223.17 357.047 232.608 344.428 239.891C331.603 247.292 314.808 251 298 251V237.899V213.1V200H298.092H363.659Z"/>
</mask>
<path d="M363.659 200H364.319V199.34H363.659V200ZM363.659 213.572V214.232H364.319V213.572H363.659ZM363.654 213.572V212.912H363.008L362.994 213.558L363.654 213.572ZM344.428 239.891L344.758 240.462L344.428 239.891ZM298 251H297.34V251.66H298V251ZM298 200V199.34H297.34V200H298ZM363.659 199.34H363.659V200.66H363.659V199.34ZM364.319 213.572V200H362.999V213.572H364.319ZM363.654 214.232H363.659V212.912H363.654V214.232ZM344.758 240.462C357.494 233.112 364.104 223.496 364.314 213.586L362.994 213.558C362.798 222.843 356.599 232.104 344.098 239.319L344.758 240.462ZM298 251.66C314.893 251.66 331.809 247.935 344.758 240.462L344.098 239.319C331.396 246.649 314.722 250.34 298 250.34V251.66ZM297.34 237.899V251H298.66V237.899H297.34ZM297.34 213.1V237.899H298.66V213.1H297.34ZM297.34 200V213.1H298.66V200H297.34ZM298.092 199.34H298V200.66H298.092V199.34ZM363.659 199.34H298.092V200.66H363.659V199.34Z" fill="#101010" mask="url(#path-29-inside-2_1289_16776)"/>
<path opacity="0.6" d="M248 60.1758V89.6137C261.055 89.6137 274.1 86.734 284.062 80.9848C294.024 75.2356 299 67.7566 299 60.1758H248Z" fill="#03EB70"/>
<path d="M283.935 80.7638C274.085 86.448 261.192 89.3208 248.255 89.3581V60.431H298.743C298.632 67.8018 293.737 75.1065 283.935 80.7638Z" stroke="#010101" stroke-width="0.510521"/>
<path opacity="0.6" d="M248 50V79.4379C261.055 79.4379 274.1 76.5583 284.062 70.8091C294.024 65.0599 299 57.5808 299 50H248Z" fill="#03EB70"/>
<path opacity="0.6" fill-rule="evenodd" clip-rule="evenodd" d="M248 89.6136V79.438C261.055 79.438 274.1 76.5583 284.062 70.8091C289.471 67.6876 293.41 64.0562 295.881 60.1755L295.88 60.1757H299C299 67.7565 294.024 75.2355 284.062 80.9847C274.1 86.7339 261.055 89.6136 248 89.6136ZM299 50C299 53.4649 297.961 56.9086 295.881 60.1755H299.001V50H299Z" fill="#03EB70"/>
<path d="M295.897 60.1758H248.072V79.4382C261.128 79.4382 274.173 76.5585 284.135 70.8093C288.848 68.2546 292.882 64.6085 295.897 60.1758V60.1758Z" fill="#03EB70"/>
<path d="M283.935 70.588C274.085 76.2722 261.192 79.145 248.255 79.1823V50.2553H298.743C298.632 57.626 293.737 64.9307 283.935 70.588Z" stroke="#010101" stroke-width="0.510521" stroke-linejoin="round"/>
<g opacity="0.5">
<path d="M259.773 78.1282L279.946 50.5138H261.44L248.512 66.8499L248.512 78.9275C248.512 78.9275 252.838 78.7697 254.03 78.7391C255.221 78.7086 259.773 78.1282 259.773 78.1282Z" fill="url(#paint4_linear_1289_16776)"/>
<path d="M284.169 50.5138L265.161 77.2285C265.161 77.2285 270.659 75.9617 273.661 74.9193C276.663 73.8769 281.708 71.5419 281.708 71.5419L289.047 61.089L295.835 50.5137L284.169 50.5138Z" fill="url(#paint5_linear_1289_16776)"/>
</g>
<mask id="path-38-inside-3_1289_16776" fill="white">
<path fill-rule="evenodd" clip-rule="evenodd" d="M248.07 50H248V50.5105V60.1757V78.9274V79.438V89.6136C261.055 89.6136 274.1 86.7339 284.062 80.9847C293.694 75.4262 298.664 68.2507 298.984 60.9297H298.999V60.3515C299 60.2929 299 60.2343 299 60.1757H298.999V50.1759C299 50.1173 299 50.0586 299 50H298.999H298.489H248.511H248.07Z"/>
</mask>
<path d="M248 50V49.49C247.718 49.49 247.49 49.7183 247.49 50H248ZM248 89.6136H247.49C247.49 89.8953 247.718 90.1236 248 90.1236V89.6136ZM284.062 80.9847L283.807 80.543L284.062 80.9847ZM298.984 60.9297V60.4197C298.711 60.4197 298.486 60.6347 298.474 60.9074L298.984 60.9297ZM298.999 60.9297V61.4397C299.281 61.4397 299.509 61.2113 299.509 60.9297H298.999ZM298.999 60.3515L298.489 60.3463V60.3515H298.999ZM299 60.1757H299.51C299.51 59.894 299.282 59.6657 299 59.6657V60.1757ZM298.999 60.1757H298.489C298.489 60.4573 298.717 60.6857 298.999 60.6857V60.1757ZM298.999 50.1759L298.489 50.1707V50.1759H298.999ZM299 50H299.51C299.51 49.7183 299.282 49.49 299 49.49V50ZM248 50.51H248.07V49.49H248V50.51ZM248.51 50.5105V50H247.49V50.5105H248.51ZM248.51 60.1757V50.5105H247.49V60.1757H248.51ZM248.51 78.9274V60.1757H247.49V78.9274H248.51ZM248.51 79.438V78.9274H247.49V79.438H248.51ZM247.49 79.438V89.6136H248.51V79.438H247.49ZM248 90.1236C261.121 90.1236 274.26 87.2308 284.317 81.4264L283.807 80.543C273.941 86.237 260.989 89.1036 248 89.1036V90.1236ZM284.317 81.4264C294.038 75.8165 299.164 68.5081 299.493 60.9519L298.474 60.9074C298.165 67.9934 293.35 75.036 283.807 80.543L284.317 81.4264ZM298.984 61.4397H298.999V60.4197H298.984V61.4397ZM299.509 60.9297V60.3515H298.489V60.9297H299.509ZM299.509 60.3567C299.51 60.2963 299.51 60.236 299.51 60.1757H298.49C298.49 60.2326 298.49 60.2894 298.489 60.3463L299.509 60.3567ZM299 59.6657H298.999V60.6857H299V59.6657ZM299.509 60.1757V50.1759H298.489V60.1757H299.509ZM298.49 50C298.49 50.0569 298.49 50.1138 298.489 50.1707L299.509 50.1811C299.51 50.1207 299.51 50.0604 299.51 50H298.49ZM298.999 50.51H299V49.49H298.999V50.51ZM298.489 50.51H298.999V49.49H298.489V50.51ZM248.511 50.51H298.489V49.49H248.511V50.51ZM248.07 50.51H248.511V49.49H248.07V50.51Z" fill="#101010" mask="url(#path-38-inside-3_1289_16776)"/>
</g>
<defs>
<linearGradient id="paint0_linear_1289_16776" x1="128.215" y1="150" x2="128.215" y2="182.991" gradientUnits="userSpaceOnUse">
<stop stop-color="#68FFAF"/>
<stop offset="1" stop-color="white" stop-opacity="0"/>
</linearGradient>
<linearGradient id="paint1_linear_1289_16776" x1="128.215" y1="150" x2="128.215" y2="182.991" gradientUnits="userSpaceOnUse">
<stop stop-color="#68FFAF"/>
<stop offset="1" stop-color="white" stop-opacity="0"/>
</linearGradient>
<linearGradient id="paint2_linear_1289_16776" x1="324.498" y1="200" x2="324.498" y2="242.759" gradientUnits="userSpaceOnUse">
<stop stop-color="white"/>
<stop offset="1" stop-color="white" stop-opacity="0"/>
</linearGradient>
<linearGradient id="paint3_linear_1289_16776" x1="324.498" y1="200" x2="324.498" y2="242.759" gradientUnits="userSpaceOnUse">
<stop stop-color="white"/>
<stop offset="1" stop-color="white" stop-opacity="0"/>
</linearGradient>
<linearGradient id="paint4_linear_1289_16776" x1="268.583" y1="50" x2="268.583" y2="83.2125" gradientUnits="userSpaceOnUse">
<stop stop-color="#68FFAF"/>
<stop offset="1" stop-color="white" stop-opacity="0"/>
</linearGradient>
<linearGradient id="paint5_linear_1289_16776" x1="268.583" y1="50" x2="268.583" y2="83.2125" gradientUnits="userSpaceOnUse">
<stop stop-color="#68FFAF"/>
<stop offset="1" stop-color="white" stop-opacity="0"/>
</linearGradient>
<clipPath id="clip0_1289_16776">
<rect width="388" height="348" fill="white"/>
</clipPath>
</defs>
</svg>
