<svg width="388" height="348" viewBox="0 0 388 348" fill="none" xmlns="http://www.w3.org/2000/svg">
<g clip-path="url(#clip0_1353_16938)">
<path opacity="0.6" d="M239.34 260.108V289.349C252.308 289.349 265.266 286.489 275.161 280.778C285.057 275.067 289.999 267.638 289.999 260.108H239.34Z" fill="#03EB70"/>
<path d="M274.997 280.493C265.247 286.12 252.484 288.972 239.668 289.02V260.436H289.667C289.526 267.696 284.687 274.901 274.997 280.493Z" stroke="#010101" stroke-width="0.657266"/>
<path opacity="0.6" d="M239.34 250V279.241C252.308 279.241 265.266 276.381 275.161 270.67C285.057 264.959 289.999 257.53 289.999 250H239.34Z" fill="#03EB70"/>
<path opacity="0.6" fill-rule="evenodd" clip-rule="evenodd" d="M239.34 289.349V279.241C252.308 279.241 265.266 276.381 275.161 270.67C280.534 267.57 284.446 263.962 286.901 260.108L286.9 260.108H289.999C289.999 267.638 285.057 275.067 275.161 280.778C265.266 286.489 252.308 289.349 239.34 289.349ZM289.999 250.119V260.108H286.901C288.943 256.9 289.975 253.521 289.999 250.119Z" fill="#03EB70"/>
<path d="M286.916 260.108H239.41V279.241C252.378 279.241 265.336 276.381 275.232 270.67C279.914 268.133 283.92 264.511 286.916 260.108Z" fill="#03EB70"/>
<path d="M274.997 270.385C265.247 276.013 252.484 278.864 239.668 278.912V250.329H289.667C289.526 257.589 284.687 264.793 274.997 270.385Z" stroke="#010101" stroke-width="0.657266" stroke-linejoin="round"/>
<g opacity="0.5">
<path d="M251.033 277.94L271.072 250.51H252.69L239.848 266.737L239.848 278.734C239.848 278.734 244.145 278.578 245.329 278.547C246.512 278.517 251.033 277.94 251.033 277.94Z" fill="url(#paint0_linear_1353_16938)"/>
<path d="M275.267 250.51L256.386 277.047C256.386 277.047 261.847 275.788 264.829 274.753C267.811 273.717 272.822 271.398 272.822 271.398L280.112 261.015L286.855 250.51L275.267 250.51Z" fill="url(#paint1_linear_1353_16938)"/>
</g>
<mask id="path-8-inside-1_1353_16938" fill="white">
<path fill-rule="evenodd" clip-rule="evenodd" d="M239.41 250H239.34V260.108V279.241V289.349C252.308 289.349 265.266 286.489 275.161 280.778C284.847 275.188 289.788 267.952 289.993 260.586H289.999V260.227C289.999 260.187 289.999 260.148 289.999 260.108H289.999V250.119C289.999 250.079 289.999 250.04 289.999 250H289.999H239.41Z"/>
</mask>
<path d="M239.34 250V249.34H238.68V250H239.34ZM239.34 289.349H238.68V290.009H239.34V289.349ZM275.161 280.778L275.491 281.35L275.161 280.778ZM289.993 260.586V259.926H289.351L289.333 260.567L289.993 260.586ZM289.999 260.586V261.246H290.659V260.586H289.999ZM289.999 260.227L289.339 260.222V260.227H289.999ZM289.999 260.108H290.659V259.448H289.999V260.108ZM289.999 260.108H289.339V260.768H289.999V260.108ZM289.999 250.119L289.339 250.115V250.119H289.999ZM289.999 250H290.659V249.34H289.999V250ZM239.41 249.34H239.34V250.66H239.41V249.34ZM238.68 250V260.108H240V250H238.68ZM238.68 260.108V279.241H240V260.108H238.68ZM238.68 279.241V289.349H240V279.241H238.68ZM239.34 290.009C252.393 290.009 265.472 287.132 275.491 281.35L274.831 280.206C265.06 285.846 252.223 288.689 239.34 288.689V290.009ZM275.491 281.35C285.294 275.692 290.439 268.28 290.652 260.604L289.333 260.567C289.137 267.623 284.401 274.684 274.831 280.206L275.491 281.35ZM289.993 261.246H289.999V259.926H289.993V261.246ZM290.659 260.586V260.227H289.339V260.586H290.659ZM290.659 260.231C290.659 260.19 290.659 260.149 290.659 260.108H289.339C289.339 260.146 289.339 260.184 289.339 260.222L290.659 260.231ZM289.999 259.448H289.999V260.768H289.999V259.448ZM290.659 260.108V250.119H289.339V260.108H290.659ZM290.659 250.124C290.659 250.082 290.659 250.041 290.659 250H289.339C289.339 250.038 289.339 250.076 289.339 250.115L290.659 250.124ZM289.999 249.34H289.999V250.66H289.999V249.34ZM289.999 249.34H239.41V250.66H289.999V249.34Z" fill="#101010" mask="url(#path-8-inside-1_1353_16938)"/>
<line opacity="0.1" x1="0.5" y1="-0.5" x2="389.5" y2="-0.5" transform="matrix(1 -4.11762e-08 -1.85503e-07 -1 0 50)" stroke="#101010" stroke-linecap="round" stroke-linejoin="round"/>
<line opacity="0.1" x1="0.5" y1="-0.5" x2="389.5" y2="-0.5" transform="matrix(1 -4.11762e-08 -1.85503e-07 -1 0 250)" stroke="#101010" stroke-linecap="round" stroke-linejoin="round"/>
<line opacity="0.1" x1="0.5" y1="-0.5" x2="389.5" y2="-0.5" transform="matrix(1 -4.11762e-08 -1.85503e-07 -1 0 300)" stroke="#101010" stroke-linecap="round" stroke-linejoin="round"/>
<line opacity="0.1" x1="0.5" y1="-0.5" x2="389.5" y2="-0.5" transform="matrix(1 -4.11762e-08 -1.85503e-07 -1 0 200)" stroke="#101010" stroke-linecap="round" stroke-linejoin="round"/>
<line opacity="0.1" x1="0.5" y1="-0.5" x2="389.5" y2="-0.5" transform="matrix(1 -4.11762e-08 -1.85503e-07 -1 0 100)" stroke="#101010" stroke-linecap="round" stroke-linejoin="round"/>
<line opacity="0.1" x1="0.5" y1="-0.5" x2="389.5" y2="-0.5" transform="matrix(1 -4.11762e-08 -1.85503e-07 -1 0 150)" stroke="#101010" stroke-linecap="round" stroke-linejoin="round"/>
<line x1="0.25" y1="-0.25" x2="565.75" y2="-0.25" transform="matrix(-4.37114e-08 1 1 4.37114e-08 140 1)" stroke="#101010" stroke-width="0.5" stroke-linecap="round" stroke-linejoin="round" stroke-dasharray="4 4"/>
<line x1="0.25" y1="-0.25" x2="691.75" y2="-0.25" transform="matrix(-4.37114e-08 1 1 4.37114e-08 240 1)" stroke="#101010" stroke-width="0.5" stroke-linecap="round" stroke-linejoin="round" stroke-dasharray="4 4"/>
<line x1="0.25" y1="-0.25" x2="709.75" y2="-0.25" transform="matrix(-4.37114e-08 1 1 4.37114e-08 340 1)" stroke="#101010" stroke-width="0.5" stroke-linecap="round" stroke-linejoin="round" stroke-dasharray="4 4"/>
<line opacity="0.1" x1="0.5" y1="-0.5" x2="436.5" y2="-0.5" transform="matrix(4.3686e-08 1 1 -4.3686e-08 190 1)" stroke="#101010" stroke-linecap="round" stroke-linejoin="round"/>
<line opacity="0.1" x1="0.5" y1="-0.5" x2="436.5" y2="-0.5" transform="matrix(4.3686e-08 1 1 -4.3686e-08 290 1)" stroke="#101010" stroke-linecap="round" stroke-linejoin="round"/>
<line opacity="0.1" x1="0.5" y1="-0.5" x2="436.5" y2="-0.5" transform="matrix(4.3686e-08 1 1 -4.3686e-08 90 1)" stroke="#101010" stroke-linecap="round" stroke-linejoin="round"/>
<path opacity="0.6" d="M240 110.176V139.614C226.945 139.614 213.9 136.734 203.938 130.985C193.976 125.236 189 117.757 189 110.176H240Z" fill="#03EB70"/>
<path d="M204.065 130.764C213.915 136.448 226.808 139.321 239.745 139.358V110.431H189.257C189.368 117.802 194.263 125.106 204.065 130.764Z" stroke="#010101" stroke-width="0.510521"/>
<path opacity="0.6" d="M240 100V129.438C226.945 129.438 213.9 126.558 203.938 120.809C193.976 115.06 189 107.581 189 100H240Z" fill="#03EB70"/>
<path opacity="0.6" fill-rule="evenodd" clip-rule="evenodd" d="M240 139.614V129.438C226.945 129.438 213.9 126.558 203.938 120.809C198.529 117.688 194.59 114.056 192.119 110.176L192.12 110.176H189C189 117.756 193.976 125.236 203.938 130.985C213.9 136.734 226.945 139.614 240 139.614ZM189 100C189 103.465 190.039 106.909 192.119 110.176H188.999V100H189Z" fill="#03EB70"/>
<path d="M192.103 110.176H239.928V129.438C226.872 129.438 213.827 126.558 203.865 120.809C199.152 118.255 195.118 114.609 192.103 110.176Z" fill="#03EB70"/>
<path d="M204.065 120.588C213.915 126.272 226.808 129.145 239.745 129.182V100.255H189.257C189.368 107.626 194.263 114.931 204.065 120.588Z" stroke="#010101" stroke-width="0.510521" stroke-linejoin="round"/>
<g opacity="0.5">
<path d="M228.227 128.128L208.054 100.514H226.56L239.488 116.85L239.488 128.928C239.488 128.928 235.162 128.77 233.97 128.739C232.779 128.709 228.227 128.128 228.227 128.128Z" fill="url(#paint2_linear_1353_16938)"/>
<path d="M203.831 100.514L222.839 127.228C222.839 127.228 217.341 125.962 214.339 124.919C211.337 123.877 206.292 121.542 206.292 121.542L198.953 111.089L192.165 100.514L203.831 100.514Z" fill="url(#paint3_linear_1353_16938)"/>
</g>
<mask id="path-29-inside-2_1353_16938" fill="white">
<path fill-rule="evenodd" clip-rule="evenodd" d="M239.93 100H240V100.511V110.176V128.927V129.438V139.614C226.945 139.614 213.9 136.734 203.938 130.985C194.306 125.426 189.336 118.251 189.016 110.93H189.001V110.352C189 110.293 189 110.234 189 110.176H189.001V100.176C189 100.117 189 100.059 189 100H189.001H189.511H239.489H239.93Z"/>
</mask>
<path d="M240 100V99.49C240.282 99.49 240.51 99.7183 240.51 100H240ZM240 139.614H240.51C240.51 139.895 240.282 140.124 240 140.124V139.614ZM203.938 130.985L204.193 130.543L203.938 130.985ZM189.016 110.93V110.42C189.289 110.42 189.514 110.635 189.526 110.907L189.016 110.93ZM189.001 110.93V111.44C188.719 111.44 188.491 111.211 188.491 110.93H189.001ZM189.001 110.352L189.511 110.346V110.352H189.001ZM189 110.176H188.49C188.49 109.894 188.718 109.666 189 109.666V110.176ZM189.001 110.176H189.511C189.511 110.457 189.283 110.686 189.001 110.686V110.176ZM189.001 100.176L189.511 100.171V100.176H189.001ZM189 100H188.49C188.49 99.7183 188.718 99.49 189 99.49V100ZM240 100.51H239.93V99.49H240V100.51ZM239.49 100.511V100H240.51V100.511H239.49ZM239.49 110.176V100.511H240.51V110.176H239.49ZM239.49 128.927V110.176H240.51V128.927H239.49ZM239.49 129.438V128.927H240.51V129.438H239.49ZM240.51 129.438V139.614H239.49V129.438H240.51ZM240 140.124C226.879 140.124 213.74 137.231 203.683 131.426L204.193 130.543C214.059 136.237 227.011 139.104 240 139.104V140.124ZM203.683 131.426C193.962 125.816 188.836 118.508 188.507 110.952L189.526 110.907C189.835 117.993 194.65 125.036 204.193 130.543L203.683 131.426ZM189.016 111.44H189.001V110.42H189.016V111.44ZM188.491 110.93V110.352H189.511V110.93H188.491ZM188.491 110.357C188.49 110.296 188.49 110.236 188.49 110.176H189.51C189.51 110.233 189.51 110.289 189.511 110.346L188.491 110.357ZM189 109.666H189.001V110.686H189V109.666ZM188.491 110.176V100.176H189.511V110.176H188.491ZM189.51 100C189.51 100.057 189.51 100.114 189.511 100.171L188.491 100.181C188.49 100.121 188.49 100.06 188.49 100H189.51ZM189.001 100.51H189V99.49H189.001V100.51ZM189.511 100.51H189.001V99.49H189.511V100.51ZM239.489 100.51H189.511V99.49H239.489V100.51ZM239.93 100.51H239.489V99.49H239.93V100.51Z" fill="#101010" mask="url(#path-29-inside-2_1353_16938)"/>
<path d="M104.656 220.445C114.412 226.081 127.211 228.905 140.001 228.905V210.01H93.1133C96.0672 214.365 100.026 217.944 104.656 220.445Z" fill="#7A1CCA"/>
<path opacity="0.7" d="M90.1669 210.167H139.843V238.724C127.127 238.701 114.43 235.882 104.733 230.286C95.0641 224.706 90.2352 217.431 90.1669 210.167Z" stroke="#101010" stroke-width="0.312819"/>
<path opacity="0.7" d="M140 238.881V210.01H90.0098C90.0098 217.402 94.8881 224.785 104.655 230.421C114.421 236.057 127.21 238.881 140 238.881Z" fill="#7A1CCA"/>
<path opacity="0.7" d="M140 228.905V200.034H90.0098C90.0098 207.426 94.8881 214.808 104.655 220.445C114.421 226.081 127.21 228.905 140 228.905Z" fill="#7A1CCA"/>
<path opacity="0.6" fill-rule="evenodd" clip-rule="evenodd" d="M140 238.876V228.9C127.201 228.9 114.411 226.077 104.645 220.44C99.3423 217.38 95.4807 213.82 93.0584 210.015H90C90 217.448 94.8783 224.78 104.645 230.416C114.411 236.053 127.201 238.876 140 238.876ZM90 200.039C90 203.436 91.0192 206.812 93.0584 210.015L89.9995 210.015V200.039H90Z" fill="#912DF5"/>
<g opacity="0.2">
<path d="M120.357 226.265L130.367 210.713L137.023 200.345L125.585 200.345L109.747 222.672C109.747 222.672 112.295 223.814 115.279 224.798C118.264 225.781 120.357 226.265 120.357 226.265Z" fill="url(#paint4_linear_1353_16938)"/>
<path d="M121.435 200.36H103.296L94.4902 211.482C94.4902 211.482 96.1352 213.806 99.4474 216.519C102.76 219.231 106.387 221.044 106.387 221.044L121.435 200.36Z" fill="url(#paint5_linear_1353_16938)"/>
</g>
<path opacity="0.2" d="M94.4863 222.001V211.999C97.8893 216.63 104.08 220.086 106.387 221.391V231.354C106.387 231.354 104.757 230.479 104.08 230.067C98.5561 226.857 95.3277 223.09 94.4863 222.001Z" fill="url(#paint6_linear_1353_16938)"/>
<path opacity="0.2" d="M110.557 233.327V223.365C112.365 224.332 118.143 225.996 120.806 226.707V236.67C117.801 236.135 112.721 234.219 110.557 233.327Z" fill="url(#paint7_linear_1353_16938)"/>
<path d="M90.1669 200.156H139.843V228.714C127.127 228.691 114.43 225.872 104.733 220.276C95.0641 214.696 90.2352 207.421 90.1669 200.156Z" stroke="#101010" stroke-width="0.312819"/>
</g>
<defs>
<linearGradient id="paint0_linear_1353_16938" x1="259.785" y1="250" x2="259.785" y2="282.991" gradientUnits="userSpaceOnUse">
<stop stop-color="#68FFAF"/>
<stop offset="1" stop-color="white" stop-opacity="0"/>
</linearGradient>
<linearGradient id="paint1_linear_1353_16938" x1="259.785" y1="250" x2="259.785" y2="282.991" gradientUnits="userSpaceOnUse">
<stop stop-color="#68FFAF"/>
<stop offset="1" stop-color="white" stop-opacity="0"/>
</linearGradient>
<linearGradient id="paint2_linear_1353_16938" x1="219.417" y1="100" x2="219.417" y2="133.212" gradientUnits="userSpaceOnUse">
<stop stop-color="#68FFAF"/>
<stop offset="1" stop-color="white" stop-opacity="0"/>
</linearGradient>
<linearGradient id="paint3_linear_1353_16938" x1="219.417" y1="100" x2="219.417" y2="133.212" gradientUnits="userSpaceOnUse">
<stop stop-color="#68FFAF"/>
<stop offset="1" stop-color="white" stop-opacity="0"/>
</linearGradient>
<linearGradient id="paint4_linear_1353_16938" x1="110.304" y1="199.842" x2="110.304" y2="232.403" gradientUnits="userSpaceOnUse">
<stop stop-color="white"/>
<stop offset="0.624147" stop-color="white" stop-opacity="0"/>
</linearGradient>
<linearGradient id="paint5_linear_1353_16938" x1="110.304" y1="199.842" x2="110.304" y2="232.403" gradientUnits="userSpaceOnUse">
<stop stop-color="white"/>
<stop offset="0.624147" stop-color="white" stop-opacity="0"/>
</linearGradient>
<linearGradient id="paint6_linear_1353_16938" x1="103.383" y1="215.897" x2="94.4863" y2="227.768" gradientUnits="userSpaceOnUse">
<stop offset="0.108692" stop-color="white"/>
<stop offset="0.555442" stop-color="white" stop-opacity="0"/>
</linearGradient>
<linearGradient id="paint7_linear_1353_16938" x1="115.681" y1="223.365" x2="115.681" y2="236.67" gradientUnits="userSpaceOnUse">
<stop stop-color="white"/>
<stop offset="0.687634" stop-color="white" stop-opacity="0"/>
</linearGradient>
<clipPath id="clip0_1353_16938">
<rect width="480" height="366" fill="white" transform="matrix(-1 0 0 1 480 -18)"/>
</clipPath>
</defs>
</svg>
