<svg width="92" height="25" viewBox="0 0 92 25" fill="none" xmlns="http://www.w3.org/2000/svg">
                                    <g clip-path="url(#clip0_1532_19473)">
                                    <path fill-rule="evenodd" clip-rule="evenodd" d="M15.0625 2.02918C14.5354 1.50203 13.887 1.16996 13.2072 1.03298C12.0501 0.800003 10.8019 1.13211 9.90461 2.02929L9.74818 2.18574L9.74787 2.18544L9.74771 2.18564L9.5912 2.02918L9.59043 2.0284C9.06336 1.50162 8.41514 1.16979 7.73554 1.03291C6.57852 0.800064 5.33039 1.13219 4.4333 2.02929C3.00884 3.45374 3.00884 5.76325 4.4333 7.18772L4.7269 7.48131L4.72665 7.48148L9.74771 12.5025L15.0625 7.18761C16.487 5.76315 16.487 3.45364 15.0625 2.02918ZM18.8667 15.0947C18.8667 12.5732 17.8433 10.2908 16.1893 8.64009L9.74771 15.0817L3.30618 8.64022C1.65222 10.2909 0.628906 12.5733 0.628906 15.0947C0.628906 17.6129 1.64964 19.8927 3.29993 21.5429L9.74771 15.0951L16.1956 21.543C17.846 19.8928 18.8667 17.6129 18.8667 15.0947ZM14.7764 22.703L9.74771 17.6743L4.71912 22.7029C6.16066 23.6576 7.88931 24.2136 9.74779 24.2136C11.6063 24.2136 13.3348 23.6576 14.7764 22.703Z" fill="#101010"/>
                                    <path d="M32.1196 10.9599H34.1075C34.0685 9.0332 32.4258 7.66895 29.9979 7.66895C27.6035 7.66895 25.8049 9.01653 25.8105 11.0323C25.8105 12.6694 26.9743 13.6105 28.8509 14.0949L30.1483 14.429C31.379 14.7409 32.1919 15.1251 32.1975 16.0105C32.1919 16.9849 31.2676 17.6364 29.92 17.6364C28.6281 17.6364 27.6258 17.0573 27.5423 15.8601H25.5098C25.5933 18.1265 27.2805 19.4017 29.9367 19.4017C32.6708 19.4017 34.2579 18.0374 34.2634 16.0272C34.2579 14.0504 32.6263 13.1483 30.9112 12.7418L29.842 12.4745C28.9066 12.2518 27.8931 11.8564 27.9042 10.9042C27.9098 10.0467 28.6782 9.41742 29.9701 9.41742C31.2007 9.41742 32.0138 9.99102 32.1196 10.9599Z" fill="#101010"/>
                                    <path d="M38.0314 14.2173C38.0314 12.9812 38.7775 12.2684 39.8412 12.2684C40.8824 12.2684 41.5061 12.9533 41.5061 14.0948V19.2289H43.5219V13.783C43.5275 11.7338 42.3581 10.5645 40.5929 10.5645C39.3121 10.5645 38.4323 11.177 38.0426 12.1291H37.9423V10.6758H36.0156V19.2289H38.0314V14.2173Z" fill="#101010"/>
                                    <path d="M45.5719 19.2289H47.5877V10.6758H45.5719V19.2289ZM46.5854 9.46186C47.2257 9.46186 47.7492 8.97178 47.7492 8.37042C47.7492 7.76346 47.2257 7.27344 46.5854 7.27344C45.9394 7.27344 45.416 7.76346 45.416 8.37042C45.416 8.97178 45.9394 9.46186 46.5854 9.46186Z" fill="#101010"/>
                                    <path d="M49.6602 22.4363H51.6759V17.8814H51.7594C52.0768 18.505 52.7394 19.3793 54.2095 19.3793C56.2253 19.3793 57.7344 17.7811 57.7344 14.9635C57.7344 12.1125 56.1808 10.5645 54.2039 10.5645C52.6949 10.5645 52.0657 11.4721 51.7594 12.0902H51.6425V10.6758H49.6602V22.4363ZM51.6369 14.9523C51.6369 13.293 52.3496 12.2183 53.6472 12.2183C54.9891 12.2183 55.6796 13.3598 55.6796 14.9523C55.6796 16.556 54.9779 17.7254 53.6472 17.7254C52.3608 17.7254 51.6369 16.6117 51.6369 14.9523Z" fill="#101010"/>
                                    <path d="M63.7924 10.6761H62.0161V10.0023C62.0161 9.33412 62.2945 8.96108 63.0463 8.96108C63.3637 8.96108 63.631 9.03344 63.798 9.08354L64.2045 7.5244C63.9428 7.43531 63.3693 7.29053 62.6732 7.29053C61.1864 7.29053 60.0003 8.1425 60.0003 9.86871V10.6761H58.7363V12.2353H60.0003V19.2293H62.0161V12.2353H63.7924V10.6761Z" fill="#101010"/>
                                    <path d="M68.8357 19.396C70.8292 19.396 72.1991 18.4215 72.5554 16.9347L70.6733 16.7231C70.4005 17.447 69.7322 17.8257 68.8635 17.8257C67.5605 17.8257 66.6974 16.9682 66.6807 15.5036H72.639V14.8856C72.639 11.8841 70.8348 10.5645 68.7299 10.5645C66.2798 10.5645 64.6816 12.3631 64.6816 15.0025C64.6816 17.6865 66.2575 19.396 68.8357 19.396ZM66.6863 14.145C66.7476 13.0535 67.5549 12.1347 68.7578 12.1347C69.916 12.1347 70.6956 12.9812 70.7067 14.145H66.6863Z" fill="#101010"/>
                                    <path d="M78.1325 19.396C80.1261 19.396 81.4957 18.4215 81.8525 16.9347L79.9702 16.7231C79.6972 17.447 79.0294 17.8257 78.1604 17.8257C76.8574 17.8257 75.9943 16.9682 75.9775 15.5036H81.9355V14.8856C81.9355 11.8841 80.1315 10.5645 78.0267 10.5645C75.5766 10.5645 73.9785 12.3631 73.9785 15.0025C73.9785 17.6865 75.5544 19.396 78.1325 19.396ZM75.9831 14.145C76.0444 13.0535 76.8518 12.1347 78.0546 12.1347C79.2125 12.1347 79.9927 12.9812 80.0035 14.145H75.9831Z" fill="#101010"/>
                                    <path d="M86.814 19.3797C88.2837 19.3797 88.9468 18.5055 89.264 17.8818H89.3865V19.2294H91.3688V7.8252H89.3477V12.0906H89.264C88.9576 11.4725 88.3287 10.5649 86.8194 10.5649C84.8425 10.5649 83.2891 12.1129 83.2891 14.9639C83.2891 17.7815 84.7983 19.3797 86.814 19.3797ZM87.3763 17.7259C86.0454 17.7259 85.3435 16.5565 85.3435 14.9528C85.3435 13.3602 86.0345 12.2187 87.3763 12.2187C88.6738 12.2187 89.3865 13.2934 89.3865 14.9528C89.3865 16.6122 88.6629 17.7259 87.3763 17.7259Z" fill="#101010"/>
                                    </g>
                                    <defs>
                                    <clipPath id="clip0_1532_19473">
                                    <rect width="90.7405" height="23.2668" fill="white" transform="translate(0.628906 0.960938)"/>
                                    </clipPath>
                                    </defs>
                                    </svg>  