<svg width="100" height="16" viewBox="0 0 100 16" fill="none" xmlns="http://www.w3.org/2000/svg">
<g clip-path="url(#clip0_1761_23349)">
<path d="M17.4851 12.2405L14.7663 15.1558C14.7075 15.2191 14.6363 15.2697 14.5571 15.3042C14.4779 15.3388 14.3924 15.3567 14.306 15.3568H1.41746C1.35599 15.3568 1.29586 15.3388 1.24444 15.3051C1.19302 15.2714 1.15254 15.2235 1.12795 15.1671C1.10336 15.1108 1.09573 15.0485 1.10601 14.9879C1.11628 14.9273 1.144 14.871 1.18577 14.8259L3.90157 11.9106C3.96038 11.8473 4.03159 11.7968 4.11079 11.7622C4.18998 11.7276 4.27546 11.7097 4.36187 11.7096H17.2504C17.3124 11.7084 17.3734 11.7255 17.4258 11.7588C17.4781 11.7921 17.5195 11.8402 17.5445 11.8969C17.5697 11.9537 17.5774 12.0166 17.5668 12.0777C17.5562 12.1389 17.5278 12.1955 17.4851 12.2405ZM14.7663 6.36859C14.7073 6.30555 14.636 6.25523 14.5568 6.22066C14.4777 6.18611 14.3923 6.16805 14.306 6.1676H1.41746C1.35599 6.16763 1.29586 6.18558 1.24444 6.21928C1.19302 6.25296 1.15254 6.30091 1.12795 6.35725C1.10336 6.41359 1.09573 6.47587 1.10601 6.53647C1.11628 6.59708 1.144 6.65339 1.18577 6.69849L3.90157 9.61528C3.96059 9.67831 4.03186 9.72864 4.11101 9.76321C4.19015 9.79776 4.27552 9.81582 4.36187 9.81626H17.2504C17.3118 9.81594 17.3716 9.79776 17.4228 9.76397C17.4741 9.73017 17.5143 9.68221 17.5387 9.62593C17.5631 9.56965 17.5706 9.50748 17.5602 9.44701C17.5499 9.38654 17.5223 9.33038 17.4805 9.28539L14.7663 6.36859ZM1.41746 4.2742H14.306C14.3924 4.27412 14.4779 4.25622 14.5571 4.22163C14.6363 4.18707 14.7075 4.13652 14.7663 4.0732L17.4851 1.15795C17.5278 1.11292 17.5562 1.05627 17.5668 0.995128C17.5774 0.933986 17.5697 0.871083 17.5445 0.814333C17.5195 0.757584 17.4781 0.709525 17.4258 0.676203C17.3734 0.642881 17.3124 0.625785 17.2504 0.627066H4.36187C4.27546 0.627157 4.18998 0.645051 4.11079 0.679633C4.03159 0.714215 3.96038 0.764743 3.90157 0.828066L1.18577 3.74332C1.144 3.78841 1.11628 3.84472 1.10601 3.90533C1.09573 3.96594 1.10336 4.02821 1.12795 4.08456C1.15254 4.1409 1.19302 4.18885 1.24444 4.22252C1.29586 4.25622 1.35599 4.27417 1.41746 4.2742Z" fill="url(#paint0_linear_1761_23349)"/>
<path d="M33.1969 6.85655H26.3015V4.58572H34.989V2.31488H26.2785C25.9808 2.31327 25.6859 2.37029 25.4104 2.48268C25.1348 2.59509 24.8839 2.76066 24.6725 2.96996C24.4609 3.17926 24.2926 3.42819 24.1772 3.70252C24.0618 3.97686 24.0015 4.27124 24 4.56884V6.87036C24.0012 7.16822 24.0611 7.46294 24.1763 7.73762C24.2915 8.01231 24.4597 8.2616 24.6713 8.47122C24.883 8.68086 25.1339 8.84671 25.4096 8.9593C25.6853 9.07189 25.9807 9.12901 26.2785 9.12738H33.1831V11.3982H24.1642V13.6691H33.1969C33.4945 13.6707 33.7894 13.6136 34.065 13.5013C34.3406 13.3888 34.5914 13.2233 34.8029 13.014C35.0145 12.8047 35.1828 12.5558 35.2982 12.2814C35.4135 12.0071 35.4738 11.7127 35.4754 11.4151V9.11357C35.4742 8.81571 35.4143 8.52101 35.2991 8.24632C35.1839 7.97162 35.0157 7.72234 34.8041 7.51271C34.5924 7.30309 34.3415 7.13724 34.0658 7.02465C33.7901 6.91206 33.4947 6.85494 33.1969 6.85655Z" fill="white"/>
<path d="M46.5576 2.31486H39.6362C39.3381 2.31244 39.0424 2.36886 38.7661 2.4809C38.4899 2.59293 38.2384 2.75837 38.0262 2.96776C37.8139 3.17714 37.6451 3.42633 37.5294 3.70107C37.4135 3.97581 37.3531 4.2707 37.3516 4.56882V11.4151C37.3531 11.7132 37.4135 12.0081 37.5294 12.2828C37.6451 12.5576 37.8139 12.8068 38.0262 13.0161C38.2384 13.2255 38.4899 13.391 38.7661 13.503C39.0424 13.615 39.3381 13.6715 39.6362 13.669H46.5576C46.8553 13.6706 47.1502 13.6136 47.4258 13.5012C47.7013 13.3888 47.9522 13.2233 48.1636 13.014C48.3752 12.8047 48.5435 12.5557 48.6589 12.2814C48.7743 12.0071 48.8346 11.7127 48.8361 11.4151V4.56882C48.8346 4.27122 48.7743 3.97684 48.6589 3.7025C48.5435 3.42817 48.3752 3.17924 48.1636 2.96994C47.9522 2.76064 47.7013 2.59507 47.4258 2.48266C47.1502 2.37027 46.8553 2.31325 46.5576 2.31486ZM46.5408 11.3982H39.6531V4.5857H46.5377L46.5408 11.3982Z" fill="white"/>
<path d="M70.7992 2.3149H64.048C63.7504 2.31328 63.4555 2.3703 63.1799 2.48269C62.9043 2.5951 62.6536 2.76067 62.442 2.96997C62.2304 3.17927 62.0621 3.4282 61.9467 3.70253C61.8314 3.97687 61.7712 4.27125 61.7695 4.56885V13.6691H64.0711V9.93907H70.7915V13.6691H73.093V4.56885C73.0915 4.26995 73.0307 3.97431 72.9144 3.69895C72.798 3.42361 72.6284 3.17401 72.4151 2.96449C72.202 2.75499 71.9495 2.58974 71.6721 2.47826C71.3946 2.36677 71.0981 2.31126 70.7992 2.3149ZM70.7823 7.66823H64.0618V4.58573H70.7823V7.66823Z" fill="white"/>
<path d="M97.6742 2.31488H90.923C90.6254 2.31327 90.3305 2.37029 90.0549 2.48268C89.7793 2.59509 89.5286 2.76066 89.317 2.96996C89.1054 3.17926 88.9371 3.42819 88.8218 3.70252C88.7064 3.97686 88.6462 4.27124 88.6445 4.56884V13.6691H90.9461V9.93905H97.6511V13.6691H99.9527V4.56884C99.9511 4.27124 99.8908 3.97686 99.7754 3.70252C99.6601 3.42819 99.4918 3.17926 99.2802 2.96996C99.0687 2.76066 98.8179 2.59509 98.5423 2.48268C98.2667 2.37029 97.9718 2.31327 97.6742 2.31488ZM97.6511 7.66822H90.9307V4.58572H97.6511V7.66822Z" fill="white"/>
<path d="M84.3015 11.3982H83.3809L80.0897 3.26616C79.977 2.98561 79.7829 2.74516 79.5325 2.57568C79.2821 2.40618 78.9867 2.31536 78.6843 2.31487H76.642C76.4435 2.31386 76.2468 2.35195 76.0631 2.42697C75.8793 2.502 75.7122 2.61247 75.5711 2.7521C75.4301 2.89174 75.3179 3.05777 75.241 3.24076C75.1642 3.42373 75.124 3.62006 75.123 3.81853V13.669H77.4246V4.5857H78.3452L81.6348 12.7177C81.7494 12.9978 81.9451 13.2372 82.1965 13.4056C82.4479 13.5739 82.7438 13.6635 83.0464 13.6629H85.0886C85.287 13.6639 85.4839 13.6258 85.6675 13.5508C85.8514 13.4758 86.0184 13.3653 86.1596 13.2257C86.3006 13.086 86.4128 12.92 86.4896 12.737C86.5665 12.554 86.6066 12.3577 86.6076 12.1592V2.31487H84.3015V11.3982Z" fill="white"/>
<path d="M53.1687 2.31485H50.8672V11.4151C50.8687 11.7133 50.9292 12.0083 51.0452 12.2832C51.161 12.558 51.3299 12.8073 51.5423 13.0167C51.7547 13.2261 52.0063 13.3915 52.2828 13.5034C52.5593 13.6154 52.8551 13.6716 53.1534 13.669H60.0579V11.3982H53.1687V2.31485Z" fill="white"/>
</g>
<defs>
<linearGradient id="paint0_linear_1761_23349" x1="2.4915" y1="15.7082" x2="16.006" y2="0.472099" gradientUnits="userSpaceOnUse">
<stop offset="0.08" stop-color="#9945FF"/>
<stop offset="0.3" stop-color="#8752F3"/>
<stop offset="0.5" stop-color="#5497D5"/>
<stop offset="0.6" stop-color="#43B4CA"/>
<stop offset="0.72" stop-color="#28E0B9"/>
<stop offset="0.97" stop-color="#19FB9B"/>
</linearGradient>
<clipPath id="clip0_1761_23349">
<rect width="99.1188" height="14.7297" fill="white" transform="translate(0.835938 0.627121)"/>
</clipPath>
</defs>
</svg>
