<svg width="93" height="33" viewBox="0 0 93 33" fill="none" xmlns="http://www.w3.org/2000/svg">
<g clip-path="url(#clip0_1761_23288)">
<path d="M45.8171 8.05497H40.1413V23.4157H38.7474V8.05497H33.0859V6.87669H45.8171V8.05497Z" fill="white"/>
<path d="M51.0629 23.66C49.0325 23.6902 47.1645 22.5507 46.2636 20.7301C45.7836 19.7717 45.5422 18.7127 45.5595 17.6408V17.1522C45.5422 16.0501 45.7793 14.9594 46.2492 13.9622C46.6673 13.0569 47.3298 12.2853 48.1603 11.735C48.9463 11.2062 49.8717 10.9217 50.8186 10.9159C52.313 10.9159 53.4913 11.4188 54.3678 12.4391C55.2444 13.4593 55.6755 14.8531 55.6755 16.6205V17.3821H46.8958V17.6408C46.8958 19.0346 47.2982 20.1985 48.0885 21.1181C48.8285 22.0191 49.9407 22.5335 51.106 22.5119C51.7699 22.5277 52.4294 22.3898 53.0315 22.1096C53.635 21.8122 54.1566 21.3725 54.5546 20.8307L55.4024 21.4774C54.4253 22.9272 52.974 23.66 51.0629 23.66ZM50.8186 12.064C49.8358 12.0482 48.8931 12.4563 48.2322 13.1848C47.5281 13.932 47.1114 14.9379 46.9533 16.2024H54.3247V16.0587C54.2816 14.8804 53.9511 13.9177 53.3189 13.1705C52.6866 12.4233 51.8532 12.064 50.8186 12.064Z" fill="white"/>
<path d="M59.6988 22.2806H67.6881V23.4301H58.0176V22.4243L65.4752 12.3083H58.2475V11.13H67.1852V12.1502L59.6988 22.2806Z" fill="white"/>
<path d="M69.6415 17.0933C69.6243 15.9912 69.8614 14.9005 70.3312 13.9033C70.7566 12.9966 71.429 12.2307 72.2711 11.6904C73.1232 11.1559 74.1118 10.8814 75.1162 10.9001C76.7543 10.9001 78.0763 11.4749 79.0965 12.6244C80.1167 13.774 80.6196 15.2971 80.6196 17.1939V17.4813C80.6383 18.5877 80.4012 19.6841 79.9299 20.6856C79.5089 21.5909 78.835 22.3553 77.9901 22.8855C77.1351 23.4086 76.1479 23.6787 75.1449 23.6615C73.5212 23.6615 72.1849 23.0867 71.1646 21.9372C70.1444 20.7876 69.6415 19.2645 69.6415 17.3677V17.0933ZM71.0066 17.4669C71.0066 18.9326 71.3946 20.1396 72.1418 21.0879C72.889 22.0363 73.8948 22.4961 75.1306 22.4961C76.293 22.5234 77.4009 22.0018 78.1194 21.0879C78.881 20.1396 79.2546 18.9038 79.2546 17.3519V17.0933C79.2632 16.2053 79.0879 15.323 78.7373 14.5068C78.4298 13.7769 77.9211 13.1489 77.2716 12.6963C76.6365 12.2638 75.8835 12.0382 75.1162 12.0497C73.9552 12.0281 72.853 12.5555 72.1418 13.4722C71.3802 14.4206 70.9922 15.6707 70.9922 17.2082L71.0066 17.4669Z" fill="white"/>
<path d="M90.7921 20.2991C90.8093 19.6553 90.5018 19.0446 89.973 18.6753C89.427 18.273 88.6223 17.9425 87.5159 17.7126C86.6408 17.5488 85.7872 17.2844 84.9725 16.9223C84.369 16.6205 83.9235 16.2613 83.6362 15.8302C83.333 15.3647 83.1778 14.8186 83.1907 14.264C83.1907 13.2869 83.593 12.4965 84.4121 11.8643C85.2311 11.232 86.2657 10.9159 87.5302 10.9159C88.8953 10.9159 90.0018 11.2608 90.8352 11.9361C91.6499 12.5741 92.114 13.5599 92.0853 14.5945H90.7202C90.726 13.8846 90.3883 13.2164 89.8149 12.7983C89.2114 12.3241 88.4499 12.0798 87.5302 12.0798C86.6393 12.0798 85.9209 12.281 85.3748 12.669C84.8575 13.0153 84.55 13.5987 84.5558 14.2209C84.5285 14.7784 84.7828 15.3115 85.2311 15.6434C85.6766 15.9739 86.51 16.29 87.7027 16.5774C88.8953 16.8648 89.7862 17.1522 90.3897 17.4683C90.9199 17.7327 91.3755 18.1293 91.7117 18.6179C92.5164 19.9973 92.1643 21.7619 90.8926 22.7275C90.0592 23.3454 88.9672 23.6615 87.6164 23.6615C86.1795 23.6615 85.0156 23.3166 84.1391 22.6269C83.2625 21.9372 82.8027 21.0606 82.8027 19.9973H84.1678C84.1966 20.7388 84.5673 21.4242 85.1737 21.851C85.7915 22.2964 86.6106 22.5119 87.6308 22.5119C88.5792 22.5119 89.3408 22.2964 89.9299 21.8941C90.5047 21.4615 90.7921 20.9299 90.7921 20.2991Z" fill="white"/>
<path d="M23.0416 24.3497C22.7112 18.5014 15.3541 15.8431 14.65 15.5701C14.6212 15.5557 14.6212 15.527 14.6356 15.4983L22.2226 7.88254V7.06349C22.2183 6.92986 22.1119 6.82352 21.9783 6.81921H7.997V2.23541V0.855957L2.83842 1.93365V2.7096H3.12581C3.12581 2.7096 4.39031 2.7096 4.39031 3.97409V6.80484H0.395646C0.318052 6.81059 0.257701 6.87094 0.251953 6.94854V8.7447H4.40468V18.5014C4.40468 21.5621 6.37327 23.6888 9.8219 23.4014C10.5317 23.331 11.2143 23.0838 11.8049 22.6829C12.0649 22.5162 12.2216 22.2303 12.2216 21.9213V20.9586C11.1008 21.7058 10.1524 21.6627 10.1524 21.6627C7.96826 21.6627 8.01137 18.8894 8.01137 18.8894V8.7447H18.0699L10.8277 16.0443C10.8134 17.007 10.799 17.7542 10.799 17.7686C10.7961 17.7902 10.8119 17.8088 10.8335 17.8117C10.8364 17.8117 10.8392 17.8117 10.8421 17.8117C17.4807 18.9325 19.2769 23.2289 19.2769 24.4791C19.2769 24.4791 19.9954 30.5573 13.9171 30.974C13.9171 30.974 9.93685 31.1464 9.23276 29.5514C9.20689 29.4997 9.22988 29.4365 9.28161 29.412C9.28449 29.4106 9.28736 29.4092 9.29024 29.4077C9.96703 29.1247 10.4053 28.4608 10.3967 27.7265C10.3967 26.5482 9.67821 25.5855 8.16943 25.5855C6.94804 25.5855 5.94219 26.5482 5.94219 27.7265C5.94219 27.7265 5.36742 32.842 13.9028 32.6983C23.6452 32.5259 23.0416 24.3497 23.0416 24.3497Z" fill="white"/>
</g>
<defs>
<clipPath id="clip0_1761_23288">
<rect width="91.8916" height="31.8452" fill="white" transform="translate(0.251953 0.855942)"/>
</clipPath>
</defs>
</svg>
