<svg width="36" height="36" viewBox="0 0 36 36" fill="none" xmlns="http://www.w3.org/2000/svg">
<path d="M3.9947 12.6623C4.03982 13.1311 4.15635 13.5375 4.20534 13.8927L2.25818 15.4112C1.81731 15.7418 1.7071 16.3419 1.97651 16.8195L3.70569 19.8076C3.97511 20.273 4.55068 20.4812 5.06748 20.273L6.80645 19.5627C7.14935 19.4157 7.52898 19.477 7.83514 19.6729C8.10456 19.8444 8.37398 20.0158 8.66789 20.1628C8.99854 20.322 9.23122 20.6281 9.2802 20.9955L9.53737 22.8447C9.61085 23.3835 10.0762 23.7877 10.615 23.7877H14.0648C14.6037 23.7877 15.069 23.3835 15.1425 22.8447L15.3997 20.9833C15.4487 20.6159 15.6936 20.3097 16.0242 20.1383C16.3059 19.9913 16.5876 19.8199 16.857 19.6484C17.1631 19.4402 17.5428 19.379 17.8979 19.5137L19.6246 20.2117C20.1267 20.4077 20.7023 20.2117 20.984 19.7341L22.7107 16.7338C22.9801 16.2562 22.8577 15.6439 22.429 15.3132L20.4819 13.7824C20.5186 13.4273 20.5554 13.0599 20.5554 12.6925C20.5554 12.3251 20.5186 11.9577 20.4696 11.6026L22.4045 10.0718C22.8332 9.72892 22.9434 9.12885 22.674 8.65124L20.935 5.6509C20.6533 5.1733 20.0778 4.97736 19.5634 5.1733L17.8244 5.87134C17.4693 6.00604 17.0897 5.94481 16.7835 5.73663C16.5141 5.55293 16.2324 5.39373 15.9385 5.24677C15.5956 5.07533 15.3629 4.77774 15.3017 4.40178L15.0323 2.55014C14.9466 1.99906 14.4812 1.60718 13.9424 1.60718H10.4926C9.9415 1.60718 9.47614 1.99906 9.40266 2.55014L9.13324 4.39933C9.07201 4.75447 8.83933 5.06063 8.50868 5.23208C8.21477 5.37903 7.93311 5.53824 7.66369 5.72193C7.34529 5.91787 6.96565 5.9791 6.62276 5.83215L4.87154 5.12186C4.35719 4.91368 3.78162 5.10962 3.50975 5.58722L1.78057 8.57532C1.49891 9.04067 1.62137 9.65299 2.04999 9.98364L3.9947 11.5022C3.94572 11.8451 3.9554 12.254 3.9947 12.6623Z" fill="#101010" stroke="#101010" stroke-width="1.85111" stroke-linecap="round" stroke-linejoin="round"/>
<path d="M14.7241 10.4756C16.0099 11.7615 16.0099 13.8556 14.7241 15.1414C13.426 16.4273 11.3319 16.4273 10.046 15.1414C8.74789 13.8433 8.74789 11.7492 10.0448 10.4634C11.3306 9.16525 13.4247 9.16525 14.7106 10.4621" fill="#7A1CCA"/>
<path d="M14.7241 10.4756C16.0099 11.7615 16.0099 13.8556 14.7241 15.1414C13.426 16.4273 11.3319 16.4273 10.046 15.1414C8.74789 13.8433 8.74789 11.7492 10.0448 10.4634C11.3306 9.16525 13.4247 9.16525 14.7106 10.4621" stroke="#7A1CCA" stroke-width="1.85111" stroke-linecap="round" stroke-linejoin="round"/>
<path d="M21.2948 26.6774C21.3261 27.0024 21.4069 27.2842 21.4409 27.5305L20.0906 28.5835C19.7849 28.8128 19.7085 29.2289 19.8953 29.5601L21.0944 31.6321C21.2812 31.9548 21.6803 32.0991 22.0387 31.9548L23.2445 31.4622C23.4823 31.3603 23.7455 31.4028 23.9578 31.5387C24.1447 31.6575 24.3315 31.7764 24.5353 31.8783C24.7646 31.9887 24.9259 32.201 24.9599 32.4558L25.1382 33.7381C25.1892 34.1117 25.5119 34.3919 25.8855 34.3919H28.2776C28.6513 34.3919 28.974 34.1117 29.0249 33.7381L29.2033 32.4473C29.2372 32.1925 29.4071 31.9802 29.6363 31.8614C29.8317 31.7594 30.027 31.6406 30.2138 31.5217C30.4261 31.3773 30.6893 31.3349 30.9356 31.4283L32.133 31.9123C32.4811 32.0482 32.8802 31.9123 33.0755 31.5811L34.2729 29.5006C34.4597 29.1694 34.3748 28.7448 34.0776 28.5156L32.7274 27.4541C32.7529 27.2078 32.7783 26.9531 32.7783 26.6983C32.7783 26.4435 32.7529 26.1888 32.7189 25.9425L34.0606 24.881C34.3578 24.6433 34.4342 24.2272 34.2474 23.896L33.0416 21.8155C32.8463 21.4843 32.4472 21.3484 32.0905 21.4843L30.8846 21.9683C30.6384 22.0617 30.3751 22.0193 30.1628 21.8749C29.976 21.7476 29.7807 21.6372 29.5769 21.5353C29.3391 21.4164 29.1778 21.21 29.1353 20.9493L28.9485 19.6653C28.8891 19.2832 28.5664 19.0115 28.1927 19.0115H25.8006C25.4184 19.0115 25.0957 19.2832 25.0448 19.6653L24.858 20.9476C24.8155 21.1939 24.6542 21.4062 24.4249 21.5251C24.2211 21.627 24.0258 21.7374 23.839 21.8647C23.6182 22.0006 23.3549 22.0431 23.1171 21.9412L21.9028 21.4486C21.5462 21.3043 21.147 21.4401 20.9585 21.7713L19.7595 23.8433C19.5642 24.166 19.6491 24.5906 19.9463 24.8199L21.2948 25.8729C21.2608 26.1107 21.2675 26.3942 21.2948 26.6774Z" fill="white" stroke="white" stroke-width="1.2836" stroke-linecap="round" stroke-linejoin="round"/>
<path d="M28.7355 25.1615C29.6271 26.0531 29.6271 27.5052 28.7355 28.3969C27.8354 29.2885 26.3833 29.2885 25.4916 28.3969C24.5915 27.4967 24.5915 26.0446 25.4908 25.153C26.3824 24.2529 27.8345 24.2529 28.7262 25.1521" fill="#7A1CCA"/>
<path d="M28.7355 25.1615C29.6271 26.0531 29.6271 27.5052 28.7355 28.3969C27.8354 29.2885 26.3833 29.2885 25.4916 28.3969C24.5915 27.4967 24.5915 26.0446 25.4908 25.153C26.3824 24.2529 27.8345 24.2529 28.7262 25.1521" stroke="#7A1CCA" stroke-width="1.2836" stroke-linecap="round" stroke-linejoin="round"/>
</svg>
