<svg width="200" height="240" viewBox="0 0 200 240" fill="none" xmlns="http://www.w3.org/2000/svg">
<g clip-path="url(#clip0_1361_16876)">
<line x1="0.25" y1="-0.25" x2="565.75" y2="-0.25" transform="matrix(-4.37114e-08 1 1 4.37114e-08 50 -74)" stroke="#101010" stroke-width="0.5" stroke-linecap="round" stroke-linejoin="round" stroke-dasharray="4 4"/>
<line x1="0.25" y1="-0.25" x2="565.75" y2="-0.25" transform="matrix(-4.37114e-08 1 1 4.37114e-08 150 -74)" stroke="#101010" stroke-width="0.5" stroke-linecap="round" stroke-linejoin="round" stroke-dasharray="4 4"/>
<line opacity="0.1" x1="0.5" y1="-0.5" x2="1439.5" y2="-0.5" transform="matrix(1 -1.74551e-08 -4.37596e-07 -1 -620 0)" stroke="#101010" stroke-linecap="round" stroke-linejoin="round"/>
<line opacity="0.1" x1="0.5" y1="-0.5" x2="1439.5" y2="-0.5" transform="matrix(1 -1.74551e-08 -4.37596e-07 -1 -620 200)" stroke="#101010" stroke-linecap="round" stroke-linejoin="round"/>
<line opacity="0.1" x1="0.5" y1="-0.5" x2="1439.5" y2="-0.5" transform="matrix(1 -1.74551e-08 -4.37596e-07 -1 -620 150)" stroke="#101010" stroke-linecap="round" stroke-linejoin="round"/>
<line opacity="0.1" x1="0.5" y1="-0.5" x2="1439.5" y2="-0.5" transform="matrix(1 -1.74551e-08 -4.37596e-07 -1 -620 50)" stroke="#101010" stroke-linecap="round" stroke-linejoin="round"/>
<line opacity="0.1" x1="0.5" y1="-0.5" x2="1439.5" y2="-0.5" transform="matrix(1 -1.74551e-08 -4.37596e-07 -1 -620 100)" stroke="#101010" stroke-linecap="round" stroke-linejoin="round"/>
<line opacity="0.1" x1="0.5" y1="-0.5" x2="436.5" y2="-0.5" transform="matrix(4.3686e-08 1 1 -4.3686e-08 100 -68)" stroke="#101010" stroke-linecap="round" stroke-linejoin="round"/>
<line opacity="0.1" x1="0.5" y1="-0.5" x2="436.5" y2="-0.5" transform="matrix(4.3686e-08 1 1 -4.3686e-08 200 -68)" stroke="#101010" stroke-linecap="round" stroke-linejoin="round"/>
<path d="M14.6556 170.445C24.4121 176.081 37.2114 178.905 50.0007 178.905V160.01H3.11328C6.06718 164.365 10.0262 167.944 14.6556 170.445Z" fill="#7A1CCA"/>
<path opacity="0.7" d="M0.166911 160.167H49.8433V188.724C37.1266 188.701 24.4303 185.882 14.7328 180.286C5.06414 174.706 0.235237 167.431 0.166911 160.167Z" stroke="#101010" stroke-width="0.312819"/>
<path opacity="0.7" d="M49.9997 188.881V160.01H0.00976562C0.00976562 167.402 4.88805 174.785 14.6546 180.421C24.4212 186.058 37.2105 188.881 49.9997 188.881Z" fill="#7A1CCA"/>
<path opacity="0.7" d="M49.9997 178.905V150.034H0.00976562C0.00976562 157.426 4.88805 164.809 14.6546 170.445C24.4212 176.082 37.2105 178.905 49.9997 178.905Z" fill="#7A1CCA"/>
<path opacity="0.6" fill-rule="evenodd" clip-rule="evenodd" d="M50 188.876V178.9C37.2007 178.9 24.4114 176.077 14.6449 170.44C4.87833 164.804 3.8147e-05 157.471 3.8147e-05 150.039V150.039H-0.000469208V160.015L3.8147e-05 160.015C3.8147e-05 167.447 4.87833 174.78 14.6449 180.416C24.4114 186.053 37.2007 188.876 50 188.876Z" fill="#912DF5"/>
<g opacity="0.2">
<path d="M30.3571 176.265L40.3673 160.713L47.0225 150.345L35.5848 150.345L19.7469 172.672C19.7469 172.672 22.2949 173.814 25.2793 174.798C28.2636 175.781 30.3571 176.265 30.3571 176.265Z" fill="url(#paint0_linear_1361_16876)"/>
<path d="M31.4348 150.36H13.2962L4.49023 161.481C4.49023 161.481 6.13522 163.806 9.44743 166.519C12.7596 169.231 16.3873 171.044 16.3873 171.044L31.4348 150.36Z" fill="url(#paint1_linear_1361_16876)"/>
</g>
<path opacity="0.2" d="M4.48633 172.001V161.999C7.88929 166.63 14.0802 170.086 16.3865 171.391V181.354C16.3865 181.354 14.7573 180.479 14.0802 180.067C8.55609 176.857 5.32773 173.09 4.48633 172.001Z" fill="url(#paint2_linear_1361_16876)"/>
<path opacity="0.2" d="M20.5566 183.327V173.364C22.3646 174.332 28.1429 175.996 30.806 176.707V186.669C27.8012 186.135 22.7211 184.219 20.5566 183.327Z" fill="url(#paint3_linear_1361_16876)"/>
<path d="M0.166911 150.156H49.8433V178.714C37.1266 178.691 24.4303 175.872 14.7328 170.276C5.06414 164.696 0.235237 157.421 0.166911 150.156Z" stroke="#101010" stroke-width="0.312819"/>
<path opacity="0.6" d="M150 60.1757V89.6136C136.945 89.6136 123.9 86.7339 113.938 80.9847C103.976 75.2355 99 67.7565 99 60.1757H150Z" fill="#03EB70"/>
<path d="M114.065 80.7636C123.915 86.4478 136.808 89.3207 149.745 89.358V60.4309H99.2572C99.3676 67.8016 104.263 75.1064 114.065 80.7636Z" stroke="#010101" stroke-width="0.510521"/>
<path opacity="0.6" d="M150 50V79.438C136.945 79.438 123.9 76.5583 113.938 70.8091C103.976 65.0599 99 57.5808 99 50H150Z" fill="#03EB70"/>
<path opacity="0.6" fill-rule="evenodd" clip-rule="evenodd" d="M150 89.6136V79.4379C136.945 79.4379 123.9 76.5582 113.938 70.809C108.529 67.6876 104.59 64.0562 102.119 60.1755L102.12 60.1756H99C99 67.7564 103.976 75.2355 113.938 80.9847C123.9 86.7339 136.945 89.6136 150 89.6136ZM99 50H98.9989V60.1755H102.119C100.04 56.9086 99 53.4649 99 50Z" fill="#03EB70"/>
<path d="M102.103 60.1757H149.928V79.438C136.872 79.438 123.827 76.5583 113.865 70.8091C109.152 68.2545 105.118 64.6084 102.103 60.1757Z" fill="#03EB70"/>
<path d="M114.065 70.588C123.915 76.2722 136.808 79.145 149.745 79.1823V50.2553H99.2572C99.3676 57.626 104.263 64.9307 114.065 70.588Z" stroke="#010101" stroke-width="0.510521" stroke-linejoin="round"/>
<g opacity="0.5">
<path d="M138.227 78.1282L118.054 50.5138H136.56L149.488 66.85L149.488 78.9276C149.488 78.9276 145.162 78.7697 143.97 78.7392C142.779 78.7086 138.227 78.1282 138.227 78.1282Z" fill="url(#paint4_linear_1361_16876)"/>
<path d="M113.831 50.5138L132.839 77.2285C132.839 77.2285 127.341 75.9617 124.339 74.9193C121.337 73.8769 116.292 71.542 116.292 71.542L108.953 61.089L102.165 50.5137L113.831 50.5138Z" fill="url(#paint5_linear_1361_16876)"/>
</g>
<mask id="path-26-inside-1_1361_16876" fill="white">
<path fill-rule="evenodd" clip-rule="evenodd" d="M149.93 50H150V50.5105V60.1757V78.9274V79.438V89.6136C136.945 89.6136 123.9 86.7339 113.938 80.9847C104.306 75.4262 99.3356 68.2507 99.0164 60.9297H99.0009V60.3515C99.0003 60.2929 99 60.2343 99 60.1757H99.0009V50.1759C99.0003 50.1173 99 50.0586 99 50H99.0009H99.5105H149.489H149.93Z"/>
</mask>
<path d="M150 50V49.49C150.282 49.49 150.51 49.7183 150.51 50H150ZM150 89.6136H150.51C150.51 89.8953 150.282 90.1236 150 90.1236V89.6136ZM113.938 80.9847L114.193 80.543L113.938 80.9847ZM99.0164 60.9297V60.4197C99.2894 60.4197 99.514 60.6347 99.5259 60.9074L99.0164 60.9297ZM99.0009 60.9297V61.4397C98.7192 61.4397 98.4909 61.2113 98.4909 60.9297H99.0009ZM99.0009 60.3515L99.5109 60.3463V60.3515H99.0009ZM99 60.1757H98.49C98.49 59.894 98.7183 59.6657 99 59.6657V60.1757ZM99.0009 60.1757H99.5109C99.5109 60.4573 99.2826 60.6857 99.0009 60.6857V60.1757ZM99.0009 50.1759L99.5109 50.1707V50.1759H99.0009ZM99 50H98.49C98.49 49.7183 98.7183 49.49 99 49.49V50ZM150 50.51H149.93V49.49H150V50.51ZM149.49 50.5105V50H150.51V50.5105H149.49ZM149.49 60.1757V50.5105H150.51V60.1757H149.49ZM149.49 78.9274V60.1757H150.51V78.9274H149.49ZM149.49 79.438V78.9274H150.51V79.438H149.49ZM150.51 79.438V89.6136H149.49V79.438H150.51ZM150 90.1236C136.879 90.1236 123.74 87.2308 113.683 81.4264L114.193 80.543C124.059 86.237 137.011 89.1036 150 89.1036V90.1236ZM113.683 81.4264C103.962 75.8165 98.8363 68.5081 98.5069 60.9519L99.5259 60.9074C99.8349 67.9934 104.65 75.036 114.193 80.543L113.683 81.4264ZM99.0164 61.4397H99.0009V60.4197H99.0164V61.4397ZM98.4909 60.9297V60.3515H99.5109V60.9297H98.4909ZM98.4909 60.3567C98.4903 60.2963 98.49 60.236 98.49 60.1757H99.51C99.51 60.2326 99.5103 60.2894 99.5109 60.3463L98.4909 60.3567ZM99 59.6657H99.0009V60.6857H99V59.6657ZM98.4909 60.1757V50.1759H99.5109V60.1757H98.4909ZM99.51 50C99.51 50.0569 99.5103 50.1138 99.5109 50.1707L98.4909 50.1811C98.4903 50.1207 98.49 50.0604 98.49 50H99.51ZM99.0009 50.51H99V49.49H99.0009V50.51ZM99.5105 50.51H99.0009V49.49H99.5105V50.51ZM149.489 50.51H99.5105V49.49H149.489V50.51ZM149.93 50.51H149.489V49.49H149.93V50.51Z" fill="#101010" mask="url(#path-26-inside-1_1361_16876)"/>
</g>
<defs>
<linearGradient id="paint0_linear_1361_16876" x1="20.3041" y1="149.842" x2="20.3042" y2="182.403" gradientUnits="userSpaceOnUse">
<stop stop-color="white"/>
<stop offset="0.624147" stop-color="white" stop-opacity="0"/>
</linearGradient>
<linearGradient id="paint1_linear_1361_16876" x1="20.3041" y1="149.842" x2="20.3042" y2="182.403" gradientUnits="userSpaceOnUse">
<stop stop-color="white"/>
<stop offset="0.624147" stop-color="white" stop-opacity="0"/>
</linearGradient>
<linearGradient id="paint2_linear_1361_16876" x1="13.3833" y1="165.897" x2="4.48633" y2="177.768" gradientUnits="userSpaceOnUse">
<stop offset="0.108692" stop-color="white"/>
<stop offset="0.555442" stop-color="white" stop-opacity="0"/>
</linearGradient>
<linearGradient id="paint3_linear_1361_16876" x1="25.6813" y1="173.364" x2="25.6813" y2="186.669" gradientUnits="userSpaceOnUse">
<stop stop-color="white"/>
<stop offset="0.687634" stop-color="white" stop-opacity="0"/>
</linearGradient>
<linearGradient id="paint4_linear_1361_16876" x1="129.417" y1="50" x2="129.417" y2="83.2125" gradientUnits="userSpaceOnUse">
<stop stop-color="#68FFAF"/>
<stop offset="1" stop-color="white" stop-opacity="0"/>
</linearGradient>
<linearGradient id="paint5_linear_1361_16876" x1="129.417" y1="50" x2="129.417" y2="83.2125" gradientUnits="userSpaceOnUse">
<stop stop-color="#68FFAF"/>
<stop offset="1" stop-color="white" stop-opacity="0"/>
</linearGradient>
<clipPath id="clip0_1361_16876">
<rect width="200" height="240" fill="white" transform="matrix(-1 0 0 1 200 0)"/>
</clipPath>
</defs>
</svg>
