<svg width="201" height="240" viewBox="0 0 201 240" fill="none" xmlns="http://www.w3.org/2000/svg">
<g clip-path="url(#clip0_1361_16956)">
<line x1="100.25" y1="-73.75" x2="100.25" y2="491.75" stroke="#101010" stroke-width="0.5" stroke-linecap="round" stroke-linejoin="round" stroke-dasharray="4 4"/>
<line opacity="0.1" x1="769.5" y1="0.5" x2="-669.5" y2="0.499975" stroke="#101010" stroke-linecap="round" stroke-linejoin="round"/>
<line opacity="0.1" x1="769.5" y1="200.5" x2="-669.5" y2="200.5" stroke="#101010" stroke-linecap="round" stroke-linejoin="round"/>
<line opacity="0.1" x1="769.5" y1="150.5" x2="-669.5" y2="150.5" stroke="#101010" stroke-linecap="round" stroke-linejoin="round"/>
<line opacity="0.1" x1="769.5" y1="50.5" x2="-669.5" y2="50.5" stroke="#101010" stroke-linecap="round" stroke-linejoin="round"/>
<line opacity="0.1" x1="769.5" y1="100.5" x2="-669.5" y2="100.5" stroke="#101010" stroke-linecap="round" stroke-linejoin="round"/>
<line opacity="0.1" x1="50.5" y1="-67.5" x2="50.5" y2="368.5" stroke="#101010" stroke-linecap="round" stroke-linejoin="round"/>
<line opacity="0.1" x1="150.5" y1="-67.5" x2="150.5" y2="368.5" stroke="#101010" stroke-linecap="round" stroke-linejoin="round"/>
<path opacity="0.6" d="M150.66 160.108V189.349C137.692 189.349 124.734 186.489 114.839 180.778C104.943 175.067 100.001 167.638 100.001 160.108H150.66Z" fill="#03EB70"/>
<path d="M115.003 180.493C124.753 186.12 137.516 188.972 150.332 189.02V160.436H100.333C100.474 167.696 105.313 174.901 115.003 180.493Z" stroke="#010101" stroke-width="0.657266"/>
<path opacity="0.6" d="M150.66 150V179.241C137.692 179.241 124.734 176.381 114.839 170.67C104.943 164.959 100.001 157.53 100.001 150H150.66Z" fill="#03EB70"/>
<path opacity="0.6" fill-rule="evenodd" clip-rule="evenodd" d="M150.66 189.349V179.241C137.692 179.241 124.734 176.381 114.839 170.67C104.996 164.989 100.053 157.608 100.001 150.119V160.108H103.099L103.1 160.108H100.001C100.001 167.638 104.943 175.067 114.839 180.778C124.734 186.489 137.692 189.349 150.66 189.349Z" fill="#03EB70"/>
<path d="M103.084 160.108H150.59V179.241C137.622 179.241 124.664 176.381 114.768 170.67C110.086 168.133 106.08 164.511 103.084 160.108Z" fill="#03EB70"/>
<path d="M115.003 170.385C124.753 176.013 137.516 178.864 150.332 178.912V150.329H100.333C100.474 157.589 105.313 164.793 115.003 170.385Z" stroke="#010101" stroke-width="0.657266" stroke-linejoin="round"/>
<g opacity="0.5">
<path d="M138.967 177.94L118.928 150.51H137.31L150.152 166.737L150.152 178.734C150.152 178.734 145.855 178.578 144.671 178.547C143.488 178.517 138.967 177.94 138.967 177.94Z" fill="url(#paint0_linear_1361_16956)"/>
<path d="M114.733 150.51L133.614 177.047C133.614 177.047 128.153 175.788 125.171 174.753C122.189 173.717 117.178 171.398 117.178 171.398L109.888 161.015L103.145 150.51L114.733 150.51Z" fill="url(#paint1_linear_1361_16956)"/>
</g>
<mask id="path-16-inside-1_1361_16956" fill="white">
<path fill-rule="evenodd" clip-rule="evenodd" d="M150.66 160.108V150H100.001C100.001 150.04 100.001 150.079 100.001 150.119V160.108H100.001C100.001 160.148 100.001 160.187 100.001 160.227V160.586H100.007C100.212 167.952 105.153 175.188 114.839 180.778C124.734 186.489 137.692 189.349 150.66 189.349V179.241V160.108Z"/>
</mask>
<path d="M150.66 150V149.34H151.32V150H150.66ZM100.001 150H99.3407V149.34H100.001V150ZM100.001 150.119L100.661 150.115V150.119H100.001ZM100.001 160.108H100.661V160.768H100.001V160.108ZM100.001 160.108H99.3407V159.448H100.001V160.108ZM100.001 160.227L100.661 160.222V160.227H100.001ZM100.001 160.586V161.246H99.3411V160.586H100.001ZM100.007 160.586V159.926H100.649L100.667 160.567L100.007 160.586ZM114.839 180.778L114.509 181.35L114.839 180.778ZM150.66 189.349H151.32V190.009H150.66V189.349ZM151.32 150V160.108H150V150H151.32ZM100.001 149.34H150.66V150.66H100.001V149.34ZM99.3412 150.124C99.3409 150.082 99.3407 150.041 99.3407 150H100.661C100.661 150.038 100.661 150.076 100.661 150.115L99.3412 150.124ZM99.3411 160.108V150.119H100.661V160.108H99.3411ZM100.001 159.448H100.001V160.768H100.001V159.448ZM99.3412 160.231C99.3409 160.19 99.3407 160.149 99.3407 160.108H100.661C100.661 160.146 100.661 160.184 100.661 160.222L99.3412 160.231ZM99.3411 160.586V160.227H100.661V160.586H99.3411ZM100.007 161.246H100.001V159.926H100.007V161.246ZM114.509 181.35C104.706 175.692 99.5611 168.28 99.3476 160.604L100.667 160.567C100.863 167.623 105.6 174.684 115.169 180.206L114.509 181.35ZM150.66 190.009C137.607 190.009 124.528 187.132 114.509 181.35L115.169 180.206C124.94 185.846 137.777 188.689 150.66 188.689V190.009ZM151.32 179.241V189.349H150V179.241H151.32ZM151.32 160.108V179.241H150V160.108H151.32Z" fill="#101010" mask="url(#path-16-inside-1_1361_16956)"/>
<path opacity="0.6" d="M50 60.1757V89.6136C63.0553 89.6136 76.1004 86.7339 86.0622 80.9847C96.0241 75.2355 101 67.7565 101 60.1757H50Z" fill="#03EB70"/>
<path d="M85.9347 80.7636C76.0854 86.4478 63.192 89.3207 50.2553 89.358V60.4309H100.743C100.632 67.8016 95.7373 75.1064 85.9347 80.7636Z" stroke="#010101" stroke-width="0.510521"/>
<path opacity="0.6" d="M50 50V79.438C63.0553 79.438 76.1004 76.5583 86.0622 70.8091C96.0241 65.0599 101 57.5808 101 50H50Z" fill="#03EB70"/>
<path opacity="0.6" fill-rule="evenodd" clip-rule="evenodd" d="M50 89.6136V79.4379C63.0553 79.4379 76.1004 76.5582 86.0622 70.809C91.4709 67.6876 95.4098 64.0562 97.8805 60.1755L97.8805 60.1756H101C101 67.7564 96.0241 75.2355 86.0622 80.9847C76.1004 86.7339 63.0553 89.6136 50 89.6136ZM101 50H101.001V60.1755H97.8805C99.9605 56.9086 101 53.4649 101 50Z" fill="#03EB70"/>
<path d="M97.8975 60.1757H50.0723V79.438C63.1275 79.438 76.1726 76.5583 86.1345 70.8091C90.8482 68.2545 94.8816 64.6084 97.8975 60.1757Z" fill="#03EB70"/>
<path d="M85.9347 70.588C76.0854 76.2722 63.192 79.145 50.2553 79.1823V50.2553H100.743C100.632 57.626 95.7373 64.9307 85.9347 70.588Z" stroke="#010101" stroke-width="0.510521" stroke-linejoin="round"/>
<g opacity="0.5">
<path d="M61.7727 78.1282L81.9459 50.5138H63.4404L50.5117 66.85L50.5118 78.9276C50.5118 78.9276 54.8384 78.7697 56.0297 78.7392C57.2211 78.7086 61.7727 78.1282 61.7727 78.1282Z" fill="url(#paint2_linear_1361_16956)"/>
<path d="M86.169 50.5138L67.1612 77.2285C67.1612 77.2285 72.6585 75.9617 75.6606 74.9193C78.6627 73.8769 83.7079 71.542 83.7079 71.542L91.0472 61.089L97.8355 50.5137L86.169 50.5138Z" fill="url(#paint3_linear_1361_16956)"/>
</g>
<mask id="path-25-inside-2_1361_16956" fill="white">
<path fill-rule="evenodd" clip-rule="evenodd" d="M50.0703 50H50V50.5105V60.1757V78.9274V79.438V89.6136C63.0553 89.6136 76.1004 86.7339 86.0622 80.9847C95.6937 75.4262 100.664 68.2507 100.984 60.9297H100.999V60.3515C101 60.2929 101 60.2343 101 60.1757H100.999V50.1759C101 50.1173 101 50.0586 101 50H100.999H100.489H50.5105H50.0703Z"/>
</mask>
<path d="M50 50V49.49C49.7183 49.49 49.49 49.7183 49.49 50H50ZM50 89.6136H49.49C49.49 89.8953 49.7183 90.1236 50 90.1236V89.6136ZM86.0622 80.9847L85.8073 80.543L86.0622 80.9847ZM100.984 60.9297V60.4197C100.711 60.4197 100.486 60.6347 100.474 60.9074L100.984 60.9297ZM100.999 60.9297V61.4397C101.281 61.4397 101.509 61.2113 101.509 60.9297H100.999ZM100.999 60.3515L100.489 60.3463V60.3515H100.999ZM101 60.1757H101.51C101.51 59.894 101.282 59.6657 101 59.6657V60.1757ZM100.999 60.1757H100.489C100.489 60.4573 100.717 60.6857 100.999 60.6857V60.1757ZM100.999 50.1759L100.489 50.1707V50.1759H100.999ZM101 50H101.51C101.51 49.7183 101.282 49.49 101 49.49V50ZM50 50.51H50.0703V49.49H50V50.51ZM50.51 50.5105V50H49.49V50.5105H50.51ZM50.51 60.1757V50.5105H49.49V60.1757H50.51ZM50.51 78.9274V60.1757H49.49V78.9274H50.51ZM50.51 79.438V78.9274H49.49V79.438H50.51ZM49.49 79.438V89.6136H50.51V79.438H49.49ZM50 90.1236C63.1213 90.1236 76.2597 87.2308 86.3172 81.4264L85.8073 80.543C75.941 86.237 62.9893 89.1036 50 89.1036V90.1236ZM86.3172 81.4264C96.0378 75.8165 101.164 68.5081 101.493 60.9519L100.474 60.9074C100.165 67.9934 95.3496 75.036 85.8073 80.543L86.3172 81.4264ZM100.984 61.4397H100.999V60.4197H100.984V61.4397ZM101.509 60.9297V60.3515H100.489V60.9297H101.509ZM101.509 60.3567C101.51 60.2963 101.51 60.236 101.51 60.1757H100.49C100.49 60.2326 100.49 60.2894 100.489 60.3463L101.509 60.3567ZM101 59.6657H100.999V60.6857H101V59.6657ZM101.509 60.1757V50.1759H100.489V60.1757H101.509ZM100.49 50C100.49 50.0569 100.49 50.1138 100.489 50.1707L101.509 50.1811C101.51 50.1207 101.51 50.0604 101.51 50H100.49ZM100.999 50.51H101V49.49H100.999V50.51ZM100.489 50.51H100.999V49.49H100.489V50.51ZM50.5105 50.51H100.489V49.49H50.5105V50.51ZM50.0703 50.51H50.5105V49.49H50.0703V50.51Z" fill="#101010" mask="url(#path-25-inside-2_1361_16956)"/>
</g>
<defs>
<linearGradient id="paint0_linear_1361_16956" x1="130.215" y1="150" x2="130.215" y2="182.991" gradientUnits="userSpaceOnUse">
<stop stop-color="#68FFAF"/>
<stop offset="1" stop-color="white" stop-opacity="0"/>
</linearGradient>
<linearGradient id="paint1_linear_1361_16956" x1="130.215" y1="150" x2="130.215" y2="182.991" gradientUnits="userSpaceOnUse">
<stop stop-color="#68FFAF"/>
<stop offset="1" stop-color="white" stop-opacity="0"/>
</linearGradient>
<linearGradient id="paint2_linear_1361_16956" x1="70.5827" y1="50" x2="70.5827" y2="83.2125" gradientUnits="userSpaceOnUse">
<stop stop-color="#68FFAF"/>
<stop offset="1" stop-color="white" stop-opacity="0"/>
</linearGradient>
<linearGradient id="paint3_linear_1361_16956" x1="70.5827" y1="50" x2="70.5827" y2="83.2125" gradientUnits="userSpaceOnUse">
<stop stop-color="#68FFAF"/>
<stop offset="1" stop-color="white" stop-opacity="0"/>
</linearGradient>
<clipPath id="clip0_1361_16956">
<rect width="201" height="240" fill="white"/>
</clipPath>
</defs>
</svg>
