 <svg width="20" height="17" viewBox="0 0 20 17" fill="none" xmlns="http://www.w3.org/2000/svg">
                <path d="M6.50031 16.1053C13.6211 16.1053 17.517 10.2044 17.517 5.08868C17.517 4.92279 17.5133 4.75321 17.5059 4.58732C18.2638 4.03925 18.9178 3.36038 19.4373 2.58262C18.7314 2.89665 17.982 3.10174 17.2147 3.19088C18.0227 2.70657 18.6276 1.94573 18.9175 1.04941C18.1573 1.49988 17.3261 1.81765 16.4593 1.98909C15.8753 1.36855 15.1031 0.957672 14.2622 0.819992C13.4212 0.682312 12.5583 0.825496 11.8069 1.22741C11.0555 1.62932 10.4574 2.26757 10.1051 3.04349C9.75285 3.8194 9.66597 4.68976 9.85795 5.52C8.31884 5.44276 6.81314 5.04294 5.43846 4.34646C4.06379 3.64998 2.85082 2.67238 1.8782 1.47704C1.38387 2.32934 1.2326 3.33788 1.45514 4.2977C1.67769 5.25751 2.25734 6.09658 3.07631 6.64437C2.46148 6.62485 1.86012 6.45932 1.32191 6.16145V6.20937C1.32136 7.10379 1.63057 7.9708 2.19698 8.66302C2.76339 9.35523 3.55204 9.82994 4.42887 10.0064C3.85933 10.1623 3.26158 10.185 2.68185 10.0728C2.92928 10.842 3.41068 11.5148 4.05887 11.9972C4.70706 12.4797 5.48969 12.7477 6.29755 12.7639C4.92605 13.8413 3.23184 14.4256 1.48781 14.4228C1.17851 14.4224 0.869529 14.4034 0.5625 14.3661C2.33425 15.5027 4.39528 16.1064 6.50031 16.1053Z" fill="#101010"/>
                </svg>     