<svg width="71" height="15" viewBox="0 0 71 15" fill="none" xmlns="http://www.w3.org/2000/svg">
        <g opacity="0.35">
        <path d="M5.38069 14.5299C5.1128 14.5294 4.84949 14.4604 4.61578 14.3294C4.38206 14.1985 4.18571 14.01 4.04537 13.7818C3.90503 13.5536 3.82536 13.2933 3.81393 13.0257C3.8025 12.758 3.8597 12.4919 3.98008 12.2526L7.4502 5.36475C7.64206 5.00044 7.96925 4.72599 8.36138 4.60045C8.75352 4.47491 9.17926 4.50831 9.54702 4.69346C9.91479 4.87861 10.1952 5.20072 10.3279 5.59048C10.4606 5.98025 10.435 6.40654 10.2566 6.77763L6.78577 13.6643C6.65456 13.9245 6.45361 14.143 6.20535 14.2956C5.95709 14.4481 5.67132 14.5286 5.37995 14.528L5.38069 14.5299Z" fill="white"/>
        </g>
        <g opacity="0.35">
        <path d="M61.8491 14.5295C61.5812 14.5289 61.318 14.4598 61.0843 14.3289C60.8506 14.1979 60.6543 14.0094 60.514 13.7812C60.3737 13.553 60.2941 13.2928 60.2827 13.0251C60.2713 12.7575 60.3285 12.4914 60.4488 12.2521L63.9197 5.36543C64.1104 4.99939 64.4376 4.72316 64.8304 4.59651C65.2232 4.46985 65.6501 4.50297 66.0187 4.68868C66.3873 4.8744 66.6679 5.19778 66.7999 5.58885C66.9319 5.97992 66.9046 6.40723 66.7239 6.77832L63.253 13.665C63.1221 13.925 62.9214 14.1435 62.6735 14.2962C62.4256 14.4488 62.1402 14.5296 61.8491 14.5295Z" fill="white"/>
        </g>
        <path d="M12.3777 14.529C12.0885 14.5289 11.8051 14.4491 11.5585 14.2982C11.3118 14.1473 11.1117 13.9312 10.98 13.6738L7.45413 6.78749C7.36007 6.60398 7.30307 6.40373 7.28639 6.19819C7.26972 5.99264 7.29369 5.78583 7.35694 5.58955C7.48468 5.19314 7.76466 4.86372 8.13529 4.67375C8.50592 4.48377 8.93683 4.44881 9.33324 4.57655C9.52952 4.6398 9.71142 4.7411 9.86855 4.87465C10.0257 5.0082 10.155 5.17139 10.249 5.3549L12.3684 9.49019L14.4483 5.36308C14.6359 4.99093 14.9637 4.70854 15.3595 4.57804C15.7553 4.44755 16.1867 4.47963 16.5589 4.66724C16.931 4.85484 17.2134 5.18261 17.3439 5.57842C17.4744 5.97423 17.4423 6.40567 17.2547 6.77783L13.7839 13.6645C13.6534 13.9234 13.4538 14.1412 13.2072 14.2936C12.9605 14.446 12.6765 14.5271 12.3866 14.5279L12.3777 14.529Z" fill="white"/>
        <path d="M5.38297 14.5282C5.09367 14.5284 4.80995 14.4486 4.56312 14.2977C4.31629 14.1468 4.11596 13.9306 3.98422 13.673L0.457956 6.78783C0.268032 6.4172 0.233118 5.9863 0.360895 5.58993C0.488672 5.19356 0.768673 4.86419 1.1393 4.67426C1.50993 4.48434 1.94082 4.44943 2.33719 4.5772C2.73356 4.70498 3.06294 4.98498 3.25286 5.35561L6.77875 12.2423C6.90105 12.4816 6.95991 12.7483 6.94973 13.0168C6.93954 13.2854 6.86065 13.5468 6.72059 13.7762C6.58052 14.0056 6.38397 14.1952 6.14972 14.3269C5.91547 14.4586 5.65135 14.5281 5.3826 14.5286L5.38297 14.5282Z" fill="white"/>
        <path d="M54.853 14.5293C54.5851 14.5288 54.3219 14.4597 54.0882 14.3287C53.8545 14.1978 53.6582 14.0092 53.5179 13.7811C53.3776 13.5529 53.298 13.2926 53.2866 13.025C53.2752 12.7574 53.3324 12.4913 53.4527 12.252L56.9225 5.3653C57.0529 5.10635 57.2525 4.88859 57.4991 4.73619C57.7458 4.5838 58.0298 4.50272 58.3197 4.50195H58.3246C58.6136 4.50199 58.8971 4.58186 59.1437 4.73276C59.3902 4.88366 59.5903 5.09972 59.7218 5.35712L63.2477 12.2438C63.4377 12.6144 63.4726 13.0453 63.3448 13.4417C63.217 13.8381 62.937 14.1675 62.5664 14.3574C62.1958 14.5473 61.7649 14.5822 61.3685 14.4544C60.9721 14.3267 60.6428 14.0467 60.4528 13.676L58.3354 9.54L56.2577 13.6671C56.1264 13.9268 55.9255 14.145 55.6775 14.2972C55.4294 14.4494 55.144 14.5298 54.853 14.5293Z" fill="white"/>
        <path d="M68.8494 14.5282C68.5601 14.5284 68.2763 14.4486 68.0295 14.2977C67.7827 14.1468 67.5824 13.9306 67.4506 13.6731L63.9247 6.78636C63.8307 6.60285 63.7737 6.4026 63.7571 6.19707C63.7404 5.99153 63.7644 5.78473 63.8277 5.58847C63.8909 5.39221 63.9923 5.21033 64.1258 5.05322C64.2594 4.89611 64.4226 4.76684 64.6061 4.6728C64.7896 4.57876 64.9898 4.52178 65.1954 4.50513C65.4009 4.48848 65.6077 4.51247 65.804 4.57574C66.0003 4.63901 66.1821 4.74031 66.3393 4.87387C66.4964 5.00743 66.6256 5.17063 66.7196 5.35414L70.2455 12.2408C70.3678 12.4801 70.4267 12.7468 70.4165 13.0154C70.4063 13.2839 70.3274 13.5454 70.1874 13.7747C70.0473 14.0041 69.8508 14.1937 69.6165 14.3254C69.3823 14.4572 69.1181 14.5266 68.8494 14.5271V14.5282Z" fill="white"/>
        <path d="M39.958 11.7869L36.7823 9.30432L39.9226 7.19763C40.2503 6.97793 40.4774 6.63703 40.5538 6.24994C40.6302 5.86284 40.5496 5.46125 40.3299 5.13352C40.1102 4.80579 39.7693 4.57876 39.3822 4.50237C38.9951 4.42598 38.5936 4.5065 38.2658 4.7262L33.9019 7.65199V1.85767C33.9019 1.44489 33.7379 1.04901 33.446 0.75713C33.1541 0.465247 32.7583 0.30127 32.3455 0.30127C31.9327 0.30127 31.5368 0.465247 31.2449 0.75713C30.953 1.04901 30.7891 1.44489 30.7891 1.85767V12.9313C30.7891 13.3441 30.953 13.74 31.2449 14.0319C31.5368 14.3238 31.9327 14.4877 32.3455 14.4877C32.7583 14.4877 33.1541 14.3238 33.446 14.0319C33.7379 13.74 33.9019 13.3441 33.9019 12.9313V10.831L38.1256 14.1293C38.2789 14.255 38.4558 14.3488 38.6458 14.4052C38.8358 14.4616 39.0352 14.4795 39.2322 14.4577C39.4293 14.4359 39.6199 14.375 39.7931 14.2785C39.9662 14.1819 40.1183 14.0518 40.2404 13.8956C40.3625 13.7395 40.4522 13.5605 40.5041 13.3692C40.5561 13.1779 40.5693 12.9782 40.5429 12.7817C40.5166 12.5853 40.4512 12.3961 40.3507 12.2252C40.2502 12.0544 40.1165 11.9053 39.9576 11.7869H39.958Z" fill="white"/>
        <path d="M28.4078 9.48805C28.4012 8.39806 28.0374 7.34031 27.372 6.47694C26.7067 5.61356 25.7766 4.9922 24.7242 4.7081C23.6719 4.424 22.5554 4.49284 21.546 4.90406C20.5365 5.31529 19.6898 6.04621 19.1355 6.98478C18.5813 7.92336 18.3501 9.01779 18.4775 10.1003C18.6049 11.1829 19.0837 12.1938 19.8407 12.9781C20.5976 13.7624 21.5909 14.2768 22.6682 14.4425C23.7455 14.6082 24.8475 14.4161 25.8051 13.8955C25.9805 14.1442 26.2305 14.3305 26.5189 14.4276C26.8073 14.5246 27.1191 14.5272 27.4091 14.4352C27.6991 14.3431 27.9522 14.161 28.1318 13.9153C28.3114 13.6697 28.4081 13.3732 28.4078 13.069V9.48805ZM23.4255 11.6918C22.9951 11.6918 22.5744 11.5641 22.2165 11.325C21.8586 11.0859 21.5797 10.746 21.415 10.3484C21.2503 9.95071 21.2072 9.51314 21.2911 9.091C21.3751 8.66886 21.5824 8.28109 21.8867 7.97674C22.1911 7.67239 22.5788 7.46513 23.001 7.38116C23.4231 7.29719 23.8607 7.34029 24.2583 7.505C24.656 7.66971 24.9959 7.94864 25.235 8.30652C25.4741 8.66439 25.6018 9.08514 25.6018 9.51556C25.6018 10.0927 25.3725 10.6463 24.9644 11.0544C24.5562 11.4625 24.0027 11.6918 23.4255 11.6918Z" fill="white"/>
        <path d="M51.8766 9.48805C51.87 8.39806 51.5061 7.34031 50.8408 6.47694C50.1754 5.61356 49.2453 4.9922 48.193 4.7081C47.1407 4.424 46.0242 4.49284 45.0147 4.90406C44.0053 5.31529 43.1585 6.04621 42.6043 6.98478C42.05 7.92336 41.8189 9.01779 41.9462 10.1003C42.0736 11.1829 42.5525 12.1938 43.3094 12.9781C44.0664 13.7624 45.0596 14.2768 46.137 14.4425C47.2143 14.6082 48.3163 14.4161 49.2739 13.8955C49.4494 14.1439 49.6994 14.3301 49.9877 14.4269C50.276 14.5238 50.5877 14.5264 50.8776 14.4343C51.1675 14.3423 51.4206 14.1603 51.6002 13.9149C51.7798 13.6694 51.8766 13.3731 51.8766 13.069V9.48805ZM46.8943 11.6918C46.4639 11.6918 46.0431 11.5641 45.6853 11.325C45.3274 11.0859 45.0485 10.746 44.8837 10.3484C44.719 9.95071 44.6759 9.51315 44.7599 9.091C44.8439 8.66886 45.0512 8.28109 45.3555 7.97674C45.6599 7.67239 46.0476 7.46513 46.4698 7.38116C46.8919 7.29719 47.3295 7.34029 47.7271 7.505C48.1248 7.66971 48.4646 7.94864 48.7038 8.30652C48.9429 8.66439 49.0705 9.08514 49.0705 9.51556C49.0705 10.0927 48.8412 10.6463 48.4331 11.0544C48.025 11.4625 47.4715 11.6918 46.8943 11.6918Z" fill="white"/>
        </svg>
        