<svg width="71" height="15" viewBox="0 0 71 15" fill="none" xmlns="http://www.w3.org/2000/svg">
                            <g opacity="0.35">
                            <path d="M5.5721 14.7089C5.30421 14.7083 5.0409 14.6393 4.80718 14.5084C4.57347 14.3774 4.37712 14.1889 4.23677 13.9607C4.09643 13.7325 4.01676 13.4723 4.00534 13.2046C3.99391 12.937 4.0511 12.6708 4.17148 12.4315L7.6416 5.5437C7.83346 5.17939 8.16065 4.90495 8.55279 4.77941C8.94492 4.65387 9.37067 4.68727 9.73843 4.87242C10.1062 5.05756 10.3866 5.37967 10.5193 5.76944C10.652 6.15921 10.6264 6.58549 10.448 6.95659L6.97717 13.8433C6.84597 14.1034 6.64501 14.322 6.39676 14.4745C6.1485 14.627 5.86272 14.7075 5.57136 14.707L5.5721 14.7089Z" fill="#101010"/>
                            </g>
                            <g opacity="0.35">
                            <path d="M62.0405 14.7079C61.7726 14.7074 61.5094 14.6383 61.2757 14.5073C61.042 14.3764 60.8457 14.1878 60.7054 13.9597C60.5651 13.7315 60.4855 13.4712 60.4741 13.2036C60.4627 12.936 60.5199 12.6699 60.6402 12.4306L64.1111 5.5439C64.3018 5.17786 64.629 4.90163 65.0218 4.77497C65.4146 4.64832 65.8415 4.68143 66.2101 4.86715C66.5787 5.05286 66.8593 5.37625 66.9913 5.76732C67.1233 6.15839 67.096 6.5857 66.9153 6.95678L63.4444 13.8435C63.3135 14.1035 63.1128 14.322 62.8649 14.4746C62.617 14.6273 62.3316 14.7081 62.0405 14.7079Z" fill="#101010"/>
                            </g>
                            <path d="M12.5691 14.7077C12.28 14.7076 11.9965 14.6278 11.7499 14.4769C11.5032 14.326 11.3031 14.1099 11.1714 13.8525L7.64554 6.9662C7.55147 6.78269 7.49448 6.58244 7.4778 6.3769C7.46112 6.17135 7.48509 5.96454 7.54835 5.76826C7.67609 5.37185 7.95607 5.04243 8.3267 4.85246C8.69732 4.66248 9.12824 4.62752 9.52464 4.75526C9.72092 4.81851 9.90282 4.91981 10.06 5.05336C10.2171 5.18691 10.3464 5.3501 10.4404 5.53362L12.5598 9.66891L14.6397 5.54179C14.8273 5.16964 15.1551 4.88725 15.5509 4.75675C15.9467 4.62626 16.3781 4.65834 16.7503 4.84595C17.1224 5.03356 17.4048 5.36132 17.5353 5.75713C17.6658 6.15294 17.6337 6.58438 17.4461 6.95654L13.9753 13.8432C13.8448 14.1022 13.6452 14.3199 13.3986 14.4723C13.1519 14.6247 12.8679 14.7058 12.578 14.7066L12.5691 14.7077Z" fill="#101010"/>
                            <path d="M5.57438 14.7069C5.28508 14.7071 5.00136 14.6273 4.75453 14.4764C4.5077 14.3255 4.30736 14.1093 4.17562 13.8517L0.649362 6.96654C0.459438 6.59591 0.424524 6.16501 0.552301 5.76864C0.680078 5.37227 0.960079 5.0429 1.33071 4.85297C1.70133 4.66305 2.13223 4.62814 2.5286 4.75591C2.92497 4.88369 3.25435 5.16369 3.44427 5.53432L6.97016 12.421C7.09245 12.6603 7.15132 12.927 7.14113 13.1956C7.13095 13.4641 7.05206 13.7256 6.91199 13.9549C6.77193 14.1843 6.57538 14.3739 6.34113 14.5056C6.10687 14.6373 5.84275 14.7068 5.57401 14.7073L5.57438 14.7069Z" fill="#101010"/>
                            <path d="M55.0444 14.7081C54.7765 14.7075 54.5133 14.6384 54.2796 14.5074C54.0459 14.3765 53.8496 14.188 53.7093 13.9598C53.569 13.7316 53.4894 13.4713 53.478 13.2037C53.4666 12.9361 53.5238 12.67 53.6442 12.4307L57.1139 5.54401C57.2443 5.28506 57.4439 5.0673 57.6905 4.9149C57.9372 4.76251 58.2212 4.68143 58.5112 4.68066H58.516C58.8051 4.6807 59.0885 4.76057 59.3351 4.91147C59.5816 5.06237 59.7817 5.27843 59.9133 5.53583L63.4392 12.4225C63.6291 12.7932 63.664 13.224 63.5362 13.6204C63.4084 14.0168 63.1284 14.3462 62.7578 14.5361C62.3872 14.726 61.9563 14.7609 61.5599 14.6332C61.1636 14.5054 60.8342 14.2254 60.6442 13.8547L58.5268 9.71871L56.4491 13.8458C56.3178 14.1055 56.1169 14.3237 55.8689 14.4759C55.6208 14.6281 55.3354 14.7085 55.0444 14.7081Z" fill="#101010"/>
                            <path d="M69.0408 14.7069C68.7515 14.7071 68.4678 14.6273 68.2209 14.4764C67.9741 14.3255 67.7738 14.1093 67.6421 13.8518L64.1162 6.96507C64.0221 6.78156 63.9651 6.58132 63.9485 6.37578C63.9318 6.17025 63.9558 5.96344 64.0191 5.76718C64.0823 5.57092 64.1837 5.38904 64.3172 5.23193C64.4508 5.07482 64.614 4.94555 64.7975 4.85151C64.981 4.75747 65.1812 4.70049 65.3868 4.68384C65.5923 4.66719 65.7991 4.69118 65.9954 4.75445C66.1917 4.81772 66.3735 4.91902 66.5307 5.05258C66.6878 5.18614 66.817 5.34934 66.911 5.53286L70.437 12.4195C70.5592 12.6589 70.6181 12.9255 70.6079 13.1941C70.5977 13.4626 70.5188 13.7241 70.3788 13.9535C70.2387 14.1828 70.0422 14.3724 69.8079 14.5041C69.5737 14.6359 69.3095 14.7053 69.0408 14.7058V14.7069Z" fill="#101010"/>
                            <path d="M40.1494 11.9656L36.9737 9.48303L40.114 7.37634C40.4418 7.15664 40.6688 6.81574 40.7452 6.42865C40.8216 6.04155 40.7411 5.63996 40.5214 5.31223C40.3016 4.9845 39.9607 4.75747 39.5736 4.68108C39.1865 4.60469 38.785 4.68521 38.4572 4.90491L34.0933 7.8307V2.03638C34.0933 1.6236 33.9293 1.22772 33.6374 0.935841C33.3455 0.643958 32.9497 0.47998 32.5369 0.47998C32.1241 0.47998 31.7282 0.643958 31.4363 0.935841C31.1445 1.22772 30.9805 1.6236 30.9805 2.03638V13.1101C30.9805 13.5228 31.1445 13.9187 31.4363 14.2106C31.7282 14.5025 32.1241 14.6665 32.5369 14.6665C32.9497 14.6665 33.3455 14.5025 33.6374 14.2106C33.9293 13.9187 34.0933 13.5228 34.0933 13.1101V11.0097L38.3171 14.308C38.4703 14.4337 38.6472 14.5276 38.8372 14.5839C39.0272 14.6403 39.2266 14.6582 39.4236 14.6364C39.6207 14.6146 39.8113 14.5537 39.9845 14.4572C40.1576 14.3607 40.3097 14.2305 40.4318 14.0744C40.5539 13.9182 40.6436 13.7392 40.6955 13.5479C40.7475 13.3567 40.7607 13.1569 40.7343 12.9604C40.708 12.764 40.6426 12.5748 40.5421 12.4039C40.4416 12.2331 40.3079 12.0841 40.149 11.9656H40.1494Z" fill="#101010"/>
                            <path d="M28.5992 9.66651C28.5926 8.57653 28.2288 7.51878 27.5634 6.6554C26.8981 5.79203 25.968 5.17066 24.9156 4.88657C23.8633 4.60247 22.7468 4.6713 21.7374 5.08253C20.7279 5.49376 19.8812 6.22467 19.3269 7.16325C18.7727 8.10182 18.5415 9.19626 18.6689 10.2788C18.7963 11.3613 19.2751 12.3722 20.0321 13.1565C20.789 13.9409 21.7823 14.4553 22.8596 14.621C23.9369 14.7867 25.0389 14.5945 25.9965 14.074C26.1719 14.3226 26.4219 14.509 26.7103 14.606C26.9987 14.7031 27.3105 14.7057 27.6005 14.6136C27.8905 14.5215 28.1437 14.3394 28.3232 14.0938C28.5028 13.8482 28.5995 13.5517 28.5992 13.2474V9.66651ZM23.617 11.8702C23.1865 11.8702 22.7658 11.7426 22.4079 11.5035C22.05 11.2644 21.7711 10.9245 21.6064 10.5268C21.4417 10.1292 21.3986 9.69161 21.4826 9.26947C21.5665 8.84732 21.7738 8.45956 22.0781 8.15521C22.3825 7.85086 22.7702 7.6436 23.1924 7.55963C23.6145 7.47566 24.0521 7.51875 24.4498 7.68347C24.8474 7.84818 25.1873 8.12711 25.4264 8.48498C25.6655 8.84286 25.7932 9.26361 25.7932 9.69403C25.7932 10.2712 25.5639 10.8247 25.1558 11.2328C24.7477 11.641 24.1941 11.8702 23.617 11.8702Z" fill="#101010"/>
                            <path d="M52.068 9.66651C52.0614 8.57653 51.6975 7.51878 51.0322 6.6554C50.3668 5.79203 49.4367 5.17066 48.3844 4.88657C47.3321 4.60247 46.2156 4.6713 45.2061 5.08253C44.1967 5.49376 43.3499 6.22467 42.7957 7.16325C42.2415 8.10182 42.0103 9.19626 42.1377 10.2788C42.265 11.3613 42.7439 12.3722 43.5008 13.1565C44.2578 13.9409 45.251 14.4553 46.3284 14.621C47.4057 14.7867 48.5077 14.5945 49.4653 14.074C49.6408 14.3224 49.8908 14.5085 50.1791 14.6054C50.4674 14.7023 50.7791 14.7049 51.069 14.6128C51.3589 14.5207 51.612 14.3388 51.7916 14.0933C51.9712 13.8479 52.068 13.5516 52.068 13.2474V9.66651ZM47.0857 11.8702C46.6553 11.8702 46.2345 11.7426 45.8767 11.5035C45.5188 11.2644 45.2399 10.9245 45.0752 10.5268C44.9104 10.1292 44.8673 9.69161 44.9513 9.26947C45.0353 8.84732 45.2426 8.45956 45.5469 8.15521C45.8513 7.85086 46.239 7.6436 46.6612 7.55963C47.0833 7.47566 47.5209 7.51875 47.9185 7.68347C48.3162 7.84818 48.656 8.12711 48.8952 8.48498C49.1343 8.84286 49.2619 9.26361 49.2619 9.69403C49.2619 10.2712 49.0326 10.8247 48.6245 11.2328C48.2164 11.641 47.6629 11.8702 47.0857 11.8702Z" fill="#101010"/>
                            </svg>