<svg width="34" height="35" viewBox="0 0 34 35" fill="none" xmlns="http://www.w3.org/2000/svg">
<path d="M4.13578 8.68482C2.83578 9.18982 2.05078 9.79148 2.05078 11.1915L23.6358 11.1665V3.72482C23.6358 2.54982 22.4691 1.74982 21.3858 2.16648L4.13578 8.68482Z" fill="#101010" stroke="#101010" stroke-width="2.53282" stroke-linecap="round" stroke-linejoin="round"/>
<path d="M28.651 11.1915H2.04938L1.98438 29.6665C1.98438 31.4999 3.47604 32.9999 5.31771 32.9999H28.651C30.4844 32.9999 31.9844 31.4999 31.9844 29.6665V14.5249C31.9844 12.6749 30.4844 11.1915 28.651 11.1915Z" fill="white" stroke="white" stroke-width="2.53282" stroke-linecap="round" stroke-linejoin="round"/>
<path d="M23.6646 21.5414C23.3146 21.5414 23.0312 21.8081 23.0312 22.1581C23.0312 22.4914 23.2979 22.7831 23.6563 22.7748C23.9896 22.7748 24.2812 22.4914 24.2812 22.1498C24.2812 21.7998 23.9979 21.5248 23.6479 21.5248" stroke="#323232" stroke-width="2.53282" stroke-linecap="round" stroke-linejoin="round"/>
</svg>
