<svg width="24" height="25" viewBox="0 0 24 25" fill="none" xmlns="http://www.w3.org/2000/svg">
<circle cx="12" cy="12.8201" r="12" fill="#FBFBFB"/>
<g clip-path="url(#clip0_1674_24050)">
<path d="M14.8763 13.7155C14.8529 13.7043 13.978 13.2735 13.8226 13.2176C13.7591 13.1948 13.6911 13.1725 13.6188 13.1725C13.5007 13.1725 13.4015 13.2314 13.3242 13.347C13.2368 13.4769 12.9722 13.7862 12.8905 13.8785C12.8798 13.8907 12.8652 13.9053 12.8565 13.9053C12.8487 13.9053 12.7133 13.8496 12.6723 13.8318C11.7339 13.4241 11.0215 12.4438 10.9239 12.2785C10.9099 12.2547 10.9093 12.2439 10.9092 12.2439C10.9126 12.2314 10.9442 12.1997 10.9605 12.1834C11.0081 12.1362 11.0597 12.0741 11.1097 12.014C11.1333 11.9855 11.157 11.957 11.1803 11.9301C11.2528 11.8458 11.285 11.7803 11.3224 11.7045L11.342 11.6651C11.4333 11.4837 11.3553 11.3306 11.3301 11.2811C11.3095 11.2398 10.9401 10.3482 10.9008 10.2546C10.8063 10.0286 10.6816 9.92334 10.5081 9.92334C10.492 9.92334 10.5081 9.92334 10.4407 9.92618C10.3585 9.92965 9.91102 9.98856 9.71318 10.1133C9.50337 10.2455 9.14844 10.6672 9.14844 11.4087C9.14844 12.0761 9.57194 12.7062 9.75378 12.9458C9.75829 12.9519 9.76659 12.9641 9.77863 12.9817C10.475 13.9987 11.3431 14.7524 12.2231 15.1039C13.0703 15.4423 13.4715 15.4814 13.6996 15.4814C13.6996 15.4814 13.6996 15.4814 13.6996 15.4814C13.7954 15.4814 13.8722 15.4739 13.9398 15.4673L13.9828 15.4632C14.2754 15.4372 14.9186 15.104 15.0649 14.6974C15.1802 14.3772 15.2105 14.0273 15.1339 13.9003C15.0813 13.814 14.9908 13.7705 14.8763 13.7155Z" fill="#101010"/>
<path d="M12.1065 6.82031C8.85654 6.82031 6.21248 9.44449 6.21248 12.67C6.21248 13.7133 6.49168 14.7345 7.02058 15.6283L6.00825 18.6144C5.98939 18.6701 6.00342 18.7317 6.0446 18.7736C6.07433 18.8039 6.11465 18.8203 6.15584 18.8203C6.17161 18.8203 6.18751 18.8179 6.20302 18.813L9.31678 17.8235C10.1689 18.2788 11.1319 18.5191 12.1065 18.5191C15.3562 18.5191 18 15.8952 18 12.67C18 9.44449 15.3562 6.82031 12.1065 6.82031ZM12.1065 17.3006C11.1894 17.3006 10.3011 17.0358 9.53757 16.5347C9.5119 16.5179 9.48209 16.5092 9.45209 16.5092C9.43624 16.5092 9.42034 16.5116 9.40487 16.5165L7.84507 17.0124L8.3486 15.5268C8.36489 15.4787 8.35674 15.4257 8.32674 15.3847C7.74529 14.5902 7.43793 13.6515 7.43793 12.67C7.43793 10.1164 9.53224 8.03886 12.1065 8.03886C14.6804 8.03886 16.7745 10.1164 16.7745 12.67C16.7745 15.2234 14.6805 17.3006 12.1065 17.3006Z" fill="#101010"/>
</g>
<defs>
<clipPath id="clip0_1674_24050">
<rect width="12" height="12" fill="white" transform="translate(6 6.82007)"/>
</clipPath>
</defs>
</svg>
