<svg width="64" height="64" viewBox="0 0 64 64" fill="none" xmlns="http://www.w3.org/2000/svg">
<rect width="64" height="64" rx="32" fill="#7A1CCA"/>
<g clip-path="url(#clip0_1363_19242)">
<path d="M20.5995 29.4968C19.8661 29.3468 19.0661 29.3634 18.2661 29.6468C16.8878 30.0968 15.7828 31.2801 15.4495 32.6968C14.7328 35.5968 16.9278 38.1801 19.7145 38.1801C20.0145 38.1801 20.2978 38.1468 20.5811 38.0801V43.4468C20.5795 45.3801 22.1478 46.9634 24.0978 46.9634H43.4478C45.3811 46.9634 46.9645 45.3801 46.9645 43.4301V24.0501C46.9645 22.1001 45.3811 20.5168 43.4311 20.5168H38.0645C38.1978 19.7834 38.1811 18.9834 37.8978 18.1834C37.4311 16.8001 36.2478 15.7001 34.8311 15.3668C31.9145 14.6501 29.3311 16.8451 29.3311 19.6318C29.3311 19.9318 29.3478 20.2151 29.4145 20.4984H24.0328C22.0828 20.4984 20.4995 22.0651 20.4995 24.0151V29.3818L20.5995 29.4968Z" fill="#101010" stroke="#101010" stroke-width="2.5" stroke-linecap="round" stroke-linejoin="round"/>
<path d="M37.835 30.4884L33.135 35.1717L30.3184 32.3551" stroke="white" stroke-width="2.5" stroke-linecap="round" stroke-linejoin="round"/>
</g>
<defs>
<clipPath id="clip0_1363_19242">
<rect width="40" height="40" fill="white" transform="translate(12 12)"/>
</clipPath>
</defs>
</svg>
